<svg xmlns="http://www.w3.org/2000/svg" viewBox="0 0 24 24">
<g transform="scale(0.011719,0.011719)"><path d="M 999.121 336.896 C 1003.94 336.889 1005.04 336.574 1009.04 340.052 C 1020.56 350.078 1031.61 360.653 1042.91 370.951 L 1114.24 436.3 L 1171.62 489.373 C 1214.53 529.33 1210.54 518.691 1208.83 577.301 L 1206.83 649.236 C 1205.56 695.398 1203.95 741.551 1202 787.689 C 1201.15 809.454 1201.31 832.412 1199.44 853.858 C 1209.78 826.617 1213.41 812.673 1241.15 796.205 C 1269.22 779.542 1325.21 742.652 1357.97 749.132 C 1376.93 752.88 1393.26 787.934 1403.38 804.906 C 1410.64 817.065 1436.83 861.107 1439.25 872.779 C 1440.66 879.594 1426.26 925.947 1423.14 937.154 L 1391.58 1049.34 C 1367.7 1132.03 1346.26 1215.75 1321.1 1298.13 C 1313.18 1324.03 1305.44 1349.34 1298.47 1375.56 C 1304.16 1364.49 1328.33 1308.67 1337.76 1306.66 L 1338.83 1307.89 C 1339.41 1314.13 1314.42 1395.91 1310.39 1408.02 C 1319.96 1393.94 1331.77 1372.8 1340.68 1357.94 L 1386.19 1283.28 C 1394.23 1270.08 1405.96 1249.77 1414.81 1237.99 C 1424.15 1225.56 1464.96 1220.72 1479.89 1219.71 C 1500.27 1218.34 1523.7 1218.21 1540.15 1232.34 C 1548.75 1255.21 1548.11 1307.58 1540.21 1331.77 C 1530.56 1346.95 1512.27 1362.77 1501.28 1376.69 C 1461.71 1426.76 1422.68 1476.53 1382.54 1526.09 C 1373.05 1537.8 1362.24 1550.34 1353.79 1562.67 C 1359.87 1566.77 1363.21 1569.23 1368.77 1573.98 C 1387.82 1565.85 1396.71 1562.29 1417.57 1560.44 C 1452.7 1557.31 1472.18 1586.16 1496.6 1608.2 C 1518.86 1607.35 1543.2 1604.94 1558.29 1624.61 C 1561.91 1629.32 1567.98 1634.54 1565.57 1640.72 C 1555.87 1645.04 1549.51 1629.37 1542.24 1624.13 C 1530.2 1615.46 1506.57 1619.89 1493.04 1620.93 C 1472.84 1606.52 1459.73 1577.89 1430.86 1588.53 C 1425.65 1590.45 1417.53 1591.34 1414.62 1596.6 C 1412.71 1615.79 1459.23 1619.39 1449.89 1637.21 C 1445 1638.81 1436.86 1631.78 1430.92 1629.18 C 1417.65 1623.38 1403.88 1619.65 1391.66 1611.98 C 1374.24 1601.03 1357.89 1575.82 1339.3 1568.32 C 1330.03 1564.59 1308.63 1563.06 1299.09 1567.54 C 1288.69 1580.08 1327.53 1608.37 1336.19 1615.14 C 1341.17 1619.03 1352.7 1625.44 1351.72 1632.06 C 1349.47 1634.36 1349.03 1634.62 1347.41 1637.47 C 1348.24 1643.95 1364.78 1653.49 1370.99 1655.01 C 1384.94 1658.44 1441.65 1662.83 1439.75 1682.03 C 1438.53 1683.37 1438.04 1684.48 1436.45 1684.63 C 1429.76 1685.28 1418.49 1677.3 1411.16 1674.86 C 1394.94 1669.45 1376.26 1668.96 1360.76 1663.93 C 1353.76 1661.66 1339.51 1647.84 1332.78 1642.99 C 1307.82 1624.98 1286.71 1619.18 1257.01 1629.2 C 1247.85 1632.29 1235.48 1637.31 1226.1 1638.65 C 1223.25 1635.15 1223.87 1637.04 1223.48 1633.08 C 1230.41 1618.66 1280.69 1621.65 1262.6 1592.34 C 1244.3 1562.69 1205.9 1580.28 1186.43 1598.37 C 1180.72 1603.67 1175.9 1613.37 1167.39 1611.1 C 1160.1 1602.87 1183.39 1584.04 1189.17 1578.53 C 1182.57 1566.22 1158.63 1526.14 1139.84 1541.19 C 1125.23 1552.89 1137.16 1583.95 1126.27 1590.06 C 1114.83 1584 1117.4 1530 1099.7 1530.23 C 1086.31 1530.4 1054.22 1559.06 1042.57 1568.44 C 1036.97 1572.95 1038.97 1579.87 1044.17 1584.22 C 1065.88 1602.39 1107.84 1613.16 1110.22 1645.9 L 1110.31 1647.29 C 1133.09 1660.4 1154.33 1676.03 1173.62 1693.9 C 1186.66 1686.99 1221.97 1666.91 1235.54 1667.44 C 1250.08 1668.02 1308.98 1690.11 1308.75 1707.81 C 1306.63 1709.07 1302.56 1710.23 1300.54 1708.82 C 1278.35 1693.32 1260.93 1684.14 1233.67 1678.06 C 1220.96 1682.4 1209.53 1688.85 1197.54 1694.14 C 1188.52 1698.13 1175.6 1710.18 1167.42 1703.6 C 1161.85 1699.11 1156.56 1693.36 1150.76 1689.2 C 1133.3 1676.66 1114.07 1659.53 1092.27 1656.19 C 1076.28 1654.91 1047.19 1663.79 1031.74 1668.91 C 1024.51 1671.3 1019.74 1676.81 1011.73 1676.82 C 1008.92 1675.14 1010.01 1676.25 1008.42 1673.3 C 1009.94 1659.13 1051.96 1649.8 1051.39 1632.86 C 1050.89 1618.17 982.809 1599.46 973.187 1603.07 C 952.709 1610.76 920.05 1641.31 906.628 1658.37 C 908.604 1661.59 910.776 1664.79 912.857 1667.95 C 922.156 1665.31 927.806 1661.97 938.527 1659.53 C 949.19 1678.6 947.755 1679.63 963.814 1696.67 C 968.184 1701.46 971.805 1704.3 970.463 1711.3 C 960.082 1718.81 935.821 1682.57 930.754 1675.24 C 914.7 1680.49 866.932 1707.8 853.58 1700.57 C 852 1697.54 852.296 1699.14 852.905 1695.58 C 854.96 1693.23 899.172 1676.4 905.444 1674.1 C 877.267 1645.15 832.38 1599.35 789.932 1626.41 C 753.613 1649.56 720.698 1673.69 680.589 1690.87 C 673.435 1693.93 663.717 1706.94 656.454 1703.92 C 654.274 1699.99 655.206 1696.7 658.474 1693.67 C 678.01 1675.55 704.906 1666.46 728.03 1653.36 C 748.482 1642.42 765.052 1626.69 785.362 1615.4 C 827.488 1591.97 866.691 1621.57 897.807 1648.05 C 914.205 1631.82 935.739 1610.24 955.073 1597.97 C 962.866 1593.03 979.359 1586.97 983.478 1578.56 C 984.708 1576.05 984.945 1573.69 984.113 1571.03 C 978.871 1554.24 916.641 1526.62 899.611 1518.54 C 870.313 1536.05 846.545 1558.17 823.153 1582.61 C 816.738 1584.36 803.205 1585.78 795.82 1587.12 C 775.898 1590.88 756 1594.76 736.127 1598.76 C 703.807 1605.37 675.029 1614.67 643.591 1624.11 C 632.583 1627.42 599.961 1637.45 590.386 1633.66 C 587.451 1630.44 588.056 1632.21 587.729 1628.5 C 589.147 1626.31 591.35 1624.08 594.094 1623.81 C 630.778 1620.21 665.661 1605.39 700.609 1594.32 C 712.683 1590.28 723.302 1587.12 734.899 1581.81 C 756.076 1572.13 758.15 1551.91 733.341 1545.98 C 711.887 1540.84 684.739 1556.97 666.701 1568.53 C 663.576 1574.5 662.215 1584.88 656.99 1588.44 C 648.227 1583.65 635.836 1577.09 625.927 1573.84 C 590.225 1564.79 547.156 1590.72 516.735 1607.22 C 506.928 1612.54 492.365 1631.16 483.291 1627.64 C 479.619 1610.16 546.214 1579.82 559.493 1572.57 C 576.261 1563.41 592.589 1548.86 611.308 1544.07 C 633.083 1538.49 656.109 1543.95 677.919 1541.68 C 685.089 1540.86 701.844 1532.32 709.298 1528.92 C 668.057 1490.42 626.415 1452.36 584.378 1414.74 C 571.548 1403.1 530.773 1371.51 525.761 1357.8 C 517.935 1336.39 513.469 1299.97 512.66 1276.72 C 512.267 1265.42 518.588 1259.74 529.542 1259.39 C 557.327 1260.84 602.516 1238.89 627.608 1254.72 C 636.881 1260.57 670 1281.98 676.963 1289.03 C 718.808 1331.4 759.752 1377.25 797.907 1422.99 L 631.244 1042.5 C 615.399 1006.17 599.911 969.69 584.781 933.058 C 577.93 916.313 570.911 899.285 564.869 882.259 C 560.18 869.046 570.767 849.277 575.754 836.365 L 596.607 782.21 C 604.021 762.899 610.796 743.312 618.565 724.184 C 621.724 716.27 631.202 711.372 639.552 713.92 C 671.737 723.743 704.521 735.054 736.65 745.123 C 756.439 751.324 769.991 759.48 779.099 778.559 C 791.452 803.488 800.12 829.919 809.503 856.058 C 840.76 943.126 862.228 1033.31 893.13 1120.37 C 895.102 1125.93 897.077 1131.31 899.761 1136.56 C 896.838 1119.52 895.409 1099.93 892.765 1082.36 C 879.628 995.055 871.131 906.792 860.588 819.132 C 854.583 771.068 848.924 722.962 843.611 674.817 C 842.048 659.75 841.22 644.563 839.704 629.48 C 839.14 623.879 838.427 617.932 838.078 612.336 C 838.654 594.45 827.604 542.157 832.213 527.1 C 838.38 506.951 892.766 454.954 907.707 436.392 C 928.782 410.209 948.658 390.855 970.319 366.413 C 978.753 356.897 990.346 343.838 999.121 336.896 z" fill="currentColor" />
<path d="M 1032.76 594.798 C 1039.3 595.42 1085.33 609.908 1092.74 612.984 L 1073.52 1160.81 L 1067.29 1320.94 C 1064.38 1392.44 1060.62 1467.85 1049.12 1538.47 C 1034.15 1543.68 1020.84 1541.95 1006.78 1535.29 C 1004.38 1526.14 1003.16 1513.73 1001.92 1504.13 C 1000.9 1491.04 998.202 1474.27 996.593 1460.91 C 993.942 1437.72 991.412 1414.52 989.002 1391.3 C 977.319 1288.21 964.713 1185.23 951.186 1082.37 C 946.694 1048.08 941.248 1013.43 937.141 979.186 C 932.124 933.66 927.465 888.095 923.164 842.496 L 911.662 736.051 C 909.355 715.932 905.233 688.237 904.827 668.844 C 948.235 645.507 990.901 620.812 1032.76 594.798 z" fill="currentColor" />
<path d="M 1226.59 822.821 C 1227.75 824.319 1236.07 840.29 1238.16 843.858 C 1245.09 855.69 1251.94 866.114 1259.59 877.508 C 1249.21 923.012 1237.2 966.148 1225.51 1011.24 L 1182.19 1180.73 C 1172.98 1216.12 1163.11 1251.34 1155.11 1287.02 C 1153.63 1293.63 1148.01 1306.46 1152.2 1311.74 C 1156.25 1312.95 1154.27 1312.9 1158.38 1311.92 C 1163.16 1305.43 1173.13 1260.87 1175.87 1250.15 L 1204.18 1139.21 L 1270.66 881.4 C 1293.05 871.907 1320.21 858.36 1342.06 847.318 C 1351.56 862.92 1362.22 881.826 1369.5 898.477 C 1367.79 911.861 1357.16 950.044 1353.55 964.874 L 1318.88 1107.4 C 1314.98 1125.72 1308.55 1147.45 1303.99 1165.91 L 1270.68 1302.79 L 1233.04 1460.03 C 1225.32 1491.74 1217.32 1526.93 1207.98 1558.11 C 1180.63 1541.33 1153.79 1503.37 1121.31 1495.7 C 1106.14 1492.12 1086.86 1510.87 1073.52 1520.3 C 1076.6 1496.73 1081.67 1472.4 1085.72 1448.86 C 1101.63 1356.35 1122.56 1264.65 1141.31 1172.68 C 1156.07 1100.29 1170.2 1026.68 1187.64 954.982 C 1196.99 916.519 1207.51 856.019 1226.59 822.821 z" fill="currentColor" />
<path d="M 1139.9 1343.82 C 1144.65 1343.85 1145.71 1343.41 1148.55 1347.35 C 1149.29 1352.34 1125.78 1457.97 1122.89 1468.1 C 1118.38 1467.89 1116.49 1467.97 1113.28 1465.44 C 1112.49 1458.18 1136.35 1351.53 1139.9 1343.82 z" fill="currentColor" />
<path d="M 1195.08 528.891 L 1196.36 530.132 C 1199.55 540.433 1195.38 626.476 1194.93 643.124 L 1190.07 817.732 C 1189.3 845.533 1189.08 877.068 1186.9 904.572 C 1186.37 911.365 1178.88 940.46 1177.04 948.767 C 1168.94 985.307 1158.91 1021.82 1150.44 1058.34 L 1111.96 1226.13 C 1106.31 1250.87 1100.12 1274.58 1094.79 1299.52 C 1087.64 1332.95 1084 1365.55 1077.92 1398.79 L 1077.11 1399.56 C 1075.8 1396.02 1082.32 1240.53 1082.87 1221.23 L 1096.17 850.96 C 1097.57 796.354 1099.3 741.758 1101.35 687.173 C 1102.11 666.421 1102.02 630.864 1104.38 611.355 L 1162.02 558.571 C 1170.78 550.495 1186.01 535.579 1195.08 528.891 z" fill="currentColor" />
<path d="M 574.331 877.939 C 579.876 879.691 597.893 891.262 603.564 894.86 C 636.151 915.534 666.363 937.619 699.148 958.157 C 751.184 1101.63 801.542 1245.7 850.213 1390.34 L 878.217 1470.8 C 881.499 1480.16 891.679 1499.17 885.569 1506.49 C 874.401 1508.97 869.866 1490.74 867.35 1482.89 C 857.048 1450.73 842.983 1419.65 829.5 1388.75 C 825.725 1379.87 815.489 1357.59 809.01 1349.86 C 807.957 1348.61 807.519 1349.04 805.656 1349.13 L 804.332 1351.12 C 803.279 1364.63 845.796 1464.97 852.829 1485.72 C 826.858 1450.37 810.447 1415.27 791.546 1376.3 C 764.309 1320.19 738.802 1263.26 715.062 1205.58 C 690.273 1146.85 663.755 1087.88 638.427 1029.31 C 616.918 979.579 596.679 926.985 574.331 877.939 z" fill="currentColor" />
<path d="M 780.501 909.845 C 783.29 913.259 819.34 1043.75 823.165 1057.16 L 888.482 1287.28 C 907.342 1353.2 927.707 1418.41 942.877 1485.42 C 944.306 1491.73 945.111 1497.39 945.394 1503.83 C 924.157 1495.74 922.461 1495.04 899.749 1496.32 C 898.813 1492.12 897.284 1487.89 895.931 1483.79 C 867.196 1391.32 834 1301.87 801.242 1210.98 C 770.915 1126.83 742.963 1040.09 709.176 957.143 C 734.126 944.898 757.055 925.288 780.501 909.845 z" fill="currentColor" />
<path d="M 845.012 565.737 C 850.005 569.79 891.093 657.285 892.264 666.669 C 895.124 689.609 900.63 740.672 903.135 765.105 L 924.271 962.158 C 934.003 1047.23 946.882 1135.03 957.738 1220.17 C 970.532 1322.86 982.298 1425.67 993.035 1528.59 C 985.292 1525.78 967.485 1516.37 960.645 1511.84 C 956.649 1494.85 953.288 1458.8 950.594 1439.83 C 941.338 1372.93 932.675 1305.96 924.607 1238.91 L 845.012 565.737 z" fill="currentColor" />
<path d="M 640.102 726.513 C 650.376 727.777 678.749 739.077 690.572 742.815 C 709.701 748.936 728.311 754.346 747.032 761.711 C 765.017 768.787 769.77 782.069 775.81 799.116 C 777.602 806.828 785.426 822.211 785.617 829.84 C 786.017 845.841 782.102 867.175 780.51 883.159 C 768.701 871.312 708.835 798.486 697.933 797.167 C 695.069 799.047 696.066 797.798 694.913 801.102 C 695.308 807.131 715.856 827.629 720.819 833.289 L 772.82 893.435 C 774.451 895.447 774.39 895.467 775.401 897.88 C 769.99 905.736 714.887 942.934 703.795 947.359 C 680.048 933.541 656.095 915.817 633.013 900.326 C 614.758 888.075 596.067 877.009 578.033 864.852 L 629.549 730.717 C 635.175 737.959 653.47 764.261 661.685 764.657 C 664.174 762.539 663.423 763.828 664.102 760.71 C 660.942 751.704 646.642 735.824 640.102 726.513 z" fill="currentColor" />
<path d="M 1015.98 361.936 C 1025.88 370.619 1035.31 380.443 1045.19 389.314 C 1093.11 432.15 1140.45 475.637 1187.2 519.764 L 1143.62 559.689 C 1129.78 571.241 1112.26 589.198 1099.06 602.067 C 1085.62 596.924 1052.24 588.238 1037.32 584.144 C 1030.91 531.393 1027.07 475.443 1022.22 422.404 C 1020.53 403.929 1016.57 379.147 1015.98 361.936 z" fill="currentColor" />
<path d="M 652.598 1330.9 C 655.552 1332.56 699.808 1383.41 705.698 1390.06 C 737.631 1426.13 771.285 1461.33 801.195 1499.17 C 806.008 1505.26 814.071 1515.87 816.921 1522.95 L 815.764 1524.86 C 801.118 1530.91 754.956 1488.22 745.894 1477.81 C 743.26 1474.78 739.193 1471.09 735.04 1471.15 L 733.86 1472.72 C 734.201 1484.5 752.773 1501.93 761.5 1511.14 C 767.307 1516.99 771.909 1521.56 777.057 1527.94 C 755.743 1525.44 743.504 1522.87 722.362 1526.87 C 708.992 1512.92 690.432 1496.8 676.032 1483.49 L 585.618 1400.38 C 573.09 1388.93 556.525 1375.59 545.377 1363.81 C 570.095 1357.51 633.226 1342.24 652.598 1330.9 z" fill="currentColor" />
<path d="M 1425.67 881.033 C 1427.42 887.688 1384.4 1033.58 1378.5 1054.05 L 1269.01 1430.94 C 1262.06 1454.95 1256.11 1480.43 1248.81 1504.24 C 1246.11 1513.03 1231.47 1536.06 1225.63 1544.12 C 1225.08 1533.57 1249.05 1445.44 1252.94 1429.11 C 1279.97 1312.24 1308.03 1195.61 1337.12 1079.23 L 1368.2 953.56 C 1372.09 937.584 1378.46 915.611 1381.34 900.174 C 1394.55 895.575 1412.29 886.899 1425.67 881.033 z" fill="currentColor" />
<path d="M 1419.41 1250.63 C 1423.87 1254.89 1447.75 1294.96 1453.91 1303.99 C 1449.18 1310.32 1444.3 1317.22 1439.88 1323.79 C 1394.3 1391.56 1345.79 1457.25 1298.49 1523.83 C 1291.56 1533.6 1284.22 1544.77 1276.35 1553.67 C 1269.99 1555 1263.55 1556.73 1257.24 1558.34 C 1246.7 1561.2 1238.61 1562.76 1227.93 1564.72 C 1238.17 1551.14 1247.66 1535.03 1256.58 1520.48 C 1270.48 1498.02 1284.05 1475.37 1297.3 1452.52 L 1370.78 1329.38 C 1386.46 1303.39 1402.64 1275.9 1419.41 1250.63 z" fill="currentColor" />
<path d="M 1466.09 1307.49 C 1469.59 1308.76 1486.1 1319.94 1490.79 1322.71 C 1500.91 1328.69 1508.94 1332.56 1519.5 1337.55 C 1471.13 1393.52 1427.65 1453.97 1379.86 1510.41 C 1367.3 1525.24 1355.97 1539.89 1344.46 1555.53 C 1340.49 1556.9 1325.96 1552.04 1319.77 1551.84 C 1309.42 1551.5 1302.55 1552.78 1292.38 1554.53 C 1295.7 1548.45 1300 1542.48 1304.01 1536.8 C 1339.3 1486.87 1374.68 1436.98 1410.15 1387.17 C 1428.9 1360.84 1446.86 1333.43 1466.09 1307.49 z" fill="currentColor" />
<path d="M 1003.49 366.762 C 1006.54 371.645 1023.3 563.667 1025.33 585.965 C 1017.63 591.971 1000.23 601.933 991.493 607.052 C 968.029 620.552 944.481 633.905 920.849 647.109 C 915.748 650.098 911.579 652.161 906.282 654.738 C 912.437 633.999 920.801 610.715 927.763 590.065 L 971.031 462.98 C 982.135 430.797 993.544 399.421 1003.49 366.762 z" fill="currentColor" />
<path d="M 991.685 359.873 L 992.279 360.519 C 992.68 365.382 907.038 618.264 896.678 644.714 L 879.465 608.248 C 869.494 585.358 850.935 550.254 843.186 528.95 L 843.828 527.9 C 851.176 515.652 872.383 492.881 882.456 481.527 L 957.797 396.975 C 968.301 385.271 982.229 371.701 991.685 359.873 z" fill="currentColor" />
<path d="M 794.302 851.739 C 797.428 854.5 805.612 880.12 807.615 886.115 C 815.562 909.954 823.12 933.922 830.286 958.008 C 863.569 1068.42 895.833 1180.87 915.282 1294.73 C 916.005 1298.96 917.744 1306.9 916.515 1310.78 L 914.723 1311.41 C 879.226 1205.24 846.494 1098.17 816.56 990.295 C 811.612 972.497 806.472 954.754 801.142 937.067 C 799.294 931.106 790.971 906.279 790.757 902.208 C 790.059 888.903 793.098 865.672 794.302 851.739 z" fill="currentColor" />
<path d="M 1342.08 760.226 C 1345.41 760.086 1348.65 759.426 1351.25 761.14 C 1351.13 767.255 1348.78 780.164 1347.78 786.647 C 1345.37 802.641 1342.82 818.616 1340.13 834.567 C 1328.18 842.762 1283.08 863.501 1268.3 870.494 C 1265.37 866.256 1262.22 860.872 1259.46 856.408 C 1252.07 842.56 1242.96 829.31 1235.41 814.689 C 1262.23 796.066 1310.96 766.331 1342.08 760.226 z" fill="currentColor" />
<path d="M 658.27 1287.47 C 688.749 1309.32 811.283 1453.93 823.451 1486.77 C 799.101 1475.28 688.177 1352.88 663.292 1326.81 C 661.839 1312.39 656.144 1301.93 658.27 1287.47 z" fill="currentColor" />
<path d="M 1363.08 762.866 C 1372.87 772.559 1418.5 853.393 1425.56 868.218 C 1418.53 871.347 1411.54 874.55 1404.58 877.827 C 1395.24 882.359 1388.89 885.289 1379.02 888.925 C 1370.32 872.503 1360.32 855.514 1351.13 839.266 C 1355.93 814.721 1358.08 788.581 1363.08 762.866 z" fill="currentColor" />
<path d="M 599.214 1259.37 C 616.395 1257.22 633.463 1272.34 647.651 1282.11 C 647.943 1295.72 648.923 1307.75 652.815 1320.76 C 645.922 1324.07 642.471 1325.42 635.195 1327.81 C 625.285 1322.32 615.417 1316.76 605.593 1311.11 C 582.619 1297.22 556.315 1285.22 532.465 1271.43 C 554.151 1267.81 577.872 1262.06 599.214 1259.37 z" fill="currentColor" />
<path d="M 523.842 1280.55 C 532.47 1283.33 550.93 1293.93 560.024 1298.86 C 580.577 1310.26 601.343 1321.27 622.311 1331.89 L 604.634 1336.69 C 586.999 1342.24 556.114 1350.08 538.039 1352.84 C 530.616 1335.9 523.832 1299.28 523.842 1280.55 z" fill="currentColor" />
<path d="M 1477.66 1231.41 C 1485.77 1230.5 1518.84 1229.64 1524.05 1236.8 C 1522.58 1242.4 1477.15 1282.14 1470.08 1288.41 L 1461.99 1296.43 C 1450.8 1277.45 1438.76 1259.87 1427.85 1241.46 C 1444.11 1235.32 1460.52 1233.15 1477.66 1231.41 z" fill="currentColor" />
<path d="M 1531.58 1246.85 C 1537.13 1252.39 1535.75 1320.54 1529.05 1327.61 C 1521.33 1326.97 1504.96 1316.99 1497.51 1312.9 C 1490.38 1309.06 1482.74 1304.09 1475.79 1299.78 C 1486.89 1288.19 1519.65 1256.86 1531.58 1246.85 z" fill="currentColor" />
<metadata><recraft-signature>{"signed_by": "recraft", "signature_b64": "C3H9FZR4BdbF21l2W4touo+NPg3/ZvB5b5W29L/hfdERdwsqJQGvtMqkiEO0F/SXjtJtyo5tiXPlGdJ4e4WcBQ==", "signing_algo": "Ed25519", "generation_timestamp": 1772065299, "identifier": "9cf8a08d-d96f-4aab-b182-d430f367f977"}</recraft-signature></metadata></g></svg>