<svg xmlns="http://www.w3.org/2000/svg" viewBox="0 0 24 24">
<g transform="scale(0.011719,0.011719)"><path d="M 1759.1 221.397 C 1783.04 218.349 1815.83 227.584 1835.55 241.295 C 1892.45 280.869 1922.33 353.448 1934.94 419.175 C 1953.78 517.407 1946.13 613.393 1856.04 673.339 C 1821.54 697.498 1782.1 712.534 1745.88 733.53 C 1736.43 739.009 1697.84 756.375 1701.88 770.296 C 1708.67 793.716 1724.5 818.562 1735.19 841.219 C 1780.49 937.246 1810.74 1039.49 1836.49 1142.24 C 1846.19 1180.82 1854.04 1220.4 1863.42 1259.3 C 1886.2 1264.23 1907.65 1271.45 1925.57 1286.92 C 1947.03 1305.45 1949.79 1329.56 1954.96 1355.75 L 1967.65 1421.7 L 1978.62 1477.69 C 1980.75 1488.62 1984.26 1504.41 1984.72 1515.3 C 1986.6 1559.14 1940.3 1587.06 1909.44 1609.39 C 1895.67 1619.53 1881.98 1629.77 1868.38 1640.12 L 1767.27 1715.75 C 1744.77 1732.6 1716.86 1754.87 1690.94 1769.06 C 1645.93 1793.7 1541.93 1794.34 1502.74 1756.51 C 1481.2 1735.73 1455.94 1682.94 1437.43 1657.17 C 1377.47 1573.68 1393.91 1553.53 1463.31 1487.39 L 1516.44 1436.3 C 1528.71 1424.62 1543.29 1411.69 1554.69 1399.45 C 1546.73 1373.15 1540.16 1345.22 1533.06 1318.5 C 1524.92 1288.13 1516.3 1257.89 1507.22 1227.79 C 1498.54 1198.51 1489.07 1161.17 1472.57 1136.45 C 1450.68 1103.66 1429.34 1115.6 1397.46 1117.08 C 1387.94 1117.52 1376.51 1117.97 1367.15 1115.95 C 1360.59 1114.53 1352.34 1110.67 1345.4 1109.94 C 1320.6 1110.57 1285.83 1115.85 1268.61 1092.4 C 1255.01 1073.86 1271.68 1047.1 1275.76 1025.27 C 1281.25 981.851 1272.43 952.229 1249.63 916.417 C 1217.45 925.131 1200.31 907.587 1187.3 880.87 L 1067.06 900.447 C 1022.81 907.528 1010.01 916.256 970.818 885.707 C 943.197 864.178 921.859 842.727 897.893 817.318 C 881.943 821.186 719.29 850.81 708.83 846.444 C 676.45 832.93 603.583 801.636 571.4 781.72 C 562.465 776.191 548.93 755.451 543.806 745.231 C 518.932 751.376 479.029 758.091 453.279 760.104 C 446.851 760.606 431.642 757.107 424.731 755.573 C 398.612 783.638 372.626 780.817 338.539 771.492 C 335.206 773.647 331.895 775.838 328.607 778.061 C 298.631 798.412 286.33 792.201 252.341 785.714 C 220.554 814.104 208.321 809.31 169.038 801.237 C 158.853 809.188 145.67 820.621 130.032 818.806 C 112.733 816.799 70.6628 806.16 56.427 794.262 C 54.7344 792.847 53.6062 784.126 54.5357 782.229 C 60.9208 769.204 94.966 749.385 105.244 740.691 C 120.755 727.57 141.669 734.821 160.836 738.5 C 164.568 736.71 176.802 728.965 180.869 726.371 C 202.469 712.594 219.048 717.901 242.874 722.072 C 248.747 719.782 263.419 711.594 269.884 708.18 C 289.422 697.862 310.552 705.327 332.926 707.552 C 337.203 705.926 344.998 701.289 348.804 698.761 C 375.442 681.063 390.902 686.754 419.956 694.251 C 430.455 688.251 440.98 679.873 452.203 675.024 C 475.357 665.022 503.806 663.894 528.08 657.111 L 529.393 656.738 C 534.01 615.853 568.398 587.529 597.439 562.042 C 617.128 544.763 637.409 526.014 658.026 509.71 C 664.538 504.56 704.642 499.909 714.374 497.013 C 751.114 489.115 792.521 483.605 828.862 474.351 C 831.556 469.036 845.703 448.378 850.122 442.723 C 866.735 421.464 899.245 358.859 925.529 350.562 C 948.335 343.362 985.185 338.465 1008.61 334.41 L 1175.71 306.729 L 1490.64 259.865 C 1579.95 245.864 1669.45 233.04 1759.1 221.397 z" fill="currentColor" />
<path d="M 1617.35 262.39 C 1631.25 260.581 1674.82 314.183 1687.84 322.863 C 1717.81 323.768 1751.94 318.782 1781.76 315.304 C 1795.14 313.745 1808.64 311.322 1822.09 310.758 C 1870.31 383.777 1914.71 554.731 1845.18 624.797 C 1871.34 555.997 1860.37 471.546 1836.49 403.745 C 1819.19 354.645 1822.28 351.639 1766.33 359.489 C 1749.51 361.849 1731.19 363.08 1714.3 366.333 C 1700.52 369.373 1696.12 376.16 1701.01 389.638 C 1731.41 473.36 1740.86 575.425 1726.08 663.48 C 1673.4 674.713 1620.52 684.996 1567.48 694.323 C 1508.98 703.717 1450.42 712.715 1391.8 721.316 C 1364.07 725.815 1336.3 730.087 1308.5 734.133 C 1300.84 735.265 1280.15 738.917 1273.56 738.674 C 1273.05 734.039 1277.04 714.986 1278.1 709.219 C 1283.35 665.728 1283.26 628.267 1277.09 584.573 C 1269.8 532.934 1243.43 449.565 1215.41 406.155 C 1196.44 377.38 1172.67 352.07 1145.14 331.324 L 1551.04 271.945 C 1562.59 280.844 1592.38 301.639 1586.92 318.344 C 1583.62 322.861 1571.36 324.844 1565.85 325.807 C 1534.75 331.237 1503.36 335.247 1472.26 340.563 L 1242.16 381.462 C 1249.71 382.352 1268.35 379.09 1276.5 377.995 L 1344.21 368.711 C 1397.9 361.463 1451.54 353.866 1505.13 345.922 C 1530.68 342.22 1556.54 338.891 1582.01 334.746 C 1586.15 333.982 1591.44 332.922 1594.38 329.561 C 1614.73 306.3 1582.24 283.839 1566.84 269.41 C 1583.46 266.878 1600.65 264.717 1617.35 262.39 z" fill="currentColor" />
<path d="M 1585.65 383.389 C 1601.71 380.326 1620.54 385.704 1630.77 398.848 C 1637.63 407.656 1642.42 419.518 1646.74 429.841 C 1666.81 477.849 1676.02 529.63 1669.15 581.503 C 1665.11 611.749 1654.71 665.565 1618.09 672.539 C 1596.92 676.571 1574.8 680.084 1553.51 683.535 C 1507.47 690.954 1461.34 697.853 1415.14 704.23 C 1397.33 706.666 1355.32 714.276 1340.37 712.442 C 1302.79 702.332 1304.2 664.81 1298.98 632.598 C 1295.29 610.026 1290.77 587.597 1285.43 565.356 C 1279.44 540.954 1271.54 518.733 1263.92 494.558 C 1259.33 477.089 1245.01 450.05 1256.8 433.475 C 1264.15 423.139 1295.57 421.824 1308.28 420.184 L 1374.52 411.456 L 1585.65 383.389 z" fill="currentColor" />
<path d="M 1596.13 394.402 C 1620.76 394.951 1629.33 417.884 1636.51 437.305 C 1643.87 457.204 1650 477.924 1653.57 498.851 C 1656.08 513.86 1657.45 529.037 1657.67 544.252 C 1658.15 578.757 1652.6 631.29 1627.25 657.336 C 1611.75 662.632 1566.99 668.526 1548.57 671.58 C 1503.81 678.962 1458.95 685.741 1414.01 691.916 C 1393.12 694.84 1371.2 698.24 1350.22 700.152 C 1344.39 700.683 1337.51 697.694 1332.19 695.344 C 1325.72 690.371 1322.1 685.652 1320.37 677.49 C 1312.67 641.204 1308.02 603.919 1299.15 567.851 C 1293.75 546.096 1287.49 524.562 1280.39 503.3 C 1257.29 432.989 1251.51 440.694 1323.51 430.549 C 1357.99 425.845 1392.49 421.347 1427.01 417.054 C 1480.99 409.928 1542.4 399.416 1596.13 394.402 z" fill="currentColor" />
<path d="M 1773.74 240.688 C 1850.5 242.863 1896.22 340.537 1910.97 405.223 C 1926.47 471.708 1933.13 552.534 1891.73 611.258 C 1853.91 664.901 1783.74 685.013 1730.6 719.039 C 1714.13 728.789 1696.89 736.313 1686.68 753.511 C 1671.91 778.399 1693.74 803.985 1705.04 826.321 C 1714.88 845.827 1724.08 865.655 1732.61 885.771 C 1763.63 962.032 1789.46 1040.3 1809.92 1120.05 C 1816.99 1147.75 1823.61 1175.57 1829.8 1203.48 C 1834.59 1224.95 1839.14 1253.46 1847.94 1272.73 C 1848.3 1273.5 1892.72 1289.49 1900.53 1294 C 1901.78 1299.07 1902.4 1304.27 1902.39 1309.48 C 1902.33 1322.32 1898.66 1334.89 1891.79 1345.74 C 1881.08 1362.5 1852.19 1388.87 1837.19 1403.22 C 1803.31 1435.65 1769.18 1466.31 1735.92 1499.5 C 1730.31 1466.84 1724.3 1437.85 1717.21 1405.48 C 1708.66 1368.05 1698.9 1330.91 1687.94 1294.12 C 1674.12 1246.51 1659.82 1199.7 1641.35 1153.62 C 1633.03 1134.03 1626.76 1113.39 1615.43 1095.22 C 1591.27 1056.45 1563.43 1055.41 1523.43 1064.5 C 1534.77 1040.52 1526.3 1009.9 1519.9 985.355 C 1511.81 954.305 1501.92 923.422 1492.46 892.742 C 1483.81 864.989 1476.4 840.818 1466.01 813.667 C 1476.3 812.57 1482.21 812.597 1491.99 807.363 C 1507.03 799.906 1512.06 779.512 1503 765.287 C 1486.4 739.212 1424.59 741.525 1417.86 775.045 C 1415.32 787.692 1425.74 803.487 1437.41 808.228 C 1443.32 810.631 1446.66 811.279 1453 812.288 C 1464.28 838.888 1475.6 880.064 1484.01 908.428 C 1495.96 950.188 1512.36 992.267 1516.34 1035.74 C 1516.58 1042.65 1515.62 1056.02 1510.03 1060.53 C 1494.43 1073.08 1464.82 1084.58 1446.89 1092.69 C 1431.52 1099.65 1390.7 1099.56 1373.74 1099.96 C 1398.79 1092.32 1431.45 1086.42 1449.42 1064.63 C 1454.66 1058.27 1454.16 1046.59 1452.98 1038.53 C 1445.34 987.012 1430.64 936.352 1416.49 886.295 C 1413.32 875.059 1404.28 837.753 1395.94 831.201 C 1389.03 831.33 1350.15 838.693 1340.11 840.369 L 1222.3 859.451 C 1252.82 835.632 1277.96 806.26 1289.89 768.802 C 1291.92 762.422 1293.88 756.036 1295.93 749.66 C 1304.9 747.875 1313.83 746.836 1322.89 745.322 C 1491.73 717.155 1664.42 699.529 1828.02 647.343 C 1889.77 628.43 1899.96 532.124 1892.95 478.446 C 1883.92 409.302 1857.93 331.151 1812.79 276.845 C 1802.47 264.433 1786.53 250.795 1773.74 240.688 z" fill="currentColor" />
<path d="M 1656.68 812.238 C 1673.58 814.399 1675.37 825.49 1675.37 839.983 C 1675.37 879.627 1638.05 893.763 1614 917.261 L 1612.76 918.477 C 1621.26 945.815 1631.67 974.562 1640.92 1001.8 C 1658.44 1053.42 1675.49 1106.3 1692.78 1157.84 C 1704.65 1193.25 1716.68 1263.41 1733.76 1292.94 C 1744.23 1296.23 1753.85 1299.21 1765.48 1302.31 C 1788.22 1308.36 1830.44 1313.1 1834.03 1343.25 C 1834.93 1350.77 1828.93 1358.7 1823.92 1363.86 C 1805.18 1377.59 1782.04 1373.85 1763.86 1361.4 C 1745.77 1349.01 1734.23 1330.26 1725.5 1310.54 C 1703.33 1260.55 1695.63 1206.71 1678.83 1155.06 C 1661.36 1101.73 1643.39 1048.58 1624.92 995.599 C 1613.79 963.521 1602.31 933.054 1594.05 900.048 C 1583.69 858.647 1616.49 819.321 1656.68 812.238 z" fill="currentColor" />
<path d="M 1655.71 825.994 C 1659.25 825.712 1657.77 825.221 1660.39 827.143 C 1666.39 843.086 1658.77 862.084 1646.9 872.884 C 1633.62 884.957 1622.16 891.167 1609.68 905.001 C 1608.82 905.848 1609.41 905.459 1607.66 905.689 C 1596.03 863.113 1618.95 840.462 1655.71 825.994 z" fill="currentColor" />
<path d="M 1739.13 1307.89 C 1750.07 1311.57 1761.49 1314.52 1772.69 1317.35 C 1786.37 1320.81 1835.02 1330.45 1815.4 1353.16 C 1781.99 1375.15 1751.29 1334.9 1739.13 1307.89 z" fill="currentColor" />
<path d="M 1545.65 1072.34 C 1599.87 1067.42 1610.9 1112.39 1627.35 1153.62 C 1658.39 1233.71 1683.66 1315.91 1702.96 1399.61 C 1711.3 1435.28 1718.16 1473.91 1724.53 1509.99 C 1702.61 1529.46 1682.42 1549.98 1661.13 1570.01 C 1646.13 1584.13 1627.3 1603.82 1609.42 1613.46 C 1566.71 1636.48 1521.32 1632.64 1476.26 1620.15 C 1465.3 1616.98 1436.59 1605.48 1429.59 1598.44 C 1399.88 1568.53 1460.95 1518.72 1480.01 1500.05 C 1508.69 1471.96 1536.04 1447.62 1562.66 1419.06 C 1564.73 1425.94 1566.01 1432.53 1572.27 1435.97 C 1575.76 1435.76 1574.3 1436.43 1576.72 1433.73 C 1581.31 1418.23 1565.27 1362.65 1560.29 1343.12 C 1547.28 1291.68 1532.37 1240.74 1515.58 1190.41 C 1502.62 1151.19 1497.57 1122.38 1459.56 1099.79 C 1483.04 1087.9 1519.92 1075.97 1545.65 1072.34 z" fill="currentColor" />
<path d="M 1914.86 1305.55 C 1926.21 1314.55 1930.62 1333.75 1932.98 1347.28 C 1942.52 1402.11 1954.78 1456.35 1963.97 1511.25 C 1964.49 1515.85 1964.95 1521.71 1963.84 1526.25 C 1957.9 1550.57 1932.67 1566.24 1914.35 1579.96 L 1866.44 1616.05 C 1832.2 1642.07 1797.79 1667.85 1763.2 1693.39 C 1742.52 1708.77 1721.68 1724.45 1700.59 1739.25 C 1695.67 1742.7 1682.86 1750.7 1677.04 1752.93 C 1642.58 1766.11 1602.13 1768.92 1565.98 1762.03 C 1550.25 1759.03 1526.94 1752.11 1515.62 1740.28 C 1512.73 1737.25 1505.73 1726.79 1503.03 1722.84 C 1480.6 1686.6 1458.49 1650.13 1434.12 1615.25 C 1466.23 1633.31 1511.9 1642.79 1548.41 1642.69 C 1580.31 1642.38 1612.23 1631.67 1636.13 1610.32 C 1668.8 1581.15 1699.38 1550.18 1731.11 1520.12 L 1822.93 1434.18 C 1844.99 1413.61 1867.04 1393.53 1887.92 1371.72 C 1908.16 1350.56 1915.59 1334.81 1914.86 1305.55 z" fill="currentColor" />
<path d="M 946.548 365.225 C 960.455 366.354 984.831 385.089 995.12 393.891 C 1117.05 498.201 1144.55 700.815 1069.13 839.67 C 1060.31 855.915 1043.19 888.698 1021.94 888.191 C 996.811 887.592 963.83 854.477 945.592 838.242 L 917.706 813.336 C 929.727 812.531 953.777 809.943 964.426 804.045 C 1033.82 765.615 1032.42 661.789 1019.13 594.319 C 1010.4 550.041 988.436 504.032 950.601 477.971 C 939.992 470.496 922.997 464.836 910.161 466.614 C 889.613 468.898 868.949 473.503 848.872 478.049 C 872.237 449.288 912.273 371.566 946.548 365.225 z" fill="currentColor" />
<path d="M 1124.65 335.33 L 1126.02 335.065 C 1138.07 338.446 1173.23 372.162 1182.24 383.086 C 1165.97 388.423 1085.12 400.035 1078.87 406.106 C 1077.47 407.469 1077.06 409.952 1077.34 411.8 C 1077.71 414.212 1079.04 416.184 1081.1 417.491 C 1082.89 418.629 1084.9 419.017 1086.99 418.893 C 1096.17 418.352 1106.39 415.487 1115.5 413.817 C 1141.39 409.056 1167.2 403.93 1192.94 398.44 C 1199.5 406.207 1202.85 411.312 1207.86 420.038 C 1179.29 425.177 1150.59 429.212 1122.02 434.337 C 1114.13 435.752 1105.56 436.899 1098.15 440.006 C 1095.71 445.03 1098.1 449.64 1102.2 452.881 C 1110.09 454.951 1199.57 437.678 1214.73 434.544 C 1219.15 443.021 1221.27 448.66 1224.43 457.657 C 1200.37 461.592 1176.34 465.667 1152.33 469.88 C 1141.02 471.805 1121.92 470.858 1117.85 482.738 C 1118.16 485.174 1118.04 486.444 1120.15 488.067 C 1126.92 493.268 1213.84 475.32 1231.21 473.977 C 1235.2 482.135 1237.13 487.088 1240.13 495.699 C 1222.89 499.539 1142 508.775 1135 516.445 C 1134.41 518.157 1133.78 519.136 1134.1 520.983 C 1134.5 523.245 1135.61 525.271 1137.72 526.384 C 1145.34 530.391 1230.09 513.994 1245.19 511.106 C 1248.29 519.397 1250.82 527.896 1252.73 536.542 C 1219.84 543.641 1181.6 544.598 1148.58 552.546 C 1143.94 553.661 1144.68 560.868 1147.13 564.439 C 1148.73 565.533 1151.11 567.24 1153.1 567.077 C 1163.98 566.185 1176.67 563.758 1187.43 562.159 L 1256.81 552.458 C 1259.47 560.919 1260.75 566.985 1262.52 575.733 C 1232.03 579.341 1201.49 584.252 1171.05 588.312 C 1165.07 589.775 1153.33 588.885 1152.86 597.467 C 1152.1 611.494 1189.48 602.673 1198.08 601.449 L 1247.76 594.474 C 1250.48 593.782 1260.95 592.514 1264.28 592.024 C 1265.52 600.165 1266.56 608.337 1267.39 616.532 C 1253.23 618.318 1163.96 630.196 1157.46 634.214 C 1153.88 639.171 1154.1 642.686 1158.68 646.627 C 1166.09 648.784 1254.85 635.538 1268.72 633.447 L 1268.85 657.565 C 1252.66 659.892 1171.61 670.447 1163.03 675.054 C 1159.27 677.074 1157.43 679.297 1156.11 683.298 C 1157.81 690.16 1165.83 689.104 1171.82 688.545 C 1183.58 687.446 1195.55 685.116 1207.25 683.201 C 1227.2 679.769 1247.25 676.948 1267.37 674.74 C 1266.93 684.566 1266.11 690.794 1264.58 700.55 C 1248.29 703.515 1164.5 714.459 1156 718.969 C 1153.64 721.956 1153.69 721.686 1153.34 725.455 C 1154.34 728.943 1154.27 728.689 1157.13 730.962 C 1163.89 733.039 1247.95 720.129 1261.67 718.548 C 1260.03 726.3 1258.16 734.003 1256.07 741.647 C 1242.47 744.64 1222.3 747.206 1208.19 749.457 C 1175.96 754.359 1143.81 759.76 1111.74 765.656 C 1129.2 700.489 1125.91 622.12 1108.06 557.251 C 1083.99 469.802 1040.59 408.375 961.66 362.992 C 968.729 362.059 975.558 360.731 982.57 359.487 C 1029.91 351.09 1077.31 343.797 1124.65 335.33 z" fill="currentColor" />
<path d="M 1806.63 383.374 C 1809.73 382.92 1810.27 382.49 1812.99 383.952 C 1822.78 395.997 1838.79 457.256 1841.55 474.817 C 1848 515.936 1852.47 597.493 1823.92 630.156 C 1802.99 638.116 1772.11 643.478 1749.22 648.994 L 1739.49 651.012 C 1748.51 582.76 1746.56 511.425 1730.63 444.261 C 1726.55 427.025 1721.26 412.03 1716.02 395.208 C 1739.61 393.912 1781.93 386.787 1806.63 383.374 z" fill="currentColor" />
<path d="M 1754.17 403.938 C 1759.18 403.968 1762.66 404.538 1765.42 409.262 C 1769.42 416.112 1771.41 424.286 1773.19 431.955 C 1787.3 492.851 1793.41 555.881 1785.74 618.108 C 1785.52 619.882 1782.9 621.08 1781.51 621.843 C 1773.61 621.083 1774.63 616.355 1775.35 610.653 C 1780.95 573.409 1779.85 533.14 1774.24 495.919 C 1772.57 484.838 1761.62 419.575 1756.75 415.468 C 1751.26 416.677 1751.05 423.534 1743.53 424.786 L 1741.13 423.054 C 1738.25 414.103 1747.38 407.689 1754.17 403.938 z" fill="currentColor" />
<path d="M 1789.79 404.942 C 1803.26 404.738 1806.08 417.081 1809.54 428.241 C 1827.8 487.119 1829.14 551.273 1824.36 612.308 C 1823.57 613.311 1822.79 614.313 1822.01 615.316 C 1821.22 614.97 1820.43 614.612 1819.64 614.24 C 1818.15 613.532 1815.28 611.969 1815.01 610.433 C 1813.88 603.768 1814.97 590.382 1815.22 583.65 C 1817.05 534.163 1814.45 480.993 1799.66 433.519 C 1796.51 423.405 1788.15 413.445 1786.29 408.113 L 1789.79 404.942 z" fill="currentColor" />
<path d="M 1277.09 752.352 L 1280.52 752.088 L 1281.31 753.754 C 1275.03 789.454 1236.41 838.887 1204.94 858.25 C 1202.09 860 1151.37 866.712 1143.6 868.012 L 1054.36 883.614 C 1066.09 869.966 1072.98 860.034 1082.03 844.581 C 1092.95 824.476 1101.74 800.797 1107.84 778.871 C 1119.27 778.08 1130.49 776.29 1141.84 774.653 C 1134.2 787.015 1126.98 807.324 1134.76 819.18 C 1147.86 839.156 1166.55 809.607 1165.56 795.559 C 1164.6 781.922 1164.49 781.188 1156.27 772.322 C 1189.85 764.406 1241.8 757.849 1277.09 752.352 z" fill="currentColor" />
<path d="M 1385.98 845.387 C 1388.25 844.907 1388.09 844.971 1390.32 845.692 C 1390.73 846.598 1391.29 847.794 1391.57 848.744 C 1402.89 887.029 1413.96 925.386 1423.71 964.119 C 1429.87 988.624 1436.71 1014.34 1440.16 1039.35 C 1440.81 1043.99 1440.69 1053.11 1438.29 1056.96 C 1430.48 1069.48 1401.68 1078.74 1388.83 1082.67 L 1392.28 1071.69 C 1403.06 1025.52 1377.87 938.274 1355.77 895.988 C 1348.43 881.939 1335.06 866.937 1323.55 855.929 C 1344.18 853.026 1364.99 848.345 1385.98 845.387 z" fill="currentColor" />
<path d="M 565.515 650.841 C 575.579 650.112 581.502 653.003 588.3 660.981 C 602.811 678.01 603.999 693.079 602.32 714.499 C 590.706 718.116 569.429 720.854 556.711 723.209 C 533.233 727.559 509.85 731.818 486.265 735.848 C 467.795 739.004 441.408 742.667 423.48 735.377 C 418.958 733.539 410.193 727.078 405.985 724.068 C 397.722 719.212 389.558 713.862 381.471 708.693 C 392.181 708.777 422.054 712.26 429.697 711.092 C 451.357 707.781 572.359 689.689 583.887 682.781 C 584.059 681.311 584.493 679.433 583.25 678.254 C 571.516 667.115 569.698 664.06 554.849 661.826 C 558.232 658.008 561.905 654.45 565.515 650.841 z" fill="currentColor" />
<path d="M 1304.05 860.384 C 1306.89 859.917 1308.35 859.604 1310.96 861.449 C 1344.95 885.507 1363.03 939.905 1371.8 979.396 C 1377.81 1006.42 1389.27 1059.38 1374.05 1082.93 C 1369.11 1090.56 1357.6 1091.19 1348.82 1092.75 C 1362.79 1064.46 1365.29 1045.23 1364.76 1013.86 C 1361.13 965.67 1348.13 918.82 1312.05 884.689 C 1296.65 889.273 1247.34 898.867 1231.51 899.998 C 1219.59 893.683 1214.28 887.335 1207.66 876.065 C 1239.77 871.433 1272.26 864.52 1304.05 860.384 z" fill="currentColor" />
<path d="M 579.22 614.094 C 625.481 610.924 642.612 674.067 641.692 710.747 C 640.49 758.678 609.742 799.065 567.774 748.912 L 563.688 741.79 C 570.218 740.224 578.185 739.057 584.915 737.904 C 586.835 741.906 589.383 748.024 593.498 750.037 C 605.963 755.849 612.923 730.225 615.663 721.746 C 625.362 691.728 612.28 645.089 580.972 632.728 C 573.304 629.7 563.33 635.232 556.425 639.055 C 563.397 626.809 566.592 620.952 579.22 614.094 z" fill="currentColor" />
<path d="M 868.712 600.287 C 869.796 600.06 871.135 600.215 872.317 600.253 C 876.073 604.467 878.448 619.902 879.732 626.268 C 846.332 630.418 812.286 636.735 779.235 643.096 C 776.898 643.384 777.048 643.463 774.992 642.347 C 771.999 636.059 769.156 624.202 767.169 617.131 C 799.005 610.561 835.569 606.505 868.712 600.287 z" fill="currentColor" />
<path d="M 855.693 565.285 L 857.033 565.1 C 861.018 567.424 866.858 584.802 868.884 590.095 C 834.508 595.168 800.233 600.904 766.078 607.301 C 762.27 606.689 754.659 587.407 752.454 582.883 C 786.947 577.498 821.363 571.631 855.693 565.285 z" fill="currentColor" />
<path d="M 880.184 636.395 L 881.344 637.117 C 883.285 644.876 884.6 653.802 885.959 661.762 L 783.216 677.802 L 781.049 677.889 C 778.292 674.594 777.115 658.564 776.521 653.311 C 809.858 649.029 846.884 642.021 880.184 636.395 z" fill="currentColor" />
<path d="M 881.08 672.343 C 884.085 671.934 882.708 671.592 885.357 672.902 C 887.082 678.587 886.3 690.067 886.171 696.416 C 855.903 704.19 816.817 708.474 785.219 714.318 L 782.506 714.732 L 781.311 713.747 C 780.185 707.934 780.725 694.867 780.743 688.417 C 810.558 685.822 850.71 677.633 881.08 672.343 z" fill="currentColor" />
<path d="M 836.979 535.356 C 840.424 536.578 850.33 552.408 853.091 556.501 C 818.023 561.703 783.024 567.363 748.103 573.478 C 744.097 570.442 736.105 557.721 732.808 552.773 C 767.618 547.497 802.346 541.691 836.979 535.356 z" fill="currentColor" />
<path d="M 883.412 707.223 L 884.579 707.355 C 886.586 711.326 883.409 725.537 882.532 730.362 C 848.736 736.98 812.745 741.041 778.035 747.582 L 776.71 746.497 C 776.498 740.301 778.388 730.657 779.422 724.204 C 789.249 723.739 804.504 721 814.57 719.434 C 837.636 716.063 860.594 711.99 883.412 707.223 z" fill="currentColor" />
<path d="M 291.661 722.258 C 323.414 721.197 357.497 727.132 387.245 738.024 C 395.441 741.025 403.588 743.643 412.011 745.921 C 409.59 747.275 406.413 748.738 403.867 749.991 C 399.258 751.976 394.592 753.827 389.876 755.543 C 372.599 761.675 344.403 758.784 330.072 748.785 C 313.561 737.265 311.326 731.76 291.661 722.258 z" fill="currentColor" />
<path d="M 123.333 749.97 C 149.822 749.801 177.71 757.959 203.081 764.96 C 215.978 768.519 225.718 772.246 239.226 773.686 L 229.66 778.962 C 192.552 798.774 149.01 779.576 123.333 749.97 z" fill="currentColor" />
<path d="M 209.434 736.127 C 239.997 735.052 262.07 739.774 289.864 751.026 C 296.204 753.592 317.97 756.479 321.722 760.261 C 320.397 762.836 318.741 763.157 315.839 764.972 C 305.732 769.149 294.766 772.583 283.721 772.021 C 276.004 771.721 250.047 769.108 244.884 763.015 C 236.218 752.788 217.3 744.403 209.434 736.127 z" fill="currentColor" />
<path d="M 878.785 740.362 L 879.83 741.143 C 879.812 745.33 877.426 753.132 876.281 757.494 C 850.519 763.414 795.314 772.711 769.323 775.33 L 768.618 774.175 C 769.364 768.915 771.923 762.723 773.76 757.603 C 806.859 753.388 845.257 745.728 878.785 740.362 z" fill="currentColor" />
<path d="M 811.682 514.229 C 815.989 514.037 825.519 523.397 829.682 526.935 C 803.237 532.13 757.319 540.514 731.238 543.766 C 724.145 543.756 717.695 536.929 712.598 532.292 C 745.703 526.7 778.734 520.679 811.682 514.229 z" fill="currentColor" />
<path d="M 866.683 769.316 L 868.963 769.105 L 869.388 770.298 C 867.567 775.195 865.741 778.937 863.489 783.6 C 854.797 785.739 836.208 788.324 826.47 789.988 C 805.723 793.533 782.09 798.492 761.442 800.591 C 760.281 800.747 760.034 800.532 758.803 800.267 C 758.865 796.184 762.196 789.223 763.866 785.126 C 790.876 783.239 838.436 774.04 866.683 769.316 z" fill="currentColor" />
<path d="M 855.115 794.559 L 855.418 795.163 C 853.726 798.823 849.772 803.365 847.157 806.66 C 816.794 811.798 770.18 821.192 740.776 824.414 C 740.962 823.382 750.344 811.162 751.883 809.002 C 774.869 809.477 829.532 798.035 855.115 794.559 z" fill="currentColor" />
<path d="M 785.605 502.412 C 790.975 501.978 799.225 505.377 804.346 507.281 L 709.148 524.197 C 700.465 525.737 697.915 524.112 689.832 520.896 C 703.746 517.222 721.509 514.121 735.794 511.255 C 751.2 508.163 770.258 504.009 785.605 502.412 z" fill="currentColor" />
<path d="M 95.0982 783.416 C 110.364 781.95 139.074 783.841 153.887 787.746 C 147.7 792.449 144.085 794.698 137.34 798.636 C 123.106 803.321 91.9916 790.594 77.5216 784.878 L 95.0982 783.416 z" fill="currentColor" />
<path d="M 1446.49 768.184 L 1449.4 768.292 C 1454.98 776.779 1443.76 783.988 1464.53 799.452 L 1451.06 798.723 C 1434.83 791.972 1419.51 772.869 1446.49 768.184 z" fill="currentColor" />
<path d="M 1148.79 787.795 C 1153.16 792.374 1149.92 803.296 1147.73 808.305 C 1142.36 802.869 1146.46 793.756 1148.79 787.795 z" fill="currentColor" />
<metadata><recraft-signature>{"signed_by": "recraft", "signature_b64": "3vsMo1oc+h2/uRL15qFfGbS/f+QV9FUh04qLvfZTIePhokWCHqXPqVNscEuH8+aUbTraGOeKu6L0H67OCaTBAg==", "signing_algo": "Ed25519", "generation_timestamp": 1772065289, "identifier": "a49e2bc9-7f1e-4dc8-93d6-8f5d9bd90fed"}</recraft-signature></metadata></g></svg>