<svg xmlns="http://www.w3.org/2000/svg" viewBox="0 0 24 24">
<g transform="scale(0.011719,0.011719)"><path d="M 1088.84 480.426 C 1097.97 479.586 1107.71 479.651 1116.86 480.134 C 1133.6 481.017 1149.63 484.49 1165.97 487.975 C 1200.77 495.396 1232.65 503.071 1263.79 521.298 C 1314.86 551.187 1374.1 629.661 1386.23 687.627 C 1388.85 700.185 1390.39 713.022 1391.51 725.796 C 1392.97 742.445 1390.76 772.505 1398.9 786.396 C 1409.52 804.546 1462.71 796.069 1479.29 820.052 C 1491.99 838.445 1487.92 879.018 1497.04 884.47 C 1508.01 891.026 1566.83 898.18 1583.95 901.149 C 1686.38 918.902 1849.28 958.357 1921.62 1038.41 C 1929.42 1047.04 1937.94 1056.19 1943.11 1066.73 C 1960.92 1103.05 1936.94 1151.08 1931.64 1188.73 C 1927.65 1217.13 1930.79 1245.09 1929.14 1273.47 C 1928.28 1288.26 1922.02 1299.23 1911.08 1308.83 C 1879.5 1336.53 1784.44 1356.44 1741.19 1366.98 C 1672.8 1383.66 1604.56 1400.96 1534.75 1410.62 C 1428.67 1425.3 1323.84 1422.17 1217.25 1418.02 C 1166.58 1416.04 1115.43 1416.4 1064.99 1410.78 C 1017 1405.44 969.2 1397.27 921.655 1388.91 C 901.235 1385.32 872.928 1378.08 853.299 1377.19 C 852.647 1377.16 851.995 1377.15 851.343 1377.13 C 818.665 1397.98 768.122 1423.83 730.813 1432.2 C 686.063 1442.23 631.386 1428.63 584.273 1429.08 C 536.074 1479.45 484.298 1496.19 418.826 1514.47 C 403.242 1518.83 387.378 1524.36 371.438 1527.11 C 256.108 1547.04 163.221 1465.28 126.844 1361.88 C 96.5046 1276.61 89.4145 1166.5 124.905 1081.71 C 144.537 1034.81 188.792 1003.34 235.268 986.603 C 238.866 971.648 242.417 962.649 249.047 948.987 C 265.495 915.092 284.41 904.226 317.164 888.717 C 378.489 860.056 443.7 840.581 510.699 830.918 C 522.759 829.235 534.869 827.928 547.01 827 C 558.792 826.162 577.074 826.188 587.711 822.435 C 601.882 805.518 615.247 780.089 627.351 761.453 C 642.867 737.565 660.624 711.101 679.285 689.79 C 700.265 666.209 722.589 643.859 746.145 622.853 C 818.502 557.044 871.73 528.683 967.035 503.06 C 1013.64 490.53 1038.97 483.689 1088.84 480.426 z" fill="currentColor" />
<path d="M 1904.63 1148.04 C 1914.08 1148.11 1916.91 1152.52 1916.1 1161.51 C 1912.61 1199.9 1912.66 1247.15 1908.07 1284.19 C 1905.01 1308.89 1826.89 1327.32 1804.67 1333.75 C 1776.41 1341.43 1747.72 1347.14 1719.1 1353.27 C 1706.08 1356.06 1692.74 1358.63 1679.84 1361.85 C 1607.38 1379.9 1532.85 1390.62 1458.5 1397.4 C 1403.77 1402.4 1347.06 1401.06 1292.04 1400.39 C 1134.04 1398.4 977.04 1388.19 821.958 1356.35 C 795.338 1350.88 763.942 1348.36 738.522 1341.25 C 708.307 1325.01 722.576 1195.3 739.286 1168.52 C 747.194 1155.85 759.228 1161.68 772.018 1163.49 C 805.874 1168.28 839.09 1173.43 872.839 1177.66 C 918.053 1183.38 963.495 1187.12 1009.04 1188.87 C 1051.29 1190.47 1095.69 1190.85 1137.6 1193.23 C 1227.3 1198.32 1316.17 1212.27 1406.25 1214.94 C 1456.61 1216.43 1502.73 1210.98 1552.87 1208.93 C 1590.28 1207.4 1629.2 1208.29 1666.23 1205.56 C 1711.19 1202.24 1757.22 1191.75 1800.88 1180.98 C 1825.14 1175.16 1849.6 1169.44 1873.37 1161.82 C 1883.97 1158.42 1893.65 1151.62 1904.63 1148.04 z" fill="currentColor" />
<path d="M 792.229 991.435 C 819.442 990.497 849.04 991.72 876.333 992.35 C 916.925 992.979 957.507 994.117 998.07 995.764 C 1027.32 996.919 1056.57 998.365 1085.79 1000.1 C 1106.21 1001.32 1136.78 1003.07 1156.66 1007.33 C 1163.47 1026.07 1164.56 1046.58 1173.81 1064.62 C 1196.1 1108.09 1300.69 1091.77 1342.65 1100.16 C 1362.01 1104.02 1376.4 1117.6 1394.66 1122.96 C 1401.25 1124.89 1408.59 1125.28 1414.73 1121.72 C 1431.46 1112.01 1439.01 1078.66 1443.81 1060.86 C 1497.6 1067.06 1537.67 1078.35 1589.97 1091.27 C 1647.78 1105.11 1705.36 1118.47 1762.01 1136.68 C 1772.74 1140.12 1800.46 1149.75 1795.31 1165.09 C 1792.85 1167.7 1788.92 1168.04 1785.25 1168.84 C 1756.26 1175.2 1723.98 1183.06 1694.7 1186.28 C 1646.68 1191.55 1597.4 1190.25 1549 1193.26 C 1479.17 1197.61 1410.78 1201.29 1340.86 1196.57 C 1290.71 1193.18 1242.96 1186.54 1193.14 1181.23 C 1155.21 1177.12 1117.17 1174.21 1079.06 1172.49 C 1057.2 1171.39 1035.33 1170.66 1013.44 1170.32 C 978.25 1169.7 917.231 1172.69 885.863 1159.11 C 863.867 1149.59 864.462 1109.38 857.287 1086.77 C 842.501 1040.18 796.653 1029.21 757.57 1008.8 C 753.73 1006.79 748.012 1004.15 746.694 999.939 L 748.026 997.623 C 757.648 991.675 780.381 991.947 792.229 991.435 z" fill="currentColor" />
<path d="M 1038.45 545.308 C 1040.96 545.139 1043.47 545.054 1045.98 545.055 C 1108.66 545.56 1155.29 614.634 1179.58 666.01 C 1193.01 694.432 1198.13 747.103 1197.62 779.202 C 1167.75 788.001 1162.86 807.198 1151.34 833.045 C 1131.1 833.206 1104.18 828.955 1083.13 827.452 C 1044.59 825.089 1006.01 823.348 967.419 822.231 C 948.605 821.939 800.993 821.059 794.709 817.189 C 794.306 815.975 793.9 814.807 793.748 813.529 C 791.391 793.641 839.268 723.003 852.269 705.148 C 887.367 656.948 953.761 580.588 1007.18 554.644 C 1017.34 549.708 1027.34 547.065 1038.45 545.308 z" fill="currentColor" />
<path d="M 1084.44 496.404 C 1090.37 496.014 1103.27 494.606 1108.37 496.909 C 1107.78 500.805 1095.43 503.431 1091.74 504.257 C 1054.64 512.561 1008.75 527.3 978.402 550.267 C 889.644 617.13 825.893 707.909 777.137 806.641 C 753.544 854.418 736.891 893.516 727.428 946.382 C 724.158 964.648 718.352 982.756 715.534 1001.54 C 688.243 998.175 636.252 981.748 610.737 971.661 C 592.001 964.556 562.124 952.513 551.349 935.613 C 556.707 882.071 649.436 746.635 684.521 705.457 C 735.367 648.286 798.362 589.299 866.915 554.763 C 930.006 522.978 1014.4 501.839 1084.44 496.404 z" fill="currentColor" />
<path d="M 1467.65 900.672 C 1476.78 901.801 1486.25 904.655 1495.52 905.37 C 1603.38 913.684 1710.44 949.1 1809.85 990.318 C 1852.89 1008.16 1925.97 1048.15 1911.92 1104.34 C 1908.09 1119.65 1898.6 1130.17 1885.44 1138.23 C 1847.16 1156.51 1800.96 1133.13 1763.56 1121.82 C 1734.34 1113.29 1705.06 1104.94 1675.73 1096.78 C 1630.96 1084.33 1585.56 1074.23 1540.33 1063.62 C 1527.47 1060.61 1452.29 1044.67 1446.74 1038.91 C 1444.77 1019.33 1456.3 974.031 1459.53 952.3 C 1461.32 940.259 1464.84 911.158 1467.65 900.672 z" fill="currentColor" />
<path d="M 804.715 833.393 C 846.867 831.667 894.774 834.101 937.106 835.91 C 951.248 836.514 979.542 840.011 993.447 840.613 C 1018.12 841.681 1133.04 844.986 1148.41 852.756 C 1150.72 859.261 1148.55 874.167 1147.49 881.354 C 1141.83 919.686 1149.39 955.371 1154.84 993.264 C 1137.33 991.003 1119.8 988.981 1102.24 987.199 C 1040.86 978.867 978.38 980.371 916.814 978.891 C 857.53 977.466 797.857 978.74 738.862 975.836 C 739.83 948.333 761.214 866.232 779.686 844.078 C 787.368 834.865 793.83 834.512 804.715 833.393 z" fill="currentColor" />
<path d="M 1144.1 524.398 C 1147.37 523.886 1150.81 523.915 1154.11 523.774 C 1210.41 521.377 1261.38 543.317 1302.52 581.378 C 1351.27 626.473 1372.19 694.134 1374.73 758.84 C 1375.28 772.889 1377.69 839.947 1369 848.537 C 1360.48 856.948 1343.82 857.19 1332.63 857.373 C 1321.55 857.295 1310.48 856.605 1299.47 855.304 C 1273.76 852.212 1231.76 843.114 1214.9 821.637 C 1212.45 808.614 1212.02 777.761 1211.21 763.22 C 1207.18 690.451 1193.34 652.846 1149.65 596.137 C 1143.09 587.598 1136.12 579.38 1128.76 571.511 C 1121.46 563.725 1106.02 550.908 1101 542.723 C 1093.01 529.697 1138.65 525.015 1144.1 524.398 z" fill="currentColor" />
<path d="M 417.381 959.5 C 441.75 956.752 468.882 958.91 490.575 972.098 C 542.635 1003.75 587.925 1068.62 604.598 1127 C 609.891 1145.53 611.254 1172.48 612.311 1191.6 C 616.107 1260.23 612.098 1334.23 576.304 1394.8 C 550.456 1438.54 509.549 1466.55 460.568 1479.09 C 476.125 1451.17 488.274 1427.89 502.396 1399.3 C 518.744 1399.43 534.933 1396.08 549.89 1389.48 C 557.743 1385.99 572.763 1379.19 567.774 1368.69 C 560.275 1366.69 538.368 1373.52 530.06 1375.86 L 504.876 1382.96 C 528.289 1327.69 531.239 1259.26 514.421 1201.84 C 534.486 1195.5 564.08 1193.83 582.855 1182.81 C 586.204 1178.11 585.692 1172.56 581.995 1168.28 C 572.777 1164.97 521.215 1178.95 509.878 1181.9 C 494.316 1133.76 477.33 1095.22 441.326 1057.71 C 430.214 1046.13 418.659 1036.36 407.625 1025.05 C 419.511 1020.16 471.654 1007.52 473.614 995.579 C 471.721 988.869 461.625 987.447 455.84 988.736 C 432.706 993.893 410.092 1002.04 387.166 1008.12 C 357.462 992.424 344.096 985.496 310.944 980.289 C 338.674 970.179 387.82 962.253 417.381 959.5 z" fill="currentColor" />
<path d="M 333.361 1054.79 C 337.806 1055.92 348.571 1064.38 352.572 1067.43 C 398.056 1102.15 432.227 1148.54 442.57 1205.62 C 448.889 1240.48 453.895 1273.26 449.097 1308.84 C 437.705 1318.56 365.589 1388.95 364.003 1400.95 L 365.532 1401.4 C 377.18 1396.21 434.361 1337.12 448.037 1323.6 C 442.665 1342.63 415.556 1376.88 402.47 1396.08 C 398.916 1401.38 387.21 1419.46 387.031 1425.09 C 398.322 1423.27 427.761 1377.13 438.05 1365.02 C 429.034 1392.58 414.983 1421.09 397.686 1444.34 C 376.875 1432.11 352.343 1403.05 337.289 1382.7 C 296.321 1327.36 278.737 1252.02 277.601 1184.07 C 276.976 1146.67 302.177 1076.7 333.361 1054.79 z" fill="currentColor" />
<path d="M 295.883 1142.57 C 309.05 1143.91 409.422 1182.92 411.262 1191.37 C 394.478 1188.11 370.308 1177.38 353.036 1171.79 C 337.77 1166.84 306.694 1158.28 294.695 1149.71 C 293.798 1146.34 294.46 1146.62 295.883 1142.57 z" fill="currentColor" />
<path d="M 438.943 1296.06 L 439.768 1297.99 C 435.602 1306.53 354.244 1368.14 343.598 1372.81 C 342.778 1371.29 341.511 1369.42 342.679 1367.83 C 356.438 1349.03 420.937 1305.55 438.943 1296.06 z" fill="currentColor" />
<path d="M 307.895 1097.84 C 321.169 1102.7 367.209 1136.65 381.505 1146.07 C 384.741 1148.2 392.756 1156.17 395.768 1159.29 L 395.14 1160.47 C 383.174 1155.65 309.295 1114.17 305.52 1105.79 C 305.384 1101.95 306.112 1101.2 307.895 1097.84 z" fill="currentColor" />
<path d="M 327.421 1067.31 C 339.576 1071.94 386.319 1119.37 396.876 1131.63 L 395.525 1133.42 C 385.885 1127.95 328.727 1084.34 323.835 1075.16 C 323.916 1071.52 325.293 1070.29 327.421 1067.31 z" fill="currentColor" />
<path d="M 418.766 1282.94 C 420.174 1282.81 421.794 1282.83 423.231 1282.81 L 423.984 1284.08 C 419.215 1292.31 344.363 1330.95 332.277 1336.51 C 331.519 1336.75 329.43 1336.9 328.54 1337 L 327.465 1335.47 C 332.24 1324.44 403.189 1290.61 418.766 1282.94 z" fill="currentColor" />
<path d="M 300.042 1202.06 C 309.727 1202.18 322.418 1204.76 332.207 1206.15 C 357.159 1209.69 380.339 1214.49 404.793 1220.51 L 402.751 1221.8 C 370.244 1219.54 333.012 1215.77 300.415 1210.92 C 297.716 1210.52 297.671 1209.58 296.709 1207.54 C 297.172 1204.55 297.924 1204.27 300.042 1202.06 z" fill="currentColor" />
<path d="M 410.154 1264.19 C 410.698 1264.12 412.161 1264.29 412.78 1264.34 C 409.224 1270.38 326.489 1298.36 315.484 1301.76 L 313.671 1301.1 L 314.224 1299.19 C 326.551 1286.7 390.557 1268.67 410.154 1264.19 z" fill="currentColor" />
<path d="M 376.771 1247.42 C 385.992 1246.89 392.805 1246.57 402.06 1247.82 L 401.796 1248.73 C 392.459 1252.41 344.018 1257.31 330.806 1258.93 C 328.114 1259.36 325.419 1259.77 322.721 1260.17 C 317.295 1260.95 309.543 1262.46 305.176 1259.18 L 306.012 1256.88 C 311.548 1250.77 365.635 1248.32 376.771 1247.42 z" fill="currentColor" />
<path d="M 1214.79 860.37 C 1223.58 860.975 1244.33 868.152 1255.37 870.32 C 1290.04 877.135 1322.67 879.048 1357.97 877.097 C 1368.34 876.524 1390.47 872.817 1397.78 879.095 C 1401.8 892.101 1387.69 1006.72 1383.4 1027.33 C 1379.12 1037.63 1366.44 1035.93 1357.61 1038.79 C 1330.96 1047.42 1223.43 1026.38 1217.78 996.705 C 1213.53 974.446 1205.51 877.918 1214.79 860.37 z" fill="currentColor" />
<path d="M 574.709 837.478 C 577.498 837.33 576.457 836.839 578.247 838.191 C 577.864 844.021 571.958 852.885 568.875 858.007 C 555.628 880.02 545.988 903.502 535.033 926.576 C 517.621 928.99 501.374 929.376 483.75 933.07 C 472.552 935.417 457.943 941.258 447.544 942.624 C 439.643 943.662 426.557 941.709 416.972 942.797 C 379.369 947.068 344.872 954.426 308.452 963.897 L 306.303 963.624 C 304.418 961.562 303.346 959.821 303.036 957.023 C 301.508 943.2 306.981 930.078 315.704 919.628 C 357.112 870.025 511.318 843.408 574.709 837.478 z" fill="currentColor" />
<path d="M 511.129 952.714 C 521.573 952.287 549.089 964.909 560.313 969.503 C 580.751 978.043 601.443 985.963 622.36 993.252 C 651.058 1003.09 681.545 1010.34 710.627 1019.36 C 759.301 1034.45 836.463 1043.59 847.611 1104.37 C 849.849 1116.57 852.902 1144.59 845.866 1155.28 C 836.515 1153.03 832.065 1145.92 829.524 1137.42 C 813.068 1080.01 760.565 1072.32 711.587 1058.29 C 650.692 1040.84 583.269 1023.85 534.406 981.955 C 527.489 976.024 511.605 966.061 506.134 959.69 C 506.683 956.392 508.661 955.113 511.129 952.714 z" fill="currentColor" />
<path d="M 236.133 1007.35 C 265.123 1004.64 299.703 1015.08 325.012 1027.82 C 463.485 1097.54 511.571 1277.3 443.176 1412.88 C 428.238 1442.49 417.477 1464.84 385.433 1476.49 C 407.998 1451.73 428.914 1426.14 442.114 1394.75 C 474.518 1317.7 466.767 1232.22 436.895 1155.92 C 414.983 1099.94 352.531 1043.1 297.247 1020.51 C 199.185 982.529 142.821 1082.5 131.255 1165.57 C 116.258 1273.27 151.792 1402.27 233.93 1476.23 C 236.264 1478.33 238.85 1481.17 238.803 1484.33 C 233.206 1485.34 226.305 1480.02 221.923 1477.06 C 155.921 1433.11 127.366 1342.21 118.919 1267.07 C 111.006 1196.69 116.179 1112.01 162.25 1054.97 C 179.66 1033.41 207.996 1010.86 236.133 1007.35 z" fill="currentColor" />
<path d="M 230.002 1138.42 L 234.07 1138.24 C 235.061 1139.37 235.967 1140.24 235.636 1142.34 C 233.831 1153.72 232.202 1163.32 231.417 1174.93 C 229.036 1207.96 231.417 1241.15 238.488 1273.5 C 241.791 1288.08 247.326 1303.58 249.582 1318.05 C 234.064 1323.8 206.354 1330.64 190.124 1333.54 C 188.868 1332.24 187.483 1328.15 186.697 1326.26 C 167.264 1279.67 156.915 1192.63 177.764 1145.36 C 194.847 1142.8 212.865 1140 230.002 1138.42 z" fill="currentColor" />
<path d="M 587.196 1042.66 C 618.542 1044.56 668.811 1063 699.43 1072.9 C 725.478 1081.33 757.975 1088.94 781.301 1102.61 C 798.847 1112.9 808.253 1129.28 812.905 1148.64 C 779.62 1142.53 747.573 1132.54 713.343 1127.97 C 685.519 1124.26 655.862 1120.78 627.897 1117.8 C 622.183 1117.19 616.301 1100.78 614.556 1094.99 C 608.703 1075.59 595.976 1060.22 587.196 1042.66 z" fill="currentColor" />
<path d="M 1185.61 801.01 C 1189.85 800.658 1192.6 800.019 1196.5 801.49 C 1198.58 807.115 1189.31 841.375 1187.94 851.44 C 1186.08 866.246 1184.91 881.13 1184.44 896.045 C 1183.36 924.616 1184.02 1010.46 1204.03 1029.97 C 1219.45 1045 1310.57 1058.72 1333.71 1062.09 C 1341.5 1063.22 1367.11 1062.24 1376.21 1062.18 C 1378.89 1071.05 1372.12 1075.44 1364.82 1077.75 C 1341.03 1080.27 1199.75 1078.47 1190.02 1058.84 C 1167.66 1013.76 1159.67 934.758 1162.05 883.818 C 1163.31 856.915 1163.96 819.882 1185.61 801.01 z" fill="currentColor" />
<path d="M 262.786 992.053 C 348.66 979.84 428.677 1048.64 467.751 1118.76 C 527.506 1225.98 522.474 1363.07 448.903 1462.73 C 423.781 1496.77 415.726 1495.38 379.789 1506.42 L 377.478 1505.2 C 422.501 1489.18 439.212 1465.2 460.308 1423.57 C 534.525 1277.09 478.355 1088.69 333.158 1010.32 C 312.834 999.351 286.048 994.679 262.786 992.053 z" fill="currentColor" />
<path d="M 254.028 1335.22 C 258.452 1336.05 261.951 1347.71 263.994 1352.64 C 279.311 1389.59 293.26 1410.75 318.429 1441.37 C 311.236 1445.76 290.143 1453.01 280.887 1456.72 C 277.304 1454.29 273.856 1451.51 270.428 1448.85 C 242.977 1426.31 211.697 1384.55 195.433 1352.22 C 208.256 1347.43 240.915 1338.01 254.028 1335.22 z" fill="currentColor" />
<path d="M 301.559 1042.6 C 306.913 1042.87 308.939 1044.74 313.375 1047.68 C 283.679 1085.33 267.721 1117.27 262.087 1165.54 C 252.503 1247.66 285.622 1349.14 336.92 1413.7 C 347.533 1427.05 372.938 1453.39 390.31 1455.15 C 390.674 1455.19 391.038 1455.22 391.402 1455.25 L 391.597 1456.22 L 385.529 1461.78 C 382.283 1464.51 378.831 1467.06 375.453 1469.62 C 354.453 1453.78 325.57 1427.11 311.052 1405.28 C 245.217 1306.31 214.335 1137.77 301.559 1042.6 z" fill="currentColor" />
<path d="M 1399.75 820.623 C 1401.2 820.583 1402.64 820.597 1404.09 820.666 C 1418.7 821.294 1438.54 824.835 1448.68 836.227 C 1448.77 836.697 1448.87 837.166 1448.95 837.637 C 1456.33 878.409 1430.6 1031.32 1418.54 1073.3 C 1415.1 1085.29 1410.89 1097.89 1403.52 1108.09 C 1394.43 1114.06 1390.91 1108.54 1385.4 1101.5 C 1388.36 1098.46 1391.3 1095.39 1393.93 1092.06 C 1409.63 1072.18 1434.36 885.526 1429.89 854.499 C 1427.06 834.834 1411.82 842.299 1402.11 832.884 C 1399.29 830.158 1399.75 825.757 1399.75 822.166 L 1399.75 820.623 z" fill="currentColor" />
<path d="M 624.242 1332.77 C 641.496 1334.9 745.742 1350.67 751.725 1364.57 L 750.937 1365.85 C 745.212 1368.6 735.675 1370.45 729.225 1371.95 C 692.607 1379.73 647.116 1380.85 609.97 1378.68 C 615.661 1360.92 619.485 1351.45 624.242 1332.77 z" fill="currentColor" />
<path d="M 792.573 1373.24 C 800.727 1373.9 807.224 1375.67 815.006 1377.97 C 798.207 1388.44 787.259 1391.34 770.466 1398.49 C 714.365 1422.34 692.332 1421.95 633.816 1415.06 C 624.366 1413.77 614.942 1412.29 605.549 1410.64 C 627.727 1388.51 654.693 1395.96 683.004 1394.2 C 711.202 1392.45 741.563 1392.88 768.119 1382.1 C 776.174 1378.84 784.156 1375.38 792.573 1373.24 z" fill="currentColor" />
<path d="M 205.649 1069.36 C 215.36 1068.99 248.482 1067.79 255.201 1072.68 C 256.003 1074.43 256.855 1075.85 256.067 1077.86 C 250.768 1091.36 244.896 1104.9 239.918 1118.56 L 226.302 1120.69 C 211.283 1123.11 196.151 1124.77 180.963 1125.66 C 183.594 1114.01 196.548 1075.66 205.649 1069.36 z" fill="currentColor" />
<path d="M 159.511 1106.75 C 159.964 1112.19 150.377 1150.47 148.781 1160.09 C 131.582 1263.82 170.527 1379.64 241.234 1456.46 C 260.483 1477.38 284.164 1487.1 310.306 1497.75 L 310.87 1499 C 243.251 1489.77 186.655 1414.97 166.043 1354.95 C 138.701 1275.33 130.135 1186.99 159.511 1106.75 z" fill="currentColor" />
<path d="M 626.754 1155.02 C 648.792 1154.23 681.622 1162.68 704.537 1163.43 C 706.881 1163.5 707.475 1165.23 708.335 1166.97 C 707.806 1170.78 707.658 1170.62 705.202 1173.36 C 696.563 1175.08 638.839 1172.71 628.651 1171.01 C 624.378 1167.5 624.871 1159.71 626.754 1155.02 z" fill="currentColor" />
<path d="M 250.509 1031.17 C 258.74 1030.52 276.916 1027.8 279.048 1038.19 C 274.529 1052.63 256.285 1053.29 244.284 1053.2 C 236.726 1053.16 220.074 1054.15 214.277 1050.48 L 213.932 1048.63 C 219.58 1041.04 240.806 1033.13 250.509 1031.17 z" fill="currentColor" />
<path d="M 629.104 1188.07 C 640.905 1187.08 690.37 1187.91 697.152 1195.03 C 698.117 1198.42 697.178 1199.74 695.891 1203.07 C 688.823 1206.14 634.623 1204.8 630.04 1200.66 C 628.474 1196.01 628.944 1192.97 629.104 1188.07 z" fill="currentColor" />
<path d="M 280.808 928.671 C 286.097 933.6 290.228 965.02 284.875 972.31 C 279.593 975.295 271.499 975.402 265.191 975.992 C 261.373 976.283 261.011 976.316 257.244 975.833 L 256.607 974.655 C 256.791 961.621 271.512 938.297 280.808 928.671 z" fill="currentColor" />
<path d="M 630.125 1220.65 C 646.753 1220.81 663.559 1221.63 680.187 1222.24 C 685.755 1222.45 690.153 1222.57 693.709 1227 C 694.527 1230.96 694.131 1231.67 693.269 1235.77 C 691.985 1235.98 690.694 1236.14 689.399 1236.26 C 680.927 1237.07 636.542 1235.54 630.913 1230.92 C 629.323 1227.66 629.926 1224.35 630.125 1220.65 z" fill="currentColor" />
<path d="M 634.273 1248 C 646.048 1248.81 685.323 1248.53 691.116 1258.1 C 691.313 1262.29 690.908 1261.53 688.817 1265.85 C 674.221 1264.39 659.036 1264.78 644.43 1263.09 C 638.476 1262.4 634.303 1261.25 631.785 1255.73 C 631.987 1251.74 632.216 1251.57 634.273 1248 z" fill="currentColor" />
<path d="M 633.435 1276.17 C 647.414 1277.44 661.77 1279.05 675.731 1280.72 C 681.536 1281.41 687.532 1282.23 689.429 1288.21 C 689 1291.75 688.956 1291.49 686.559 1294.2 C 675.961 1295.11 635.82 1291.67 630.414 1281.98 C 630.719 1278.23 630.444 1279.55 633.435 1276.17 z" fill="currentColor" />
<path d="M 628.961 1309.38 C 636.147 1308.18 682.867 1310.43 690.914 1314.59 C 693.687 1316.02 693.486 1321.85 693.549 1325.06 C 678.906 1324.3 647.756 1317.69 632.644 1313.98 C 629.763 1313.27 630.015 1312.05 628.961 1309.38 z" fill="currentColor" />
<path d="M 324.86 1460.25 C 336.089 1460.44 340.776 1468.06 348.072 1475.87 C 341.228 1476.5 337.56 1476.69 330.707 1476.49 C 319.885 1474.96 313.857 1473.58 304.484 1468 C 311.928 1463.95 316.615 1461.85 324.86 1460.25 z" fill="currentColor" />
<path d="M 379.789 1506.42 C 372.927 1508.37 370.429 1509.02 363.352 1509.79 L 362.229 1508.4 L 362.337 1509.83 L 361.297 1508.76 L 361.327 1509.79 L 360.518 1509.58 L 361.905 1508.47 L 362.355 1509.77 L 362.931 1509.76 L 363.311 1508.02 C 366.934 1507.04 373.577 1505.96 377.478 1505.2 L 379.789 1506.42 z" fill="currentColor" />
<metadata><recraft-signature>{"signed_by": "recraft", "signature_b64": "rVCH6gTY5cYGxNBU5Z+DFQTZdLiu9CXAESVZEk6ZK1rOu5PnJ4B0o5hPemB2pQJ1p6ydKzX2/3cfFCFr+d6NBg==", "signing_algo": "Ed25519", "generation_timestamp": 1772065280, "identifier": "6bc07766-8bc1-4fbe-bdb6-22dea812dae2"}</recraft-signature></metadata></g></svg>