<svg xmlns="http://www.w3.org/2000/svg" viewBox="0 0 24 24">
<g transform="scale(0.011719,0.011719)"><path d="M 922.594 128.35 C 935.142 128.068 952.849 141.235 963.729 147.954 C 981.332 158.964 999.031 169.82 1016.82 180.52 C 1048.31 177.97 1065.63 190.357 1062.52 223.87 C 1099.58 294.46 1136.2 365.287 1172.36 436.345 L 1210.48 512.832 C 1218.7 529.354 1227.81 548.697 1237.42 564.161 C 1283.89 568.999 1274.56 615.533 1261.95 645.818 C 1332.22 687.723 1413.05 729.435 1485.28 769.203 C 1591.01 827.747 1696.36 886.981 1801.32 946.9 L 1902.49 1003.5 C 1913.04 1009.37 1946.92 1027.27 1954.44 1034.08 C 1955.36 1039.33 1954.74 1065.49 1954.72 1072.96 L 1954.74 1163.63 L 1954.89 1510.24 C 1945.91 1516.85 1909.78 1535.68 1897.77 1542.52 L 1773.65 1613.77 L 1581.78 1722.78 C 1550.96 1740.33 1514 1762.94 1483.19 1778.72 C 1468.89 1771.83 1451.41 1761.69 1437.04 1754.06 L 1324.4 1693.59 L 1173.49 1612.21 C 1158.63 1604.05 1143.42 1596.37 1128.76 1587.92 C 1121.81 1593.26 1114.89 1596.6 1106.98 1600.21 L 1106.85 1779.74 C 1101.98 1783.53 1096.71 1786.22 1091.31 1789.22 C 1084.35 1786.72 1077.74 1782.79 1071.47 1778.93 L 1071.06 1620.76 C 1065.67 1623.42 1061.32 1625.72 1056.12 1628.73 L 1055.97 1811.59 C 1051.07 1815.63 1048.16 1817.17 1042.74 1820.25 C 1034.66 1816.3 1028.86 1813.12 1021.15 1808.5 L 1021.12 1648.47 L 1006.91 1656.38 L 1007.08 1839.86 C 1002.04 1843.92 998.711 1845.95 992.733 1848.3 C 985.211 1845.94 979.294 1842.68 972.576 1838.72 C 971.731 1820.64 972.234 1798.85 972.177 1780.5 L 971.949 1676.65 L 959.118 1683.76 L 959.098 1866.1 C 953.107 1870.48 951.233 1871.41 944.505 1874.55 C 936.814 1871.07 930.578 1868.36 923.332 1863.93 C 922.385 1844.69 923.152 1819.09 923.169 1799.47 L 923.103 1680.1 C 902.656 1670.02 881.728 1658.24 861.583 1647.4 L 755.184 1590.15 L 405.901 1402.59 L 405.991 1569.95 C 399.975 1574.05 395.362 1576.55 388.931 1580.01 C 382.484 1578.43 376.523 1574.8 370.85 1571.48 C 370.031 1508.74 371.495 1445.6 370.38 1383.12 C 337.063 1365.22 302.998 1347.97 270.259 1329.11 C 265.205 1335.29 255.419 1340.92 248.219 1334.43 C 242.62 1329.39 243.795 1321.89 243.962 1315 C 238.305 1311.08 231.967 1307.42 226.037 1303.85 L 225.992 1358.06 C 220.74 1361.53 216.818 1363.22 211.115 1365.85 C 202.77 1362.43 198.038 1359.8 191.144 1354.11 L 191.044 1284.36 C 185.672 1281.33 180.308 1278.69 174.797 1275.94 C 174.715 1314.04 174.409 1352.14 173.878 1390.23 C 168.146 1394.84 165.583 1396.37 159.142 1399.82 C 152.041 1396 145.732 1392.61 138.931 1388.3 C 138.047 1376.75 138.801 1354.82 138.824 1342.67 L 138.773 1256.67 L 123.797 1248.58 L 123.258 1416.53 C 118.03 1419.78 114.664 1421.52 109.183 1424.2 C 100.675 1420.72 95.9294 1418.67 87.9277 1414.19 L 87.978 1229.43 C 86.3809 1228.77 82.2152 1226.84 81.031 1225.7 C 74.3786 1219.3 77.3253 1196.77 77.498 1187.19 C 81.8019 1182.6 87.455 1179.52 92.6146 1175.27 C 92.5273 1172.99 92.5216 1172.71 92.8853 1170.47 C 96.6762 1166.81 104.975 1162.52 109.857 1159.74 L 109.284 905.668 C 116.362 899.522 163.184 874.591 175.386 867.788 L 318.96 786.773 L 318.889 726.497 C 318.821 676.825 314.914 650.611 345.23 608.259 C 347.381 574.175 370.748 538.591 401.415 523.461 C 411.289 518.59 418.94 520.738 428.23 524.692 C 441.57 513.409 457.804 502.115 472.115 491.748 L 538.796 443.682 L 727.745 307.434 C 765.525 280.223 809.114 250.539 844.855 221.794 C 851.399 181.606 878.013 133.098 922.594 128.35 z" fill="currentColor" />
<path d="M 514.78 761.241 C 549.6 778.521 591.273 804.115 625.583 823.856 L 827.649 939.469 C 939.947 1002.11 1051.83 1065.49 1163.28 1129.62 C 1267.44 1188.38 1373.73 1247.25 1477.1 1307.26 L 1477.61 1587.25 L 1477.91 1702.92 C 1477.9 1719.48 1478.63 1745.96 1477.42 1761.4 C 1452.02 1748.66 1425.37 1733.62 1400.48 1719.8 L 1213.55 1619.65 L 1160.84 1590.85 C 1151.24 1585.63 1137.31 1577.64 1127.41 1573.8 L 1127.11 1556.72 C 1102.19 1543.9 1077.37 1529.34 1052.71 1515.87 L 928.66 1448.75 L 569.817 1253.67 C 607.621 1234.88 650.796 1209.25 687.891 1188.17 C 689.067 1095.56 687.555 999.286 687.202 906.555 C 671.654 896.378 651.165 885.684 634.902 876.085 C 595.459 852.804 554.056 830.684 515.049 806.891 L 514.78 761.241 z" fill="currentColor" />
<path d="M 779.127 972.439 C 784.885 974.074 816.035 991.924 823.554 996.411 C 846.866 1010.32 874.299 1024.06 896.914 1038.5 C 897.79 1061.63 897.349 1087.19 897.384 1110.57 L 897.437 1240.3 L 897.655 1327.11 C 897.692 1342.45 897.92 1358.18 897.471 1373.53 C 897.319 1378.7 895.917 1379.09 892.45 1382.08 C 886.26 1379.72 853.568 1361.25 845.518 1356.69 C 822.463 1343.64 796.293 1330.98 773.825 1317.74 C 773.025 1301.82 773.597 1281.81 773.567 1265.52 L 773.286 1171.14 L 773.207 1050.26 C 773.217 1027.89 773.094 1005.42 773.47 983.061 C 773.572 977.014 774.54 976.706 779.127 972.439 z" fill="currentColor" />
<path d="M 785.738 990.995 C 789.973 992.731 794.086 994.876 798.113 997.046 C 827.421 1012.84 856.154 1029.74 885.017 1046.33 L 885.004 1363.46 C 851.803 1346.29 819.38 1326.93 785.938 1309.63 L 785.738 990.995 z" fill="currentColor" />
<path d="M 1022.32 1109.63 C 1030.86 1110.2 1125.33 1165.6 1139.52 1174.54 C 1140.15 1195.87 1139.5 1220.26 1139.44 1241.78 L 1139.45 1364.17 L 1139.66 1455.22 C 1139.7 1470.87 1139.85 1486.9 1139.56 1502.57 C 1139.48 1506.84 1139 1507.2 1136.69 1509.73 C 1134.56 1509.76 1131.65 1509.85 1129.76 1508.77 C 1092.68 1487.8 1053.43 1468.42 1017.03 1446.42 C 1014.46 1337.59 1018.66 1226.93 1017.09 1117.93 C 1017.03 1113.73 1019.41 1112.29 1022.32 1109.63 z" fill="currentColor" />
<path d="M 1029.44 1126.8 C 1058.57 1141.27 1098.32 1165 1126.62 1181.78 C 1126.88 1209.5 1127.84 1488.04 1125.97 1491.84 C 1093.86 1475.07 1061.42 1456.37 1029.71 1438.75 L 1029.44 1126.8 z" fill="currentColor" />
<path d="M 1261.64 1245.73 C 1268.04 1247.11 1370.64 1305.11 1376.17 1310.51 L 1375.94 1549.8 L 1376.14 1618.29 C 1376.17 1628.37 1376.37 1639.34 1375.81 1649.45 C 1375.66 1652.18 1373.21 1653.86 1371.08 1655.57 C 1367.11 1654.32 1353.06 1646.33 1349.06 1643.85 C 1320.8 1626.3 1285.77 1612.02 1258.51 1593.79 C 1257.57 1581.56 1258.06 1563.89 1258.05 1551.28 L 1258.03 1475.12 C 1258.28 1402.05 1258.1 1328.98 1257.48 1255.91 C 1257.47 1249.28 1257.51 1249.9 1261.64 1245.73 z" fill="currentColor" />
<path d="M 1270.77 1263.84 C 1275.34 1266.1 1280.49 1269.45 1284.96 1272.12 C 1310.94 1287.58 1337.76 1301.68 1363.63 1317.31 L 1363.42 1636.35 C 1358.79 1635.85 1282.19 1592.18 1270.97 1586.15 L 1270.77 1263.84 z" fill="currentColor" />
<path d="M 1941.08 1049.23 C 1943.31 1054.11 1941.65 1222.76 1941.64 1239 L 1941.9 1503 L 1603.65 1695.67 C 1566.46 1716.85 1528.44 1739.34 1491.1 1759.93 C 1489.42 1757.51 1489.87 1340.46 1489.84 1308.95 C 1526.68 1287.18 1563.75 1265.81 1601.04 1244.84 L 1771.71 1146.75 C 1826.03 1115.59 1886.01 1077.24 1941.08 1049.23 z" fill="currentColor" />
<path d="M 1909.56 1174.89 C 1913.65 1175.2 1912.09 1174.39 1914.76 1176.62 C 1916.04 1182.07 1914.68 1235.44 1914.59 1243.99 L 1914.13 1383.3 C 1906.78 1389.14 1881.89 1402.82 1872.38 1408.36 C 1840.47 1426.96 1808.2 1444.45 1776.43 1463.45 C 1773.99 1463.64 1774.96 1463.68 1772.5 1462.62 C 1770.66 1456.86 1771.83 1410.47 1771.83 1400.51 C 1772.07 1351.4 1771.94 1302.29 1771.45 1253.18 C 1779.77 1246.53 1821.37 1223.6 1832.33 1217.75 C 1857.14 1204.49 1884.85 1187.39 1909.56 1174.89 z" fill="currentColor" />
<path d="M 1654.2 1320.92 C 1656.9 1320.7 1656.92 1320.9 1659.56 1321.73 C 1661.62 1324.55 1660.81 1379.46 1660.82 1389.04 L 1661.02 1524.66 C 1650.02 1532.52 1628.16 1543.96 1615.4 1551.16 L 1523.31 1602.55 C 1520.72 1603.91 1520.07 1604.59 1517.17 1604.56 C 1515.53 1597.04 1516.92 1559.96 1516.92 1549.94 L 1516.81 1398.8 C 1525.49 1392.26 1545.96 1381.84 1556.35 1375.76 C 1588.41 1357.03 1622.41 1339.94 1654.2 1320.92 z" fill="currentColor" />
<path d="M 126.844 1207.1 C 138.192 1206.07 231.501 1261.38 250.038 1271.88 C 297.87 1298.57 345.847 1325 393.968 1351.17 C 446.588 1323.4 504.471 1290.37 556.434 1260.57 C 566.749 1265.73 579.502 1273.6 590.056 1279.33 C 619.645 1295.18 649.124 1311.23 678.491 1327.49 L 907.171 1451.68 L 1037.43 1522.21 C 1049.95 1528.99 1096.59 1553.82 1105.75 1560.95 C 1079.57 1575.22 1053.57 1589.79 1027.73 1604.67 C 999.891 1620.33 971.973 1635.48 944.409 1651.64 L 381.557 1350.25 C 358.333 1337.77 335.248 1324.19 312.09 1311.49 C 287.95 1298.25 263.4 1285.34 239.553 1271.63 C 217.452 1258.74 195.192 1246.13 172.779 1233.79 C 158.35 1225.71 142.658 1216.54 127.744 1209.61 L 126.844 1207.1 z" fill="currentColor" />
<path d="M 961.605 519.962 C 1000.33 540.019 1038.8 567.118 1077.24 586.236 C 1082.47 596.011 1087.62 605.831 1092.69 615.694 C 1012.58 659.951 932.801 704.807 853.362 750.257 L 775.889 794.852 C 763.192 802.068 740.682 813.609 729.624 821.895 L 730.088 840.245 L 707.573 828.349 L 562.949 745.16 C 630.247 707.959 697.322 670.357 764.171 632.354 L 874.247 569.609 C 902.708 553.206 932.61 535.137 961.605 519.962 z" fill="currentColor" />
<path d="M 947.967 328.016 C 952.193 332.559 971.77 374.454 975.521 381.925 L 1029.05 489.509 C 1036.13 503.586 1043.76 517.135 1050.7 531.319 C 1019.94 514.512 990.735 495.876 960.294 479.298 C 950.51 483.191 933.486 493.473 923.623 499.143 L 854.351 539.382 L 607.514 679.783 C 575.132 698.236 542.568 716.366 509.825 734.171 C 510.025 715.269 509.867 696.268 506.718 677.593 C 524.894 659.464 534.225 645.216 539.491 620.098 C 567.518 598.995 600.383 576.969 629.39 556.066 L 947.967 328.016 z" fill="currentColor" />
<path d="M 1765.45 970.313 C 1776.15 974.705 1794.72 985.718 1805.39 991.607 C 1833.05 1006.88 1859.61 1022.55 1888 1036.67 C 1859.63 1052.25 1830.92 1070.08 1802.66 1086.31 L 1686.9 1152.45 C 1624.09 1189.36 1561.06 1225.92 1497.83 1262.1 L 1482.47 1270.71 C 1473.17 1262.11 1450.35 1250.11 1438.57 1243.5 C 1419.55 1232.81 1403.87 1223.52 1385.66 1211.45 L 1765.14 989.275 C 1765.28 982.955 1765.39 976.634 1765.45 970.313 z" fill="currentColor" />
<path d="M 405.205 604.31 C 410.232 606.094 421.819 612.949 428.694 615.985 C 419.537 633.748 417.628 662.406 427.403 680.212 C 438.415 685.834 455.3 694.934 466.679 698.198 C 472.019 697.035 475.601 695.55 480.644 693.617 C 482.083 774.316 481.672 861.257 480.702 942.121 C 466.237 956.094 451.835 961.367 432.649 965.451 C 401.571 969.173 368.814 965.661 345.868 942.293 C 345.292 882.972 345.139 823.649 345.409 764.326 C 345.444 734.544 344.223 699.71 347.604 670.294 C 348.534 662.209 356.532 644.009 361.363 637.012 C 373.916 618.831 383.552 609.139 405.205 604.31 z" fill="currentColor" />
<path d="M 1656.62 915.896 C 1659.79 916.871 1681.51 928.633 1685.81 931.101 C 1705.89 942.631 1729.59 954.07 1748.94 966.318 C 1710.08 991.923 1655.35 1020.31 1613.97 1043.75 L 1380.39 1175.8 L 1377.6 1176.72 C 1369.75 1174.66 1300.91 1132.93 1290.23 1126.4 C 1302.58 1117.47 1326.79 1104.14 1340.68 1096.13 L 1426.84 1046.71 C 1503.81 1002.96 1579 958.785 1656.62 915.896 z" fill="currentColor" />
<path d="M 655.345 929.806 C 656.304 930.053 655.642 929.824 657.097 930.97 C 658.202 979.144 657.208 1031.78 656.89 1080.26 C 648.203 1084.28 634.876 1092.15 626.083 1097.01 L 570.645 1127.69 L 404.83 1220.37 L 403.935 1220.01 C 402.654 1216.89 403.297 1085.56 403.258 1070.97 C 435.467 1051.81 470.255 1032.94 502.984 1014.51 C 553.551 985.882 604.339 957.646 655.345 929.806 z" fill="currentColor" />
<path d="M 134.857 937.251 C 173.447 957.342 211.494 979.559 249.518 1000.74 C 292.732 1024.3 335.776 1048.17 378.648 1072.35 L 378.889 1218.77 C 360.616 1210.9 331.579 1194.47 313.697 1184.85 L 193.613 1119.38 C 174.818 1109.08 154.536 1096.48 135.162 1088.09 C 135.415 1037.81 135.313 987.529 134.857 937.251 z" fill="currentColor" />
<path d="M 851.68 248.898 C 859.128 250.365 911.728 283.231 923.895 289.251 C 874.527 325.755 820.271 362.565 769.923 398.175 L 520.062 577.272 C 518.134 576.87 511.888 573.092 509.577 571.964 C 488.886 561.86 469.322 550.889 448.556 540.63 C 462.193 531.173 476.563 519.959 490.222 510.135 L 615.046 420.163 L 789.726 293.721 C 810.367 278.673 831.234 264.233 851.68 248.898 z" fill="currentColor" />
<path d="M 1096.73 626.912 C 1099.81 630.188 1112.24 656.757 1114.98 662.434 C 1098.83 672.1 1058.07 692.652 1046.32 702.583 C 1045.6 719.489 1046.22 741.636 1046.09 759.225 C 979.119 799.022 908.134 836.778 840.341 875.993 C 825.231 868.313 809.27 858.691 794.483 850.151 C 779.682 841.075 764.447 833.643 749.566 823.902 C 820.768 782.909 892.207 742.33 963.881 702.169 C 1008.41 676.967 1052.56 652.808 1096.73 626.912 z" fill="currentColor" />
<path d="M 1051.9 249.955 C 1056.55 255.355 1082.23 309.326 1087.72 319.991 C 1116.68 375.455 1145.15 431.167 1173.15 487.123 C 1186.27 513.172 1203.63 545.776 1215.18 571.996 C 1189.43 588.039 1171.81 612.417 1160.02 639.894 C 1149.88 615.617 1130.58 579.906 1118.5 555.492 L 1046.91 413.464 C 1029.78 380.211 1012.4 348.004 995.659 314.38 L 996.923 313.836 C 1024.08 301.846 1041.46 276.925 1051.9 249.955 z" fill="currentColor" />
<path d="M 1485.92 811.85 C 1494.18 813.748 1570.2 857.686 1582.37 864.902 C 1566.3 876.435 1538.96 890.64 1520.73 901.153 L 1400.24 970.616 C 1366.47 953.228 1333.7 935.255 1300.18 917.485 C 1315.2 909.946 1336.12 897.252 1351.16 888.775 L 1485.92 811.85 z" fill="currentColor" />
<path d="M 1138.08 808.696 C 1169.73 825.189 1201.18 842.047 1232.44 859.266 C 1211.82 869.413 1191.16 882.38 1170.84 893.549 C 1120.48 921.022 1070.32 948.85 1020.35 977.03 C 1013.69 971.44 993.976 961.176 985.644 956.583 C 966.6 946.015 948.175 934.713 929.018 924.233 C 936.107 919.907 943.974 915.526 951.264 911.498 C 1002.47 883.205 1053.12 852.276 1104.99 825.304 C 1104.9 842.263 1104.92 859.223 1105.06 876.183 C 1108.97 880.73 1113.22 885.326 1119.44 886.012 C 1125.97 886.732 1136.96 881.463 1137.49 874.151 C 1139.06 852.531 1137.88 830.465 1138.08 808.696 z" fill="currentColor" />
<path d="M 1288.79 924.947 C 1296.03 929.874 1311.57 937.851 1319.79 942.297 C 1341.98 954.227 1364.26 965.978 1386.63 977.547 C 1329.34 1011.91 1266.04 1046.34 1207.45 1078.81 C 1206.56 1079.29 1204.45 1080.19 1203.64 1079.75 C 1182 1067.93 1130.35 1037.85 1111.68 1026.77 C 1127.73 1016.78 1148.44 1005.53 1165.15 995.865 L 1288.79 924.947 z" fill="currentColor" />
<path d="M 958.443 494.035 C 964.877 496.008 985.855 508.603 992.567 512.463 L 1061.04 552.01 L 1067.38 566.003 C 1034.42 550.312 994.918 521.603 962.028 505.404 C 954.791 508.739 942.695 516.203 935.392 520.336 C 917.23 530.556 899.121 540.87 881.064 551.276 L 740.375 631.242 L 609.09 705.581 C 587.939 717.479 565.436 729.025 544.997 741.839 C 542.208 743.587 542.779 742.778 542.312 745.412 C 544.499 751.742 568.176 762.875 575.818 767.2 C 595.546 778.373 615.199 789.676 634.778 801.107 C 714.167 847.23 793.97 892.636 874.178 937.318 L 1393.18 1231.7 C 1420.94 1248.01 1449.4 1263.57 1476.92 1280.23 L 1477.11 1292.49 C 1435.46 1269.65 1393.32 1244.73 1351.9 1221.32 L 948.943 992.591 C 845.434 934.877 742.439 876.244 639.971 816.7 C 601.293 794.247 553.883 769.433 516.899 745.733 C 529.426 737.198 554.606 723.873 568.42 716.003 L 670.846 657.931 L 958.443 494.035 z" fill="currentColor" />
<path d="M 1418.84 773.773 C 1433.55 780.587 1461.15 795.87 1475.04 804.474 C 1441.79 820.674 1398.84 846.769 1365.98 865.62 L 1171.6 978.092 C 1150.51 990.391 1117.76 1007.18 1097.76 1021.76 C 1092.64 1025.49 1097.08 1043.06 1094.35 1047.81 L 1092.25 1047.05 L 1032.64 1013.06 C 1094.56 975.004 1166.85 935.908 1230.77 900.704 C 1293.32 866.098 1355.57 830.937 1417.5 795.222 C 1417.99 788.076 1418.44 780.926 1418.84 773.773 z" fill="currentColor" />
<path d="M 1310.1 713.142 C 1315.3 715.968 1320.81 718.751 1326.09 721.427 C 1352.3 734.704 1377.44 750.357 1403.67 763.546 C 1352.97 791.166 1302.54 822.407 1251.34 850.008 C 1249.24 849.994 1165.27 804.273 1157.48 800.083 C 1206.21 771.884 1260.74 739.367 1310.1 713.142 z" fill="currentColor" />
<path d="M 1256 657.777 C 1483.76 782.365 1710.6 908.638 1936.5 1036.59 C 1919.61 1047.22 1898.18 1058.78 1880.62 1068.85 L 1779.65 1126.82 L 1503.43 1286.5 C 1498.71 1289.41 1494.04 1291.76 1489.13 1294.32 L 1489.06 1282.27 C 1523.88 1259.34 1576.69 1230.93 1613.55 1209.78 L 1833.33 1083.18 C 1854.79 1070.78 1885.15 1054.25 1906.47 1040.71 C 1907.99 1039.75 1907.45 1036.91 1907.36 1035.12 C 1902.01 1028.93 1817.32 984.051 1804.61 976.842 L 1430.71 764.082 C 1394.52 743.921 1357.58 724.243 1321.12 704.511 C 1296.98 691.443 1272.56 680.478 1248.94 665.842 L 1256 657.777 z" fill="currentColor" />
<path d="M 317.706 813.996 C 320.04 816.715 319.377 832 319.399 836.704 C 287.158 856.963 235.375 872.363 220.341 907.365 C 205.242 913.897 178.88 924.036 206.511 939.301 C 255.647 966.446 305.561 992.209 354.501 1019.76 C 366.362 1026.43 379.35 1033.76 391.744 1039.15 C 401.873 1034.56 414.273 1027.12 424.141 1021.54 L 478.677 990.585 C 510.646 972.531 549.557 953.058 579.343 932.729 C 582.288 926.748 587.605 915.338 585.554 909.17 C 583.112 901.829 564.023 893.56 556.991 889.602 C 540.17 880.133 523.154 871.654 507.036 861.133 C 506.873 853.402 507.012 845.258 507.017 837.49 C 531.418 850.389 555.519 863.847 579.301 877.853 C 599.13 889.758 619.36 900.983 639.955 911.507 C 627.782 919.095 610.314 928.019 597.452 935.134 L 522.836 976.578 C 478.804 1000.91 434.226 1027.54 390.017 1050.81 C 377.673 1044.87 361.095 1035.06 348.771 1028.33 C 319.118 1012.37 289.662 996.044 260.41 979.358 C 221.265 957.193 180.761 935.955 142.328 913.043 C 179.538 890.908 219.226 870.526 256.768 848.714 C 276.762 837.098 297.378 824.854 317.706 813.996 z" fill="currentColor" />
<path d="M 503.739 878.047 C 517.97 886.782 564.299 910.208 572.757 918.02 C 563.079 926.803 517.384 952.008 502.807 959.946 C 465.848 980.07 427.474 1003.46 390.427 1022.9 C 356.068 1003.43 321.023 984.961 286.454 965.723 C 272.062 957.809 258.034 950.012 243.263 942.789 C 270.456 928.555 297.503 914.043 324.4 899.255 C 324.18 915.438 321.493 938.304 332.841 950.684 C 369.306 990.333 445.118 989.519 486.13 957.565 C 512.323 937.156 500.645 906.961 503.739 878.047 z" fill="currentColor" />
<path d="M 90.8161 1200.86 C 94.388 1203.68 98.3152 1206 102.182 1208.39 C 129.795 1225.42 158.44 1240.66 186.835 1256.33 L 351.598 1347.52 L 940.447 1663.69 L 940.443 1674.78 C 902.037 1655.68 862.313 1633.55 824.292 1613.16 L 598.455 1491.33 C 427.994 1400.95 258.653 1308.48 90.4719 1213.92 L 90.8161 1200.86 z" fill="currentColor" />
<path d="M 925.316 152.852 C 931.292 152.249 962.003 172.343 968.904 176.719 C 939.586 183.883 916.027 214.829 905.816 241.993 L 902.342 254.146 C 892.321 247.281 880.477 241.584 871.07 234.135 C 873.607 195.651 890.89 169.606 925.316 152.852 z" fill="currentColor" />
<path d="M 1056.47 767.749 C 1061.07 767.52 1070.68 773.902 1074.88 776.455 L 856.443 898.802 C 852.799 901.02 847.879 903.068 843.914 904.865 L 843.861 888.756 C 862.315 875.602 894.548 859.365 915.027 847.793 L 1056.47 767.749 z" fill="currentColor" />
<path d="M 938.818 294.779 C 941.393 296.817 941.654 297.883 942.073 300.349 C 938.481 306.711 911.677 322.784 904.265 328.06 L 765.824 427.014 L 607.493 540.947 C 585.41 556.598 557.861 577.503 535.46 591.671 C 533.201 589.595 532.857 589.156 530.993 586.699 C 533.003 581.917 596.29 538.466 604.394 532.762 L 689.698 471.99 C 772.295 412.3 855.338 353.228 938.818 294.779 z" fill="currentColor" />
<path d="M 966.988 318.868 C 970.023 318.703 971.239 318.375 974.017 319.654 C 988.157 344.844 1002.94 376.324 1016.19 402.475 L 1094.61 558.517 L 1126.46 621.671 C 1133.79 636.182 1148.58 663.519 1151.39 678.586 C 1141.94 675.135 1090.63 567.275 1082.35 551.144 C 1065.83 518.967 1047.75 481.46 1031.37 448.902 L 992.874 372.419 C 985.18 357.351 972.58 334.144 966.988 318.868 z" fill="currentColor" />
<path d="M 414.039 541.905 C 420.968 543.994 458.62 563.816 467.912 568.384 C 452.598 580.943 447.97 584.416 437.559 600.753 L 425.188 593.927 C 400.108 578.197 398.655 579.437 372.179 592.255 C 379.924 568.455 393.059 554.95 414.039 541.905 z" fill="currentColor" />
<path d="M 1392.16 988.91 L 1393.46 989.975 L 1393.28 1002.74 C 1346.4 1030.21 1298.39 1056.21 1251.29 1083.33 C 1238.28 1090.82 1224.9 1098.5 1211.41 1105.04 L 1209.74 1104.66 C 1208.37 1101.52 1208.9 1096.59 1208.97 1092.99 C 1230.64 1079.13 1251.89 1067.78 1274.26 1055.3 C 1313.75 1033.5 1353.05 1011.37 1392.16 988.91 z" fill="currentColor" />
<path d="M 1587.04 876.068 C 1588.9 877.995 1588.23 887.541 1588.2 890.682 C 1529.33 925.814 1466.14 961.159 1406.45 995.4 C 1404.45 993.09 1405.46 985.46 1405.61 982.015 C 1465.84 946.199 1527.19 912.427 1587.04 876.068 z" fill="currentColor" />
<path d="M 317.701 853.967 C 319.486 856.462 318.767 881.895 318.747 886.446 C 299.619 898.281 241.351 924.729 230.099 936.335 L 219.653 930.462 L 212.716 926.034 C 243.369 912.803 246.171 904.25 269.94 883.201 C 279.915 874.366 305.023 861.199 317.701 853.967 z" fill="currentColor" />
<path d="M 1236.91 871.103 C 1238.46 873.45 1237.93 878.912 1237.91 882.025 C 1229.38 887.247 1219.91 892.346 1211.06 897.079 C 1148.89 930.329 1088.19 967.691 1026.14 1000.96 C 1024.85 998.451 1025.31 991.716 1025.32 988.518 C 1042.04 979.734 1059.99 969.112 1076.65 959.864 C 1129.85 929.885 1183.27 900.297 1236.91 871.103 z" fill="currentColor" />
<path d="M 1219.45 706.96 C 1220.48 709.638 1220.35 727.975 1221.32 734.208 C 1196.33 749.102 1171.01 763.195 1146.11 778.17 L 1145.15 777.327 C 1144.22 771.978 1144.88 755.726 1144.98 749.509 C 1167.54 737.952 1196.75 719.903 1219.45 706.96 z" fill="currentColor" />
<path d="M 990.537 198.439 L 993.692 198.305 C 994.402 199.771 978.881 214.631 976.566 217.576 C 969.546 226.507 963.828 235.319 959.301 245.783 C 956.042 253.315 953.559 260.847 950.99 268.587 C 943.151 271.494 940.509 272.686 932.277 270.898 C 928.76 269.199 925.502 267.401 925.542 262.935 C 925.682 247.551 936.784 229.059 946.747 217.943 C 959.348 203.881 972.258 199.419 990.537 198.439 z" fill="currentColor" />
<path d="M 1068.34 721.236 C 1077.77 724.483 1112.65 745.324 1120.77 751.627 C 1122.24 763.832 1122.03 775.311 1122 787.554 C 1118.29 785.52 1114.03 782.577 1110.37 780.236 C 1096.7 771.503 1082.5 764.063 1068.17 756.467 C 1068.1 744.79 1068.27 732.929 1068.34 721.236 z" fill="currentColor" />
<path d="M 1113.78 1570.92 C 1114.14 1572.89 1114.51 1577.81 1114.14 1579.74 C 1113.7 1582.01 1112.79 1582.49 1110.66 1583.69 C 1094.85 1592.62 1078.61 1601.29 1062.78 1610.15 C 1025.79 1630.7 989.046 1651.71 952.566 1673.16 C 952.262 1668.8 951.897 1667.49 953.09 1663.41 C 962.664 1652.68 1095.87 1580.64 1113.78 1570.92 z" fill="currentColor" />
<path d="M 936.258 1687.76 C 939.698 1689.22 943.297 1690.5 946.81 1691.81 L 946.939 1804.11 C 946.957 1818.62 947.737 1845.56 946.458 1858.95 C 942.996 1858.29 941.832 1857.84 938.495 1856.6 C 936.705 1854.59 936.61 1854.63 936.528 1851.26 C 936.101 1833.63 936.279 1815.46 936.274 1797.85 L 936.258 1687.76 z" fill="currentColor" />
<path d="M 383.071 1390.36 C 386.534 1392 390.25 1394.04 393.679 1395.83 C 393.193 1451.46 393.192 1507.09 393.676 1562.71 C 390.353 1563.84 388.273 1564.6 384.915 1563.74 C 382.549 1559.72 383.06 1409.85 383.071 1390.36 z" fill="currentColor" />
<path d="M 101.132 1234.55 L 111.067 1240.76 L 110.914 1409.17 C 107.395 1408.92 104.184 1408.96 101.604 1406.66 C 100.328 1399.65 100.911 1362.28 100.92 1353.61 L 101.132 1234.55 z" fill="currentColor" />
<path d="M 1405.46 776.947 L 1406.63 777.271 C 1407.24 779.947 1407.77 785.403 1405.09 787.202 C 1399.35 791.007 1393.37 794.601 1387.4 798.046 C 1342.81 823.785 1297.66 848.2 1253.41 874.567 C 1251.71 872.295 1251.69 870.702 1251.18 867.915 C 1251.99 865.288 1251.55 865.419 1254.56 863.522 C 1270.89 853.233 1288.69 843.499 1305.44 833.982 L 1405.46 776.947 z" fill="currentColor" />
<path d="M 1042.82 1635.9 C 1043.53 1639.46 1043.34 1657.18 1043.35 1661.72 L 1043.3 1721.36 L 1043.18 1772.87 C 1043.2 1782.27 1043.7 1794.98 1042.74 1804.03 C 1040.89 1804.72 1037.91 1803.03 1035.45 1802.13 C 1034.91 1801.59 1034.37 1801.06 1033.83 1800.52 C 1033.16 1766.55 1033.34 1670.13 1033.44 1641.58 L 1042.82 1635.9 z" fill="currentColor" />
<path d="M 1092.94 1608.17 C 1094.15 1610.73 1094.09 1641.53 1093.78 1645.51 C 1092.61 1660.34 1095.76 1769.92 1092.14 1773.55 L 1087.66 1772.91 L 1085.11 1770.84 C 1082.43 1765.45 1083.8 1628.72 1083.83 1613.78 L 1092.94 1608.17 z" fill="currentColor" />
<path d="M 992.482 1664.92 C 993.382 1665.46 994.131 1665.76 994.145 1666.93 C 994.778 1718.91 994.056 1771.04 994.382 1823.06 C 994.403 1826.46 994.442 1828.95 993.175 1831.32 L 986.288 1830.72 L 985.373 1829.87 C 984.006 1820.45 984.731 1788.26 984.703 1777.01 L 984.282 1669.36 L 992.482 1664.92 z" fill="currentColor" />
<path d="M 1127.25 685.096 C 1127.41 685.171 1137.41 697.246 1138.99 698.965 C 1144.58 705.048 1148.89 708.496 1155.59 713.459 C 1146.1 718.593 1136.23 725.662 1126.05 729.042 C 1122.93 730.077 1120.6 728.52 1117.74 726.986 C 1107.09 721.346 1096.4 715.774 1085.68 710.271 C 1099.42 701.691 1113.28 693.299 1127.25 685.096 z" fill="currentColor" />
<path d="M 299.328 1247.77 C 304.218 1248.08 327.382 1261.55 332.626 1264.59 C 328.585 1267.9 306.189 1287.16 303.364 1288.71 C 290.972 1281.88 278.526 1275.16 266.028 1268.53 C 276.335 1262.67 289.033 1254.18 299.328 1247.77 z" fill="currentColor" />
<path d="M 1108.31 1040.3 C 1112.08 1041.9 1117.15 1044.74 1120.71 1046.82 C 1145.66 1061.36 1171.79 1075 1196.01 1090.68 L 1196.07 1104.76 C 1168.18 1091.06 1136.32 1071.5 1108.91 1055.84 L 1108.31 1040.3 z" fill="currentColor" />
<path d="M 918.97 933.933 C 950.622 951.119 981.617 969.387 1013.21 986.502 L 1013.19 1001.17 C 984.227 984.177 948.945 963.702 919.046 948.774 L 918.97 933.933 z" fill="currentColor" />
<path d="M 238.419 1211.91 C 240.719 1212.08 266.153 1226.26 270.859 1228.51 C 261.423 1234.88 247.019 1244.1 239.561 1252.11 C 227.564 1245.68 216.735 1239.72 205.076 1232.71 C 214.778 1225.34 227.791 1217.88 238.419 1211.91 z" fill="currentColor" />
<path d="M 1289.73 1141.38 C 1297.71 1145.29 1309.8 1152.8 1317.75 1157.4 L 1371.32 1188.36 L 1371.42 1203.9 C 1344.01 1188.79 1316.82 1173.32 1289.85 1157.46 L 1289.73 1141.38 z" fill="currentColor" />
<path d="M 1227.8 606.125 C 1232.44 607.153 1231.71 606.239 1234.25 609.156 C 1238.86 627.232 1213.46 657.067 1197.36 664.318 C 1193.37 664.299 1193.5 664.274 1191.29 661.502 C 1187.65 644.617 1212.27 612.344 1227.8 606.125 z" fill="currentColor" />
<path d="M 151.579 1263.11 C 154.822 1264.45 158.878 1266.5 162.137 1268.02 C 162.083 1305.39 162.56 1346.31 161.295 1383.48 C 157.603 1382.76 155.709 1382.75 152.779 1380.38 C 150.007 1375.26 151.121 1276.46 151.579 1263.11 z" fill="currentColor" />
<path d="M 440.466 1281.92 C 447.361 1286.48 457.978 1291.59 465.545 1295.43 C 459.225 1300.91 436.6 1312.96 428.306 1317.59 C 422.632 1320.58 416.661 1324.08 411.034 1327.25 L 410.912 1297.69 C 419.596 1294.18 431.987 1286.7 440.466 1281.92 z" fill="currentColor" />
<path d="M 358.348 1286.85 C 363.648 1286.67 375.135 1294.09 380.009 1296.92 L 380.007 1331.16 L 360.743 1320.93 C 350.379 1315.3 340.503 1309.76 329.712 1304.96 C 339.191 1298.82 348.737 1292.78 358.348 1286.85 z" fill="currentColor" />
<path d="M 174.606 1178.9 C 178.507 1179.02 201.278 1191.81 206.138 1194.46 C 195.81 1201.5 185.151 1208.54 176.235 1217.3 C 170.65 1212.81 150.143 1201.5 142.955 1197.38 C 152.37 1191.36 164.767 1184.59 174.606 1178.9 z" fill="currentColor" />
<path d="M 569.301 1209.73 C 573.339 1210.26 594.219 1219.05 596.38 1222.44 C 593.869 1226.38 568.517 1239.28 562.469 1242.55 L 543.668 1252.84 L 543.613 1224.08 L 569.301 1209.73 z" fill="currentColor" />
<path d="M 742.804 835.934 C 767.003 847.343 808.67 872.334 831.959 886.535 L 831.901 898.86 C 825.762 896.345 807.946 885.765 801.319 881.954 L 742.872 848.19 L 742.804 835.934 z" fill="currentColor" />
<path d="M 503.293 1245.31 C 512.014 1247.79 524.31 1254.26 532.404 1258.5 C 522.929 1265.25 510.035 1271.77 499.638 1277.43 C 492.708 1281.33 486.835 1284.63 479.635 1287.96 C 479.639 1278.57 479.595 1269.19 479.504 1259.81 C 487.256 1255.71 496.766 1251.03 503.293 1245.31 z" fill="currentColor" />
<path d="M 634.27 1175.82 C 641.648 1177.56 652.726 1183.66 659.813 1187.3 C 653.191 1192.69 636.348 1201.45 628.191 1205.9 L 610.667 1216.21 L 610.744 1187.11 L 634.27 1175.82 z" fill="currentColor" />
<path d="M 497.824 582.309 L 498.62 583.019 C 494.052 586.609 487.8 590.489 483.72 594.425 C 463.01 614.41 445.616 644.6 452.709 674.278 C 453.185 676.269 453.218 675.287 452.411 677.28 L 449.406 676.535 L 448.586 675.944 C 444.584 673.121 442.435 671.184 441.895 666.086 C 438.239 631.604 462.546 588.064 497.824 582.309 z" fill="currentColor" />
<path d="M 136.032 1116.72 L 178.114 1137.48 L 161.548 1147.12 C 153.122 1152.23 144.611 1157.2 136.02 1162.02 L 136.032 1116.72 z" fill="currentColor" />
<path d="M 1600.28 874.76 C 1617.41 884.87 1634.71 894.707 1652.15 904.265 L 1645.41 907.976 L 1631.31 914.963 C 1620.81 909.779 1610.38 902.87 1600.41 896.62 L 1600.28 874.76 z" fill="currentColor" />
<path d="M 1247.18 685.692 C 1258.6 690.76 1274.11 699.705 1285.46 705.859 L 1271.84 713.543 C 1264.21 718.416 1254.93 723.353 1246.96 727.84 L 1247.18 685.692 z" fill="currentColor" />
<path d="M 654.635 1142.85 C 655.026 1144.01 654.927 1144.67 654.992 1145.94 C 652.122 1150.12 520.563 1220.56 505.687 1228.82 C 479.233 1243.52 427.862 1274.74 399.738 1288.58 L 399.678 1287.51 C 403.24 1281.46 628.118 1159.63 654.635 1142.85 z" fill="currentColor" />
<path d="M 339.434 1225.67 C 349.368 1229.94 360.819 1236.65 370.448 1241.95 C 363.285 1246.82 355.274 1252.58 347.488 1256.29 C 344.013 1257.95 343.549 1257.09 340.589 1255.79 C 332.25 1251.8 321.843 1245.73 313.551 1241.21 C 324.528 1233.29 323.697 1240.58 334.792 1242.74 C 340.266 1243.81 339.411 1228.58 339.434 1225.67 z" fill="currentColor" />
<path d="M 276.932 1190.23 C 284.614 1193.64 299.181 1202.28 307.12 1206.73 C 302.173 1209.71 283.677 1221.48 279.675 1221.09 C 270.194 1216.06 260.788 1210.89 251.461 1205.58 C 264.546 1198.07 267.705 1210.15 275.611 1203.16 C 277.555 1199.19 276.973 1194.81 276.932 1190.23 z" fill="currentColor" />
<path d="M 213.636 1156.31 C 223.655 1159.42 233.382 1165.34 242.511 1170.58 C 234.951 1175.59 226.776 1181.19 218.991 1185.87 C 216.819 1187.18 216.739 1186.58 214.589 1185.74 L 189.761 1172.26 L 189.427 1170.76 C 199.086 1160.41 202.008 1176.67 211.927 1171.01 C 213.821 1166.81 213.49 1161.11 213.636 1156.31 z" fill="currentColor" />
<path d="M 503.893 817.79 C 507.523 818.273 511.057 820.376 514.271 822.136 C 556.174 845.1 596.693 870.458 638.725 893.216 C 647.524 897.981 658.237 903.077 666.435 908.577 L 666.519 910.299 L 660.811 913.157 L 659.378 912.66 L 658.563 911.359 C 657.703 910.014 655.834 906.313 654.702 905.661 C 645.044 900.102 635.179 894.802 625.424 889.386 C 599.128 874.749 572.968 859.869 546.947 844.748 C 538.217 839.779 508.016 824.798 503.893 817.79 z" fill="currentColor" />
<path d="M 1116.92 798.815 C 1119.26 800.647 1123.65 804.94 1126.02 807.111 C 1126.15 829.018 1126.08 850.926 1125.83 872.833 C 1121.4 873.201 1120.42 873.632 1117.36 871.493 C 1116.42 864.147 1116.79 851.535 1116.79 843.838 C 1116.71 828.83 1116.76 813.822 1116.92 798.815 z" fill="currentColor" />
<path d="M 1557.3 1089.53 L 1558.02 1091.11 C 1550.98 1093.05 1536.7 1103.49 1531.13 1106.05 C 1515.55 1113.22 1389.98 1192.51 1383.44 1192.32 L 1383.58 1189.81 C 1388.25 1183.68 1540.57 1099 1557.3 1089.53 z" fill="currentColor" />
<path d="M 1007.1 236.679 C 1010.9 236.38 1011.66 236.649 1014.25 238.464 C 1018.29 248.184 1003.38 264.47 996.03 269.498 C 992.052 270.063 991.944 270.059 989.062 268.407 C 985.623 258.425 999.427 242.182 1007.1 236.679 z" fill="currentColor" />
<path d="M 205.104 1291.76 L 213.099 1296.5 L 213.111 1350.75 C 209.399 1350.1 208.771 1350.14 205.379 1348.23 C 202.982 1340.78 204.836 1301.97 205.104 1291.76 z" fill="currentColor" />
<path d="M 121.882 1086.19 C 121.823 1069.32 119.719 923.255 122.28 920.215 C 124.333 942.035 122.699 979.897 123.368 1002.69 C 123.693 1013.76 124.764 1078.8 123.106 1086.1 L 121.882 1086.19 z" fill="currentColor" />
<path d="M 653.659 1107.89 C 654.578 1111.91 654.268 1119.87 654.259 1124.3 C 648.449 1128.7 640.81 1133.4 634.585 1137.45 C 633.996 1130.54 634.416 1126.19 634.91 1119.28 C 640.913 1115.22 647.387 1111.56 653.659 1107.89 z" fill="currentColor" />
<path d="M 390.2 1076.59 L 391.558 1077.83 C 392.585 1084.29 391.954 1115.09 391.945 1123.55 L 391.875 1223.51 L 390.751 1222.65 C 388.563 1217.02 389.774 1091.43 390.2 1076.59 z" fill="currentColor" />
<path d="M 495.556 625.629 C 504.613 632.247 492.61 644.653 485.529 648.281 C 477.384 638.276 486.941 630.934 495.556 625.629 z" fill="currentColor" />
<path d="M 376.37 1255.98 L 377.327 1256.37 C 375.652 1260.04 326.719 1291.05 319.478 1295.54 L 318.413 1295.58 C 321.012 1290.36 368.841 1260.23 376.37 1255.98 z" fill="currentColor" />
<path d="M 320.42 1215.88 L 321.652 1216.58 C 320.445 1218.84 262.442 1253.78 255.519 1257.91 L 254.259 1257.57 C 263.336 1250.02 308.741 1222.45 320.42 1215.88 z" fill="currentColor" />
<path d="M 258.848 1179.23 C 257.326 1182.15 199.723 1218.35 190.893 1224.95 L 190.635 1224.09 C 194.466 1217.99 247.923 1183.41 258.848 1179.23 z" fill="currentColor" />
<path d="M 123.624 1188.64 C 122.805 1188.55 123.369 1188.68 122.307 1187.5 C 121.813 1172.89 120.619 1121.35 122.749 1109.06 C 124.76 1113.15 123.835 1177.95 123.558 1186.94 L 123.624 1188.64 z" fill="currentColor" />
<path d="M 123.558 1186.94 C 129.568 1183.27 190.537 1145.81 192.536 1145.9 C 180.535 1156.14 138.85 1180.09 123.624 1188.64 L 123.558 1186.94 z" fill="currentColor" />
<path d="M 308.306 1019.76 C 314.353 1020.79 375.448 1054.21 382.774 1059.27 C 377.249 1058.47 314.392 1024.98 308.306 1019.76 z" fill="currentColor" />
<path d="M 133.801 923.737 C 141.137 925.581 207.902 962.101 215.746 967.229 C 209.173 966.286 141.065 928.802 133.801 923.737 z" fill="currentColor" />
<path d="M 303.125 809.151 L 303.403 810.442 C 300.862 812.634 291.716 816.978 288.056 819.017 C 273.717 827.185 259.291 835.2 244.781 843.062 L 244.442 841.615 C 248.937 837.589 296.858 811.554 303.125 809.151 z" fill="currentColor" />
<path d="M 466.045 1227.86 L 467.297 1229.03 L 466.856 1230.84 C 463.093 1234.09 454.996 1237.98 450.314 1240.44 C 446.177 1237.44 443.966 1236.42 439.431 1234.15 C 437.036 1232.91 438.01 1233.75 436.77 1231.28 L 437.683 1230.15 C 440.623 1229.36 452.075 1233.58 455.919 1234.79 L 466.045 1227.86 z" fill="currentColor" />
<path d="M 1557.3 1089.53 C 1562.27 1085.82 1592.65 1067.37 1597.27 1067.87 L 1597.11 1066.96 L 1598.56 1066.85 L 1597.91 1066.8 L 1597.59 1067.75 L 1597.11 1067.08 L 1596.16 1067.46 L 1595.8 1069.02 C 1583.53 1076.89 1570.71 1083.94 1558.02 1091.11 L 1557.3 1089.53 z" fill="currentColor" />
<path d="M 526.881 986.944 C 527.555 987.556 527.176 987.095 527.479 988.634 C 519.59 993.707 498.766 1005.1 490.447 1009.22 L 489.627 1008.58 C 491.018 1005.52 521.611 989.657 526.881 986.944 z" fill="currentColor" />
<path d="M 1038.42 226.371 C 1043.52 232.759 1037.66 255.009 1032.61 259.768 L 1032.23 259.64 C 1031.03 257.565 1034.48 252.839 1035.38 249.822 C 1037.13 243.936 1038.24 238.635 1038.3 232.469 L 1038.42 226.371 z" fill="currentColor" />
<path d="M 464.66 1268.03 C 466.194 1269.41 466.348 1272.8 466.505 1274.82 C 464.863 1277.96 466.064 1277.09 463.212 1278.05 L 458.623 1275.74 L 454.971 1273.95 L 455.004 1272.64 C 458.421 1270.64 461.004 1269.59 464.66 1268.03 z" fill="currentColor" />
<path d="M 175.251 879.997 C 175.908 880.654 175.509 880.158 175.965 881.769 C 172.482 884.672 154.697 893.716 149.419 896.462 L 148.493 895.179 C 152.853 891.488 169.344 883.197 175.251 879.997 z" fill="currentColor" />
<path d="M 523.681 1195.03 C 527.43 1194.66 526.256 1194.22 529.292 1195.53 C 526.508 1198.44 520.717 1200.99 516.938 1202.94 C 514.743 1201.28 514.43 1202.44 512.421 1200.3 C 514.224 1197.23 519.391 1196.49 523.681 1195.03 z" fill="currentColor" />
<path d="M 410.89 1243.41 L 412.654 1245.16 C 413.352 1250.94 413.785 1259.52 411.457 1264.97 C 408.477 1260.7 408.458 1248.2 410.89 1243.41 z" fill="currentColor" />
<path d="M 594.912 1195.22 C 596.483 1197.09 596.657 1204.24 594.317 1206.47 L 591.923 1205.12 C 589.167 1203.54 589.001 1203.65 586.971 1201.29 C 588.351 1198.22 591.461 1197.25 594.912 1195.22 z" fill="currentColor" />
<path d="M 444.947 1032.95 L 445.54 1033.54 C 444.186 1036.42 423.064 1047.58 418.784 1049.97 L 418.067 1049 C 420.239 1045.88 440.351 1035.24 444.947 1032.95 z" fill="currentColor" />
<path d="M 432.567 1242.49 C 436.216 1243.85 436.344 1243.27 438.557 1245.82 C 437.109 1248.95 434.771 1249.58 431.395 1251.69 C 429.67 1252.61 430.604 1252.46 428.573 1252.04 C 427.453 1247.56 429.523 1245.18 432.567 1242.49 z" fill="currentColor" />
<path d="M 108.982 1182.94 C 109.408 1186.3 110.211 1188.88 108.723 1191.78 C 104.938 1192.9 104.899 1192.01 100.257 1190.5 L 98.8965 1189.73 C 99.9795 1187.6 106.36 1184.49 108.982 1182.94 z" fill="currentColor" />
<path d="M 284.217 1006.66 C 290.081 1006.73 306.394 1016.37 310.647 1020.15 C 303.856 1019.54 289.982 1010.71 284.217 1006.66 z" fill="currentColor" />
<path d="M 598.587 1153.97 L 599.82 1154.24 L 599.984 1155.86 C 596.046 1159.88 588.507 1163.25 583.26 1165.07 L 581.737 1164.67 C 583.678 1161.31 594.575 1156.14 598.587 1153.97 z" fill="currentColor" />
<path d="M 481.492 1205.23 C 483.328 1206.25 482.814 1205.94 484.333 1207.45 C 485.175 1213.07 484.226 1218.62 483.568 1224.27 L 482.322 1223.87 C 479.997 1220.52 481.193 1209.65 481.492 1205.23 z" fill="currentColor" />
<path d="M 1748.14 980.333 C 1748.69 980.404 1749.95 980.946 1750.53 981.165 C 1748.43 984.376 1738.65 989.12 1734.68 991.278 L 1733.29 991.889 L 1732.36 991.109 C 1735.91 987.344 1743.41 984.17 1748.14 980.333 z" fill="currentColor" />
<path d="M 620.414 1123.8 C 623.281 1127.55 621.95 1141.09 621.665 1146.22 L 620.566 1145.03 C 619.276 1139.51 619.979 1129.54 620.414 1123.8 z" fill="currentColor" />
<path d="M 564.165 966.446 L 564.502 966.773 C 562.708 970.122 554.241 974.022 550.414 976.092 L 549.412 975.421 L 549.658 974.162 C 555.206 970.652 558.258 969.198 564.165 966.446 z" fill="currentColor" />
<path d="M 251.389 988.575 C 257.937 989.335 261.808 991.957 267.101 995.863 L 265.157 996.507 C 259.635 994.264 256.298 991.824 251.389 988.575 z" fill="currentColor" />
<path d="M 268.314 997.752 C 274.536 998.384 278.818 1001.84 283.813 1005.31 C 277.621 1004.73 273 1001.7 268.314 997.752 z" fill="currentColor" />
<path d="M 121.882 1086.19 L 123.106 1086.1 C 122.908 1090.84 123.711 1093.83 124.903 1098.31 L 124.283 1098.74 C 120.849 1093.77 120.771 1092.14 121.882 1086.19 z" fill="currentColor" />
<path d="M 396.019 1308.54 L 397.343 1309.6 C 398.583 1313.05 397.978 1317.61 397.804 1321.4 L 396.601 1320.38 C 395.467 1316.94 395.927 1312.28 396.019 1308.54 z" fill="currentColor" />
<path d="M 136.8 900.86 L 137.335 901.312 L 137.349 902.601 L 131.255 907.218 L 130.174 905.504 C 131.81 902.914 133.996 902.255 136.8 900.86 z" fill="currentColor" />
<metadata><recraft-signature>{"signed_by": "recraft", "signature_b64": "ZVC3570tOHiaWIgwl2Cb7fgj+nFcC7VvIzJ7HuXyRay6Jvf+9/hF3LHf6OUO0CCs88HDPBwJMq6hkxkIL3FBCg==", "signing_algo": "Ed25519", "generation_timestamp": 1772065319, "identifier": "12f21d40-b532-466f-8716-dfd2eee614de"}</recraft-signature></metadata></g></svg>