<svg xmlns="http://www.w3.org/2000/svg" viewBox="0 0 24 24">
<g transform="scale(0.011719,0.011719)"><path d="M 1303.65 296.131 C 1312.16 295.383 1315.73 295.826 1323.97 298.56 C 1352.57 308.044 1380.84 319.507 1408.94 330.272 C 1461.6 350.245 1514.1 370.623 1566.45 391.405 L 1721.14 453.192 C 1745.3 462.918 1769.73 472.204 1793.69 482.301 C 1821.68 494.093 1837.08 525.934 1851.97 550.973 L 1895.15 624.236 C 1912.88 653.775 1930.46 683.408 1947.88 713.132 C 1953.77 723.28 1963.85 740.26 1968.19 750.282 C 1975.53 767.24 1936.19 796.253 1924.26 807.353 C 1861.5 865.282 1797.84 922.224 1733.29 978.158 L 1166.75 1474.67 L 969.538 1647.87 C 935.039 1677.96 900.111 1708.07 864.971 1737.43 C 856.564 1744.45 851.783 1747.47 841.392 1750.6 C 825.507 1747.56 791.395 1730.66 775.197 1723.07 C 753.808 1712.41 728.957 1701.61 707.079 1691.5 L 575.856 1630.46 L 113.915 1411.6 C 92.5028 1401.3 71.3327 1392.36 85.3455 1366.28 C 124.725 1293.01 165.618 1220.63 206.785 1148.35 C 218.515 1127.75 229.677 1105.51 243.83 1086.61 C 246.209 1083.5 268.764 1067.1 273.387 1063.68 C 294.585 1047.92 315.939 1032.36 337.446 1017.02 C 387.917 980.548 440.302 940.842 490.296 903.319 L 1152.9 403.552 L 1231.86 343.828 C 1250.57 329.754 1282.64 302.692 1303.65 296.131 z" fill="currentColor" />
<path d="M 1312.46 336.807 C 1321.22 338.573 1339.14 346.452 1347.85 350.034 C 1364.96 356.999 1382.12 363.849 1399.32 370.582 C 1459.03 393.925 1518.58 417.669 1577.97 441.811 C 1611.56 455.236 1648.46 468.54 1681.1 482.998 C 1666.73 494.536 1652.81 506.607 1639.34 519.186 C 1636.83 508.86 1633.01 478.217 1629.7 472.383 C 1626.21 470.734 1627.99 471.034 1624.17 471.424 C 1623.48 471.985 1622.78 472.546 1622.09 473.107 C 1617.71 493.261 1611.48 541.157 1605.17 558.204 C 1589.61 573.381 1536.97 573.82 1535.33 584.834 C 1538.8 588.987 1561.07 594.629 1567.7 596.868 C 1557.03 604.87 1544.54 616.248 1534.22 624.98 C 1518.48 638.108 1502.67 651.144 1486.78 664.087 C 1424.99 713.907 1363.51 764.106 1302.34 814.683 L 808.412 1217.5 C 801.233 1223.35 794.117 1229.28 787.066 1235.29 C 777.715 1229.84 759.161 1222 748.811 1217.31 L 673.55 1183.16 L 486.123 1096.51 C 448.843 1079.38 412.441 1063.47 375.43 1045.36 C 397.506 1030.05 424.332 1008.4 446.418 991.857 L 610.72 868.228 L 1093.78 502.363 L 1251.96 382.472 C 1271.6 367.735 1292.43 350.594 1312.46 336.807 z" fill="currentColor" />
<path d="M 1800.59 519.787 C 1820.36 548.114 1838.44 582.28 1856.62 611.753 C 1878.02 646.462 1898.64 680.06 1918.65 715.626 L 1925.02 726.521 C 1930.7 736.931 1937.3 747.094 1943.14 757.806 C 1913.28 780.536 1896.87 796.797 1869.44 821.823 L 1812.45 872.938 L 1630.56 1033.87 L 1103.86 1494.96 C 1022.54 1565.8 942.85 1638.35 860.195 1707.62 L 815.499 1350.19 C 838.808 1329.25 865.262 1307.95 889.514 1287.83 L 1036.62 1166.7 L 1281.59 963.45 C 1376.84 885.41 1471.16 806.234 1564.52 725.94 C 1585 708.031 1604.4 689.566 1624.65 671.503 C 1625.35 673.532 1626.07 675.558 1626.81 677.579 C 1628.44 682.086 1629.99 688.191 1634.46 690.29 C 1638.71 687.264 1641.26 664.882 1642.53 657.797 C 1681.54 626.849 1718.65 591.679 1756.46 559.235 C 1771.41 546.405 1785.41 532.316 1800.59 519.787 z" fill="currentColor" />
<path d="M 1734.36 591.901 C 1747.33 579.585 1759.23 567.386 1773.41 556.371 C 1804.39 532.3 1813.16 553.283 1829.3 577.635 C 1818.9 569.96 1807.46 552.497 1799.15 551.546 C 1786.98 550.153 1749.14 579.728 1740.06 588.302 C 1754.91 581.954 1787.82 560.706 1799.23 563.674 C 1835.14 573.025 1864.38 644.566 1886.08 675.044 C 1898.49 692.472 1904.59 701.244 1917.05 716.987 L 1918.65 715.626 L 1925.02 726.521 L 1923.77 728.285 C 1926.95 737.089 1930.31 751.676 1922.51 758.487 C 1911.04 768.493 1833.24 847.007 1825.28 847.883 L 1824.81 846.448 C 1825.57 843.452 1826.82 839.272 1829.21 837.145 C 1858.38 811.274 1886.91 784.459 1913.93 756.343 C 1917.62 752.496 1922.61 745.262 1921.39 739.707 C 1919.84 732.57 1912.95 718.871 1906.98 714.655 C 1904.78 716.163 1908.03 716.801 1906.92 721.809 L 1906.04 721.229 L 1905.62 719.425 C 1905.66 719.616 1904.55 715.009 1904.72 715.234 C 1876.38 677.921 1855.06 635.912 1828.95 596.992 C 1794.65 545.84 1778.24 582.546 1736.08 591.544 L 1734.36 591.901 z" fill="currentColor" />
<path d="M 1918.65 715.626 L 1925.02 726.521 L 1923.77 728.285 C 1921.71 724.512 1919.29 720.676 1917.05 716.987 L 1918.65 715.626 z" fill="currentColor" />
<path d="M 909.96 1283.87 L 910.953 1285.46 C 908.625 1290.15 899.877 1296.51 895.855 1300.51 C 880.614 1315.67 845.818 1342.24 835.077 1358.66 C 833.707 1400.79 850.236 1439.52 850.196 1481.47 C 850.192 1485.07 850.833 1492.82 848.56 1495.12 L 847.32 1493.77 C 843.037 1471.3 823.555 1374.48 828.348 1358.54 C 833.355 1341.89 893.551 1292.36 909.96 1283.87 z" fill="currentColor" />
<path d="M 891.93 1316.6 L 893.762 1317.38 C 892.846 1323.23 865.234 1351.97 861.103 1360.66 C 850.192 1383.6 859.976 1413.47 852.168 1436.04 C 847.822 1425.21 848.978 1385.86 849.72 1373.4 C 850.882 1353.86 876.518 1328.42 891.93 1316.6 z" fill="currentColor" />
<path d="M 1863.3 670.481 C 1864.04 670.886 1865.27 671.486 1865.72 672.127 C 1902.93 724.66 1886.04 766.179 1846.72 805.801 C 1844.82 807.049 1845.8 806.692 1843.85 807.033 C 1845.73 799.371 1867.17 773.62 1873.47 760.489 C 1888.87 728.436 1873.97 701.895 1863.3 670.481 z" fill="currentColor" />
<path d="M 1780.99 581.203 C 1790.02 580.285 1793.11 579.982 1801.98 583.054 C 1818.14 588.648 1837.34 617.528 1844.14 632.745 C 1824.03 611.997 1815.6 585.402 1781.72 584.58 C 1777.2 585.229 1773.19 586.92 1768.88 588.465 C 1787.22 592.074 1791.26 592.855 1806.93 603.057 C 1790.59 598.226 1772.64 590.808 1757.01 598.222 C 1749.73 601.673 1743.53 604.502 1735.9 607.217 C 1745.17 597.903 1768.37 586.78 1780.99 581.203 z" fill="currentColor" />
<path d="M 1889.26 699.477 C 1896.67 702.209 1899.01 711.411 1901.77 718.386 C 1916.22 754.969 1885.5 779.329 1861.84 801.344 L 1860.44 801.574 L 1859.48 800.619 C 1863.83 794.361 1875.1 783.824 1880.53 777.662 C 1895.63 761.23 1904.82 739.514 1894.99 717.65 C 1893.02 713.276 1889.18 704.237 1889.26 699.477 z" fill="currentColor" />
<path d="M 877 1356.48 L 878.199 1356.97 C 879.264 1361.28 867.241 1392.46 864.688 1398.5 L 863.702 1398.69 L 863.154 1397.54 C 864.863 1383.17 866.831 1367.45 877 1356.48 z" fill="currentColor" />
<path d="M 259.652 1107.39 C 269.724 1110.97 301.366 1126.98 312.772 1132.36 L 418.517 1181.59 L 786.718 1352.03 C 789.519 1376.08 794.795 1400.8 797.472 1425.43 L 818.917 1625 C 822.604 1657.9 825.243 1687.47 830.215 1720.45 L 728.554 1672.94 C 578.127 1603.82 428.516 1532.94 279.754 1460.31 C 249.674 1445.96 219.009 1431.56 188.944 1417.29 C 168.464 1407.57 125.522 1390.35 107.886 1377.6 C 111.004 1371.78 114.173 1366.1 117.538 1360.41 C 139.901 1322.63 160.125 1283.64 181.311 1245.15 C 197.592 1215.5 214.151 1186 230.986 1156.66 C 240.026 1140.8 249.945 1122.58 259.652 1107.39 z" fill="currentColor" />
<path d="M 685.602 1315.2 C 705.457 1322.25 767.263 1348.05 775.999 1364.85 C 780.807 1374.1 783.225 1384.88 785.317 1395.01 C 790.182 1418.56 804.776 1521.23 798.993 1540.34 C 791.233 1533.12 785.902 1390.68 769.22 1368.71 C 754.986 1349.96 688.49 1326.69 685.602 1315.2 z" fill="currentColor" />
<path d="M 194.777 1239.5 L 196.254 1240.36 C 196.752 1243.29 180.22 1276.26 177.528 1283.14 C 169.351 1304.02 151.365 1338.89 152.1 1361.02 C 152.303 1367.11 182.952 1378.09 188.516 1389.03 L 187.74 1391.03 C 178.399 1387.55 146.122 1372.47 146.189 1362.08 C 146.412 1327.28 174.84 1267.15 194.777 1239.5 z" fill="currentColor" />
<path d="M 141.157 1336.64 L 141.946 1337.21 C 144.672 1343.39 126.135 1368.63 131.906 1373.37 C 144.452 1383.67 207.816 1409.56 214.014 1420.37 L 212.571 1420.98 C 200.809 1416.61 187.179 1409.64 175.528 1404.03 C 160.542 1397.16 145.527 1391.91 131.858 1382.64 C 117.908 1373.17 132.53 1345.85 141.157 1336.64 z" fill="currentColor" />
<path d="M 727.998 1355.68 C 733.684 1355.85 736.218 1358 740.942 1360.67 C 765.766 1374.7 769.981 1400.22 773.838 1426.03 C 775.664 1438.25 778.767 1451.21 779.386 1463.54 L 775.911 1463.07 C 767.089 1457.98 766.832 1403.49 760.273 1390.51 C 752.215 1374.56 734.574 1368.75 727.998 1355.68 z" fill="currentColor" />
<path d="M 183.639 1294.53 C 188.648 1299.05 166.288 1341.29 172.211 1351.58 C 173.277 1353.44 173.848 1360.12 172.635 1362.39 L 170.42 1361.67 C 157.252 1341.53 171.189 1312.06 183.639 1294.53 z" fill="currentColor" />
<path d="M 1587.1 604.777 C 1602.65 606.487 1607.85 610.971 1612.04 626.362 C 1615.07 637.49 1618.41 648.768 1621.76 659.808 C 1577.52 700.296 1535.98 735.144 1490.2 773.652 L 1342.04 897.392 L 978.308 1198.85 C 928.227 1240.43 870.831 1285.14 822.573 1327.77 L 810.639 1338.19 C 806.698 1310.34 800.497 1277.01 797.623 1249.97 C 820.933 1229.25 855.743 1202.72 880.513 1182.71 L 1036.76 1056.13 C 1221.23 906.93 1404.68 756.475 1587.1 604.777 z" fill="currentColor" />
<path d="M 361.514 1057.84 C 364.951 1058.48 384.721 1068.18 389.564 1070.47 C 409.991 1080.16 430.467 1089.74 450.991 1099.23 L 685.799 1207.34 C 716.997 1221.45 750.988 1238.04 782.364 1250.87 C 784.871 1279.82 790.794 1309.96 793.429 1339.06 C 774.475 1330.57 754.549 1320.79 735.547 1311.96 C 636.787 1267 538.37 1221.3 440.302 1174.85 L 343.127 1130 C 320.28 1119.54 294.911 1108.43 272.614 1097.07 C 302.096 1082.5 331.308 1070.69 361.514 1057.84 z" fill="currentColor" />
<path d="M 1306.16 319.1 C 1319.17 322.096 1332.1 326.862 1344.62 331.505 C 1439.66 367.705 1534.24 405.124 1628.32 443.752 C 1638.07 447.672 1692.85 467.906 1697.4 472.046 L 1696.21 473.549 C 1683.93 477.5 1666.02 466.901 1653.81 461.927 L 1587.28 435.131 L 1386.43 355.002 C 1364.1 346.224 1338.27 334.504 1314.89 328.717 C 1309.76 327.448 1306.21 329.308 1302.07 332.319 C 1271.08 354.822 1240.82 378.502 1210.35 401.747 L 1053.05 520.863 L 647.38 827.693 C 626.387 843.124 606.219 859.149 585.472 874.829 L 444.777 980.377 C 419.675 999.069 393.829 1020.44 367.777 1037.39 C 360.488 1042.13 337.609 1050.84 328.164 1054.64 C 341.838 1042.71 367.638 1025.16 383.508 1013.31 L 492.29 931.462 L 806.748 693.691 L 1117.45 458.75 L 1221.68 380.118 C 1246.46 361.296 1279.92 334.578 1306.16 319.1 z" fill="currentColor" />
<path d="M 1714.62 476.804 C 1722.41 477.276 1746.73 490.407 1755.4 493.411 C 1762.49 495.87 1788.04 504.692 1791.44 510.041 C 1787.89 518.627 1728.19 569.397 1716.86 579.565 L 1711.85 585.056 C 1692.94 578.723 1667.3 573.393 1651.14 563.072 C 1647.35 555.586 1645.31 546.09 1643.3 537.862 C 1651.08 530.482 1661.56 522.236 1669.97 515.069 L 1714.62 476.804 z" fill="currentColor" />
<path d="M 1626.09 507.545 C 1631 517.583 1631.69 547.683 1639.21 561.901 C 1648.05 578.618 1670.71 583.123 1688.29 588.964 C 1674.92 593.026 1664.91 592.758 1650.43 598.712 C 1630.22 607.02 1636.04 648.61 1632.09 654.263 L 1630.22 651.256 C 1611.73 595.051 1623.28 603.723 1563.19 584.819 C 1599.55 575.378 1618.1 579.008 1622.07 535.789 C 1622.85 527.332 1624.9 516.231 1626.09 507.545 z" fill="currentColor" />
<path d="M 1692.32 598.339 L 1692.49 599.06 C 1688.48 605.947 1652.43 636.067 1645.06 642.098 C 1644 634.784 1648.33 616.338 1651.86 609.004 C 1660.92 605.338 1680.95 601.701 1692.32 598.339 z" fill="currentColor" />
<metadata><recraft-signature>{"signed_by": "recraft", "signature_b64": "TNoyxkYgr924IDI5upPfdazXZnWj1QhjGLiK7vwzVThOWDhH7rZZnc24opEDn1caivA6LHXg4hPqRAcLMwF3CQ==", "signing_algo": "Ed25519", "generation_timestamp": 1772065261, "identifier": "5d8cb80e-e3eb-4c73-b299-a3e063959e98"}</recraft-signature></metadata></g></svg>