<svg xmlns="http://www.w3.org/2000/svg" viewBox="0 0 24 24">
<g transform="scale(0.011719,0.011719)"><path d="M 1694.81 274.842 C 1708.19 279.777 1756.17 309.314 1770.83 317.352 C 1782.03 323.493 1786.67 341.69 1788.58 354.359 C 1807.62 368.775 1843.76 387.715 1865.19 400.868 C 1881.27 410.733 1911.64 429.217 1927.75 435.292 C 1941.08 430.718 1954.93 427.645 1968.33 433.917 C 1989.2 443.689 2008.55 469.467 2006.67 493.281 C 2005.72 505.287 1987.08 541.767 1990.46 550.139 C 1994.53 560.216 1992.23 588.39 1992.19 600.561 C 1975.73 613.597 1957.1 626.7 1940.06 639.124 C 1941.76 659.215 1940.78 690.02 1940.79 711.213 L 1940.69 848.423 C 1952.68 853.962 1990.5 877.108 2001.7 886.933 C 2004.21 890.635 2004.12 898.433 2003.07 902.219 C 2001.21 908.954 1992.9 912.667 1987.1 916.242 C 1981.17 919.888 1974.23 923.703 1967.92 927.344 L 1912.69 959.288 C 1893.08 947.251 1872.7 936.339 1852.84 924.707 C 1846.59 921.046 1841.09 918.114 1835.41 913.598 C 1631.48 1040.78 1428.36 1169.27 1226.07 1299.05 L 1057.03 1407.3 C 1027.9 1425.82 997.84 1445.52 968.103 1462.8 C 978.443 1468.21 1020.43 1488.61 1021.77 1499.64 C 1023.02 1513 1024.4 1557.78 1020 1567.89 C 1016.74 1575.38 970.953 1600.38 961.772 1605.78 C 931.175 1623.75 901.199 1644.85 869.641 1660.06 C 863.482 1663.02 813.97 1631.18 805.167 1625.94 C 763.587 1601.11 722.209 1575.94 681.038 1550.44 C 681.169 1565.59 681.113 1580.74 680.871 1595.89 C 673.029 1602.29 657.598 1611.1 648.343 1616.71 L 589.944 1652.01 L 499.269 1707.32 C 483.156 1717.22 461.656 1731.35 445.385 1739.94 C 441.325 1740.37 439.843 1739.07 436.473 1737.01 L 190.111 1583.96 C 168.119 1570.18 146.044 1556.54 123.886 1543.03 C 105.972 1532.31 77.6199 1516.6 61.8134 1503.83 C 60.6785 1471.69 62.0076 1431.67 62.2168 1399.09 L 62.8185 1216.23 L 62.9982 1096.9 C 62.9932 1076.99 62.6253 1055.97 63.491 1036.14 C 63.759 1029.99 70.4151 1016.62 73.3907 1010.37 C 76.3867 1004.08 78.0125 999.354 83.7499 995.325 C 95.4032 987.143 108.159 980.084 120.464 972.937 L 182.258 936.968 L 268.995 885.538 C 277.718 880.369 308.071 862.026 316.27 859.149 C 323.817 862.797 340.519 873.841 348.822 878.76 L 437.433 932.252 L 574.599 1015.28 C 602.758 1032.44 632.329 1049.8 659.557 1068.24 C 667.334 1061.48 675.196 1054.66 683.387 1048.41 C 750.847 996.914 817.344 944.174 884.308 892.067 C 1013.48 789.513 1143.18 687.623 1273.4 586.403 L 1523.31 387.706 L 1603.44 323.917 C 1616.67 313.436 1630.77 302.151 1644.31 292.166 C 1649.63 288.247 1667.78 285.769 1674.96 283.332 C 1682.16 280.887 1687.89 278.095 1694.81 274.842 z" fill="currentColor" />
<path d="M 1708.71 380.99 C 1721.78 389.623 1740.77 399.92 1754.71 407.981 C 1780.74 423.23 1806.65 438.674 1832.45 454.311 C 1848.88 464.17 1869.65 475.904 1885.08 486.763 C 1874.67 507.821 1870.66 522.8 1868.9 546.196 C 1857.97 556.65 1824.36 581.246 1810.8 591.742 C 1771.06 622.688 1731.16 653.419 1691.09 683.934 L 1403.28 906.231 L 1137.98 1111.86 L 1047.35 1181.88 C 1027.86 1196.96 1002.8 1217.32 982.375 1230.1 C 974.444 1227.79 965.158 1225.94 957.012 1224.12 C 944.818 1219.35 908.25 1195.21 894.433 1187.13 L 815.394 1141.42 C 801.771 1133.53 785.69 1124.79 772.871 1116.2 C 1086.7 873.529 1398.65 628.453 1708.71 380.99 z" fill="currentColor" />
<path d="M 83.1182 1165.37 C 97.8459 1172.96 112.159 1181.52 126.176 1190.38 C 207.954 1242.05 291.136 1291.3 372.232 1344.05 C 386.406 1353.26 402.029 1360.36 415.297 1371.2 C 416.407 1388.09 415.554 1414.8 415.571 1432.4 C 415.816 1472 415.669 1511.6 415.131 1551.2 C 414.493 1599.93 416.172 1650.19 415.686 1699.36 C 373.548 1676.31 328.964 1642.17 285.187 1620.5 C 298.13 1613.25 299.241 1610.29 302.208 1596.51 C 316.033 1602.25 334.094 1613.76 349.212 1611.22 C 359.012 1609.58 405.913 1583.5 410.776 1576.23 C 414.702 1570.36 412.727 1559.56 411.216 1552.97 C 407.116 1535.07 368.783 1442.74 355.365 1435.14 C 343.98 1428.69 325.112 1442.06 313.996 1445.54 L 312.547 1445.99 C 305.886 1443.06 292.717 1434.12 285.928 1437.36 C 283.853 1441.62 284.938 1442.98 287.579 1446.17 C 293.408 1449.44 302.627 1454.98 305.791 1460.49 C 317.083 1480.15 331.184 1520.2 337.921 1541.42 C 321.759 1534.83 305.471 1528.55 289.065 1522.59 C 294.186 1513.79 307.993 1492.84 296.478 1485.09 C 285.577 1483.67 286.423 1503.03 278.017 1511.91 C 271.592 1518.71 260.123 1525.29 251.995 1530.15 C 249.474 1531.65 243.638 1531.4 239.414 1533.53 C 238.78 1534.92 237.451 1540.6 238.357 1541.82 C 252.842 1561.36 270.218 1583.56 282.383 1604.32 L 283.244 1605.81 L 274.119 1610.76 C 248.945 1596.13 223.887 1581.31 198.949 1566.29 C 176.993 1553.13 151.875 1538.24 131.449 1523.11 C 152.978 1527.96 181.736 1539.57 201.435 1549.64 C 207.063 1552.52 216.908 1572.43 225.955 1570.42 C 229.446 1563.37 229.057 1513.11 230.057 1500.21 C 235.475 1495.51 240.923 1493.03 237.226 1484.99 C 229.71 1479.69 224.667 1483.84 217.829 1487.89 C 193.223 1479.39 179.074 1469.34 157.171 1455.94 C 158.83 1446.82 160.533 1434.85 163.676 1426.44 C 168.176 1434.3 174.353 1447.67 181.778 1451.95 C 185.46 1452.26 183.858 1452.7 186.815 1450.85 C 189.432 1443.45 177.758 1428.02 176.225 1420.13 C 173.954 1408.44 175.323 1397.09 174.377 1385.34 C 173.732 1374.91 164.671 1369.52 155.364 1367.03 C 140.79 1363.14 134.204 1360.79 125.084 1373.27 C 110.646 1365.03 96.344 1356.55 82.1829 1347.84 L 83.1182 1165.37 z" fill="currentColor" />
<path d="M 192.857 1265.1 C 196.239 1264.76 199.61 1264.52 202.91 1265.91 C 231.939 1278.16 259.642 1293.61 289.03 1305.17 C 292.826 1306.66 301.753 1311.53 303.799 1314.52 C 310.906 1324.9 318.856 1353.42 322.202 1363.82 C 332.642 1363.08 347.555 1359.57 356.456 1364.46 C 361.16 1371.3 354.309 1375.69 349.472 1380.03 C 347.99 1392.51 346.418 1424.19 334.819 1430.12 C 332.327 1430.37 329.847 1430.45 327.59 1429.17 C 310.519 1419.51 294.951 1409.02 276.759 1401.29 C 269.281 1404.48 264.581 1401.34 261.82 1394.24 C 262.538 1385.43 275.496 1387 283.547 1386.12 C 278.067 1375.91 266.785 1359.27 260.326 1349.09 C 194.875 1347.85 221.503 1389.81 209.223 1397.02 C 196.468 1396.57 198.724 1386.05 198.945 1376.45 C 186.052 1371.24 158.364 1357.39 149.635 1348.5 C 139.996 1338.7 185.989 1270.5 192.857 1265.1 z" fill="currentColor" />
<path d="M 1751.08 786.981 C 1779.75 807.146 1817.88 833.801 1843.32 857.91 C 1820.65 871.123 1796.68 886.642 1774.18 900.596 L 1593.9 1014.51 L 1123.52 1313.62 L 987.794 1399.52 C 972.785 1409.08 957.817 1418.78 942.802 1428.33 C 938.476 1431.08 928.34 1438.38 923.679 1436.32 C 921.813 1429.05 927.753 1427.05 923.222 1416.04 C 912.366 1410.68 903.466 1411.2 895.355 1407.27 C 878.004 1398.85 859.265 1386.89 842.515 1376.91 C 845.379 1374.81 847.203 1372.78 849.668 1370.27 C 895.089 1392.65 939.954 1437.9 982.741 1383 C 988.514 1375.6 994.534 1364.78 1001.94 1359.23 C 1017.13 1347.87 1032.85 1337.25 1048.04 1325.81 C 1094.59 1290.97 1140.9 1255.8 1186.95 1220.3 L 1488.45 987.667 C 1504.21 975.691 1520.54 964.546 1536.37 952.614 C 1586.23 915.292 1635.56 877.27 1684.34 838.558 C 1706.78 821.067 1728.69 804.918 1751.08 786.981 z" fill="currentColor" />
<path d="M 664.791 1258.83 L 665.906 1259.02 C 667.507 1261.49 667.178 1265.65 667.21 1268.96 L 667.318 1580.17 C 659.809 1584.41 652.482 1589.01 645.18 1593.6 C 586.041 1630.76 525.033 1665.57 466.254 1703.18 L 465.089 1703.03 C 463.101 1700.02 463.984 1614.14 463.962 1602.19 L 463.976 1380.26 C 483.01 1368.22 506.485 1354.72 526.201 1343.05 C 571.994 1315.94 618.944 1285.14 664.791 1258.83 z" fill="currentColor" />
<path d="M 83.2208 1049.64 C 91.3258 1054.15 102.963 1062.23 111.501 1067.52 C 137.619 1083.65 163.655 1099.9 189.608 1116.29 L 415.325 1257.46 C 416.416 1288.25 415.574 1323.57 415.524 1354.68 C 412.382 1353.85 403.823 1348.35 400.37 1346.42 C 370.94 1329.97 343.222 1309.53 314.401 1292.3 C 236.797 1245.92 161.088 1196.1 82.9637 1150.67 C 82.6509 1118.11 82.3092 1082.02 83.2208 1049.64 z" fill="currentColor" />
<path d="M 339.392 897.696 C 402.115 935.125 464.626 972.911 526.92 1011.05 C 548.365 1023.8 569.698 1036.74 590.917 1049.87 C 602.004 1056.59 620.761 1067.31 630.529 1075.2 C 619.83 1082.03 608.717 1088.17 597.254 1093.61 C 577.407 1102.58 554.596 1114.45 535.325 1124.67 L 425.201 1057.74 C 396.806 1040.64 366.526 1023.28 339.235 1004.69 L 339.392 897.696 z" fill="currentColor" />
<path d="M 721.387 1156.8 C 723.953 1157.55 730.944 1161.46 733.553 1162.99 C 780.825 1190.72 828.697 1217.39 875.568 1245.82 C 887.399 1253 899.152 1260 911.54 1266.06 C 883.463 1305.98 871.577 1348.9 906.017 1388.88 C 902.638 1387.17 899.144 1385.23 895.783 1383.44 C 847.84 1355.47 799.593 1328.02 751.052 1301.1 C 728.134 1288.23 703.239 1275.35 680.885 1262.15 C 680.707 1237.38 680.784 1212.61 681.115 1187.84 C 694.562 1177.48 707.502 1166.53 721.387 1156.8 z" fill="currentColor" />
<path d="M 666.914 1127.02 C 667.841 1132.37 667.217 1156.19 667.192 1163.48 L 667.063 1243.08 C 658.948 1248.15 650.705 1253.44 642.454 1258.25 C 582.577 1293.14 524.422 1331.13 464.393 1365.71 C 463.23 1360.64 463.79 1333.83 463.743 1327.09 C 463.533 1296.92 464.518 1266.42 463.562 1236.24 C 487.101 1222.77 512.053 1210.38 536.032 1197.5 C 579.306 1174.24 623.109 1149.1 666.914 1127.02 z" fill="currentColor" />
<path d="M 1889.15 844.877 L 1890.09 845.397 C 1891.18 848.61 1890.85 858.39 1890.85 862.371 C 1877.53 872.261 1859.53 882.826 1845.27 891.882 L 1746.48 953.52 L 1502.88 1107.2 L 1126.44 1348.09 C 1089.23 1372.19 1051.79 1395.93 1014.11 1419.28 C 993.877 1432.06 974.068 1445.43 953.305 1457.28 L 945.722 1453.18 L 936.377 1447.15 C 978.714 1418.63 1024.17 1391.81 1067.26 1364.42 L 1303.99 1213.05 C 1404.56 1148.18 1505.59 1084.03 1607.06 1020.59 C 1700.27 960.706 1794.31 902.129 1889.15 844.877 z" fill="currentColor" />
<path d="M 326.138 912.815 L 327.318 912.981 C 328.781 915.165 328.048 996.432 328.172 1005.49 C 308.662 1018.5 288.777 1029.02 268.352 1040.39 C 250.929 1050.1 233.482 1061.15 215.706 1070.05 L 168.522 1041.78 C 157.955 1035.57 147.492 1029.18 137.14 1022.61 L 326.138 912.815 z" fill="currentColor" />
<path d="M 1738.34 319.147 C 1740.05 318.965 1743.42 318.55 1745 318.688 C 1755.61 319.608 1773.45 331.732 1772.57 343.448 C 1767.73 346.569 1758.9 325.489 1748.71 326.179 C 1728.28 327.562 1701.52 354.812 1686.62 366.781 L 1604.58 432.167 L 1333.95 646.973 L 710.595 1134.48 C 701.143 1141.59 691.439 1149.28 681.327 1155.34 L 680.139 1154.76 C 678.318 1142.17 695.13 1134.78 703.955 1128.13 L 751.112 1091.99 L 873.263 997.195 L 1502.18 502.345 L 1618.47 409.768 C 1640.71 391.867 1716.62 327.35 1738.34 319.147 z" fill="currentColor" />
<path d="M 94.6994 1012.06 C 115.82 1022.39 147.66 1043.19 167.931 1055.95 L 245.151 1103.5 C 312.681 1145.61 382.953 1187.13 449.302 1230.98 C 444.08 1234.64 437.907 1238.45 432.5 1241.96 L 422.757 1247.77 C 414.06 1243.48 391.761 1228.97 383.023 1223.36 C 360.546 1208.82 337.988 1194.4 315.349 1180.11 C 238.795 1131.88 161.854 1084.27 84.5322 1037.28 L 94.6994 1012.06 z" fill="currentColor" />
<path d="M 1888.11 676.824 C 1888.47 677.249 1888.84 677.674 1889.2 678.099 C 1889.62 711.424 1889.81 801.822 1889.94 829.507 C 1884.19 833.644 1875.55 838.555 1869.33 842.329 C 1851.53 830.331 1835.04 816.498 1818.55 802.792 L 1775.21 766.977 C 1786.7 755.66 1803.19 742.784 1815.96 732.522 C 1839.68 713.53 1863.73 694.961 1888.11 676.824 z" fill="currentColor" />
<path d="M 681.219 1479.63 C 686.039 1481.97 690.7 1484.8 695.382 1487.41 C 738.905 1511.77 780.951 1538.53 824.392 1563.02 C 835.382 1569.21 851.205 1577.12 860.055 1585.71 C 860.914 1601.24 860.73 1617.76 860.72 1633.32 C 839.708 1623.67 808.626 1604.54 788.669 1592.06 C 753.577 1570.13 716.478 1549.04 681.798 1526.97 C 681.333 1511.19 681.14 1495.41 681.219 1479.63 z" fill="currentColor" />
<path d="M 427.53 1377.29 C 436.038 1380.93 443.529 1383.16 452.41 1385.59 L 452.537 1578.41 C 452.762 1608.19 452.779 1637.97 452.588 1667.75 C 452.532 1674.87 453.041 1709.08 450.592 1713.56 C 448.426 1714.9 447.979 1715.1 445.606 1716.05 C 438.879 1714.45 433.302 1710.11 427.387 1706.31 C 426.594 1662.85 427.578 1618.28 427.56 1574.8 C 427.059 1508.97 427.049 1443.13 427.53 1377.29 z" fill="currentColor" />
<path d="M 963.46 1242.11 C 979.834 1240.32 994.297 1249.8 999.493 1266.53 C 1012.14 1307.22 989.515 1377.19 949.3 1395.53 C 934.472 1402.29 914.053 1385.37 910.758 1368.44 C 905.37 1340.77 912.882 1313.88 928.044 1290.2 C 930.171 1286.85 927.181 1282.8 926.219 1279 L 927.602 1277.42 L 929.291 1277.49 C 931.937 1280.23 933.077 1284.01 934.536 1287.59 C 941.34 1287.95 945.895 1288.89 952.581 1290.15 L 953.345 1288.75 C 952.681 1294.52 951.244 1300.91 950.112 1306.66 C 930.552 1293.13 928.411 1305.19 924.602 1321.87 C 929.551 1324 941.715 1326.61 943.037 1330.02 L 941.799 1331.87 C 937.853 1333.13 937.667 1332.29 932.924 1331.28 L 930.435 1334.13 L 929.356 1333.95 C 929.68 1331.24 930.048 1332.3 929.083 1330.23 C 926.219 1331.57 927.458 1330.63 925.477 1333.44 C 928.572 1339.25 927.054 1338.9 923.209 1343.76 C 922.916 1350.41 921.355 1367.37 929.131 1369.24 C 934.839 1367.7 944.96 1355.41 950.809 1350.1 C 956.614 1352.76 960.492 1355.44 966.631 1353.94 C 972.23 1349.91 972.579 1339.95 973.828 1332.63 L 970.521 1325.31 C 972.188 1314.11 973.213 1302.35 975.102 1291.18 C 979.193 1267.02 972.537 1264.08 952.465 1274.32 C 945.703 1271.57 937.578 1267.4 930.881 1264.19 C 942.141 1253.62 949.128 1247.75 963.46 1242.11 z" fill="currentColor" />
<path d="M 1926.44 647.873 C 1928.68 651.488 1927.56 710.658 1927.58 718.86 C 1927.85 752.46 1927.94 786.061 1927.86 819.661 L 1927.53 865.754 C 1927.52 875.164 1927.93 888.346 1927.02 897.235 C 1924.77 900.188 1920.97 901.25 1917.43 902.717 C 1914.04 902.145 1909.53 900.979 1906.09 900.203 C 1905.09 899.902 1904.3 899.298 1903.36 898.735 C 1901.02 890.57 1901.98 838.439 1901.97 827.21 L 1901.88 666.676 L 1926.44 647.873 z" fill="currentColor" />
<path d="M 663.765 1090.97 C 665.776 1094.58 667.468 1109.01 668.145 1113.82 C 662.721 1116.09 656.671 1118.98 651.505 1121.85 C 601.655 1149.58 551.118 1176 501.017 1203.27 C 487.819 1210.46 474.02 1217.71 460.315 1223.8 L 448.519 1216.85 L 436.512 1209.99 C 492.195 1184.71 545.98 1152.09 600.537 1124.31 C 621.502 1113.64 643.296 1102.45 663.765 1090.97 z" fill="currentColor" />
<path d="M 751.02 1133.09 C 799.41 1162.13 848.477 1189.5 897.106 1218.1 C 910.013 1225.69 922.581 1233.7 935.639 1241.06 C 931.212 1245.39 922.843 1253.61 918.058 1257.07 L 802.587 1189.87 C 783.275 1178.87 747.985 1160.42 730.889 1148.11 L 751.02 1133.09 z" fill="currentColor" />
<path d="M 315.34 882.89 C 317.972 883.535 330.077 891.573 333.112 893.524 C 266.409 933.229 193.938 978.737 125.408 1014.89 C 121.929 1014.69 111.737 1007.82 108.293 1005.68 C 150.712 979.997 193.425 954.807 236.424 930.112 C 262.086 915.145 290.615 899.016 315.34 882.89 z" fill="currentColor" />
<path d="M 997.619 1525.02 C 1000.01 1534.23 999.163 1547.64 998.908 1557.42 C 989.644 1564.57 967.28 1577.36 956.536 1583.7 C 928.83 1600.06 901.675 1616.16 874.268 1633.07 C 872.078 1630.67 873.223 1605.7 873.285 1600.66 C 912.136 1574.79 957.076 1549.03 997.619 1525.02 z" fill="currentColor" />
<path d="M 1733.27 356.801 C 1738.8 358.977 1761.83 375.781 1768.64 379.627 C 1813.9 405.168 1858.07 434.193 1903.47 459.36 C 1899.09 464.951 1894.9 470.785 1890.49 476.421 L 1889 476.119 C 1868.57 462.314 1844.04 448.357 1822.77 435.663 L 1714.63 371.782 L 1733.27 356.801 z" fill="currentColor" />
<path d="M 903.079 1451.07 C 922.024 1463.96 943.029 1475.28 962.569 1487.32 C 973.838 1494.26 987.268 1501.06 996.785 1510.09 C 989.443 1516.91 947.864 1540.14 936.926 1546.66 C 916.371 1558.9 893.292 1573.93 872.43 1585.11 L 870.962 1584.81 C 867.426 1581.43 865.394 1577.07 862.96 1572.76 C 873.722 1563.95 888.444 1556.13 900.278 1548.73 C 923.504 1534.2 948.266 1520.28 971.048 1505.22 C 969.045 1502.33 967.166 1500.2 964.875 1497.53 L 952.979 1502.01 C 937.779 1493.4 902.476 1470.62 889.548 1460.68 C 893.916 1457.08 898.383 1454.2 903.079 1451.07 z" fill="currentColor" />
<path d="M 81.358 1361.22 C 89.873 1364.62 110.747 1377.64 119.112 1382.85 C 111.596 1399.21 100.601 1412.69 93.5203 1428.17 C 95.2204 1445.19 108.637 1478.62 113.688 1500.12 C 116.042 1509.39 116.876 1511.92 121.981 1519.56 C 112.96 1513.73 88.0601 1499.65 81.1108 1493.15 C 80.8353 1449.18 80.9177 1405.2 81.358 1361.22 z" fill="currentColor" />
<path d="M 1048.14 776.713 C 1054.34 776.853 1092.63 801.251 1100.16 805.989 C 1085.14 818.29 1068.91 830.749 1053.65 842.984 C 1046.84 841.199 1011.76 818.351 1002.01 812.929 C 1014.18 801.984 1034.59 787.175 1048.14 776.713 z" fill="currentColor" />
<path d="M 742.017 1341.84 C 743.452 1341.94 797.678 1373.69 806.661 1378.32 C 799.821 1382.97 791.612 1387.59 785.799 1393.47 C 780.693 1398.63 786.683 1438.67 786.438 1448.38 L 786.402 1449.4 C 778.398 1444.84 770.43 1440.22 762.5 1435.53 C 762.619 1421.86 763.281 1407.36 761.889 1393.83 C 760.775 1382.99 747.062 1378.18 738.811 1373.6 C 730.866 1369.19 723.668 1364.96 715.974 1360.09 C 724.588 1353.91 733.27 1347.83 742.017 1341.84 z" fill="currentColor" />
<path d="M 1554.11 377.745 C 1561.3 380.049 1596.82 401.662 1605.5 406.285 C 1591.12 418.308 1573.5 431.342 1558.59 443.352 C 1554.09 442.703 1514.19 418.922 1507.56 414.971 C 1521.17 403.238 1539.71 388.585 1554.11 377.745 z" fill="currentColor" />
<path d="M 1159.87 688.737 C 1164.51 689.099 1205.4 713.249 1212.31 717.205 C 1197.27 729.388 1181.13 741.316 1165.68 753.055 C 1165 753.227 1164.32 753.399 1163.65 753.572 C 1152.47 748.119 1122.99 730.47 1114.3 725.431 C 1129.63 713.376 1144.82 701.144 1159.87 688.737 z" fill="currentColor" />
<path d="M 1383.11 511.618 C 1387.7 513.232 1429.02 537.001 1436.02 540.797 C 1421.23 553.11 1406.03 564.926 1390.45 576.227 L 1389.44 576.682 C 1384.34 576.78 1345.61 552.589 1338.71 548.04 C 1353.68 535.335 1367.55 525.464 1383.11 511.618 z" fill="currentColor" />
<path d="M 1440.35 467.771 C 1447.68 470.022 1484.12 491.828 1491.1 496.697 C 1480.41 506.885 1457.1 523.943 1444.76 533.149 C 1437.09 530.505 1403.02 509.831 1394.4 504.901 L 1440.35 467.771 z" fill="currentColor" />
<path d="M 1327.15 555.549 C 1331.68 557.055 1371.82 581.364 1379.16 585.566 C 1366.49 596.884 1348.27 610.498 1334.67 621.256 C 1329.95 621.921 1289.85 597.073 1282.4 592.764 C 1296.95 582.495 1314.28 567.72 1327.15 555.549 z" fill="currentColor" />
<path d="M 1496.64 423.904 C 1503.28 426.211 1540.99 447.647 1548.54 451.973 C 1532.61 464.605 1518.08 475.897 1501.62 487.896 C 1496.23 486.666 1457.37 463.166 1450.71 459.37 C 1461.81 448.944 1483.79 433.431 1496.64 423.904 z" fill="currentColor" />
<path d="M 1215.54 645.209 C 1232.39 652.922 1252.52 664.011 1268.34 673.762 C 1255.51 685.021 1237.17 698.648 1223.5 709.299 C 1219.13 710.031 1177.3 684.251 1171.19 680.723 C 1186.08 668.731 1200.65 657.511 1215.54 645.209 z" fill="currentColor" />
<path d="M 938.76 862.802 C 942.259 863.248 983.267 888.367 990.222 892.465 C 979.057 902.629 958.029 917.986 945.655 927.529 C 939.763 927.43 901.682 903.45 894.41 898.854 C 908.094 886.884 924.45 874.264 938.76 862.802 z" fill="currentColor" />
<path d="M 1105.02 732.979 C 1121.06 741.371 1139.88 752.802 1156.11 761.898 L 1109.66 797.937 C 1106.63 797.303 1065.01 772.054 1058.37 768.578 C 1072.75 757.579 1090.46 742.638 1105.02 732.979 z" fill="currentColor" />
<path d="M 828.339 949.76 C 838.761 953.745 869.814 972.839 879.509 979.247 C 867.052 990.664 848.562 1003.91 834.757 1013.83 C 824.192 1009.48 794.278 991.634 782.65 985.133 C 795.44 974.363 814.479 960.641 828.339 949.76 z" fill="currentColor" />
<path d="M 884.453 906.755 C 890.888 908.521 926.938 930.897 935.015 935.845 C 920.041 947.784 904.926 959.546 889.674 971.129 C 881.005 968.5 849.115 947.774 838.503 941.958 C 853.255 929.366 868.735 918.098 884.453 906.755 z" fill="currentColor" />
<path d="M 1271.99 600.91 C 1287.01 608.186 1307.79 621.861 1323.98 630.476 C 1308.68 641.123 1293.32 653.708 1278.52 665.234 C 1275.1 665.281 1232.67 640.508 1227.44 636.851 C 1239.85 625.489 1258.46 611.589 1271.99 600.91 z" fill="currentColor" />
<path d="M 818.164 1385.2 C 835.55 1395.7 853.239 1405.69 871.209 1415.16 C 858.42 1423.35 846.024 1432.14 834.062 1441.5 C 827.624 1446.64 822.337 1450.84 815.514 1455.41 C 807.229 1453.14 803.823 1452.09 796.08 1448.5 C 795.656 1437.53 794.693 1426.39 793.875 1415.42 C 792.583 1398.11 804.92 1392.49 818.164 1385.2 z" fill="currentColor" />
<path d="M 720.494 1033.71 C 728.974 1035.02 763.284 1057.34 771.566 1063.03 C 760.298 1073.01 740.331 1087.58 727.85 1097.29 C 722.613 1096.33 685.43 1073.03 676.786 1068.25 C 690.474 1056.14 705.839 1044.63 720.494 1033.71 z" fill="currentColor" />
<path d="M 1608.1 334.697 C 1614.63 336.714 1651.75 358.589 1659.55 363.008 C 1644.91 374.917 1630.12 386.643 1615.2 398.184 L 1613.68 398.499 C 1595.92 388.811 1581.76 380.448 1564.84 369.32 C 1579.13 357.612 1593.54 346.07 1608.1 334.697 z" fill="currentColor" />
<path d="M 991.44 820.711 C 998.881 822.059 1035.14 845.555 1043.23 850.685 C 1030.36 861.459 1013.87 874.014 1000.46 884.758 C 986.504 878.978 963.407 863.572 948.593 855.592 C 962.966 844.077 977.249 832.45 991.44 820.711 z" fill="currentColor" />
<path d="M 774.054 991.927 C 790.21 1002.09 808.34 1011.97 825.067 1021.35 C 810.544 1033.4 798.073 1043.05 782.492 1053.68 C 774.469 1053.37 740.385 1031.31 732.176 1025.35 L 774.054 991.927 z" fill="currentColor" />
<path d="M 451.793 1247.9 C 453.114 1254.42 452.492 1278.03 452.45 1285.84 L 451.522 1373.93 C 446.251 1372.12 440.994 1370.27 435.749 1368.38 C 433.032 1367.18 429.869 1365.56 427.154 1364.24 L 426.946 1259.98 C 434.883 1257.5 444.302 1251.98 451.793 1247.9 z" fill="currentColor" />
<path d="M 1656.59 297.835 C 1666.63 298.038 1699.27 317.683 1709.05 323.626 C 1698.13 333.71 1682.41 345.47 1670.52 354.705 C 1670.45 354.725 1670.38 354.755 1670.3 354.767 C 1665.73 355.473 1625.22 330.921 1618.27 327.042 C 1628.54 318.931 1646.2 304.021 1656.59 297.835 z" fill="currentColor" />
<path d="M 1940.87 874.417 C 1953.38 880.667 1965.68 887.33 1977.74 894.395 C 1955.37 907.491 1932.73 920.128 1909.84 932.298 C 1899.12 926.189 1888.35 920.165 1877.53 914.227 C 1870.59 910.406 1863.21 906.572 1857.36 901.299 C 1866.6 893.752 1879.35 886.666 1889.89 880.82 C 1890.84 889.847 1891.56 899.133 1892.37 908.194 C 1901.1 912.272 1910.26 914.951 1919.44 917.853 C 1927.05 914.023 1933.2 909.865 1939.95 904.755 C 1940.34 894.4 1940.19 885.019 1940.87 874.417 z" fill="currentColor" />
<path d="M 1524.23 860.687 C 1529.55 860.831 1550.33 870.907 1556.83 873.758 C 1540.6 887.915 1523.53 900.434 1506.28 913.274 C 1501.51 914.761 1479.49 902.879 1473.9 900.107 C 1489.04 886.847 1508.03 873.761 1524.23 860.687 z" fill="currentColor" />
<path d="M 1794.49 655.76 C 1803.1 658.233 1813.38 664.683 1821.14 669.399 C 1814.21 675.104 1771.52 709.249 1766.76 711.363 C 1756.81 707.964 1747.65 703.96 1738.06 699.743 C 1747.68 689.866 1782.08 664.86 1794.49 655.76 z" fill="currentColor" />
<path d="M 679.443 1302.79 C 694.705 1311.47 710.56 1318.93 726.012 1327.59 C 720.965 1331.68 715.123 1335.68 709.797 1339.48 C 709.735 1339.17 709.673 1338.85 709.61 1338.54 L 709.269 1336.97 C 708.328 1332.51 708.583 1331.88 705.761 1328.46 L 703.978 1328.35 C 699.977 1333.98 700.419 1348.7 700.246 1356.06 C 700.087 1361.52 699.874 1367.57 699.783 1372.99 C 699.503 1389.64 697.181 1398.54 680.335 1387.4 C 679.222 1360.19 679.768 1330.35 679.443 1302.79 z" fill="currentColor" />
<path d="M 1260.06 1064.74 C 1272.06 1069.72 1283.23 1072.56 1295.84 1078.36 C 1278.77 1088.68 1261.31 1102.7 1245.73 1115.16 C 1240.97 1116.17 1217.2 1105.94 1211.38 1103.65 C 1226.57 1090.57 1244.24 1078.32 1260.06 1064.74 z" fill="currentColor" />
<path d="M 1594.01 808.828 C 1599.66 809.764 1618.61 819.478 1624.67 822.448 C 1612.71 829.247 1585.77 851.877 1572.58 861.319 C 1561.91 857.076 1551.26 852.76 1540.65 848.371 C 1551.83 838.65 1580.58 818.792 1594.01 808.828 z" fill="currentColor" />
<path d="M 1328.74 1013.06 C 1336.26 1016.87 1351.32 1022.53 1359.96 1026.38 C 1353.51 1031.57 1314.08 1062.89 1310.28 1063.88 C 1298.49 1060.84 1286.95 1056.9 1275.77 1052.1 C 1295.31 1038.8 1310.1 1027.79 1328.74 1013.06 z" fill="currentColor" />
<path d="M 1905.15 619.74 L 1906.75 620.592 C 1908.92 627.914 1910.35 636.071 1911.85 643.617 C 1891.97 659.848 1869.34 676.443 1848.77 692.074 C 1845.73 684.955 1842.6 677.877 1839.37 670.842 C 1857.28 656.712 1887.43 631.456 1905.15 619.74 z" fill="currentColor" />
<path d="M 1457.58 912.708 C 1461.55 913.879 1484.23 924.65 1489.29 926.962 C 1473.78 938.27 1456.32 952.713 1440.61 962.928 C 1428.9 958.817 1419.94 956.835 1407.69 951.864 C 1420.44 939.789 1443.02 923.636 1457.58 912.708 z" fill="currentColor" />
<path d="M 1130.8 1165.84 C 1139.19 1167.17 1157.57 1174.65 1165.05 1178.79 C 1148.11 1190.6 1132.54 1203.35 1115.8 1215.29 C 1112.13 1214.76 1086.81 1205.98 1082 1204.37 C 1092.2 1195.09 1118.68 1175.39 1130.8 1165.84 z" fill="currentColor" />
<path d="M 1194.59 1116.74 C 1199.15 1117.12 1223.99 1126.28 1229.54 1128.25 C 1215.6 1140.07 1196.23 1154.74 1181.51 1165.5 C 1175.93 1164.36 1154.78 1157.16 1147.03 1154.99 C 1159.57 1143.44 1180.7 1127.82 1194.59 1116.74 z" fill="currentColor" />
<path d="M 1390.69 964.211 C 1399.49 965.971 1416.46 973.243 1425.34 976.798 C 1408.54 988.13 1393.53 1001.95 1376.54 1012.9 C 1371.37 1013.48 1350 1003.45 1343.97 1000.87 C 1356.57 989.692 1377.01 974.802 1390.69 964.211 z" fill="currentColor" />
<path d="M 1660.58 757.73 C 1666.96 758.678 1683.41 768.608 1689.88 772.309 C 1672.53 784.434 1656.76 796.748 1639.79 809.097 C 1629.72 806.218 1619.14 801.085 1609.61 796.609 C 1619.48 786.798 1647.94 767.165 1660.58 757.73 z" fill="currentColor" />
<path d="M 1631.76 830.756 C 1633.68 832.71 1634.9 850.403 1637.74 858.483 C 1619.77 871.202 1599.36 887.63 1581.66 901.218 C 1580.53 901.556 1581.24 901.49 1579.57 900.722 C 1578.18 894.362 1577.84 880.179 1577.37 872.888 C 1590.63 860.159 1616.78 841.522 1631.76 830.756 z" fill="currentColor" />
<path d="M 1859.27 607.915 C 1870.74 610.015 1876.76 611.96 1887.53 616.376 C 1875.04 628.215 1847.68 648.308 1833.12 660.255 L 1831.04 661.467 C 1826.32 659.513 1812.27 649.975 1806.61 646.539 C 1821.5 634.951 1843.75 618.117 1859.27 607.915 z" fill="currentColor" />
<path d="M 1829.34 678.764 C 1831.98 680.154 1837.53 695.054 1839.34 699.247 C 1819.27 715.209 1799.35 731.347 1779.56 747.66 L 1774.93 751.151 L 1774.12 750.468 C 1773.64 741.329 1773.22 732.187 1772.87 723.042 C 1791.47 708 1810.3 693.239 1829.34 678.764 z" fill="currentColor" />
<path d="M 1722.91 708.971 C 1732.26 714.429 1742.34 718.018 1752.23 722.709 C 1737.45 735.642 1721.02 745.323 1704.97 760.276 C 1693.55 755.818 1684.68 751.615 1673.73 746.292 C 1684.39 736.77 1710.76 717.795 1722.91 708.971 z" fill="currentColor" />
<path d="M 1695.77 780.952 C 1697.57 785.943 1699.88 803.317 1700.83 809.436 C 1683.61 822.405 1667.64 835.469 1650 848.239 L 1648.74 848.426 C 1646.4 845.763 1645.89 824.772 1645.58 819.697 C 1655.53 809.983 1684 788.576 1695.77 780.952 z" fill="currentColor" />
<path d="M 1066.41 1216.74 C 1070.61 1217.43 1095.05 1225.38 1100.48 1227.07 C 1087.72 1237.61 1068.13 1251.53 1054.66 1261.21 C 1048.24 1261.33 1026.88 1253.36 1019.87 1250.88 C 1035.66 1240.37 1050.8 1227.91 1066.41 1216.74 z" fill="currentColor" />
<path d="M 1563.98 883.01 C 1564.91 884.083 1566.85 903.181 1569.23 909.868 C 1551.67 923.238 1533.96 937.846 1515.79 950.124 L 1514.12 950.614 C 1511.67 946.797 1513.65 927.551 1513.19 921.192 C 1528.04 908.776 1548 895.116 1563.98 883.01 z" fill="currentColor" />
<path d="M 1758.79 733.203 C 1760.28 742.829 1761.96 751.306 1763.94 760.804 C 1747.05 773.49 1730.25 786.304 1713.55 799.244 L 1711.54 799.731 C 1709.03 796.924 1709.5 776.062 1709.27 770.63 C 1725.83 757.001 1741.3 745.651 1758.79 733.203 z" fill="currentColor" />
<path d="M 1368.87 1033.84 C 1371.07 1043.63 1366.76 1045.72 1373.02 1059.79 C 1354.15 1074.93 1338.62 1087.49 1318.42 1100.69 L 1316.62 1100.79 C 1313.86 1096.72 1315.02 1082.28 1315.15 1076.49 C 1323.16 1067.87 1358.18 1041.4 1368.87 1033.84 z" fill="currentColor" />
<path d="M 1434.75 983.145 C 1436.63 992.943 1432.91 995.089 1438.84 1008.13 C 1422.41 1022.67 1404.28 1036.27 1386.62 1049.26 C 1385.33 1050.01 1386.18 1049.65 1383.93 1049.89 C 1382.04 1045.68 1383.01 1027.8 1383.17 1022.12 C 1395.51 1010.72 1420.67 992.69 1434.75 983.145 z" fill="currentColor" />
<path d="M 1498.66 933.73 C 1502.68 937.091 1497.52 947.744 1503.97 959.244 C 1487.75 972.772 1468.15 987.095 1450.89 999.154 C 1450.16 999.262 1449.44 999.369 1448.71 999.476 C 1445.4 995.181 1448.41 979.514 1447.87 972.416 C 1464.55 959.193 1481.49 946.295 1498.66 933.73 z" fill="currentColor" />
<path d="M 709.943 1369.44 C 723.423 1376.16 738.073 1385.13 751.129 1392.8 C 752.99 1407.69 753.27 1414.22 752.055 1429.15 C 739.839 1422.14 719.11 1410.96 708.122 1403.01 C 709.468 1392.09 709.588 1380.49 709.943 1369.44 z" fill="currentColor" />
<path d="M 1174.11 1184.98 C 1176.05 1187.59 1175.84 1207.14 1175.95 1211.86 C 1158.33 1225.35 1140.61 1238.72 1122.78 1251.95 L 1121.55 1250.87 C 1120.85 1242.9 1121.32 1233.22 1121.49 1225.09 C 1132.34 1214.89 1161.19 1194.59 1174.11 1184.98 z" fill="currentColor" />
<path d="M 1978.57 567.748 L 1979.3 568.457 C 1980.5 572.436 1980.21 589.185 1980.24 594.325 C 1966.95 605.329 1938.3 626.112 1923.56 635.466 L 1921.74 634.966 C 1919.63 626.267 1918.39 618.649 1916.96 609.855 C 1948 597.954 1956.47 591.383 1978.57 567.748 z" fill="currentColor" />
<path d="M 1239.07 1134.95 C 1240.9 1137.31 1240.85 1157.92 1241.11 1163.09 C 1223.71 1175.64 1207 1189.46 1188.72 1200.87 L 1188.2 1200.71 C 1185.54 1196.94 1186.8 1181.32 1186.96 1175.66 C 1204.48 1162.23 1221.51 1148.27 1239.07 1134.95 z" fill="currentColor" />
<path d="M 1302.63 1085.8 C 1303.62 1088.91 1303.71 1108.86 1304.11 1113.81 C 1287.26 1125.91 1269.56 1139.73 1252.6 1152.2 C 1250.36 1149.05 1251.38 1130.72 1251.46 1125.64 C 1263.77 1113.93 1288.35 1096.48 1302.63 1085.8 z" fill="currentColor" />
<path d="M 1109.69 1233.75 C 1111.62 1240.38 1109.99 1250.66 1112.41 1259.89 C 1094.9 1273.31 1077.28 1286.59 1059.56 1299.72 L 1058.72 1299.72 C 1057.58 1296.69 1058.29 1277.39 1058.36 1272.82 C 1071.31 1261.6 1095.36 1244.55 1109.69 1233.75 z" fill="currentColor" />
<path d="M 1943.32 442.125 C 1966.66 439.016 1985.65 458.988 1992.48 479.569 C 1994.26 484.923 1994.28 490.788 1994.52 496.399 C 1991.74 490.279 1989.88 483.048 1986.24 477.404 C 1950.11 421.427 1919.93 459.603 1900.01 498.273 C 1886.41 525.683 1882.68 550.249 1885.05 580.092 C 1869.17 533.735 1897.23 462.027 1943.32 442.125 z" fill="currentColor" />
<path d="M 1045.68 1281.91 C 1048.63 1285.41 1047.71 1303.83 1047.65 1309.39 L 1008.18 1338.06 L 1007.93 1338.21 L 1007.28 1337.65 C 1010.63 1324.79 1012.67 1314.52 1015.26 1301.45 C 1026.32 1295.73 1035.44 1288.97 1045.68 1281.91 z" fill="currentColor" />
<path d="M 674.702 1081.47 C 688.73 1088.64 702.569 1096.17 716.206 1104.06 C 711.913 1108.77 705.577 1113.61 700.528 1117.71 C 694.201 1122.93 687.716 1127.95 681.083 1132.77 C 680.502 1115.13 679.243 1098.57 674.702 1081.47 z" fill="currentColor" />
<path d="M 869.991 1429.26 C 871.428 1431.84 870.613 1442.22 870.451 1445.69 C 863.846 1453.25 849.615 1461.33 840.58 1467.79 C 838.246 1463.78 839.076 1455.89 839.159 1450.95 C 848.142 1443.47 860.152 1435.7 869.991 1429.26 z" fill="currentColor" />
<path d="M 1690.68 288.929 C 1694.17 289.659 1722.83 307.139 1728.39 310.323 L 1718.92 313.882 C 1710.4 311.747 1688.03 299.262 1679.81 294.53 L 1690.68 288.929 z" fill="currentColor" />
<path d="M 893.853 1422.51 C 899.405 1422 905.639 1423.45 911.07 1424.58 C 904.256 1430.27 899.2 1433.95 891.859 1439.01 L 880.102 1446.06 C 879.611 1438.84 879.731 1430.47 879.67 1423.13 L 893.853 1422.51 z" fill="currentColor" />
<path d="M 1953.99 516.77 C 1966.89 524.019 1958.24 540.18 1945.64 544.483 C 1930.87 537.602 1946.29 522.605 1953.99 516.77 z" fill="currentColor" />
<path d="M 1011.81 1264.23 C 1019.52 1267.07 1029.16 1271.56 1036.86 1274.88 L 1029.69 1279.84 L 1016.21 1288.14 C 1015.02 1278.48 1014.28 1273.57 1011.81 1264.23 z" fill="currentColor" />
<path d="M 679.536 1276.9 C 688.903 1280.39 719.269 1298.23 730.156 1303.88 C 730.647 1304.79 731.138 1305.69 731.629 1306.6 C 724.413 1308.82 687.902 1286.71 680.923 1280.94 C 680.923 1280.94 679.693 1277.36 679.536 1276.9 z" fill="currentColor" />
<path d="M 785.411 1334.61 C 792.278 1336.83 806.215 1344.39 811.453 1349.78 C 815.182 1353.62 814.559 1354.94 814.643 1360.43 C 798.385 1349.78 795.177 1351.84 785.411 1334.61 z" fill="currentColor" />
<path d="M 1876.4 590.602 C 1879.19 592.491 1884.04 599.631 1884.97 602.746 L 1882.75 602.521 C 1878.2 601.168 1873.55 600.599 1870.76 597.445 C 1872.03 593.514 1872.81 593.856 1876.4 590.602 z" fill="currentColor" />
<path d="M 1972.32 483.825 C 1975.13 484.062 1976.79 483.871 1978.95 485.625 C 1977.34 488.098 1972.94 489.474 1969.97 490.747 C 1967.87 491.551 1967.54 491.537 1965.31 491.995 L 1964.24 490.969 C 1965.4 486.694 1968.54 485.281 1972.32 483.825 z" fill="currentColor" />
<path d="M 1934.42 514.732 L 1935.15 515.463 C 1935.11 518.258 1927.24 535.21 1925.25 540.761 C 1920.47 537.493 1932.25 518.391 1934.42 514.732 z" fill="currentColor" />
<path d="M 826.578 1358.45 C 830.403 1359.7 837.008 1362.06 837.638 1366.27 C 833.368 1368.18 833.645 1368.1 830.168 1366.89 C 827.515 1363.75 827.573 1362.62 826.578 1358.45 z" fill="currentColor" />
<path d="M 769.765 1327.34 L 771.951 1327.92 C 773.904 1331.61 773.573 1329.76 773.506 1333.55 L 772.046 1334.84 L 769.563 1334.11 C 766.598 1332.58 764.92 1331.98 762.649 1329.49 C 764.399 1327.32 766.024 1327.87 769.765 1327.34 z" fill="currentColor" />
<path d="M 1920.82 480.736 C 1924.76 481.987 1932.23 489.03 1932.75 493.048 C 1930.41 493.946 1931.6 493.733 1929.12 493.321 C 1925.2 489.788 1923.36 485.436 1920.82 480.736 z" fill="currentColor" />
<path d="M 1911.71 503.617 C 1915.47 507.461 1919.09 510.374 1919.39 515.5 C 1916.32 513.976 1914.31 512.991 1911.45 511.138 C 1909.9 507.468 1910.47 508.439 1911.71 503.617 z" fill="currentColor" />
<path d="M 1919.41 552.607 C 1920.75 555.983 1920.55 556.147 1920.51 559.667 C 1918.93 563.399 1917.83 563.651 1914.21 565.974 L 1913.59 565.293 C 1915.4 560.929 1917.38 556.863 1919.41 552.607 z" fill="currentColor" />
<path d="M 1944.7 470.376 C 1946.74 470.613 1947.93 470.872 1949.94 471.284 C 1953.26 473.737 1953.57 476.17 1955.07 480.278 C 1951.34 478.77 1947.01 473.697 1944.7 470.376 z" fill="currentColor" />
<metadata><recraft-signature>{"signed_by": "recraft", "signature_b64": "klP42rUQYaU8qECGz0D1Tm84yuabx5ilQcqyLv38vB5lSx1Y3shFiaDXL6YJEb7xs5T0f2TKKeISwee59QbxDw==", "signing_algo": "Ed25519", "generation_timestamp": 1772065309, "identifier": "b5e6b213-817d-4c0d-9492-ec355c9cfcb8"}</recraft-signature></metadata></g></svg>