<svg xmlns="http://www.w3.org/2000/svg" viewBox="0 0 24 24">
<g transform="scale(0.011719,0.011719)"><path d="M 584.192 533.34 C 588.563 533.006 605.746 534.875 610.985 535.255 L 671.668 539.493 L 860.856 553.434 C 871.267 563.234 881.623 573.091 891.924 583.005 C 936.321 583.368 991.395 587.283 1036.42 589.591 C 1049.95 601.622 1063.68 616.288 1077.75 627.435 C 1128.66 629.117 1122.72 622.74 1162.36 655.879 L 1208.65 694.901 L 1345.86 809.539 L 1637.68 1053.39 C 1698.14 1103.68 1760.63 1153.29 1818.67 1206.38 C 1849.99 1235.03 1819.61 1239.49 1794.27 1241.77 C 1802.31 1251.36 1820.93 1267.68 1823.49 1278.29 C 1827.93 1296.61 1788.03 1293.25 1778.54 1293.48 L 1732.47 1294.77 C 1696.28 1295.68 1660.1 1296.86 1623.93 1298.3 C 1602.13 1299.05 1578.31 1298.94 1556.7 1300.99 C 1545.06 1311.08 1523.31 1329.93 1510.32 1336.65 L 1225.18 1322.85 C 1217.53 1321.98 1207.84 1321.78 1200 1321.4 C 1207.3 1330.1 1238.07 1361.04 1238.27 1370.35 C 1238.47 1379.27 1210.76 1402.36 1203.73 1409.13 C 1209.35 1412.84 1235 1423.65 1232.27 1432.47 C 1228.45 1444.79 1213.82 1454.8 1204.63 1463.87 C 1198.55 1469.87 1189.97 1477.34 1183 1482.63 C 1166.39 1484.87 1145.75 1485.81 1128.83 1487.2 C 1089.17 1490.48 1049.14 1492.58 1009.49 1496.03 L 877.562 1507.25 C 854.546 1509.19 822.632 1512.91 800.262 1512.87 C 769.66 1482.96 736.908 1439.03 708.353 1406.05 L 466.054 1120.95 L 285.403 907.495 C 271.681 891.306 257.826 875.23 243.839 859.269 C 237.715 852.283 225.009 838.597 220.293 831.428 C 219.425 819.414 216.246 783.417 221.525 775.028 C 227.732 771.463 240.605 772.131 248.28 771.986 C 247.098 756.953 237.843 716.169 239.27 706.718 C 244.978 701.019 312.171 699.231 323.27 698.46 L 525.587 685.069 C 522.854 682.614 514.257 675.032 513.072 672.734 C 507.97 662.837 522.497 609.714 525.883 599.9 C 536.987 595.746 545.147 596.362 556.45 598.369 C 558.864 586.78 567.821 543.781 573.289 536.035 C 576.797 533.624 579.884 533.784 584.192 533.34 z" fill="currentColor" />
<path d="M 500.485 700.583 C 505.206 700.226 510.337 700.076 515.101 699.841 C 537.79 721.412 563.823 751.027 585.058 774.516 C 608.148 799.86 631.419 825.038 654.869 850.048 C 748.358 949.396 841.088 1049.46 933.052 1150.22 C 966.539 1187.46 1000.38 1224.39 1034.56 1261 C 1048.41 1275.9 1062.5 1291.52 1076.54 1306.28 C 1078.73 1308.59 1081.13 1309.7 1084.3 1309.72 C 1090.79 1309.75 1091.61 1312.39 1095.72 1317.1 C 1103.35 1318.25 1117.01 1318.49 1125.12 1318.93 C 1140.67 1319.74 1156.21 1320.77 1171.74 1322.01 C 1177.91 1328.21 1193.2 1345.06 1197.04 1351.68 L 1196.44 1352.61 L 1191.74 1349.53 C 1186.53 1349.74 1159.45 1366.76 1150.51 1370.54 C 1137.35 1366 1124.35 1360.24 1111.27 1355.5 C 1096.49 1350.13 1092.58 1353.83 1080.42 1361.31 C 1070.51 1367.4 1059.1 1376.32 1048.73 1381 C 1029.26 1376.14 1012.37 1364.99 993.324 1360.52 C 986.722 1358.97 980.649 1365.03 975.693 1369.14 C 966.496 1376.71 958.931 1382.87 948.395 1388.42 C 913.776 1374.77 896.681 1367.28 859.058 1372.81 C 836.022 1344.43 807.754 1318.22 783.654 1290.56 C 769.481 1274.29 755.113 1258.34 740.711 1242.28 C 667.289 1160.66 592.984 1079.84 517.81 999.827 L 386.121 855.852 C 359.582 826.822 332.896 797.925 306.064 769.164 C 290.754 752.633 271.858 733.133 258.009 715.963 C 277.568 713.492 308.784 713.428 329.848 711.951 C 386.691 707.644 443.572 703.854 500.485 700.583 z" fill="currentColor" />
<path d="M 605.811 552.696 C 637.283 552.786 675.077 556.267 706.876 558.686 C 752.947 562.09 799.038 565.23 845.146 568.103 C 855.9 576.635 867.442 588.251 877.554 597.824 C 891.542 610.984 905.628 624.041 919.81 636.993 L 1096.23 799.935 L 1508.48 1177.27 C 1511.76 1180.28 1515.86 1183.54 1516.05 1187.91 L 1514.01 1189.13 C 1508.92 1189.75 1507.82 1188.95 1502.79 1187.19 C 1493.15 1186.57 1474.56 1186.46 1466.99 1182.62 C 1458.94 1178.55 1457.05 1181.53 1454.18 1184.2 C 1446.69 1184.35 1440.52 1184.47 1435.67 1184.57 C 1425.11 1175.63 1425.36 1184.77 1413.49 1180.31 C 1406.72 1177.77 1400.43 1180.12 1393.66 1181.78 C 1390.45 1179.28 1388.33 1177.21 1384.5 1175.99 C 1380.51 1176.34 1379.5 1178.13 1377 1179.55 C 1372.36 1182.17 1358.58 1176.14 1352.24 1175.63 C 1335.05 1174.27 1314.11 1174.85 1297.54 1173.57 C 1275.43 1171.86 1255.67 1167.02 1232.53 1167.67 C 1208.27 1146.84 1179.96 1116.17 1156.34 1093.15 L 956.995 896.135 L 696.45 640.824 C 667.507 612.138 633.142 582.126 605.811 552.696 z" fill="currentColor" />
<path d="M 584.499 561.21 C 595.473 565.373 695.973 667.101 712.01 682.886 L 1002.97 971.24 L 1137.01 1104.67 C 1158.08 1125.62 1181.68 1147.58 1201.92 1168.83 C 1185.62 1180.18 1169.53 1189.38 1152.44 1199.25 C 1150.21 1200.53 1146.55 1205.21 1146.24 1207.85 C 1144.19 1225.12 1176.57 1227.9 1183.41 1237.35 L 1181.42 1238.96 C 1168.11 1245.16 1155.5 1252.92 1141.63 1259.3 C 1123.28 1244.32 1096.22 1212.75 1079 1194.51 C 1023.06 1135.22 968.211 1074.65 912.394 1015.18 L 681.187 768.867 L 599.75 681.95 C 583.286 664.324 555.92 635.993 542.783 616.977 C 550.43 616.967 561.611 617.502 568.669 615.357 C 574.069 611.47 581.97 571.022 584.499 561.21 z" fill="currentColor" />
<path d="M 902.31 594.874 C 942.719 595.115 992.746 598.735 1033.31 601.572 C 1037.74 604.989 1046.19 613.667 1050.64 617.774 C 1062.87 629.058 1074.79 640.567 1087.4 651.47 C 1161.95 716.979 1236.1 782.942 1309.85 849.353 C 1395.76 925.334 1482.05 1000.88 1568.72 1075.99 C 1582.48 1087.99 1693.21 1182.2 1693.44 1187.73 L 1686.96 1186.67 C 1682.33 1186.88 1678.46 1188.54 1673.79 1188.77 C 1668.1 1189.04 1662.36 1189.18 1656.66 1188.94 C 1623.69 1187.56 1591.67 1186.22 1558.97 1191.53 C 1526 1166.67 1488.9 1130.16 1457.98 1101.7 L 1313.98 969.562 L 902.31 594.874 z" fill="currentColor" />
<path d="M 260.986 738.668 C 263.631 740.647 272.956 751.499 275.557 754.421 L 304.126 786.482 L 404.491 897.473 C 510.566 1012.21 615.711 1127.81 719.915 1244.25 L 799.452 1332.88 C 810.87 1345.72 830.185 1366.39 839.822 1379.74 C 826.572 1388.72 818.651 1391.7 804.681 1402.78 L 791.841 1413.3 C 779.402 1394.5 764.372 1379.39 750.178 1362.27 C 720.178 1326.1 687.429 1292.12 656.937 1256.57 C 539.662 1121.43 421.477 987.079 302.391 853.529 C 281.883 830.526 259.368 807.488 239.357 784.93 C 278.493 783.454 266.028 771.179 260.986 738.668 z" fill="currentColor" />
<path d="M 1223.09 1182.16 C 1235.48 1180.52 1232.39 1187.05 1242.52 1183.82 C 1245.79 1182.78 1246.15 1182.52 1249.36 1183.07 C 1258.59 1194.47 1271.49 1189.88 1283.06 1184.91 C 1299.48 1193.67 1352.78 1191.79 1372.99 1191.93 C 1382.45 1198.26 1381.19 1197.67 1393.26 1196.76 C 1402.59 1196.05 1403.11 1196.82 1411.99 1193.78 C 1412.32 1193.98 1412.64 1194.19 1412.97 1194.38 C 1413.44 1194.66 1413.93 1194.91 1414.4 1195.19 C 1420.44 1198.83 1448.71 1196.54 1457.52 1197.06 C 1460.05 1199.89 1464.44 1205.94 1469.3 1202.7 C 1473.73 1199.41 1478.93 1200.21 1484.15 1200.16 C 1494.34 1200.08 1504.17 1200.37 1513.97 1203.55 C 1514.96 1203.07 1515.94 1202.6 1516.93 1202.12 C 1523.71 1204.3 1543.21 1222.86 1549.8 1228.76 C 1535.68 1236.85 1518.8 1245.56 1506.31 1255.59 C 1491.57 1267.42 1521.03 1282.9 1529.68 1290.81 L 1530.68 1291.74 C 1522.71 1299.31 1515.21 1305.2 1506.62 1311.95 C 1502.49 1315.33 1478.41 1312.46 1472.06 1312.06 C 1451.05 1310.75 1430.04 1309.57 1409.02 1308.5 L 1181.1 1296.86 C 1174.99 1289.57 1168.76 1282.39 1162.41 1275.31 C 1175.86 1268.61 1205.72 1253.48 1215.4 1242.21 C 1225.92 1229.96 1190.64 1214.84 1181.82 1209.82 C 1192.32 1203.37 1214.61 1185.81 1223.09 1182.16 z" fill="currentColor" />
<path d="M 1191.54 1359.9 C 1197.06 1359.61 1206.93 1366.63 1212.22 1369.86 C 1201.42 1381.94 1188.61 1392.64 1176.38 1403.17 C 1159.65 1417.58 1193.25 1428.56 1203.85 1433.51 C 1194.34 1442.51 1184.88 1451.56 1175.46 1460.66 C 1157.35 1462.9 1134.25 1463.99 1115.52 1465.6 L 954.229 1478.19 C 928.892 1480.07 903.572 1482.17 878.27 1484.48 C 858.504 1486.36 837.564 1489.07 817.817 1489.19 C 823.648 1478.68 830.83 1474.73 840.53 1467.8 C 879.271 1439.1 846.06 1428.78 818.148 1422.07 C 831.54 1410.97 845.854 1401.47 860.254 1391.97 C 894.469 1369.38 920.291 1392.18 950.779 1399.25 L 952.152 1399.56 C 965.428 1390.64 978.985 1379.45 992.135 1369.96 C 1009.8 1375.33 1030.72 1386.86 1049.96 1393.07 C 1060.52 1387.93 1086.98 1369.25 1097.76 1361.99 C 1113.89 1367.03 1138.64 1378.89 1152.82 1381.88 C 1164.55 1376.6 1179.78 1366.65 1191.54 1359.9 z" fill="currentColor" />
<path d="M 536.755 629.486 C 558.438 654.859 589.065 685.294 612.165 710.128 L 795.066 905.449 L 1031.41 1159.2 C 1064.18 1194.2 1096.98 1230.78 1130.53 1264.95 C 1126 1267.55 1118.53 1270.85 1113.59 1273.19 C 1107.11 1275.61 1101.84 1279.16 1095.95 1282.77 L 711.04 862.779 L 598.105 739.943 C 575.947 715.714 550.047 685.386 526.632 663.556 C 530.147 652.242 533.522 640.884 536.755 629.486 z" fill="currentColor" />
<path d="M 1090.22 639.803 C 1097.91 639.628 1110.9 641.331 1118.84 642.245 C 1143.71 665.799 1168.96 687.309 1194.8 709.697 C 1235.31 744.796 1276.08 779.588 1317.12 814.07 L 1638.72 1085.88 C 1678.14 1119.72 1717.48 1154.42 1757.87 1187.11 C 1764.85 1192.77 1796.88 1212.82 1799.13 1217.52 L 1796.24 1217.85 C 1785.61 1218.11 1773.11 1220.51 1762.53 1222.42 C 1757.23 1218.09 1746.84 1208.04 1741.5 1205.34 L 1736.69 1207 C 1730.78 1205.88 1624.75 1110.79 1610.9 1098.7 C 1435.8 947.49 1262.23 794.516 1090.22 639.803 z" fill="currentColor" />
<path d="M 236.168 797.832 C 252.194 813.349 269.003 833.214 284.193 849.996 C 322.01 891.916 359.406 934.214 396.375 976.885 L 693.052 1312.79 L 768.267 1399 C 775.13 1407.01 779.042 1411.3 783.247 1421.05 C 789.884 1436.44 813.364 1440.99 828.787 1446.05 C 823.647 1451.22 821.502 1452.53 815.473 1456.56 C 809.86 1460.12 804.56 1463.49 800.77 1468.98 C 735.129 1396.82 667.725 1317.28 603.678 1243.4 L 427.631 1041.7 L 309.554 905.539 C 296.983 891.032 284.315 876.61 271.552 862.272 C 260.995 850.205 250.283 837.13 238.261 826.641 C 238.302 816.654 237.265 807.692 236.168 797.832 z" fill="currentColor" />
<path d="M 1691.38 1199.46 C 1696.21 1202.3 1706.85 1197.22 1711.01 1200.87 C 1736.97 1223.62 1762.75 1247.8 1788.56 1270.81 L 1602.8 1276.56 C 1587.81 1277.44 1565.27 1277.66 1550.42 1277.41 C 1544.27 1272.5 1541.21 1270.49 1534.42 1266.45 C 1546.27 1259.16 1558.41 1252.21 1570.1 1244.69 C 1593.88 1229.4 1571.26 1218.48 1559.52 1205.86 C 1574.88 1201.75 1595.68 1200.1 1611.61 1200.53 C 1628.44 1200.99 1644.27 1202.94 1661.54 1201.07 C 1672.31 1199.9 1680.52 1204.27 1691.38 1199.46 z" fill="currentColor" />
<path d="M 525.685 697.86 C 532.594 697.75 533.79 697.059 538.777 702.217 C 553.424 717.364 567.509 733.032 581.779 748.533 L 642.262 813.63 L 792.432 975.364 C 861.969 1049.53 930.882 1124.28 999.162 1199.6 C 1027.09 1230.36 1058.67 1262.38 1085.01 1294.05 L 1081.95 1295.19 C 1073.53 1292.92 911.101 1111.82 891.242 1090.24 L 653.738 834.834 L 573.936 748.912 C 562.947 736.945 537.172 707.232 525.685 697.86 z" fill="currentColor" />
<path d="M 1141.7 1282.01 C 1145.56 1285.74 1150.59 1292.63 1154.07 1297.11 C 1147.19 1296.99 1139.45 1296.31 1132.51 1295.84 L 1117.54 1294.1 C 1124.4 1289.8 1134.2 1285.54 1141.7 1282.01 z" fill="currentColor" />
<metadata><recraft-signature>{"signed_by": "recraft", "signature_b64": "TSzc4XqlTV7YrxooDpdHymOyp3nTCKQ+eHp9jbI6wpxTKkl+U77qgnuu22cE+kbsuOYMKLq7ISmjoAu88+RkCA==", "signing_algo": "Ed25519", "generation_timestamp": 1772065252, "identifier": "5be3cb91-58bc-4d5c-a4b4-ddb6177c54bb"}</recraft-signature></metadata></g></svg>