<svg xmlns="http://www.w3.org/2000/svg" viewBox="0 0 24 24">
<g transform="scale(0.011719,0.011719)"><path d="M 400.854 173.422 C 403.233 173.237 405.615 173.108 408 173.034 C 470.471 170.962 555.877 176.924 605.772 220.418 C 623.59 235.95 628.504 257.548 629.114 280.337 C 649.694 274.633 670.509 269.811 691.5 265.883 C 789.88 247.63 914.955 244.799 1003.55 299.43 C 1051.05 328.715 1048.69 382.436 1053.74 432.437 C 1058.45 477.296 1062.86 522.186 1066.95 567.106 C 1069.16 590.578 1071.28 624.326 1075.27 646.763 L 1592.01 902.124 L 1771.11 989.365 C 1815.69 1010.97 1860.54 1031.66 1903.58 1056.37 C 1927.45 1070.07 1944.91 1100.97 1951.3 1127.01 C 1978.04 1236.03 1912.5 1381.54 1858.39 1474.07 C 1809.03 1558.48 1725.54 1670.29 1626.92 1699.58 C 1616.47 1702.69 1594.2 1704.77 1583.98 1701.79 C 1557.41 1694.04 1528.21 1675.2 1503.66 1661.38 C 1456.98 1635 1410.59 1608.12 1364.49 1580.74 C 1319.98 1555.04 1275.73 1528.87 1231.75 1502.26 C 1207.88 1487.95 1179.5 1469.92 1154.88 1457.69 C 1154.85 1469.72 1157.28 1492.02 1158.31 1504.73 L 1166.58 1601.15 C 1168.07 1617.92 1171.76 1645.63 1169.09 1661.39 C 1150.2 1772.86 1034.38 1836.16 932.462 1854.97 C 848.255 1870.51 761.665 1862.55 689.685 1813.64 C 660.221 1793.62 636.436 1764.67 626.485 1730.08 C 622.947 1717.02 619.355 1693.05 616.827 1679.14 C 603.793 1680.97 590.401 1682.92 577.435 1684.12 C 483.932 1692.71 360.854 1655.67 342.219 1550.26 C 339.688 1535.94 335.455 1519.88 332.227 1505.42 L 301.537 1365.79 C 266.444 1210.97 232.186 1055.96 198.766 900.766 L 117.218 523.754 L 95.5599 424.472 C 91.6555 406.197 86.0579 383.091 84.6698 364.596 C 80.2786 306.087 134.892 263.139 180.537 237.12 C 248.553 198.348 323.044 178.916 400.854 173.422 z" fill="currentColor" />
<path d="M 1032.46 424.707 L 1033.79 426.461 C 1036.89 465.961 1041.74 506.698 1045.77 546.243 L 1069.63 780.559 L 1119.94 1313.43 L 1141.62 1540.2 C 1147.67 1609.44 1162.13 1665.42 1116.26 1726.1 C 1023.11 1849.35 814.267 1878.1 688.194 1791.35 C 667.667 1777.23 647.126 1747.05 641.267 1722.66 C 639.265 1714.32 638.05 1703.49 636.89 1694.77 C 616.543 1592.76 597.311 1490.54 579.196 1388.12 L 499.511 946.517 L 448.5 668.74 L 431.707 580.631 C 428.716 564.973 424.254 544.487 422.485 528.946 C 487.104 592.575 658.937 585.233 741.801 569.971 C 823.821 554.863 917.262 526.608 985.27 476.154 C 1002.91 463.07 1019.7 442.508 1032.46 424.707 z" fill="currentColor" />
<path d="M 932.494 537.9 C 933.254 538.11 932.699 537.869 934.458 539.21 C 940.757 616.129 951.425 698.602 959.883 775.64 L 991.944 1088.16 C 1003.78 1202.1 1013.04 1316.3 1019.72 1430.66 C 1024.56 1522.5 1033.77 1639.64 1007.25 1728.06 C 975.21 1834.87 836.606 1827.3 750.552 1797.19 C 746.21 1773.8 742.758 1747.7 738.662 1723.78 C 734.566 1696.55 729.303 1669.58 724.89 1642.39 L 677.719 1356.91 L 554.657 604.683 C 640.746 618.502 762.54 597.106 845.117 571.546 C 875.283 562.209 903.604 550.38 932.494 537.9 z" fill="currentColor" />
<path d="M 499.457 595.509 C 510.2 598.181 521.53 600.622 532.356 603.12 C 533.443 614.463 536.887 631.484 538.947 643.078 L 552.928 720.384 L 588.613 935.351 L 690.435 1554.93 C 702.907 1632.07 718.162 1710.59 729.258 1788.11 C 716.027 1783.54 703.111 1775.11 691.332 1767.52 C 691.039 1753.54 687.405 1736.01 684.946 1721.98 L 674.317 1661.14 C 663.319 1597.57 652.723 1533.94 642.529 1470.24 L 543.616 870.01 L 517.412 707.022 C 511.361 670.59 503.742 632.066 499.457 595.509 z" fill="currentColor" />
<path d="M 1077.82 669.448 C 1089.13 673.417 1111.49 685.882 1123.48 691.717 L 1236.37 747.189 L 1633.18 942.811 C 1681.06 966.397 1729.48 988.505 1777.08 1012.68 C 1794.89 1021.73 1814.19 1031.54 1832.65 1038.94 C 1819.7 1040.57 1797.18 1047.31 1785.52 1053.05 C 1666.21 1111.71 1574.5 1252.59 1528.02 1370.22 C 1501.55 1443.81 1481.42 1519.12 1499.19 1598.28 C 1503.14 1615.91 1511.26 1633.28 1518.6 1649.78 C 1431.95 1602.1 1346.48 1548.5 1260.75 1498.9 C 1225.33 1478.41 1188.39 1454.77 1152.49 1435.68 C 1145.01 1377.51 1139.71 1309.93 1134.21 1251.1 L 1109.59 993.508 L 1091.04 800.852 C 1086.66 758.716 1080.56 711.426 1077.82 669.448 z" fill="currentColor" />
<path d="M 1838.2 1053.36 C 1858.88 1051.2 1880.18 1055.63 1897.45 1067.42 C 1922.53 1084.54 1933.93 1112.55 1939.46 1141.47 C 1960.64 1252.25 1875.63 1423.3 1814.93 1513.34 C 1772.83 1575.78 1689.39 1673.73 1611.84 1688.75 C 1593 1691.05 1577.78 1689.79 1562.02 1677.54 C 1530.11 1652.74 1515.82 1614.62 1510.67 1575.77 C 1506.82 1545.57 1507.27 1514.97 1512.03 1484.89 C 1517.43 1450.12 1527.17 1421.96 1538.74 1389.15 C 1563.73 1318.25 1599.93 1253.18 1645.77 1193.56 C 1689.9 1136.18 1762.88 1063 1838.2 1053.36 z" fill="currentColor" />
<path d="M 1854.26 1109.37 C 1896.5 1105.92 1921.36 1144.22 1923.3 1181.98 C 1929.28 1298.25 1861.18 1427.7 1794.07 1518.66 C 1758.79 1566.47 1688.11 1640.25 1629.25 1646.65 C 1581.88 1647.94 1563.17 1599.1 1560.24 1559.72 C 1553.25 1465.87 1599.92 1360.8 1649.34 1283.68 C 1663.33 1262.24 1678.47 1241.58 1694.71 1221.79 C 1732.56 1174.83 1792 1115.99 1854.26 1109.37 z" fill="currentColor" />
<path d="M 1853.51 1123.31 C 1864.73 1122.33 1875.91 1125.5 1884.94 1132.22 C 1899.9 1143.16 1905.56 1162.81 1908.25 1180.3 C 1927.76 1307.43 1756.33 1614.54 1630.24 1632.77 C 1575.33 1636.11 1569.67 1551.21 1574.05 1513.68 C 1585.08 1418.98 1632.75 1328.22 1688.68 1252.49 C 1725.53 1202.61 1789.86 1132.49 1853.51 1123.31 z" fill="currentColor" />
<path d="M 1840.12 1161.26 C 1901.44 1158.2 1859.91 1291.85 1849.92 1320.62 C 1847.82 1327.47 1850.6 1339.39 1849.08 1345.85 C 1837.83 1393.7 1806.43 1464.64 1753.65 1476.65 C 1747.26 1487.22 1740.48 1497.55 1733.33 1507.62 C 1709.69 1540.68 1676.15 1576.09 1634.33 1583.07 C 1616.8 1581.72 1603.46 1570.41 1601.03 1552.74 C 1589.86 1471.39 1635.41 1373.9 1677.8 1306.67 C 1709.82 1255.88 1781.06 1174.22 1840.12 1161.26 z" fill="currentColor" />
<path d="M 1750.64 1275.21 C 1767.9 1273.24 1796.6 1286.23 1812.07 1294.4 C 1759.5 1307.19 1720.3 1394.38 1721.02 1443.98 C 1721.48 1447.16 1721.57 1449.14 1721.68 1452.29 C 1714.52 1452.9 1675.2 1435.19 1673.12 1426.98 C 1660.1 1375.73 1699.78 1292.54 1750.64 1275.21 z" fill="currentColor" />
<path d="M 1812.13 1309.07 C 1848.69 1312.4 1832.86 1357.77 1824.47 1379.39 C 1812.79 1409.48 1789.24 1449.05 1758.34 1462.56 C 1705.71 1471.7 1752.72 1326.89 1812.13 1309.07 z" fill="currentColor" />
<path d="M 788.665 271.423 C 801.29 269.925 816.627 270.856 829.33 270.879 C 923.361 271.055 1104.33 311.273 1003.97 439.225 C 976.462 471.612 935.81 493.418 897.671 510.472 C 819.697 545.341 741.384 560.803 657.243 567.781 C 589.516 571.793 422.55 570.463 413.057 474.392 C 407.292 416.05 477.681 366.392 524.006 341.385 C 604.535 297.914 697.331 277.703 788.665 271.423 z" fill="currentColor" />
<path d="M 784.187 282.452 C 840.25 281.376 921.398 288.552 963.283 326.742 C 1023.45 381.601 937.7 438.791 894.752 459.268 C 815.303 497.148 739.044 514.18 652.874 518.849 C 592.34 520.019 515.873 516.47 467.51 475.791 C 439.767 452.456 452.785 419.846 473.713 397.613 C 514.433 352.639 570.964 335.745 624.84 313.982 C 682.323 290.763 722.202 284.596 784.187 282.452 z" fill="currentColor" />
<path d="M 794.901 297.502 C 843.107 295.751 931.283 307.116 962.602 348.629 C 967.74 355.439 969.271 367.85 966.992 376.52 C 960.656 400.637 937.598 417.509 917.667 430.316 C 815.263 489.682 661.842 521.187 544.889 496.266 C 522.705 490.84 481.741 477.543 469.94 456.136 C 451.084 421.93 509.277 383.515 533.082 369.284 C 559.114 355.047 577.465 347.536 605.336 337.437 C 599.813 352.422 604.295 362.293 608.768 376.725 C 579.436 383.227 547.643 391.119 523.411 409.501 C 510.211 419.514 505.841 438.137 518.317 450.321 C 545.187 476.563 594.373 481.098 630.185 483.085 C 665.327 485.035 701.131 482.208 735.84 477.875 C 789.543 469.159 859.972 449.782 901.862 414.159 C 910.177 407.043 921.101 392.223 920.282 380.966 C 917.02 336.142 842.894 329.23 812.203 328.87 C 814.084 308.428 804.878 309.199 793.211 298.44 L 794.901 297.502 z" fill="currentColor" />
<path d="M 727.289 301.399 C 742.43 300.197 791.491 299.531 796.979 323.251 C 797.619 326.019 794.369 332.334 792.321 334.399 C 766.581 360.353 720.551 366.536 686.134 369.881 C 665.623 370.229 640.476 370.836 621.952 360.708 C 614.776 356.784 611.022 347.942 617.265 341.654 C 640.699 318.052 695.475 304.251 727.289 301.399 z" fill="currentColor" />
<path d="M 619.372 374.228 C 645.92 387.903 687.513 385.961 716.489 380.897 C 721.7 395.072 725.06 412.036 729.825 427.075 C 703.618 432.913 653.62 432.482 628.817 423.153 C 625.087 408.98 621.394 388.789 619.372 374.228 z" fill="currentColor" />
<path d="M 796.482 350.999 C 799.618 361.019 801.993 378.769 803.292 389.361 L 802.516 390.385 C 789.785 406.916 759.241 422.008 739.145 424.614 L 738.306 422.94 C 735.72 406.901 731.486 394.492 726.488 379.133 C 757.227 371.51 769.135 368.187 796.482 350.999 z" fill="currentColor" />
<path d="M 110.229 414.317 C 113 416.168 115.796 417.98 118.619 419.752 C 202.675 472.256 314.836 456.321 406.283 435.037 C 403.755 443.879 401.012 452.659 398.056 461.368 C 350.416 471.795 280.149 482.585 231.771 477.984 C 241.963 521.903 248.974 565.011 258.001 608.862 L 325.773 943.851 L 463.755 1625.73 C 464.313 1628.1 464.634 1628.86 465.557 1631.13 C 472.673 1636.27 484.166 1638.74 492.617 1640.64 C 532.596 1649.63 570.066 1648.96 610.392 1644.91 C 611.661 1651.03 612.799 1657.18 613.805 1663.35 C 548.416 1675.14 468.914 1668.24 411.944 1632.27 C 394.004 1621.51 371.264 1599.87 365.451 1578.58 C 359.096 1555.29 354.428 1527.18 348.699 1502.81 C 328.293 1413.85 308.638 1324.72 289.735 1235.42 L 110.229 414.317 z" fill="currentColor" />
<path d="M 178.476 467.919 C 189.805 470.555 199.083 472.35 210.56 474.235 C 231.148 570.213 251.093 666.328 270.394 762.573 L 351.471 1159.86 L 414.812 1471.55 L 436.428 1576.69 C 439.365 1591.63 443.671 1610.88 445.367 1625.47 C 433.737 1620.17 420.709 1612.83 409.864 1606.12 C 407.969 1593.4 404.473 1578.05 402.01 1565.19 C 396.587 1535.43 390.679 1505.76 384.289 1476.19 L 346.796 1295.51 L 248.864 810.607 L 197.215 559.821 C 190.758 529.231 184.512 498.596 178.476 467.919 z" fill="currentColor" />
<path d="M 266.094 220.207 C 266.826 220.3 266.423 220.159 267.164 220.913 C 259.457 226.457 254.407 231.837 247.749 238.508 C 206.752 249.967 118.801 290.674 131.46 350.001 C 133.828 361.096 148.13 373.146 158.584 378.006 C 244.813 418.093 362.217 400.634 449.467 373.837 C 437.401 387.787 428.905 395.915 417.818 411.654 L 410.917 423.365 C 408.332 424.191 405.725 424.946 403.099 425.629 C 331.398 444.932 203.637 453.801 138.393 414.37 C 124.215 406.428 103.446 388.516 100.294 371.666 C 85.5588 292.898 206.609 234.087 266.094 220.207 z" fill="currentColor" />
<path d="M 427.224 212.462 C 430.039 212.433 432.853 212.463 435.666 212.551 C 469.611 213.296 564.074 225.48 562.099 276.726 C 560.949 306.579 528.445 320.398 505.575 332.503 C 425.933 374.407 336.105 393.048 246.365 386.294 C 220.181 384.451 190.195 378.599 166.911 366.11 C 120.425 341.175 161.066 300.028 187.605 280.977 C 204.279 269.217 225.943 259.753 245.164 252.895 C 244.908 263.344 250.132 273.857 253.997 283.795 C 234.647 288.684 216.066 294.991 199.83 306.857 C 187.742 315.692 180.231 331.998 192.391 344.017 C 210.72 362.134 245.135 366.001 269.764 367.875 C 351.018 374.058 445.765 362.118 511.375 310.116 C 518.342 304.366 528.504 293.269 528.077 283.547 C 526.233 241.554 462.312 239.458 434.927 238.292 C 434.95 237.163 434.968 236.032 434.979 234.902 C 435.083 224.078 434.928 220.329 427.224 212.462 z" fill="currentColor" />
<path d="M 370.599 210.421 C 383.889 209.494 437.605 214.466 413.824 238.499 C 391.261 261.301 341.493 271.559 310.178 272.22 C 300.732 272.247 244.905 272.293 262.235 246.354 C 265.789 241.034 281.369 232.42 287.584 229.554 C 313.158 217.758 342.559 212.282 370.599 210.421 z" fill="currentColor" />
<path d="M 431.659 189.43 C 480.056 185.967 561.118 200.7 598.021 234.423 C 612.254 247.429 617.106 265.493 617.096 284.216 C 605.55 289.25 584.79 295.701 572.2 300.093 L 569.925 300.833 C 569.805 300.563 575.742 282.844 576.335 279.088 C 580.969 249.856 559.101 233.873 536.921 221.531 C 490.406 195.648 441.567 201.219 391.687 194.192 C 403.479 190.936 419.241 190.271 431.659 189.43 z" fill="currentColor" />
<path d="M 262.416 279.616 C 291.507 288.32 310.017 287.56 340.219 284.164 L 351.021 322.985 C 327.715 327.26 297.301 327.483 274.44 320.841 C 269.254 307.32 265.753 293.66 262.416 279.616 z" fill="currentColor" />
<path d="M 420.86 253.894 C 423.046 262.755 425.504 280.067 427.368 289.923 C 418.949 299.736 370.913 324.877 360.983 319.785 L 350.107 282.307 C 376.647 276.454 398.003 268.417 420.86 253.894 z" fill="currentColor" />
<metadata><recraft-signature>{"signed_by": "recraft", "signature_b64": "c/F5kuDIIIIqU8Mgd5bGwR8OJ0RS9K3kvsTZyMOVyAx26R4LeAhLHSWydYCQjWhvneaHzrBR+hBSutC8uI0nDw==", "signing_algo": "Ed25519", "generation_timestamp": 1772065270, "identifier": "86a946be-4f0e-4120-90d8-68b40396b53b"}</recraft-signature></metadata></g></svg>