<svg xmlns="http://www.w3.org/2000/svg" viewBox="0 0 24 24">
<g transform="scale(0.011719,0.011719)"><path d="M 1219.81 203.22 C 1242.84 201.329 1266.07 204.454 1280.43 225.034 C 1287.01 234.519 1289.4 246.293 1287.04 257.594 C 1284.44 270.493 1277.05 280.142 1266.43 287.489 C 1266.82 318.895 1270.36 351.087 1270.66 382.565 C 1271.3 448.178 1276.51 514.013 1277.28 579.531 C 1288.93 583.428 1314.05 597.009 1326.33 603.374 C 1362.49 622.181 1398.38 641.485 1434.01 661.28 C 1600.45 751.761 1766.98 841.449 1921.45 952.091 C 1931.03 958.956 1935.58 967.887 1927.32 977.949 C 1924.38 1011.11 1920.38 1050.23 1918.7 1083 C 1927.25 1094.65 1923.73 1098.6 1915.56 1108.87 C 1910.26 1160 1906.64 1212.05 1901.8 1263.36 C 1896.45 1320.01 1889.19 1375.4 1882.76 1431.78 L 1872.55 1517.49 C 1867.18 1562.61 1875.7 1570.09 1828.07 1589.26 C 1783.11 1607.34 1704.07 1626.34 1664.94 1586.49 C 1644.74 1595.07 1615.72 1604.63 1594.76 1612.11 L 1444.09 1664.75 L 946.881 1835.68 C 947.518 1851.87 950.263 1868.83 949.097 1885.01 C 948.776 1889.46 948.145 1895.05 944.438 1898.04 C 937.158 1903.9 849.307 1928.25 835.268 1930.79 C 825.354 1932.68 815.235 1933.26 805.17 1932.52 C 767.609 1929.49 739.296 1906.66 713.896 1880.61 C 705.366 1871.87 709.615 1838.9 710.878 1826.66 C 701.206 1818.62 681.359 1805.89 670.403 1798.25 C 649.423 1783.45 628.596 1768.43 607.926 1753.19 C 543.358 1708.12 480.733 1659.72 417.194 1613.2 C 379.462 1585.57 343.163 1556.14 305.114 1528.84 C 291.775 1532.62 260.446 1536.53 246.276 1537.69 C 233.266 1528.99 218.223 1517.04 205.294 1507.7 C 194.054 1499.58 172.767 1484.96 163.383 1475.74 C 161.889 1466.89 161.533 1457.66 160.57 1448.72 C 155.975 1406.11 153.481 1363.48 150.566 1320.75 C 144.098 1223.59 138.345 1126.39 133.307 1029.14 L 128.139 918.251 C 127.476 905.066 127.217 891.849 126.553 878.727 C 126.156 870.884 117.465 862.851 122.855 853.766 C 126.87 851.731 137.417 850.505 142.483 848.958 C 213.749 827.186 284.544 805.115 356.839 786.896 C 357.575 778.032 357.203 765.549 357.309 756.38 L 358.033 696.494 L 360.846 499.095 C 340.914 484.494 331.719 465.254 334.927 440.47 C 336.691 426.733 344.023 414.325 355.205 406.154 C 397.539 374.648 477.012 390.547 468.019 456.922 C 465.996 471.855 453.045 485.296 440.717 493.478 C 444.26 529.861 446.406 571.365 448.485 608.003 C 450.522 639.707 452.301 671.428 453.822 703.161 C 454.69 724.015 454.629 745.249 455.681 765.813 C 513.88 750.998 571.993 735.846 630.016 720.355 C 817.017 671.978 1006 623.619 1195.95 588.577 C 1193.91 543.157 1195.46 487.365 1196.35 441.697 L 1198.23 291.09 C 1170.45 269.334 1165.78 241.549 1194.82 215.459 C 1201.35 209.599 1211.33 205.499 1219.81 203.22 z" fill="currentColor" />
<path d="M 146.07 999.301 C 149.122 1000.73 169.001 1016.42 173.122 1019.61 C 198.803 1039.85 224.598 1059.95 250.506 1079.89 C 382.93 1181.13 516.428 1280.97 650.975 1379.37 L 732.367 1439.27 C 749.541 1451.75 783.704 1478.25 801.894 1484.52 C 826.413 1476.08 849.371 1469.47 873.95 1461.68 L 994.567 1422.54 L 1414.44 1281.21 L 1744.95 1169 C 1789.3 1154.29 1838.3 1135.64 1882.7 1123.24 C 1868.99 1265.13 1842.94 1413.91 1836.31 1555.77 C 1811.33 1568.72 1784.51 1577.78 1756.79 1582.62 C 1756.82 1569.93 1759.01 1536.44 1750.59 1527.9 C 1744.23 1525.31 1739.04 1527.72 1732.46 1529.67 C 1734.18 1493.47 1734.39 1453.17 1735.11 1416.81 L 1737.91 1300.3 C 1738.12 1287.65 1740.66 1237.51 1739.11 1228.85 C 1735 1222.87 1732.39 1222.66 1725.9 1225.54 C 1718.06 1233.84 1717.16 1276.2 1715.94 1289.6 C 1709 1371.69 1705.78 1454.06 1706.3 1536.45 C 1693.84 1542.08 1669.69 1549.47 1656.26 1553.84 C 1655.7 1531.97 1657.13 1503.62 1657.53 1481.29 C 1658.1 1435.21 1659.03 1389.13 1660.32 1343.07 C 1661.05 1317.19 1663.59 1288.13 1662.31 1262.58 C 1662.17 1259.73 1662.14 1256.6 1659.87 1254.5 C 1658.28 1253.04 1655.77 1252.41 1653.64 1252.49 C 1650.69 1252.59 1647.53 1253.86 1645.67 1256.23 C 1637.43 1266.73 1631.55 1429.59 1631.08 1455.78 C 1630.69 1491.18 1630.77 1526.59 1631.3 1561.99 C 1614.95 1568.27 1597.45 1574.15 1580.87 1580 C 1582.14 1486.66 1579.7 1393.17 1583.38 1299.75 C 1583.27 1297.19 1583.56 1288.27 1581.58 1286.67 C 1561.17 1270.27 1562.32 1321.66 1561.48 1332.58 C 1554.82 1417.71 1553.32 1503.17 1557 1588.49 C 1538.1 1595.38 1519.06 1601.9 1499.91 1608.05 C 1498.73 1567.09 1500.27 1523.37 1501.17 1482.27 C 1501.86 1448.87 1502.15 1415.46 1502.05 1382.05 C 1502.09 1361.82 1502.03 1341.59 1502.71 1321.43 C 1503.23 1315.63 1494.6 1309.38 1489.9 1312.93 C 1481.79 1319.73 1481.9 1336.58 1481.14 1346.22 C 1474.01 1436.71 1475.72 1526.59 1475.19 1617.17 C 1457.38 1623.63 1439.16 1630.47 1421.21 1636.4 C 1420.93 1615.39 1422.15 1592.8 1422.57 1571.65 L 1425.86 1430.71 C 1426.55 1403.24 1427.42 1375.94 1427.26 1348.44 C 1427.19 1335.52 1415.27 1334.65 1412.38 1338.82 C 1406.72 1346.99 1406.31 1370.7 1405.21 1381.56 C 1396.26 1469.11 1397.52 1557.16 1398.84 1645.04 C 1382.26 1650.43 1366.21 1655.62 1349.87 1661.77 L 1354.55 1467.57 L 1355.98 1399.12 C 1356.17 1389 1360.76 1362.57 1349.11 1359.68 C 1340.01 1361.86 1338.79 1371.37 1337.76 1379.26 C 1325.15 1475.55 1324.47 1573.24 1325.16 1670.21 C 1310.85 1675.5 1296.46 1680.61 1282.02 1685.54 C 1280.13 1667.01 1281.63 1632.03 1281.8 1611.9 L 1283.57 1459.54 C 1283.85 1438.79 1284.49 1418.1 1284.01 1397.33 C 1283.79 1387.32 1272.39 1383.77 1269.28 1389.41 C 1265.15 1396.89 1263.4 1413.9 1262.59 1423.09 C 1254.82 1511.58 1252.3 1604.68 1258.87 1693.39 L 1211.03 1709.76 L 1212.88 1492.27 C 1213.04 1467.6 1213.68 1442.99 1214.31 1418.39 C 1214.59 1407.21 1198.17 1401.43 1195.25 1422.47 C 1192.7 1440.8 1191.48 1458.73 1190.3 1477.09 C 1187.07 1536.27 1185.82 1595.54 1186.56 1654.8 C 1186.99 1676.33 1188.14 1696.43 1189.1 1717.85 C 1169.76 1723.97 1148.92 1732.05 1129.01 1738.54 L 1131.87 1555.91 L 1133.25 1482.62 C 1133.54 1471.38 1134.81 1460.06 1134.7 1448.84 C 1134.67 1445.42 1135.03 1442.62 1132.66 1439.82 C 1130.99 1437.85 1128.54 1436.58 1125.94 1436.55 C 1123.1 1436.52 1120.53 1437.91 1118.58 1439.88 C 1103.4 1455.2 1104.15 1707.47 1105.65 1746.41 C 1091.09 1752.63 1070.44 1759.44 1055.22 1764.94 C 1053.57 1730.48 1054.03 1697.32 1054.35 1662.81 C 1054.61 1620.12 1055.51 1577.44 1057.05 1534.78 C 1057.68 1518.49 1060.51 1485.5 1058.15 1469.02 C 1056.71 1466.35 1052.3 1463.8 1049.51 1463.46 C 1038.64 1461.9 1037.68 1478.12 1036.68 1485.66 C 1032.42 1517.9 1031.27 1551.26 1029.83 1583.66 C 1027.03 1647.07 1029.48 1710.14 1031.2 1773.46 L 985.367 1790.17 C 982.957 1724.03 986.506 1656.21 985.295 1590 C 984.838 1564.99 990.03 1518.4 985.902 1495.95 C 973.887 1483.29 968.712 1497.64 967.594 1508.37 C 957.63 1603.96 958.799 1701.95 961.605 1797.96 C 910.898 1813.35 920.951 1826.24 920.816 1871.43 C 909.469 1875.58 892.226 1879.77 879.934 1883.33 C 859.325 1889.29 838.733 1895.49 817.366 1898.72 C 787.838 1903.19 766.503 1882.3 744.195 1866.67 C 728.671 1855.79 737.403 1835.02 734.853 1815.46 L 734.647 1813.97 C 731.384 1808.36 727.193 1805.23 722.309 1800.95 C 723.308 1786.93 723.111 1769.14 723.379 1754.78 C 723.966 1714.17 723.992 1673.55 723.455 1632.94 L 722.943 1566.39 C 722.954 1553.61 725.199 1528.01 720.308 1515.43 C 719.422 1513.15 717.089 1512.72 714.902 1512.21 C 713.447 1512.58 711.79 1512.87 710.67 1513.97 C 701.004 1523.47 704.85 1752.54 704.955 1783.13 C 692.122 1771.63 677.466 1762.61 662.983 1753.38 L 661.313 1553.05 C 660.982 1531.31 660.417 1509.57 659.617 1487.84 C 659.355 1480.17 663.078 1444.21 646.714 1458.45 C 637.993 1480.5 644.268 1706.29 647.083 1740.56 C 636.549 1732.44 624.91 1725 614.018 1716.7 C 612.633 1682.17 610.792 1426.32 607.628 1419.59 C 606.609 1417.42 604.6 1416.12 602.477 1415.23 C 591.988 1416.85 593.122 1451.99 592.701 1461.4 C 589.391 1543.01 590.678 1624.73 596.557 1706.19 C 584.577 1696.76 571.064 1687.42 558.698 1677.96 C 556.096 1618.34 557.953 1557.69 556.277 1498.18 C 555.871 1483.77 556.062 1395.8 552.901 1387.05 C 550.487 1384.38 550.499 1383.95 546.996 1382.93 C 535.362 1386.48 537.374 1427.97 537.006 1438.67 C 534.56 1514.81 536.265 1591.01 542.113 1666.96 C 529.647 1656.9 507.626 1642.32 494.046 1632.94 C 493.236 1627.55 493.259 1622.65 492.982 1617.26 C 488.242 1525.01 492.964 1432.7 489.696 1340.48 C 489.508 1335.18 486.028 1329.58 480.232 1329.41 C 478.315 1330.14 477.225 1330.63 475.85 1332.23 C 464.8 1345.11 471.504 1534.69 472.874 1562.12 C 473.845 1581.57 476.322 1600.9 477.306 1620.35 C 466.117 1614.17 450.339 1602.45 438.232 1594.98 C 435.73 1549.79 435.28 1503.97 435.019 1458.7 C 434.875 1433.76 437.284 1299.09 431.986 1284.49 C 430.907 1281.51 429.6 1279.33 426.649 1277.92 C 417.242 1279.13 417.361 1290.05 416.876 1297.34 C 410.576 1392.13 415.408 1487.69 422.106 1582.34 C 406.25 1572.72 390.67 1560.65 375.196 1551.67 L 374.313 1357.79 C 374.339 1334.35 374.194 1310.9 373.878 1287.46 C 373.714 1277.83 373.73 1267.98 373.208 1258.35 C 372.907 1252.8 368.783 1250.25 363.607 1250.14 C 361.909 1250.78 360.618 1251.27 359.427 1252.73 C 345.226 1270.2 356.79 1499.43 358.089 1538.05 C 348.681 1531.7 338.535 1525.7 328.825 1519.76 C 328.827 1493.37 326.366 1461.51 325.009 1434.78 C 322.855 1392.88 321.534 1350.93 321.047 1308.98 C 320.863 1284.5 321.918 1240.35 319.959 1214.68 C 319.803 1212.63 316.439 1210.92 314.443 1210.1 C 311.676 1210.24 310.292 1210.11 308.146 1212.16 C 291.752 1227.86 306.87 1472.46 310.337 1505.93 C 296.342 1495.29 275.498 1480.14 260.31 1471.96 C 224.813 1452.83 234.122 1490.49 236.507 1507.6 C 217.332 1495.01 199.457 1479.81 180.083 1467.16 C 177.356 1449.99 176.01 1419.95 174.738 1401.99 L 166.636 1292.81 C 160.991 1221.41 155.776 1149.98 150.989 1078.52 C 149.294 1052.21 147.052 1025.63 146.07 999.301 z" fill="currentColor" />
<path d="M 1308.14 718.357 C 1316.37 717.24 1322.5 718.84 1329.73 722.788 C 1445.23 785.853 1556.86 855.829 1673.27 917.4 C 1523.86 958.191 1384.17 1002.52 1236.86 1049.22 C 1124.24 1084.16 1011.93 1120.12 899.962 1157.08 C 902.908 1149.02 905.552 1141.31 909.433 1133.62 C 915.866 1130.44 929.069 1126.67 936.229 1124.43 C 954.928 1118.69 973.661 1113.06 992.426 1107.55 L 1131.64 1063.8 L 1492.08 953.599 C 1526.85 943.339 1562.36 931.831 1597.24 922.365 C 1604.81 920.764 1612.7 920.074 1613.43 910.675 C 1608.19 900.232 1590.72 909.163 1581.97 911.833 L 1541.27 923.978 C 1496.32 936.969 1451.49 950.371 1406.78 964.181 L 1124.69 1050.76 C 1054.13 1073.02 975.703 1099.77 904.73 1119.39 C 843.788 1076.14 779.918 1037.48 715.78 999.206 C 654.289 961.698 592.007 925.503 528.975 890.647 C 557.498 884.503 588.785 880.965 617.756 875.07 C 736.866 850.374 855.718 824.446 974.292 797.29 L 1194.18 744.891 C 1227.92 736.781 1275.11 723.008 1308.14 718.357 z" fill="currentColor" />
<path d="M 716.212 870.143 L 717.674 869.927 C 721.595 871.312 729.413 877.37 733.32 880.015 C 765.386 901.72 798.934 921.183 830.637 943.418 C 835.069 946.526 840.404 950.876 843.591 955.214 C 843.19 961.127 836.76 965.224 831.505 966.721 C 802.074 975.107 772.587 983.419 743.22 992.033 C 737.837 993.612 734.056 993.365 729.51 990.355 C 710.282 977.016 603.577 916.152 598.04 905.241 C 596.977 903.148 597.083 900.592 598.135 898.479 C 599.485 895.769 602.77 895.193 605.443 894.542 C 614.548 892.323 624.158 891.444 633.381 889.568 C 661.086 883.933 689.008 877.839 716.212 870.143 z" fill="currentColor" />
<path d="M 714.349 885.014 C 719.925 886.388 806.236 945.125 821.541 953.802 C 816.647 955.62 809.598 957.516 804.438 959.111 C 777.835 942.104 721.718 904.123 693.739 893.312 C 686.549 895.025 656.097 901.271 657.288 909.568 C 660.719 913.808 668.746 919.064 673.467 922.452 C 700.95 942.641 724.902 963.927 757.571 972.839 C 750.012 974.06 742.472 975.402 734.956 976.865 C 721.369 967.46 704.279 957.796 689.977 949.061 L 622.361 906.871 C 648.08 902.87 690.178 893.113 714.349 885.014 z" fill="currentColor" />
<path d="M 879.418 979.146 C 890.965 978.754 985.978 1048.46 1004.4 1059.5 C 1007.13 1061.13 1006.55 1070.29 1003.16 1071.23 C 985.178 1076.18 922.129 1099.61 907.598 1097.94 C 893.955 1090.15 781.495 1021.11 777.778 1014.93 C 777.399 1012.09 777.566 1010.34 779.091 1007.81 C 782.116 1002.8 866.974 982.257 879.418 979.146 z" fill="currentColor" />
<path d="M 879.746 994.31 C 902.358 1007.98 923.347 1022.15 945.091 1037.06 C 957.917 1045.86 971.724 1053.51 983.802 1063.27 L 969.969 1065.68 C 957.005 1055.93 880.14 1007.37 867.856 1006.07 C 860.312 1005.28 825.272 1012.19 819.519 1016.58 L 819.424 1019.07 C 821.718 1023.24 822.142 1023.44 825.796 1026.66 L 822.753 1027.07 C 818.561 1023.74 809.175 1017.92 803.913 1014.09 C 829.065 1007.02 854.347 1000.43 879.746 994.31 z" fill="currentColor" />
<path d="M 825.796 1026.66 C 833.34 1030.59 841.829 1037.19 848.398 1042.61 C 845.117 1042.26 826.289 1029.78 822.753 1027.07 L 825.796 1026.66 z" fill="currentColor" />
<path d="M 1312.58 857.125 C 1316.76 856.717 1353.58 880.479 1359.93 884.87 C 1376 895.975 1420.71 915.941 1431.64 930.832 L 1431.32 932.417 C 1422.26 941.561 1349.43 960.266 1332.22 964.953 C 1322.83 967.466 1314.69 960.472 1307.11 955.268 C 1278.33 935.519 1248.42 917.486 1219.69 897.725 C 1215.6 894.916 1212.18 890.142 1215.04 885.205 C 1224.64 878.927 1297.82 860.967 1312.58 857.125 z" fill="currentColor" />
<path d="M 1244.83 890.196 L 1246.94 890.1 C 1258.54 902.331 1295.94 922.893 1311.23 932.545 C 1316.44 935.834 1333.92 943.922 1336.35 947.007 C 1334.07 948.546 1330.38 949.159 1327.53 949.883 C 1325.9 949.519 1239.38 895.31 1237.09 892.969 C 1238.58 891.271 1242.11 890.915 1244.83 890.196 z" fill="currentColor" />
<path d="M 1363.57 905.526 C 1353.29 899.672 1309.96 880.015 1305.56 873.886 L 1308.29 871.527 C 1314.86 873.247 1357.47 899.374 1365.8 904.348 L 1363.57 905.526 z" fill="currentColor" />
<path d="M 1365.8 904.348 C 1377.26 910.07 1391.63 919.587 1402.77 926.332 L 1401.74 927.375 L 1400.44 928.302 C 1388.73 917.771 1374.42 913.936 1363.57 905.526 L 1365.8 904.348 z" fill="currentColor" />
<path d="M 1156.67 765.157 C 1170.25 763.87 1248.07 816.002 1266.41 824.767 C 1269.99 826.475 1278.19 831.795 1280.89 834.929 C 1282.3 838.914 1282.1 839.238 1281.47 843.569 C 1274.55 850.02 1202.93 867.594 1189.23 870.83 C 1187.95 870.935 1187.74 870.993 1186.37 870.912 C 1181.27 870.612 1068.42 804.056 1064.77 798.929 C 1062.95 796.365 1063.21 794.702 1063.55 791.776 C 1069.5 785.25 1143.39 768.094 1156.67 765.157 z" fill="currentColor" />
<path d="M 1155.08 778.242 C 1158.66 779.026 1187.89 795.665 1191.48 798.171 C 1199.72 803.929 1253.91 831.59 1257.32 837.709 L 1254.84 839.336 C 1247.85 839.845 1246.09 838.279 1240.33 834.558 C 1211 815.603 1182.32 798.656 1151.79 781.885 L 1151.59 780.501 L 1155.08 778.242 z" fill="currentColor" />
<path d="M 1100.12 794.298 L 1100.87 794.428 C 1114.72 806.293 1177.59 843.061 1183.81 851.48 L 1183.38 852.663 L 1183.78 851.394 L 1183 852.746 C 1179.87 852.411 1180.02 852.139 1177.15 850.674 C 1159.37 839.915 1141.52 829.266 1123.62 818.727 C 1111.76 811.903 1098 805.007 1086.97 797.438 C 1091.28 796.179 1095.73 795.275 1100.12 794.298 z" fill="currentColor" />
<path d="M 1522.55 866.363 C 1558.46 866.858 1608.32 905.24 1539.72 913.643 C 1524.46 915.12 1508.2 914.719 1495.66 905.475 C 1479.45 893.524 1487.39 876.104 1504.02 870.341 C 1511.88 867.619 1514.57 867.128 1522.55 866.363 z" fill="currentColor" />
<path d="M 1435.86 822.374 C 1447.19 821.216 1458.4 822.599 1468.7 828.158 C 1479.46 833.966 1486.17 846.305 1478.32 857.461 C 1471.44 867.239 1459.27 869.121 1448.19 870.95 C 1392.22 872.89 1380.44 829.162 1435.86 822.374 z" fill="currentColor" />
<path d="M 1356.24 777.203 C 1371.73 776.36 1400.46 778.605 1405.14 797.014 C 1406.23 801.278 1405.5 805.804 1403.11 809.504 C 1397.09 819.011 1385.05 821.936 1374.9 823.928 C 1359.75 824.917 1314.37 822.377 1325.34 792.623 C 1328.43 784.268 1347.15 779.211 1356.24 777.203 z" fill="currentColor" />
<path d="M 1282.1 734.399 C 1332.39 732.89 1347.41 774.76 1291.98 779.359 C 1237.69 780.199 1227.73 738.818 1282.1 734.399 z" fill="currentColor" />
<path d="M 1310.88 633.507 C 1333.88 644.734 1351.4 655.011 1373.64 667.116 L 1484.51 728.058 C 1583.88 782.444 1681.88 839.281 1778.43 898.516 C 1810.63 918.366 1843.22 940.463 1875.27 960.973 C 1816 982.792 1756.04 1001.87 1696.55 1022.54 L 1193.88 1196.44 C 1119.67 1222.25 1045.65 1248.56 971.803 1275.37 C 932.419 1289.91 893.48 1304.91 853.446 1317.81 C 839.413 1322.33 820.064 1330.2 806.533 1333.82 C 783.204 1318.12 758.278 1302.07 735.325 1286.07 C 680.266 1247.1 625.535 1207.67 571.138 1167.78 L 383.933 1033.67 L 214.109 911.883 C 197.598 899.805 162.653 876.793 149.03 864.513 C 177.735 859.861 206.167 853.657 234.201 845.929 C 239.262 844.129 243.532 843.222 248.732 842.003 C 281.983 832.528 322.398 822.95 356.248 814.97 C 355.771 830.389 355.396 845.811 355.124 861.236 C 345.835 864.975 331.643 871.806 328.811 880.63 C 301.091 967.009 407.357 970.223 460.936 949.705 C 480.037 942.391 485.825 933.047 491.885 918.395 C 508.625 927.099 530.366 945.59 546.076 956.822 C 571.665 975.116 597.264 993.372 623.004 1011.47 C 710.459 1072.48 798.504 1132.64 887.129 1191.93 C 903.271 1190.02 951.713 1173.04 969.473 1167.41 L 1128.18 1117.45 C 1295.73 1065.63 1462.95 1012.75 1629.84 958.822 C 1641.78 954.844 1703.9 934.333 1710.01 928.934 C 1713.82 922.123 1708.12 910.529 1698.99 913.16 C 1694.58 914.432 1681.78 906.013 1677.04 903.373 L 1635.5 880.178 C 1581.74 850.372 1528.23 820.107 1474.99 789.385 C 1421.55 758.41 1367.23 723.271 1310.46 698.609 C 1296.37 692.491 1277.63 690.858 1262.37 691.394 L 1258.26 689.424 C 1290.1 681.876 1311.86 670.76 1310.88 633.507 z" fill="currentColor" />
<path d="M 234.201 845.929 C 239.262 844.129 243.532 843.222 248.732 842.003 L 248.12 843.8 C 255.482 844.101 270.18 847.001 274.068 853.441 C 294.798 887.774 243.495 905.951 223.37 878.266 C 214.281 865.763 221.95 854.018 234.908 847.825 L 234.201 845.929 z" fill="currentColor" />
<path d="M 234.201 845.929 C 239.262 844.129 243.532 843.222 248.732 842.003 L 248.12 843.8 C 243.394 845.09 239.528 846.107 234.908 847.825 L 234.201 845.929 z" fill="currentColor" />
<path d="M 247.488 857.086 C 255.056 857.483 261.09 858.518 264.814 865.592 C 265.079 873.517 260.552 874.321 254.009 876.196 C 246.19 876.315 240.042 876.101 236.292 868.473 C 236.287 860.55 240.92 859.47 247.488 857.086 z" fill="currentColor" />
<path d="M 822.331 1261.13 C 868.947 1256.36 872.22 1301.34 824.137 1311.98 C 814.95 1313.13 805.691 1312.37 797.816 1308.09 C 775.326 1295.87 785.916 1273.88 805.699 1266.27 C 811.809 1263.92 816.241 1262.67 822.331 1261.13 z" fill="currentColor" />
<path d="M 828.126 1277.37 C 833.732 1277.81 840.023 1277.8 841.277 1284.23 C 838.032 1293.27 826.726 1295.78 818.263 1296.09 C 812.298 1295.4 805.714 1295.57 803.495 1289.27 C 806.014 1280.55 820.387 1278.33 828.126 1277.37 z" fill="currentColor" />
<path d="M 1785.76 919.347 C 1801.8 919.842 1820.13 925.511 1823.16 943.756 C 1824.23 950.056 1822.66 956.517 1818.81 961.622 C 1812.53 969.978 1803.66 972.273 1793.99 973.691 C 1777.91 973.749 1759.61 970.235 1756.33 951.333 C 1755.2 944.615 1756.86 937.726 1760.92 932.261 C 1767.16 923.882 1775.99 920.988 1785.76 919.347 z" fill="currentColor" />
<path d="M 1783.1 934.272 C 1792.47 933.599 1809.85 937.162 1807.86 949.668 C 1804.69 955.165 1801.71 956.009 1795.64 957.892 C 1772.55 959.96 1759.02 941.665 1783.1 934.272 z" fill="currentColor" />
<path d="M 1895.56 992.969 C 1898.14 992.85 1896.93 992.584 1899.21 993.752 C 1899.26 1000.93 1896.33 1018.33 1895.27 1026.5 C 1892.75 1046.08 1890.45 1065.68 1888.38 1085.31 C 1822.45 1106.28 1757.21 1129.57 1691.61 1151.59 C 1452.78 1232.37 1214.73 1315.43 977.491 1400.76 C 942.055 1413.69 906.793 1427.08 871.711 1440.94 C 854.367 1447.82 835.581 1456.28 818.215 1462.24 C 817.469 1462.2 816.724 1462.16 815.978 1462.12 C 816.152 1462.44 820.536 1363.24 820.938 1354.46 C 853.299 1343.07 885.996 1333.4 918.504 1322.57 L 1199.35 1228.88 L 1707 1057.52 L 1823.65 1018.2 C 1847.93 1009.79 1871.01 1000.88 1895.56 992.969 z" fill="currentColor" />
<path d="M 458.692 795.223 C 488.953 788.503 520.076 780.053 550.185 772.332 L 665.761 742.989 C 779.995 713.683 894.683 686.174 1009.78 660.472 C 1064.57 648.197 1113.94 635.818 1169.68 625.702 C 1169.31 627.795 1169.01 629.896 1168.75 632.005 C 1163.95 674.083 1212.15 686.992 1244.13 690.117 C 1245.84 690.835 1248.37 691.787 1249.92 692.661 C 1228.12 696.571 1205.95 703.545 1184.24 707.997 C 1112.99 722.606 1042.94 740.801 972.274 757.561 C 808.709 797.334 643.857 831.613 477.995 860.34 C 471.028 856.154 468.012 854.968 460.429 852.045 C 459.391 833.121 458.812 814.175 458.692 795.223 z" fill="currentColor" />
<path d="M 138.604 878.323 C 148.973 884.889 167.378 900.398 178.402 908.522 C 217.218 937.132 255.165 969.194 293.488 998.241 C 416.047 1090.99 539.519 1182.53 663.886 1272.84 L 738.162 1325.21 C 752.796 1335.45 779.252 1354.85 794.899 1361.32 C 798.498 1359.58 802.229 1357.32 805.732 1355.33 C 801.834 1373.48 798.344 1412.72 797.026 1431.75 L 796.81 1447.74 C 788.683 1440.63 777.463 1433.35 768.46 1427.07 C 755.758 1418.16 743.122 1409.15 730.553 1400.06 L 599.086 1304.35 C 551.046 1268.8 502.677 1233.69 453.985 1199.04 L 314.027 1102.61 C 263.875 1067.52 199.262 1017.8 146.017 988.817 C 143.65 975.234 142.742 948.183 142.227 933.938 C 141.527 914.559 139.953 897.525 138.604 878.323 z" fill="currentColor" />
<path d="M 492.009 891.694 C 505.751 892.532 528.765 906.97 541.343 913.884 C 561.541 924.805 581.525 936.115 601.285 947.808 C 650.035 975.823 698.321 1004.64 746.122 1034.24 C 778.524 1054.05 811.053 1073 842.691 1094.27 C 858.454 1104.87 880.894 1118.2 894.761 1130.78 C 892.656 1137.13 890.659 1143.52 888.769 1149.93 C 887.637 1152.49 887.278 1152.99 885.694 1155.33 L 884.351 1155.25 C 832.554 1118.75 503.29 913.024 492.009 891.694 z" fill="currentColor" />
<path d="M 421.789 495.333 C 427.191 513.45 441.838 850.757 437.549 869.528 C 433.606 874.891 425.297 875.928 418.681 877.588 C 416.024 854.461 415.301 820.014 413.634 795.519 C 407.771 696.907 403.471 598.207 400.735 499.458 C 408.009 498.541 414.647 496.937 421.789 495.333 z" fill="currentColor" />
<path d="M 1266.68 706.397 C 1274.63 705.267 1286.29 705.94 1294.24 706.413 C 1272.17 710.771 1247.04 717.236 1224.85 722.402 L 1057.68 762.523 C 932.544 793.064 806.773 820.967 680.457 846.212 C 622.37 857.75 571.411 868.948 511.977 877.759 C 504.222 879.084 494.552 881.838 487.828 877.49 L 487.616 875.785 C 492.368 870.601 532.249 866.128 541.699 864.451 C 577.653 857.912 613.524 850.919 649.302 843.476 C 770.263 819.099 890.743 792.4 1010.68 763.393 C 1058.75 751.563 1106.95 740.2 1155.24 729.305 C 1189.12 721.321 1232.74 709.977 1266.68 706.397 z" fill="currentColor" />
<path d="M 397.353 407.306 C 421.484 403.534 447.821 414.369 452.202 440.591 C 453.857 450.166 451.572 460.003 445.866 467.868 C 436.742 480.354 423.632 484.648 409.253 487.014 C 395.041 487.974 381.315 487.507 368.774 479.747 C 350.31 468.322 343.677 445.702 356.985 427.556 C 366.946 413.974 381.634 409.841 397.353 407.306 z" fill="currentColor" />
<path d="M 1250.3 293.11 L 1251.94 293.128 C 1253.39 295.887 1263.26 580.894 1262.69 611.839 C 1256.64 615.436 1252.87 617.143 1246.4 620.003 C 1244.01 616.328 1242.45 554.228 1242.09 545.14 L 1232.94 297.432 C 1238.64 296.315 1244.65 294.592 1250.3 293.11 z" fill="currentColor" />
<path d="M 1223.68 217.187 C 1244.25 215.726 1268.19 219.265 1275.11 242.421 C 1277.33 249.706 1276.54 257.58 1272.91 264.275 C 1266.65 275.688 1255.24 280.655 1243.49 284.133 C 1231.04 285.825 1222.69 285.856 1210.72 280.841 C 1182.36 268.971 1184.51 236.153 1209.95 222.458 C 1214.21 220.164 1219.08 218.73 1223.68 217.187 z" fill="currentColor" />
<path d="M 375.906 495.927 C 377.424 496.205 382.337 496.914 382.996 498.049 C 387.449 505.721 384.875 521.836 384.851 530.615 L 384.808 604.233 C 384.792 669.858 386.805 735.468 386.877 801.066 C 386.886 809.151 388.196 872.386 385.762 875.648 L 374.392 871.933 C 373.897 861.437 374.547 846.25 374.545 835.252 C 374.449 808.067 374.506 780.883 374.714 753.699 L 375.906 495.927 z" fill="currentColor" />
<path d="M 459.533 869.586 C 513.221 911.746 394.896 929.721 353.967 903.382 C 347.92 898.602 346.242 895.822 342.422 889.47 C 346.887 883.896 349.658 881.619 355.034 876.932 C 371.478 896.649 395.651 896.94 419.182 894.285 C 438.842 892.067 450.125 887.51 459.533 869.586 z" fill="currentColor" />
<path d="M 1212.4 293.985 L 1216.24 294.908 C 1219.15 298.807 1218.03 320.983 1218.08 327.04 C 1218.38 348.304 1218.4 369.572 1218.14 390.838 L 1217.23 542.656 C 1217 566.939 1217.02 591.193 1217.02 615.472 C 1216.48 616.137 1215.93 616.802 1215.39 617.468 C 1208.44 612.12 1209.41 601.271 1209.34 592.725 C 1208.89 538.802 1209.95 484.838 1210.66 430.919 L 1211.75 347.575 C 1211.9 330.44 1211.55 310.93 1212.4 293.985 z" fill="currentColor" />
<path d="M 1279.85 615.092 C 1281.23 615.753 1282.6 616.449 1283.95 617.179 C 1318.49 636.166 1239.56 668.395 1193.56 638.317 C 1188.58 633.325 1183.66 624.67 1191.29 619.728 C 1192.54 619.728 1193.79 619.728 1195.04 619.728 C 1199.19 624.128 1206.02 632.498 1211.76 634.599 C 1228.21 640.616 1248.67 639.227 1264.4 631.599 C 1271.81 628.005 1277.21 623.043 1279.85 615.092 z" fill="currentColor" />
<path d="M 1226.93 297.621 C 1231.01 307.795 1234.16 598.758 1230.54 620.638 L 1228.58 618.672 C 1226.75 609.932 1227.15 589.883 1227.12 580.035 L 1226.9 516.412 C 1225.95 462.291 1225.78 408.159 1226.4 354.033 C 1226.59 339.153 1225.7 310.191 1226.93 297.621 z" fill="currentColor" />
<path d="M 477.947 914.133 C 475.7 933.574 421.947 940.967 407.253 940.963 C 383.868 940.955 365.514 940.104 347.603 923.629 C 345.984 921.766 344.722 919.849 343.316 917.828 L 343.987 917.353 C 352.179 922.64 362.85 928.516 372.648 929.786 C 410.461 934.691 445.49 935.495 477.947 914.133 z" fill="currentColor" />
<path d="M 1740.99 1552.99 C 1742.87 1555.27 1742.98 1580.53 1743.12 1585.22 C 1726.06 1584.51 1718.47 1584.75 1701.9 1580.35 C 1698.63 1579.33 1698.27 1579.36 1695.29 1577.45 C 1698.05 1573.89 1733.81 1564.11 1740.99 1552.99 z" fill="currentColor" />
<path d="M 252.708 1488.8 C 263.935 1498.47 276.37 1507.06 287.869 1516.64 L 286.875 1517.79 C 276.267 1518.6 265.677 1519.65 255.114 1520.92 C 255.026 1510.3 253.74 1499.4 252.708 1488.8 z" fill="currentColor" />
<path d="M 1290.4 650.921 L 1291.21 651.394 C 1289.32 659.002 1271.42 666.345 1263.81 668.214 C 1242.29 673.498 1217.49 672.069 1198.14 660.705 C 1196.09 659.197 1196.04 659.122 1194.4 657.165 C 1198.35 656.662 1216.55 663.416 1224.72 664.269 C 1244.62 666.344 1274.39 663.924 1290.4 650.921 z" fill="currentColor" />
<path d="M 397.929 748.327 L 399.969 755.589 C 399.658 763.488 401.092 781.439 401.552 789.994 C 402.694 814.992 404.381 839.961 406.613 864.885 C 407.013 869.415 407.787 873.84 404.856 877.341 L 403.355 876.107 C 401.391 870.099 401.364 856.042 400.962 848.947 C 398.975 815.443 397.964 781.889 397.929 748.327 z" fill="currentColor" />
<path d="M 397.929 748.327 C 396.792 742.302 396.989 734.045 397.694 727.95 C 399.614 734.611 400.491 748.537 399.969 755.589 L 397.929 748.327 z" fill="currentColor" />
<path d="M 1244.13 690.117 C 1248.65 690.141 1253.7 689.709 1258.26 689.424 L 1262.37 691.394 L 1249.92 692.661 C 1248.37 691.787 1245.84 690.835 1244.13 690.117 z" fill="currentColor" />
<path d="M 583.603 143.426 C 631.86 141.929 680.041 148.266 726.269 162.191 C 840.706 196.854 937.267 269.028 993.53 375.595 C 1009.98 406.742 1023.41 445.692 1026.49 480.584 C 1027 486.361 1027.94 497.484 1026.29 502.935 L 1025.14 502.735 C 1022.09 496.22 1020.14 486.943 1018.35 479.76 C 1008.01 444.53 997.191 412.072 978.733 380.11 C 907.842 257.355 782.569 179.187 643.616 160.389 C 622.499 157.715 601.277 155.952 580.009 155.105 C 572.47 154.768 549.037 155.488 544.69 151.438 L 545.157 149.636 C 551.197 144.57 574.826 144.008 583.603 143.426 z" fill="currentColor" />
<path d="M 600.311 272.414 C 624.009 269.577 663.914 273.073 686.237 277.777 C 752.56 291.535 810.58 331.348 847.276 388.281 C 871.223 425.927 885.385 468.96 888.476 513.47 C 888.963 520.448 892.641 551.164 875.007 543.486 C 869.989 541.3 870.158 530.036 869.713 524.762 C 853.853 381.855 758.674 288.183 613.639 286.593 C 596.929 286.409 580.118 288.05 563.652 287.05 C 561.668 286.93 560.671 284.855 560.13 283.338 C 563.788 272.782 590.588 273.182 600.311 272.414 z" fill="currentColor" />
<path d="M 552.771 349.323 C 589.683 346.36 626.661 354.191 659.202 371.864 C 718.883 403.725 765.607 457.852 785.213 522.945 C 787.153 530.519 791.806 543.241 787.042 550.422 C 783.049 556.441 777.003 554.55 772.254 551.19 C 769.07 544.294 766.75 534.29 764.083 526.951 C 733.483 442.691 649.245 365.767 555.355 370.58 C 545.591 371.08 522.042 369.727 539.049 352.875 C 540.931 351.01 549.572 349.816 552.771 349.323 z" fill="currentColor" />
<path d="M 1382.37 121.414 C 1390.96 120.459 1402.51 120.663 1411.26 120.776 C 1551.24 122.591 1692.73 207.491 1738.66 343.598 C 1742.61 355.276 1753.96 398.906 1749.74 410.218 L 1748.5 409.528 C 1745.32 403.537 1743.81 396.069 1742.13 389.396 C 1738.17 375.708 1733.57 362.213 1728.36 348.953 C 1694.74 264.711 1628.93 197.347 1545.49 161.778 C 1511.44 147.469 1473.76 138.848 1437.17 134.645 C 1425.45 133.299 1354.34 130.633 1351.71 129.481 L 1351.27 127.604 C 1354.5 122.53 1375.93 121.865 1382.37 121.414 z" fill="currentColor" />
<path d="M 1411.51 225.395 C 1435.79 221.662 1474.79 227.63 1498.01 235.792 C 1553.45 255.285 1591.52 292.553 1617.27 345.594 C 1628.27 368.249 1643.06 414.622 1637.8 441.387 C 1637.24 443.546 1634.51 445.686 1632.52 446.126 C 1622.05 448.431 1622 427.73 1621.3 420.766 C 1617.33 396.87 1610.05 373.644 1599.67 351.757 C 1562.05 273.167 1491.08 228.974 1403.15 237.882 C 1395.87 238.619 1373.11 242.947 1370.26 235.954 L 1371.69 234.032 C 1382.66 228.392 1399.5 226.599 1411.51 225.395 z" fill="currentColor" />
<path d="M 1362.71 286.266 C 1372.47 285.427 1382.28 285.632 1391.99 286.875 C 1438.7 292.983 1489.4 325.772 1517.24 363.981 C 1532.87 387.521 1552.87 418.293 1554.25 447.174 C 1554.58 453.964 1546.39 454.316 1541.28 453.106 C 1536.44 448.046 1524.65 413.717 1519.35 404.014 C 1492.26 353.404 1444.24 316.01 1387.49 305.296 C 1375.63 303.058 1352.72 308.5 1346.25 298.89 C 1345.69 289.641 1355.65 287.224 1362.71 286.266 z" fill="currentColor" />
<path d="M 563.845 462.358 C 618.714 464.219 672.292 507.25 676.051 563.945 C 676.42 569.51 676.195 574.673 672.335 578.96 C 668.43 580.476 669.89 580.112 665.204 579.073 C 662.522 571.215 662.004 562.781 659.373 555.113 C 647.281 519.87 619.338 492.702 583.942 481.199 C 575.255 478.376 555.01 478.132 551.295 470.529 C 552.406 463.491 557.869 463.289 563.845 462.358 z" fill="currentColor" />
<path d="M 1360.6 390.396 C 1401.46 389.245 1437.97 411.576 1455.63 448.419 C 1460.41 458.393 1469.68 479.297 1455.33 484.195 C 1449.79 478.768 1447.85 468.757 1445.18 461.43 C 1434.04 430.88 1407.81 412.202 1377.72 402.465 C 1370.59 400.157 1357.61 399.725 1351.64 394.728 L 1351.6 393.047 C 1354.34 390.729 1356.95 390.863 1360.6 390.396 z" fill="currentColor" />
<metadata><recraft-signature>{"signed_by": "recraft", "signature_b64": "J8MbH0jPr2Fk4ZqUT8ZZd7JsIzFRN6MTmxCgpwKrmHgNSU/Huay/V6ywdnJlbksvKzZiqS55BnOfBfys6n9ZAg==", "signing_algo": "Ed25519", "generation_timestamp": 1772065328, "identifier": "e69ab3f8-97a0-44cf-8a81-dce54517830b"}</recraft-signature></metadata></g></svg>