<svg xmlns="http://www.w3.org/2000/svg" viewBox="0 0 24 24">
<g transform="scale(0.011719,0.011719)"><path d="M 1043.84 57.4544 C 1051.29 57.2247 1058.74 57.2747 1066.18 57.604 C 1168.45 61.3226 1281.28 95.9177 1364.67 156.204 C 1390.42 174.822 1416.38 199.771 1438 223.164 C 1517.67 308.79 1554.2 425.472 1560.08 540.639 C 1564.13 620.074 1555.83 703.002 1553.34 782.661 C 1552.46 810.965 1549.87 839.536 1548.86 867.958 C 1589.99 871.132 1631.57 874.107 1672.97 875.437 C 1708.69 876.585 1737.79 881.141 1758.04 914.116 C 1763.75 923.413 1768.87 934.319 1770.83 945.101 C 1771.32 971.948 1769.6 999.391 1768.43 1026.28 L 1761.86 1186.7 L 1745.03 1567.57 C 1741.83 1639.47 1738.9 1711.41 1735.64 1783.32 C 1733.87 1822.3 1714.11 1866.14 1685.02 1892.44 C 1663.09 1912.26 1629.18 1918.64 1600.78 1926.62 C 1559.58 1938.2 1519.09 1953.49 1476.39 1957.72 C 1453.84 1959.95 1429.85 1958.94 1407.21 1957.86 C 1378.05 1956.31 1348.89 1954.6 1319.74 1952.73 C 1225.87 1947.68 1132.03 1941.87 1038.24 1935.32 C 991.941 1933.69 945.245 1929.4 899.028 1926.29 C 816.639 1921.22 734.284 1915.62 651.968 1909.49 L 496.018 1898.37 C 461.54 1895.7 419.317 1895.18 386.891 1884.46 C 342.468 1869.78 309.267 1838.72 289.02 1796.83 C 268.881 1755.17 276.498 1712.63 278.973 1668 L 288.243 1509.39 L 306.078 1167.5 C 307.327 1143.02 311.94 1007.72 317.89 992.886 C 321.853 983.005 329.892 972.341 337.193 964.611 C 345.614 955.697 355.909 947.978 365.314 940.12 C 401.95 909.511 441.422 878.476 485.027 858.44 C 486.841 836.615 487.021 809.788 487.732 787.614 L 492.137 646.311 C 493.551 596.273 495.043 543.079 503.125 493.72 C 517.733 404.046 558.552 320.701 620.44 254.183 C 715.611 153.126 905.051 61.7953 1043.84 57.4544 z" fill="currentColor" />
<path d="M 378.956 965.316 C 394.097 964.653 413.784 965.718 429.238 966.254 L 516.083 969.648 L 750.898 978.042 L 1505.5 1003.33 C 1531.21 1004.33 1553.75 1009.75 1571.99 1029.14 C 1586.01 1044.03 1583.01 1062.18 1582.59 1081.01 C 1582.13 1100.13 1581.46 1119.24 1580.57 1138.35 L 1572.15 1318.17 L 1554.09 1663.76 L 1548.98 1764.74 C 1546.27 1818.13 1547.81 1870.74 1504.35 1909.52 C 1466.48 1943.31 1418.89 1936.03 1372.38 1933.62 C 1381.81 1925.2 1436.99 1881.23 1437.03 1871.25 C 1437.03 1868.66 1435.32 1865.82 1433.43 1864.15 C 1431.59 1862.54 1429.02 1861.59 1426.56 1861.91 C 1424.88 1862.14 1423.53 1862.9 1422.23 1863.93 C 1410.92 1872.87 1400.74 1883.84 1389.94 1893.43 C 1375.94 1905.85 1360.23 1917.26 1347.58 1931.06 C 1320.67 1930.89 1285.81 1927.66 1258.12 1926.53 C 1266.33 1919.72 1313.76 1879.54 1314.59 1872.85 C 1314.92 1870.14 1313.9 1868.11 1312.26 1866.05 C 1310.74 1864.16 1308.22 1862.79 1305.78 1862.73 C 1298.3 1862.55 1241.6 1915.86 1231.56 1925.1 C 1195.7 1923.45 1149.9 1921.2 1114.6 1918.03 C 1117.62 1914.91 1130.69 1901.97 1133.22 1900.79 C 1149.29 1893.32 1163.36 1863.65 1134.39 1875.51 C 1133.36 1875.93 1123.67 1884.85 1121.71 1886.54 L 1087.27 1916.22 C 1075.56 1914.33 1049.01 1913.3 1036.6 1912.58 C 1006.32 1910.79 976.027 1909.14 945.727 1907.66 C 956.241 1898.71 1014.83 1853.72 1016.26 1845.6 C 1016.73 1842.91 1016.06 1841.07 1014.47 1838.94 C 1012.79 1836.66 1010.19 1835.71 1007.53 1835.21 C 1000.92 1836.07 981.847 1853.79 975.759 1858.83 L 920.015 1905.1 C 905.262 1904.91 886.992 1903.28 871.927 1902.43 C 846.743 1901.02 820.101 1899.58 795.073 1896.99 C 802.164 1891 845.288 1854.72 846.515 1849.01 C 847.027 1846.56 846.488 1844 845.028 1841.97 C 843.61 1839.97 841.259 1839.26 838.921 1839.11 C 831.168 1838.61 778.535 1887.55 769.764 1895.72 C 736.465 1893.41 701.882 1891.88 668.76 1888.9 C 688.625 1870.65 711.538 1850.64 731.803 1832.95 C 757.848 1810.22 735.251 1805.61 728.946 1811.51 C 701.569 1837.09 670.872 1861.45 643.773 1886.91 C 609.524 1885.16 567.555 1883.13 533.56 1879.71 C 548.193 1865.09 572.428 1845.17 588.91 1829.79 C 595.641 1824.03 608.967 1814.7 611.692 1805.96 C 611.912 1803.89 611.693 1802.89 610.722 1801.3 C 607.818 1796.54 602.054 1795.71 597.725 1799.01 C 587.782 1806.59 578.717 1815.36 569.321 1823.61 C 548.946 1841.5 529.098 1860.39 507.905 1877.3 C 480.436 1876.35 452.356 1872.57 424.595 1871.92 C 431.52 1863.42 440.057 1856.01 447.643 1847.89 C 464.649 1829.66 482.865 1812.29 499.761 1794.02 C 504.115 1789.31 498.329 1778.78 491.056 1781.22 C 489.083 1781.89 487.492 1782.31 485.86 1783.99 C 474.891 1794.79 464.306 1806.01 453.421 1816.9 C 441.773 1829.7 413.526 1854.59 405.149 1867.66 C 380.036 1859.12 360.782 1849.08 340.819 1831.59 C 345.868 1827.83 350.532 1823.06 354.818 1818.46 C 376.183 1795.53 396.671 1771.77 418.833 1749.61 C 420.14 1748.3 421.428 1745.46 421.702 1743.64 C 422.057 1741.31 421.356 1738.93 419.789 1737.16 C 409.727 1725.95 391.808 1752.58 384.945 1759.44 C 365.682 1778.69 348.065 1799.92 329.048 1819.39 C 314.618 1800.66 304.293 1779.11 298.748 1756.13 C 299.28 1755.7 299.802 1755.26 300.314 1754.8 C 328.985 1729.87 355.647 1701.08 381.9 1673.59 C 391.091 1663.96 402.571 1653.92 410.288 1643.15 C 411.362 1641.65 411.802 1640.42 411.863 1638.57 C 411.964 1635.56 410.55 1633.03 408.354 1631.02 C 406.638 1629.44 404.558 1628.74 402.228 1629.11 C 398.207 1629.76 308.278 1723.48 297.824 1735.94 C 298.714 1704.06 302.283 1671.84 303.117 1640.49 C 314.034 1630.43 395.137 1546.31 396.79 1539.72 C 397.321 1537.6 396.512 1535.17 395.125 1533.56 C 392.603 1530.65 389.578 1530.32 386.025 1530.19 C 378.824 1532.59 315.295 1603.84 305.031 1615.05 C 307.106 1586.93 308.186 1557.98 310.168 1529.53 C 344.9 1495.79 378.644 1460.05 412.403 1425.34 C 415.918 1421.72 417.312 1415.26 413.008 1411.5 C 403.081 1402.84 394.536 1419.49 388.332 1424.98 C 364.883 1451.19 332.276 1478.62 311.012 1505.94 C 312.143 1492.68 312.545 1478 313.359 1464.56 C 314.016 1453.71 315.485 1439.03 315.497 1428.59 C 335.764 1409.34 354.046 1387.79 373.212 1367.46 C 386.4 1353.47 402.047 1339.6 413.551 1324.25 C 414.762 1322.63 415.438 1321.04 415.427 1318.96 C 415.415 1316.5 414.29 1313.68 412.404 1312.06 C 410.651 1310.56 407.529 1309.89 405.271 1310.28 C 396.597 1311.79 326.44 1392.83 316.878 1404.18 C 319.177 1378.93 320.008 1348.81 321.241 1323.05 C 321.787 1322.76 322.329 1322.46 322.865 1322.15 C 328.98 1318.63 334.075 1313.95 339.145 1309.08 C 348.959 1299.66 409.011 1236.56 410.252 1230.23 C 410.716 1227.86 409.394 1225.38 407.982 1223.54 C 406.446 1221.53 404.001 1219.96 401.408 1219.96 C 400.812 1219.96 398.769 1220.32 398.112 1220.6 C 393.704 1222.49 329.664 1293.23 322.248 1302.14 C 323.084 1294.39 322.963 1282.96 323.284 1274.88 C 324.024 1255.69 324.97 1236.5 326.122 1217.33 C 341.805 1204.73 355.623 1187.66 369.421 1172.99 C 384.643 1156.81 401.126 1140.86 415.277 1123.79 C 417.739 1120.82 421.842 1116.25 422.318 1112.34 C 422.592 1110.1 421.293 1107.73 419.798 1106.18 C 418.136 1104.46 415.811 1103.24 413.355 1103.45 C 406.002 1104.09 337.728 1181.36 327.891 1192.38 C 328.596 1169.71 329.599 1147.05 330.899 1124.4 C 347.672 1106.74 452.451 1003.2 452.608 991.755 C 452.639 989.462 451.928 987.397 450.132 985.894 C 448.333 984.388 445.787 983.851 443.496 984.053 C 440.45 984.321 437.202 985.999 434.944 988.024 C 424.776 997.148 416.035 1009.95 406.547 1020.03 C 381.629 1046.51 356.017 1072.29 331.703 1099.34 C 333.328 1085.01 334.152 1066.98 334.734 1052.56 C 336.498 1008.8 335.156 985.262 378.956 965.316 z" fill="currentColor" />
<path d="M 932.503 1159.39 C 992.04 1155.83 1045.92 1182.61 1081.02 1230.3 C 1106.57 1265.49 1117.29 1309.3 1110.88 1352.31 C 1102.21 1408.54 1076.21 1439.04 1032.39 1471.29 C 1033.7 1486.21 1038.46 1510.58 1041.02 1526.14 C 1046.41 1558.21 1051.52 1590.33 1056.36 1622.48 C 1061.01 1652.44 1072.77 1686.84 1046.95 1709.74 C 1040.91 1715.2 1033.52 1718.94 1025.55 1720.58 C 1010.46 1723.56 952.331 1717.71 932.752 1716.77 C 906.258 1714.65 879.527 1714.02 853.183 1712.32 C 828.416 1710.72 796.806 1714.97 782.57 1689.85 C 779.262 1684.58 775.68 1672.77 777.331 1666.64 C 796.002 1597.28 822.882 1529.31 841.928 1460.05 C 805.315 1429.05 782.036 1388.71 777.684 1340.44 C 773.621 1295.89 787.719 1251.57 816.781 1217.55 C 847.736 1180.88 884.962 1163.44 932.503 1159.39 z" fill="currentColor" />
<path d="M 889.923 1191.14 L 890.367 1191.41 C 889.439 1193.41 877.794 1199.97 874.838 1202.18 C 836.687 1230.71 815.238 1273.55 813.339 1320.39 C 811.929 1359.68 824.677 1398.17 849.262 1428.85 C 856.139 1437.4 866.578 1446.81 874.383 1455.26 C 873.434 1460.9 871.827 1466.32 870.115 1471.79 C 850.756 1533.56 834.118 1596.12 814.987 1657.94 C 810.777 1671.54 812.936 1677.21 819.798 1688.8 C 813.668 1688.23 811.168 1688.3 805.67 1685.58 C 802.253 1681.89 798.066 1676.68 798.715 1671.25 C 800.625 1655.28 807.106 1639.3 812.195 1624.04 L 849.962 1509.37 C 853.735 1497.7 864.913 1465.07 865.846 1455.03 C 861.531 1447.8 851.507 1439.23 845.181 1433.31 C 829.152 1418.31 819.663 1404.45 810.941 1384.5 C 795.282 1348.78 794.497 1308.3 808.76 1272.01 C 823.837 1234.29 852.816 1206.85 889.923 1191.14 z" fill="currentColor" />
<path d="M 1020.48 286.427 C 1061.02 284.823 1102.83 294.556 1141.78 304.662 C 1402.16 372.206 1346.88 656.016 1340.59 859.062 C 1293.53 857.946 1246.47 856.262 1199.45 854.011 L 996.751 845.917 L 655.016 832.072 C 655.186 809.264 655.534 786.458 656.061 763.655 C 667.946 751.528 680.094 739.661 692.497 728.063 C 695.106 692.811 694.147 653.909 696.678 618.098 C 702.622 534.022 722.241 457.701 780.073 393.937 C 842.99 324.568 928.264 290.817 1020.48 286.427 z" fill="currentColor" />
<path d="M 1012.43 84.3737 C 1029.86 83.2608 1055.55 84.3425 1073.05 85.5443 C 1194.45 92.9193 1307.83 148.678 1387.78 240.333 C 1424.65 282.851 1442.63 314.898 1463.93 365.513 C 1518.11 494.278 1503.56 610.999 1496.84 745.36 C 1494.93 779.963 1493.55 814.593 1492.71 849.238 C 1492.12 876.66 1492.55 905.792 1490.63 932.924 C 1455.48 946.291 1378.97 935.838 1363.19 896.903 C 1360.18 889.473 1364.82 831.775 1365.48 819.826 C 1368.08 777.465 1370.05 735.067 1371.36 692.647 C 1374.19 599.867 1373.13 505.831 1330.63 420.634 C 1270.55 300.188 1124.02 262.962 999.702 262.977 C 933.887 262.985 874.233 273.664 815.497 303.948 C 796.293 314.903 782.502 322.954 765.148 337.313 C 698.291 392.634 658.643 468.365 643.488 553.124 C 638.808 579.294 637.688 601.1 635.119 627.204 C 623.52 633.129 608.949 641.784 599.65 650.827 C 595.596 661.829 594.972 732.297 594.422 748.351 C 591.982 804.494 590.251 860.665 589.23 916.851 C 580 917.05 570.365 916.817 561.104 916.73 C 562.007 863.448 563.738 808.517 565.674 755.224 C 566.449 736.284 567.09 717.339 567.598 698.39 C 567.788 691.012 569.674 665.358 565.504 661.862 C 555.336 653.338 545.18 656.79 545.159 671.032 C 545.128 693.134 544.318 714.902 543.616 736.343 L 537.908 910.628 C 526.645 904.974 508.946 892.123 508.52 878.239 C 508.022 862.055 508.824 844.826 509.353 828.584 L 512.701 728.986 C 517.238 569.544 509.035 427.684 614.71 296.25 C 634.36 271.951 656.31 249.607 680.254 229.527 C 764.659 159.983 903.465 96.292 1012.43 84.3737 z" fill="currentColor" />
<path d="M 684.991 856.924 C 705.004 856.281 736.923 859.004 758.251 859.843 C 810.499 861.585 862.735 863.623 914.96 865.955 L 1180.46 876.271 C 1232.64 878.27 1287.05 879.636 1338.99 882.572 C 1338.14 905.197 1345.78 919.858 1363.4 933.525 C 1391.95 955.666 1437.9 964.744 1473.14 961.09 C 1498.61 958.45 1533.97 945.325 1544.43 920.061 C 1549.02 909.229 1547.97 901.438 1556.05 891.571 C 1586.06 893.959 1616.11 895.846 1646.18 897.231 C 1679.17 898.846 1715.55 894.01 1736.7 923.457 C 1674.48 944.504 1611.2 976.142 1544.42 981.112 C 1526.08 982.477 1488.26 980.366 1468.99 979.228 C 1369.63 977.268 1268.98 972.721 1169.56 969.345 L 581.689 949.189 C 549.072 948.085 516.563 945.699 483.984 944.324 C 455.995 943.143 427.684 942.961 399.613 942.312 C 431.484 916.343 449.671 904.106 484.95 884.065 C 517.89 982.747 705.746 940.905 684.991 856.924 z" fill="currentColor" />
<path d="M 1724.29 1471.85 L 1724.92 1471.97 C 1727.63 1475.77 1723.76 1522.43 1723.22 1530.97 C 1720.96 1530.7 1718.61 1530.42 1716.34 1530.58 C 1707.26 1531.22 1603.63 1576.52 1589.92 1583.79 C 1586.14 1585.8 1583.29 1588.02 1580.4 1591.17 L 1584.55 1600.42 C 1583.25 1611.59 1581.9 1622.81 1580.96 1634.01 C 1580.48 1639.79 1579.59 1645.23 1584.23 1649.11 C 1588.02 1649.76 1588.46 1649.78 1592.53 1647.93 C 1610.44 1639.83 1628.43 1630.96 1646.12 1622.45 C 1670.9 1610.51 1695.91 1599.06 1721.14 1588.11 C 1721.17 1596.71 1719.24 1636.81 1718.19 1643.95 C 1714.6 1645.85 1705.64 1642.61 1702.84 1644.15 C 1686.99 1652.84 1582.47 1692.01 1577.06 1701.51 C 1581.75 1720.21 1574.43 1734.44 1575.45 1752.82 C 1575.79 1759.01 1583.76 1760.01 1588.51 1757.93 C 1602.75 1751.68 1616.95 1745.32 1631.15 1738.98 C 1659.6 1726.24 1688.26 1713.95 1717.1 1702.13 C 1716.58 1713.73 1715.94 1725.32 1715.2 1736.91 C 1713.72 1736.77 1712.23 1736.67 1710.74 1736.61 C 1698.96 1736.12 1624.53 1778.17 1606.84 1784.69 C 1600.25 1787.12 1576.99 1799.82 1571.7 1804.72 C 1574.12 1810.56 1575.53 1813.04 1574.61 1819.24 C 1573.58 1827.3 1569.21 1854.6 1574.92 1859.76 C 1578.18 1861.03 1580.09 1861.46 1583.37 1859.86 C 1625.22 1839.4 1667.25 1819.92 1710.2 1801.78 C 1707.13 1817.68 1699.35 1835.24 1691.05 1849.05 C 1665.05 1892.32 1630.33 1893.75 1586.09 1906.73 C 1564.76 1912.98 1543.29 1920.05 1521.68 1925.25 C 1551.79 1894.69 1565.79 1861.22 1568.47 1818.49 C 1570.39 1787.86 1571.25 1757.14 1572.82 1726.5 L 1582.24 1548.56 C 1582.95 1534.58 1584.16 1487.53 1586.26 1476.99 L 1587.55 1477.61 C 1597.04 1491.8 1578.34 1526.63 1590.9 1534.3 C 1591.94 1534.41 1592.97 1534.51 1594.01 1534.61 C 1630.99 1516.34 1688.84 1489.33 1724.29 1471.85 z" fill="currentColor" />
<path d="M 1604.16 1164.86 C 1603.96 1173.43 1601.8 1189.04 1609.19 1194.41 C 1617.59 1193.83 1728.52 1146.67 1740.83 1140.15 C 1739.78 1195.52 1735.57 1254.33 1733.63 1310.28 L 1723.5 1307.47 C 1699.12 1317.49 1674.61 1327.17 1649.97 1336.52 C 1638.06 1341.14 1603.4 1352.66 1594.34 1363.51 C 1591.48 1366.94 1596.22 1372.43 1598.77 1375.74 C 1598.6 1385.16 1595.04 1413.19 1599.96 1419.46 C 1600.81 1420.53 1600.7 1420.3 1602.16 1420.32 C 1613.09 1420.53 1690.19 1383.92 1705.45 1377.27 C 1712.86 1374.04 1722.26 1368.43 1730.09 1367.37 C 1731.56 1371.65 1729.03 1400.1 1728.98 1407.19 C 1690.75 1421.94 1653.58 1441.19 1615.91 1457.37 C 1605.41 1461.88 1595.75 1467.06 1585.86 1472.72 C 1589.43 1423.18 1590.58 1373.46 1594.39 1323.93 C 1595.96 1303.49 1594.51 1275.16 1597.54 1255.62 L 1598.64 1255.2 C 1601.12 1267.38 1595.96 1295.1 1600.57 1302.77 C 1603.11 1303.71 1604.49 1303.84 1607.13 1303.04 C 1620.92 1298.85 1635.14 1290.85 1648.35 1284.9 C 1672.38 1274.06 1696.7 1263.72 1720.65 1252.73 C 1723.47 1251.43 1728.85 1249.41 1730.13 1246.55 C 1733.72 1238.54 1731.77 1207.28 1727.96 1199.34 C 1727.14 1197.63 1725.51 1195.08 1723.6 1194.55 C 1712.03 1191.34 1617.29 1227.39 1599 1234.2 C 1600.3 1212.45 1601.29 1190.69 1601.98 1168.91 L 1604.16 1164.86 z" fill="currentColor" />
<path d="M 1745.13 943.937 C 1747.54 944.078 1746.41 943.767 1748.4 945.323 C 1750.93 953.036 1744.01 1072.53 1742.72 1085.67 L 1736.9 1081.49 C 1694.35 1091.56 1645.55 1114.95 1603.89 1127.03 L 1604.23 1107.98 C 1605.1 1089.85 1605.74 1067.41 1604.37 1049.41 C 1602.69 1027.28 1590.22 1014.99 1573.92 1001.83 C 1591.32 996.819 1608.47 994.068 1626.37 988.103 C 1666.44 974.757 1705.74 959.112 1745.13 943.937 z" fill="currentColor" />
<path d="M 1712.7 990.256 C 1721.72 989.015 1731.49 992.507 1735.43 1001.01 C 1739.95 1010.76 1742.68 1031.08 1738.95 1040.92 C 1732.39 1047.47 1646.14 1078.3 1630.77 1084.05 L 1618.07 1088.13 C 1611.43 1068.37 1611.43 1045.51 1603.24 1026.52 C 1600.38 1021.9 1610.98 1017.39 1614.47 1016.62 C 1646.42 1009.61 1680.84 995.874 1712.7 990.256 z" fill="currentColor" />
<path d="M 1411.09 228.359 C 1577.51 402.675 1535.19 618.356 1527.41 837.448 C 1526.55 861.408 1526.98 886.576 1524.98 910.301 C 1521.1 916.134 1519.78 917.894 1514.93 922.988 C 1516.26 858.313 1516.76 796.196 1520.72 731.983 C 1529.13 595.734 1537.32 464.169 1476.96 337.14 C 1456.27 293.603 1440.82 266.64 1408.72 229.53 L 1411.09 228.359 z" fill="currentColor" />
<path d="M 833.824 320.091 L 834.53 320.485 C 831.016 323.625 819.584 330.287 814.953 333.415 C 802.487 341.902 790.76 351.425 779.895 361.884 C 701.414 437.356 675.682 535.317 673.504 640.776 L 667.646 634.082 C 665.04 631.642 661.812 629.108 659.028 626.8 C 658.707 590.39 668.729 534.125 680.604 500.011 C 707.941 421.473 758.154 357.114 833.824 320.091 z" fill="currentColor" />
<path d="M 633.254 655.848 L 634.227 656.091 C 636.274 661.883 631.242 827.034 631.857 849.555 C 623.78 857.374 620.283 862.841 614.112 872.208 L 613.201 872.33 C 611.586 865.539 614.579 817.801 614.926 808.439 C 616.4 760.138 618.12 711.845 620.085 663.562 L 633.254 655.848 z" fill="currentColor" />
<path d="M 648.596 872.337 C 653.848 871.862 659.111 871.736 664.383 871.541 L 663.602 873.708 C 656.546 893.517 644.939 900.302 626.766 909.243 L 616.439 913.128 C 623.61 899.094 634.156 879.113 648.596 872.337 z" fill="currentColor" />
<path d="M 658.607 661.543 C 662.51 666.24 666.615 670.73 670.699 675.269 C 669.414 687.653 670 703.587 669.159 716.901 L 664.421 723.01 C 662.112 725.649 659.755 727.556 657.12 729.843 C 657.037 713.482 657.426 677.387 658.607 661.543 z" fill="currentColor" />
<path d="M 1408.72 229.53 C 1403.93 224.407 1396.1 215.907 1392.44 210.27 C 1397.52 213.212 1407.06 223.791 1411.09 228.359 L 1408.72 229.53 z" fill="currentColor" />
<path d="M 1601.98 1168.91 C 1601.88 1163.73 1601.59 1161.96 1603.02 1156.96 C 1604.46 1159.18 1604.01 1161.74 1604.16 1164.86 L 1601.98 1168.91 z" fill="currentColor" />
<metadata><recraft-signature>{"signed_by": "recraft", "signature_b64": "KG7qDDEK4K4dzCDPJk4E+qkrZf3FxjEyQ0qfKRg6WZ3942fscEXyGBzoA4n2eZeesom2mK9FryjrOqyF+l4jDg==", "signing_algo": "Ed25519", "generation_timestamp": 1772065466, "identifier": "a6681428-25dc-4d00-b55a-837d4e4ef567"}</recraft-signature></metadata></g></svg>