<svg xmlns="http://www.w3.org/2000/svg" viewBox="0 0 24 24">
<g transform="scale(0.011719,0.011719)"><path d="M 1381.31 224.854 C 1386.01 225.357 1391.55 227.148 1392.86 232.345 C 1393.79 236.001 1391.17 241.783 1388.74 244.539 C 1370.7 264.993 1347.6 281.837 1330.89 303.422 C 1310.72 337.785 1292.37 377.414 1273.97 412.962 C 1255.62 448.419 1236.51 483.29 1217.98 518.572 C 1186.65 578.211 1156.35 639.796 1121.24 697.294 C 1134.94 694.804 1152.56 689.678 1166.61 686.452 C 1203.17 678.271 1239.69 669.874 1276.15 661.261 C 1299.75 655.707 1324.1 650.476 1348.07 646.611 C 1352.02 645.056 1365.18 647.117 1364.56 653.249 C 1363.51 663.674 1349.55 686.521 1344.67 695.722 C 1332.74 718.519 1320.59 741.197 1308.22 763.752 L 1234.89 899.488 C 1185.93 988.185 1139.47 1076.71 1089.52 1165.16 C 1123.49 1160.73 1164 1150.81 1197.67 1143.44 C 1239.09 1134.47 1280.58 1125.77 1322.11 1117.35 C 1339.61 1113.64 1400.25 1098.82 1413.95 1102.61 C 1420.88 1109.87 1416.76 1116.66 1411.3 1123.24 C 1403.58 1132.55 1395.5 1141.6 1387.57 1150.72 L 1342.34 1202.7 L 1192.74 1373.4 C 1038.07 1551.44 881.556 1727.86 723.208 1902.64 C 712.167 1915.48 694.126 1938.49 680.889 1949.14 C 670.55 1957.45 658.379 1946.08 666.798 1931.01 C 674.183 1917.8 682.214 1902.13 689.346 1888.11 L 746.76 1774.72 L 883.831 1497.08 C 911.78 1441.21 938.98 1384.96 965.426 1328.35 C 892.598 1338.97 819.629 1353.35 746.836 1364.56 C 736.641 1366.13 718.327 1370.78 708.782 1367.05 C 702.388 1359.06 706.34 1354.55 710.569 1346.45 C 744.275 1281.94 780.023 1218.4 814.348 1154.26 C 868.957 1051.98 922.76 949.267 975.754 846.138 C 899.434 863.879 823.256 882.226 747.228 901.178 C 743.769 898.433 737.206 893.412 739.095 888.379 C 762.101 827.068 788.805 765.015 814.103 704.796 L 882.579 539.56 L 926.457 435.284 C 933.935 417.315 940.972 398.514 949.716 381.133 C 951.408 377.771 954.78 377.146 958.319 376.197 C 973.965 372.002 990.712 367.775 1006.3 363.779 L 1096.45 340.565 C 1171.93 320.964 1245.92 300.631 1321.71 281.695 C 1332.88 269.87 1369.2 230.12 1381.31 224.854 z" fill="currentColor" />
<path d="M 965.852 398.79 C 1006.39 386.126 1053.37 375.845 1094.89 364.973 C 1130.77 355.575 1167.19 344.893 1202.88 335.739 L 1259.61 321.474 C 1269.29 319.113 1282.71 316.878 1291.64 313.123 C 1279.69 320.373 1262.18 325.747 1248.99 332.084 C 1212.71 349.505 1180.89 363.101 1142.8 376.119 C 1150.94 377.725 1164.34 380.89 1172.08 380.186 C 1186.12 378.909 1202.65 373.266 1216.44 369.307 C 1237.13 363.369 1259.72 357.651 1279.79 350.307 C 1264.02 365.346 1233.99 375.995 1213.93 385.676 C 1197.46 393.619 1176.98 403.756 1160 409.697 C 1186.55 410.757 1217.07 404.111 1243.62 399.463 C 1227.87 406.965 1188.87 425.416 1176.32 436.237 C 1196.8 435.036 1213.67 432.709 1234.05 429.723 C 1214.06 445.799 1182.11 448.305 1158.08 455.668 C 1155.05 456.595 1151.11 457.926 1149.63 460.728 C 1167.72 464.382 1190.52 461.906 1208.92 462.221 C 1212.26 462.278 1214.55 462.707 1216.5 465.056 C 1214.18 471.421 1181.41 482.744 1173.87 490.108 L 1174.46 491.374 L 1178.9 492.085 C 1183.1 491.15 1207.56 487.192 1210.48 488.42 C 1208.69 489.352 1190.53 493.119 1187.85 493.571 C 1179.64 495.862 1169.54 496.395 1160.42 499.176 C 1138.6 505.838 1117.34 515.211 1096.62 524.623 C 1112.09 525.174 1119.67 530.767 1130.2 535.474 C 1132.41 536.463 1155.57 526.844 1160.63 525.029 C 1172.12 520.907 1183.34 517.098 1196.37 514.827 C 1179.27 523.946 1101.19 557.122 1093.76 568.751 L 1094.53 570.253 C 1106.36 572.516 1153.87 559.857 1166.92 556.33 C 1145.8 575.543 1123.73 598.786 1101.92 619.068 C 1114.31 617.774 1126.38 617.809 1138.63 615.796 C 1121.54 627.4 1107.58 633.129 1088.8 640.734 C 1101.49 645.605 1108.22 647.015 1121.71 649.276 C 1104.48 655.622 1094.95 656.918 1077.23 658.671 C 1086.71 665.35 1095.53 670.046 1106.04 674.814 C 1088.55 681.082 1083.11 681.046 1064.61 682.415 C 1072.46 689.709 1078.17 693.753 1087.43 698.99 C 1081.41 702.38 1062.51 712.462 1060.24 718.735 C 1059.77 720.036 1060.48 720.271 1061.5 721.633 C 1069.18 724.576 1087.09 722.23 1096.01 721.585 C 1098.69 723.545 1102.08 726.042 1105.63 725.339 C 1126.93 721.448 1147.79 714.114 1168.82 709.277 C 1207.3 700.426 1246.36 690.68 1285.09 683.163 C 1278.4 693.51 1273.49 705.146 1267.45 715.79 C 1253.42 740.508 1240.75 766.753 1226.8 791.408 L 1040.17 1124.53 C 1028.61 1145.52 1017.19 1166.19 1004.9 1186.79 C 999.792 1195.35 1002.18 1208.13 1013.75 1206.13 C 1055.17 1198.96 1095.81 1187.52 1137.07 1179.59 C 1192.93 1167.52 1250.73 1157.42 1306.14 1144.04 C 1282.59 1174.98 1247.42 1214.34 1221.69 1245.09 C 1166.52 1310.81 1111.82 1376.92 1057.57 1443.4 L 825.682 1732.7 C 795.698 1770.62 765.497 1811.32 734.685 1848.41 C 738.484 1839.19 746.157 1826.75 750.905 1817.38 L 785.771 1747.64 C 806.987 1705.27 996.919 1322.77 996.388 1311.93 C 996.274 1309.61 994.212 1305.26 992.034 1304.02 C 988.704 1302.13 980.422 1303.34 976.5 1303.86 C 954.476 1306.78 932.443 1311.25 910.493 1314.81 L 738.193 1342.6 C 764.111 1294.79 1009 843.957 1009.27 827.523 C 1009.32 824.06 1007.62 821.735 1005.35 819.445 C 995.717 816.213 977.626 822.151 967.449 824.594 L 923.401 834.956 C 872.035 847.072 820.765 859.59 769.595 872.511 C 787.601 824.934 809.535 777.696 828.832 730.585 C 855.009 666.677 880.646 603.105 907.759 539.551 L 947.019 447.332 C 951.842 435.892 963.575 409.772 965.852 398.79 z" fill="currentColor" />
<path d="M 1193.22 1197.49 C 1196.87 1198.49 1196.69 1198.24 1198.29 1201.05 C 1197.67 1206.62 1176.6 1231.36 1171.74 1237.63 C 1146.91 1269.31 1121.83 1300.79 1096.51 1332.08 C 1054.52 1384.22 1011.7 1435.43 969.099 1487.05 C 961.717 1495.99 954.558 1505.31 946.764 1513.89 C 943.291 1512.96 943.174 1513.12 941.64 1510.38 C 942.561 1503.07 979.338 1461.8 986.17 1453.52 C 1032.24 1398.11 1077.81 1342.29 1122.88 1286.06 L 1169.73 1227.1 C 1176.03 1219.07 1186.82 1203.74 1193.22 1197.49 z" fill="currentColor" />
<path d="M 1174.67 811.482 C 1178.12 812.664 1176.92 811.599 1178.61 814.525 C 1178.21 821.231 1150.05 866.75 1144.97 875.376 C 1108.42 938.14 1072.49 1001.26 1037.17 1064.72 C 1032.43 1073.29 1005.8 1126.53 1001.36 1130.91 C 999.65 1130.07 997.948 1129.2 996.257 1128.31 L 995.539 1126.02 C 997.579 1119.95 1006.05 1105.61 1009.55 1099.26 L 1038.36 1047.02 L 1118.17 905.467 C 1127.27 889.5 1164.97 820.848 1174.67 811.482 z" fill="currentColor" />
<path d="M 947.097 515.493 C 949.551 516.004 949.837 516.304 952.096 517.482 C 953.103 521.068 952.447 522.844 951.054 526.423 C 918.478 610.106 880.468 692.292 847.741 775.814 C 844.752 774.71 844.894 774.693 842.394 772.655 C 840.78 767.031 887.417 660.393 893.002 647.241 C 911.367 603.99 928.704 558.573 947.097 515.493 z" fill="currentColor" />
<path d="M 1327.82 674.229 L 1329.31 674.214 L 1329.73 675.384 C 1326.32 684.229 1310.34 711.448 1304.88 721.542 C 1288.4 752.756 1271.71 783.866 1254.84 814.868 L 1121.95 1059.54 C 1101.54 1096.9 1078.67 1136.37 1059.06 1173.79 L 1039.02 1178.57 L 1037.31 1177.51 C 1038.72 1172.71 1053.68 1147.61 1057.07 1141.52 L 1120.03 1030 C 1186.08 913.459 1250.5 796.003 1313.26 677.664 C 1317.85 676.72 1323.2 675.323 1327.82 674.229 z" fill="currentColor" />
<path d="M 1339.53 1138.51 C 1351.76 1136.32 1362.89 1134.63 1374.68 1130.47 L 1170.63 1364.89 C 1101.28 1442.55 1032.55 1520.78 964.475 1599.56 L 962.322 1597.73 L 1247.46 1250.32 L 1316.72 1166.67 C 1324.33 1157.54 1331.76 1147.19 1339.53 1138.51 z" fill="currentColor" />
<path d="M 962.322 1597.73 L 964.475 1599.56 C 953.843 1611.55 931.312 1638.66 920.765 1648.67 C 927.247 1638.56 953.781 1607.43 962.322 1597.73 z" fill="currentColor" />
<path d="M 1434.74 746.893 C 1453.97 747.402 1518.31 777.269 1539.22 785.4 C 1546.68 788.301 1540.35 798.521 1535.02 802.518 C 1519.89 803.03 1447.88 771.799 1430.39 763.772 C 1424.82 761.217 1430.96 750.341 1434.74 746.893 z" fill="currentColor" />
<path d="M 1524.02 419.062 C 1525.33 419.109 1527.11 419.058 1528.4 419.412 C 1531.17 420.168 1533 421.563 1534.52 423.974 C 1536.25 426.719 1536.45 430.785 1535.22 433.721 C 1531.62 442.287 1450.56 471.126 1436.93 476.004 C 1425.46 478.028 1421.35 460.289 1430.79 456.858 C 1461.34 445.759 1493.15 428.651 1524.02 419.062 z" fill="currentColor" />
<path d="M 1395.45 839.908 C 1406.31 839.018 1456.98 875.126 1469.49 882.118 C 1481.58 888.872 1502.19 898.882 1485.15 912.536 C 1470.67 911.463 1406.72 867.785 1390.94 857.327 C 1384.69 853.184 1389.93 844.232 1395.45 839.908 z" fill="currentColor" />
<path d="M 1545.54 538.38 C 1549.17 537.985 1556 536.882 1559.16 538.776 C 1572.01 546.477 1567.26 556.06 1554.53 558.716 C 1543.72 560.971 1533.53 561.761 1522.81 562.99 L 1469.91 569.291 C 1464.08 570.134 1453.18 571.908 1451.03 564.208 C 1449.21 557.679 1452.07 551.604 1458.85 549.836 C 1470.44 546.82 1482.8 546.113 1494.71 544.728 L 1545.54 538.38 z" fill="currentColor" />
<path d="M 519.707 419.022 L 521.588 418.913 C 524.012 418.789 527.826 418.952 529.915 419.893 C 543.914 426.195 611.717 452.514 620.346 460.281 C 623.333 467.554 619.899 471.271 614.518 475.899 C 601.826 478.067 549.276 449.579 533.938 445.133 C 521.97 441.665 504.47 432.903 519.707 419.022 z" fill="currentColor" />
<path d="M 1460.99 314.969 C 1477.03 314.232 1481.06 326.773 1471.73 333.212 C 1447.98 349.597 1415.55 375.354 1390.93 387.979 C 1378.14 390.885 1372.22 377.872 1381.54 370.045 C 1392.35 360.973 1404.94 353.427 1416.78 345.657 C 1431.79 335.831 1446.53 325.598 1460.99 314.969 z" fill="currentColor" />
<path d="M 1458.7 647.96 C 1469.62 647.695 1494.52 652.256 1506.43 653.769 C 1523.72 656.645 1541.82 657.865 1558.91 661.691 C 1570.76 664.345 1571.01 674.363 1562.46 681.804 C 1547.65 681.865 1460.22 671.159 1454.87 664.968 C 1452.95 662.745 1452.33 660.887 1452.52 657.962 C 1452.81 653.494 1455.51 650.729 1458.7 647.96 z" fill="currentColor" />
<path d="M 579.007 313.898 C 592.551 313.7 630.301 343.695 644.6 351.175 C 655.165 356.701 685.336 371.82 664.702 384.356 C 662.799 384.72 658.19 385.498 656.404 384.345 C 634.001 369.876 611.319 355.81 588.815 341.5 C 584.344 338.267 578.677 335.065 575.022 330.871 C 569.05 324.017 573.297 317.918 579.007 313.898 z" fill="currentColor" />
<path d="M 642.574 842.928 C 644.016 842.943 645.472 842.939 646.898 843.185 C 649.891 843.7 652.283 845.743 653.886 848.248 C 655.66 851.018 655.777 854.879 654.947 858.018 C 652.78 866.218 583.628 905.453 571.946 911.85 C 570.761 911.952 569.688 912.09 568.484 911.97 C 565.061 911.653 561.993 909.726 560.222 906.779 C 558.599 904.067 558.654 900.664 559.754 897.776 C 562.278 891.151 632.384 847.896 642.574 842.928 z" fill="currentColor" />
<path d="M 600.907 748.115 C 609.537 747.891 615.861 757.154 612.081 763.492 C 607.197 771.68 583.855 778.066 575.034 781.332 C 556.909 788.043 538.549 795.412 520.444 801.18 C 508.677 800.896 505.611 790.37 509.285 785.433 C 514.702 778.151 552.322 766.486 560.926 763.095 C 574.885 757.594 588.308 751.607 600.907 748.115 z" fill="currentColor" />
<path d="M 488.88 537.953 C 490.737 537.822 492.601 537.809 494.46 537.913 C 518.363 539.029 545.767 546.287 569.989 548.49 C 578.412 549.256 596.299 551.547 593.651 563.33 C 592.506 568.426 591.015 569.513 586.94 572.453 C 578.759 573.555 554.206 567.235 544.181 566.565 C 533.387 564.698 523.799 563.737 512.886 561.753 C 506.468 560.587 488.377 559.19 484.111 554.229 C 479.553 548.927 483.362 541.685 488.88 537.953 z" fill="currentColor" />
<path d="M 568.948 649.364 C 572.547 648.884 577.233 647.971 580.751 649.18 C 584.212 650.368 588.298 654.035 589.326 657.619 C 590.02 660.038 589.589 662.36 588.174 664.405 C 581.468 674.099 512.935 679.025 499.478 680.631 C 495.91 681.144 490.187 682.2 486.995 680.352 C 474.974 673.394 477.915 662.999 490.744 660.163 C 500.252 658.062 509.553 657.236 519.028 656.04 C 535.696 654.027 552.337 651.801 568.948 649.364 z" fill="currentColor" />
<path d="M 763.806 150.938 C 767.968 151.444 771.496 151.799 774.143 155.644 C 788.066 176.282 800.466 198.237 813.007 219.772 C 819.855 231.53 827.289 239.941 813.926 249.241 C 810.29 249.193 805.342 248.714 803.19 245.394 C 789.893 224.888 778.663 202.897 765.869 182.032 C 762.769 176.978 759.543 171.584 757.197 166.24 C 753.946 158.835 757.884 154.48 763.806 150.938 z" fill="currentColor" />
<path d="M 785.49 991.912 C 790.251 992.021 794.562 992.051 798.423 995.404 C 800.298 997.032 801.059 999.516 801.094 1001.82 C 801.134 1004.42 797.737 1012.4 796.44 1014.06 C 786.923 1026.23 756.366 1076.27 747.817 1083.92 C 740.795 1084.28 728.973 1080.62 732.515 1073.71 C 742.034 1055.15 772.011 1005.2 785.49 991.912 z" fill="currentColor" />
<path d="M 662.833 223.057 C 671.299 224.359 676.553 231.094 682.346 237.114 C 699.178 254.604 717.3 271.136 733.295 289.363 C 740.348 297.401 737.401 303.757 729.045 308.655 C 724.989 308.174 721.472 307.642 718.453 304.593 C 708.115 294.146 698.218 283.653 688.079 272.946 C 677.358 261.272 664.417 250.741 654.951 238.066 C 650.223 231.735 657.863 225.532 662.833 223.057 z" fill="currentColor" />
<path d="M 705.106 925.952 C 712.751 925.828 723.979 932.204 718.874 938.223 C 705.307 954.221 667.735 997.372 650.782 1007.27 C 639.505 1004.81 630.937 998.212 641.212 987.415 C 657.212 970.602 675.435 955.953 691.218 938.891 C 695.595 934.159 699.955 929.84 705.106 925.952 z" fill="currentColor" />
<path d="M 1342.25 925.075 C 1353.69 927.593 1405.15 979.111 1415.77 990.386 C 1421.02 995.952 1412.46 1003.35 1407.35 1006.16 C 1395.12 1002.11 1344.5 952.056 1333.64 940.299 C 1327.74 933.901 1335.8 927.841 1342.25 925.075 z" fill="currentColor" />
<path d="M 879.701 111.175 C 881.839 110.903 884.2 110.731 886.014 110.602 C 888.243 110.443 892.559 112.401 893.346 114.002 C 899.247 126.002 917.599 193.993 916.856 201.849 C 914.946 205.587 914.102 205.843 910.557 208.403 C 903.239 209.19 898.23 208.871 895.812 200.637 C 888.11 174.414 880.494 147.76 873.776 121.298 C 872.906 117.873 877.534 113.242 879.701 111.175 z" fill="currentColor" />
<path d="M 1159 108.945 C 1160.88 108.93 1162.65 108.945 1164.49 109.434 C 1167.24 110.166 1169.49 111.649 1170.9 114.151 C 1176.06 123.335 1155.02 184.234 1150.99 196.46 C 1148.96 202.63 1147.81 204.277 1141.95 207.213 C 1128.37 206.692 1127.54 200.113 1130.71 188.459 C 1135.16 173.255 1138.92 157.472 1143.68 142.39 C 1147.02 131.78 1149.32 114.76 1159 108.945 z" fill="currentColor" />
<path d="M 1275.85 152.855 C 1285.33 152.319 1292.81 159.098 1289.58 165.389 C 1281.98 180.165 1254.42 236.238 1243.22 244.024 C 1237.86 244.147 1227.24 241.659 1229.26 235.506 C 1234.93 218.203 1264.38 162.898 1275.85 152.855 z" fill="currentColor" />
<path d="M 1018.64 90.9257 C 1021.07 90.8162 1023.6 90.6778 1026.02 90.9588 C 1028.79 91.2803 1031.28 92.9599 1032.9 95.1916 C 1035.41 98.6517 1035.7 178.172 1034.12 184.919 C 1033.45 187.808 1031.06 189.164 1028.78 190.774 C 1027.51 191.013 1026.23 191.187 1024.95 191.297 C 1015.39 192.166 1013.08 187.04 1013.13 178.463 C 1013.29 152.025 1012.62 125.414 1013.61 99.0224 C 1013.71 96.2499 1016.88 92.8424 1018.64 90.9257 z" fill="currentColor" />
<path d="M 1261.98 997.957 C 1263.84 997.997 1266.15 997.891 1267.94 998.405 C 1274.92 1000.4 1311.58 1055.72 1318.06 1066.22 C 1321.08 1071.12 1323.58 1074.63 1322.22 1080.54 C 1320.08 1083.86 1318.4 1084.3 1314.9 1086.09 C 1312.58 1086.49 1307.28 1087.25 1305.7 1084.92 C 1289.34 1060.74 1271.5 1037.23 1255.95 1012.52 C 1252.47 1006.98 1257.94 1001 1261.98 997.957 z" fill="currentColor" />
<metadata><recraft-signature>{"signed_by": "recraft", "signature_b64": "u/yZkwygRHrNbIPSTXX1wLSpJslQ7AcKSiIsEE6opuXUhc0/4qDvcawjNl3DM1s7fNvoGvHNdRI0JOGMDa+OCw==", "signing_algo": "Ed25519", "generation_timestamp": 1772065401, "identifier": "6ce77c42-de20-4edf-84be-8b1968279b6f"}</recraft-signature></metadata></g></svg>