<svg xmlns="http://www.w3.org/2000/svg" viewBox="0 0 24 24">
<g transform="scale(0.011719,0.011719)"><path d="M 1015.53 78.2101 C 1026.84 77.7144 1036.96 77.6734 1047.5 82.6011 C 1066.84 91.6433 1097.06 117.341 1116.44 130.384 C 1168.93 165.714 1225.44 198.053 1284.45 221.173 C 1365.44 252.913 1457.02 267.818 1543.69 270.678 C 1608.17 272.807 1674.08 271.712 1738.45 267.21 C 1748.94 266.476 1795.1 259.825 1801.52 263.798 C 1803.48 265.014 1804.63 268.104 1805.04 270.257 C 1806.12 276.013 1779.04 349.088 1775.05 361.647 C 1759.15 411.537 1744.71 461.877 1731.74 512.604 C 1715.06 579.978 1701.16 648.008 1690.07 716.523 C 1682.18 766.925 1674.95 817.924 1668.22 868.508 C 1634.27 1123.67 1532.53 1359.54 1388.31 1571.46 C 1354.94 1619.79 1319.5 1666.66 1282.09 1711.94 C 1226.57 1778.78 1164.65 1842.18 1100.33 1900.62 C 1082.25 1917.04 1058.01 1940.26 1033.99 1944.82 C 1020.25 1945.23 1006.85 1945.86 994.918 1937.87 C 978.217 1926.69 961.437 1912.02 946.317 1898.84 C 881.686 1841.42 821.461 1779.23 766.149 1712.79 C 591.042 1504.47 453.298 1246.59 399.695 978.463 C 388.84 924.168 381.709 868.622 373.37 813.87 C 361.924 735.755 348.025 658.02 331.695 580.779 C 315.76 509.514 296.732 438.976 274.664 369.366 C 268.277 348.876 261.512 328.506 254.373 308.266 C 251.416 299.714 239.162 271.989 245.02 265.945 C 255.116 257.989 284.195 265.61 296.584 266.407 C 397.093 272.871 496.332 274.026 596.261 262.57 C 701.336 250.523 777.616 222.338 869.648 170.047 C 896.42 154.595 922.381 137.776 947.427 119.657 C 963.763 107.979 996.993 80.7987 1015.53 78.2101 z" fill="currentColor" />
<path d="M 1022.15 94.3737 C 1039.91 91.5349 1056.5 107.551 1070.01 117.524 C 1082.49 126.732 1095.15 135.689 1107.99 144.389 C 1166.84 183.927 1235.81 222.515 1302.81 245.407 C 1407.72 281.251 1517.39 289.222 1627.39 287.318 C 1683.9 286.34 1729.31 285.609 1786.31 278.57 C 1784.14 286.073 1779.46 297.274 1776.71 305.09 C 1770.31 323.255 1764.2 341.52 1758.38 359.878 C 1736.78 427.763 1714.36 507.302 1699.51 577.472 C 1687.2 636.85 1676.53 696.556 1667.52 756.523 C 1658.99 815.604 1652.35 875.274 1641.42 934.035 C 1593.41 1180.58 1490.04 1413.01 1339.12 1613.78 C 1310.24 1652.26 1280.16 1689.83 1248.92 1726.41 C 1192.15 1792.05 1129.48 1855.11 1063.12 1911.02 C 1051.61 1920.72 1043.89 1926.57 1028.74 1928.85 C 1001.28 1929.33 985.072 1910.85 965.687 1894.04 C 906.026 1841.91 850.102 1785.65 798.329 1725.68 C 645.742 1549.26 516.747 1330.83 447.976 1107.18 C 431.924 1053.72 418.9 999.398 408.965 944.471 C 402.205 907.859 397.752 872.09 392.271 835.439 C 383.914 780.044 375.018 724.732 365.585 669.511 C 349.297 579.548 327.903 490.585 301.506 403.054 C 289.446 362.46 276.141 318.399 261.099 278.707 C 318.199 285.711 380.364 286.349 437.669 286.991 C 509.776 288.634 580.906 282.138 651.733 270.237 C 766.074 251.023 871.983 194.15 964.965 126.742 C 982.546 113.997 1000.21 97.2943 1022.15 94.3737 z" fill="currentColor" />
<path d="M 1017.84 111.192 C 1036 109.866 1040.86 112.345 1054.25 125.12 C 1065.44 135.793 1078.19 146.157 1090.48 155.557 C 1134.79 189.164 1183.56 216.457 1235.37 236.653 C 1268.63 249.997 1300.84 259.944 1335.19 268.45 C 1451.71 297.294 1574.63 310.924 1694.52 302.181 C 1706.08 301.338 1733.49 296.674 1743.55 300.094 C 1744.51 301.16 1746.28 303.087 1746.31 304.462 C 1746.47 311.244 1739.85 328.297 1737.69 334.746 C 1721.29 383.962 1708 434.157 1697.9 485.037 C 1666.01 647.844 1651.72 816.513 1619.17 979.024 C 1580.48 1165.29 1506.72 1342.5 1401.81 1501.2 C 1385.01 1526.42 1367.33 1553.42 1349.66 1577.85 C 1272.87 1683.79 1185.26 1781.45 1088.24 1869.25 C 1073.93 1882.11 1047.23 1910.29 1029.42 1913.86 C 1023.87 1914.1 1017.67 1913.93 1012.44 1911.92 C 999.645 1907.02 948.777 1858.59 935.594 1846.41 C 758.885 1683.31 617.24 1485.93 519.291 1266.31 C 484.251 1187.67 456.856 1105.84 437.484 1021.95 C 418.235 940.93 406.563 852.061 394.516 769.449 C 385.794 711.491 376.457 653.627 366.507 595.867 C 357.5 543.447 347.146 485.079 335.005 433.379 C 328.713 406.268 321.428 379.397 313.164 352.82 C 310.463 344.168 296.908 309.302 299.455 302.738 C 303.017 299.713 307.206 298.737 311.94 299.061 C 387.975 304.256 467.637 307.811 543.591 300.17 C 614.102 293.254 680.485 277.276 748.313 257.803 C 804.491 241.674 850.562 225.543 901.15 194.696 C 924.495 180.686 946.836 165.068 968.011 147.955 C 980.826 137.43 1002.47 114.164 1017.84 111.192 z" fill="currentColor" />
<path d="M 1019.36 127.221 C 1024.03 126.836 1030.34 126.914 1034.06 129.795 C 1049.01 141.382 1062.49 154.439 1077.62 165.953 C 1119.84 198.3 1165.93 225.256 1214.82 246.195 C 1344.11 300.695 1500.56 320.821 1640.05 320.947 C 1663.37 320.968 1692.43 318.553 1716.19 317.253 C 1692.72 333.776 1673.48 350.985 1650.96 367.528 C 1674.77 361.276 1679.12 354.825 1698.6 340.155 C 1707.94 333.124 1716.15 327.5 1725.25 319.533 C 1717.01 346.063 1707.77 371.777 1701 398.866 C 1634 667.102 1638.88 948.481 1535.54 1207.9 C 1430.71 1471.07 1250.58 1715.02 1033.03 1895.98 C 1026.87 1898.7 1022.9 1897.46 1016.36 1896.52 C 1000.08 1880.98 979.059 1864.4 961.769 1848.93 C 930.923 1820.88 900.995 1791.85 872.032 1761.86 C 711.55 1595.56 585.964 1398.83 502.67 1183.26 C 490.764 1151.53 480.37 1122.78 470.832 1090.04 C 444.685 1000.26 430.638 912.173 417.489 819.772 C 405.3 734.536 391.649 649.515 376.543 564.748 C 361.766 481.38 347.445 397.273 318.018 317.768 C 324.707 325.168 375.283 361.809 382.234 359.368 C 380.846 353.502 334.221 321.123 326.351 316.437 C 374.8 318.674 423.395 320.849 472.232 319.984 C 584.477 317.997 696.264 293.027 802.54 258.097 C 871.401 235.464 940.97 193.409 994.906 145.487 C 1003.08 138.22 1009.1 131.773 1019.36 127.221 z" fill="currentColor" />
<path d="M 1020.18 237.081 C 1023.39 237.073 1029.21 237.9 1031.68 239.83 C 1056.59 259.284 1080.5 277.748 1107.25 294.858 C 1132.62 311.079 1159.02 325.609 1186.3 338.355 C 1309.1 395.719 1453.94 421.277 1588.99 416.543 C 1595.15 416.327 1602.35 415.944 1607.01 420.316 C 1607.75 426.754 1592.89 488.784 1590.73 499.64 C 1584.94 530.072 1579.57 560.584 1574.64 591.166 C 1563.1 667.919 1552.11 744.752 1541.64 821.658 C 1533.07 883.325 1522.95 957.417 1508.38 1017.41 C 1489.55 1094 1463.91 1168.75 1431.77 1240.78 C 1348.04 1424.19 1222.72 1583.67 1077.48 1722.28 C 1064.02 1735.14 1045.43 1756.04 1028.34 1762.38 C 1016.96 1762.19 1011.38 1760.54 1002.66 1752.83 C 990.738 1742.28 979.157 1731.46 967.662 1720.45 C 927.421 1682.01 888.82 1641.9 851.964 1600.2 C 832.276 1577.64 813.048 1554.69 794.291 1531.35 C 652.16 1354.82 557.647 1144.8 519.771 921.35 C 504.297 829.944 497.264 734.006 481.929 642.262 C 477.127 613.535 473.424 585.182 468.034 556.473 C 463.902 534.201 459.564 511.967 455.02 489.774 C 452.08 475.756 440.563 432.842 441.863 421.391 C 444.178 418.787 447.142 416.013 450.959 416.145 C 620.001 422.002 788.307 388.137 933.239 299.096 C 947.995 290.02 962.274 280.19 976.019 269.645 C 988.855 259.781 1006.52 242.805 1020.18 237.081 z" fill="currentColor" />
<path d="M 1020.55 253.733 C 1023.23 254.279 1026.5 255.147 1028.62 256.897 C 1146.75 354.413 1294.88 409.266 1446.12 426.528 C 1494.5 432.05 1540.69 432.763 1589.23 433.074 C 1584.79 453.051 1579.5 472.933 1575.69 493.072 C 1557.79 587.537 1543.47 682.654 1530.93 777.958 C 1520.24 859.3 1511.83 936.821 1492.59 1016.93 C 1474.12 1090.72 1449.18 1162.74 1418.05 1232.14 C 1343.72 1400.86 1224.11 1556.3 1093.5 1685.14 C 1080.39 1698.08 1039.98 1740.4 1024.95 1746.23 C 1013.47 1744.69 991.971 1721.82 982.885 1713.22 C 933.709 1666.84 887.134 1617.77 843.375 1566.24 C 684.432 1381.79 569.24 1150.8 533.123 909.185 C 509.338 750.07 496.956 588.056 456.619 431.424 C 653.75 439.488 869.07 384.819 1020.55 253.733 z" fill="currentColor" />
<path d="M 1023.2 329.839 C 1028.26 331.271 1038.26 339.097 1042.77 342.41 C 1077.32 368.074 1114.28 390.32 1153.13 408.834 C 1255.71 458.302 1369.67 479.398 1482.51 487.191 C 1496.78 488.177 1511.49 488.057 1525.61 490.139 C 1529.62 494.819 1523.95 518.723 1522.68 525.539 C 1519.78 540.899 1517.06 556.292 1514.52 571.716 L 1487.22 749.87 C 1472.86 842.302 1461.71 937.033 1439.11 1028 C 1426.63 1078.21 1406.65 1129.86 1386.36 1177.38 C 1363.56 1231.1 1337.34 1283.31 1307.87 1333.68 C 1235.81 1454.57 1131.88 1573.96 1026.6 1666.76 L 1024.68 1667.4 C 1018.96 1665.24 1002.31 1649.22 996.874 1644.25 C 931.384 1584.33 871.394 1518.67 817.627 1448.05 C 707.32 1304.42 622.232 1122.51 586.142 944.743 C 575.988 894.731 570.623 839.085 564.722 788.287 C 559.044 741.153 553.03 694.06 546.681 647.011 C 542.378 614.68 537.647 582.407 532.488 550.201 C 529.603 533.232 523.695 510.472 523.141 493.043 C 523.348 490.754 525.639 488.585 527.792 488.49 C 542.894 487.829 558.41 487.574 573.491 486.524 C 608.79 484.322 643.962 480.405 678.88 474.786 C 759.844 461.829 853.987 431.111 926.487 392.688 C 959.733 375.068 992.67 351.741 1023.2 329.839 z" fill="currentColor" />
<path d="M 639.596 497.386 C 640.037 497.271 642.953 497.057 643.503 497.009 L 644.982 498.559 C 646.286 502.719 646.493 505.086 645.923 509.471 C 640.539 551.045 631.701 592.085 624.897 633.452 C 617.661 677.44 611.073 721.569 602.232 765.271 C 600.708 772.807 599.396 780.589 597.378 787.996 L 597.146 788.826 L 597.999 788.39 C 601.456 782.114 603.215 770.915 605.661 763.421 C 613.794 738.498 618.966 712.473 624.657 686.846 C 631.123 658.945 636.948 630.9 642.13 602.733 C 645.609 583.494 648.243 562.646 652.073 543.982 C 653.158 555.618 658.388 594.056 656.469 603.517 C 639.647 686.48 629.862 771.099 620.65 855.202 C 618.498 874.846 605.089 956.493 610.761 969.124 L 612.107 969.123 C 617.651 961.821 619.147 941.79 621.177 932.588 C 636.154 864.684 641.163 794.367 649.767 725.246 C 653.335 696.027 657.458 666.879 662.132 637.817 L 678.45 838.688 C 680.79 868.428 684.172 901.298 684.792 930.986 C 684.961 939.061 680.47 965.448 679.102 974.393 L 668.507 1043.58 C 664.166 1072.41 660.363 1101.33 657.099 1130.31 C 648.262 1108.95 637.951 1088.12 640.925 1064.56 C 643.532 1043.91 645.715 1023.09 648.044 1002.4 C 653.35 957.339 657.941 912.195 661.817 866.986 C 662.505 859.263 668.375 810.889 664.052 807.73 C 657.056 816.528 641.496 934.112 638.893 954.762 C 635.476 981.873 631.308 1024.71 629.806 1052.4 C 623.511 1035.95 616.491 1006.69 612.095 989.293 C 591.766 908.844 584.562 825.746 575.085 743.499 C 571.964 716.419 565.809 684.086 565.014 657.242 C 564.676 645.836 569.188 616.055 570.717 603.712 C 575.127 569.875 579.302 536.009 583.243 502.114 C 592.137 501.33 601.55 500.958 610.502 500.46 C 609.512 506.072 609.014 511.968 608.394 517.653 C 600.694 588.223 589.744 659.03 584.022 729.767 C 587.255 722.517 591.076 700.942 593.034 691.774 C 605.972 631.205 617.418 561.188 621.795 499.415 C 627.678 498.969 633.726 498.115 639.596 497.386 z" fill="currentColor" />
<path d="M 1421.3 497.858 C 1426.47 497.977 1431.59 498.353 1436.72 498.958 C 1460.94 501.815 1485.24 503.825 1509.51 506.192 C 1496.96 561.69 1492.83 622.26 1481.26 678.217 C 1480.13 683.724 1471.5 699.891 1468.69 706.011 C 1459.75 725.489 1450.94 745.03 1442.27 764.631 L 1371.23 925.501 C 1365.55 938.152 1360.42 951.116 1354.58 963.598 C 1358.86 935.478 1364.52 907.612 1369.53 879.613 C 1370.03 876.803 1371.54 868.325 1372.73 865.816 C 1395.75 817.235 1421.01 770.108 1441.43 720.248 C 1447.69 704.172 1453.27 687.839 1458.15 671.291 C 1445.15 690.876 1436.48 709.855 1425.81 730.468 C 1410.19 760.428 1395.08 790.655 1380.51 821.137 C 1385.43 790.925 1389.47 757.13 1395.39 727.175 C 1397.31 717.463 1407.95 694.85 1411.99 684.516 C 1424.67 652.651 1436.81 620.574 1448.4 588.299 C 1454.17 571.898 1460.36 555.281 1464.36 538.387 C 1448.55 569.721 1434.73 599.409 1421.5 632.008 C 1414.95 648.171 1407.35 663.157 1401.52 679.786 C 1406.13 621.371 1415.33 557.325 1421.3 497.858 z" fill="currentColor" />
<path d="M 1474.46 725.756 C 1474.86 730.451 1471.18 750.662 1470.1 756.605 C 1463.43 793.14 1459.56 829.976 1454.12 866.615 C 1449.13 898.969 1443.5 931.221 1437.23 963.353 C 1434.64 976.822 1428.15 1009.21 1423.13 1024.15 C 1423.14 1024.1 1416.43 1027.26 1415.38 1028.17 C 1413.82 1029.52 1412.94 1030.72 1412.08 1032.78 C 1399.5 1063.07 1385.93 1092.51 1372.41 1122.35 C 1357.72 1154.78 1341.33 1187.13 1329 1220.48 C 1323.32 1235.83 1320.52 1250.64 1319.22 1266.89 C 1325.41 1258.99 1337.69 1227.99 1343.18 1216.5 C 1364.18 1172.49 1384 1127.33 1405.23 1083.48 C 1401.84 1097.64 1388.14 1130.24 1382 1145.18 C 1360.85 1196.69 1337.67 1249.41 1310.34 1297.92 C 1291.53 1331.32 1268.94 1365.37 1248.27 1397.6 C 1257.21 1369.54 1265.68 1343.03 1273.26 1314.45 C 1279.75 1291.08 1284.85 1267.1 1292.51 1244.1 C 1294.68 1238.98 1297.51 1233.69 1300.3 1228.92 C 1314.5 1204.7 1326.73 1179.89 1338.99 1154.65 C 1347.92 1136.66 1404.75 1011.61 1403.53 1000.35 C 1398.33 995.927 1392.18 1003.17 1390.11 1007.54 C 1370.07 1049.92 1353.21 1093.83 1332.57 1135.95 C 1326.19 1148.96 1319.51 1165.11 1311.34 1176.98 C 1314.51 1159.76 1318.44 1139.36 1323.39 1122.66 C 1326.67 1113.94 1331.04 1105.43 1334.84 1096.96 C 1360.32 1040.15 1386.47 983.562 1413.66 927.568 C 1425.04 904.121 1442.18 875.721 1450.56 851.662 C 1448.02 849.823 1444.8 848.082 1442.03 846.478 C 1403.36 915.671 1368.34 986.848 1337.13 1059.72 C 1338.59 1046.87 1343.38 1022.5 1347.24 1010.38 C 1349.61 1002.9 1358.59 985.622 1362.23 977.62 L 1400.22 894.434 C 1413.71 864.27 1426.97 834.006 1440.02 803.646 C 1450.95 778.017 1462.14 750.757 1474.46 725.756 z" fill="currentColor" />
<path d="M 687.67 966.925 C 689.439 972.216 697.451 1060.15 696.244 1066.3 C 688.738 1104.53 679.417 1139.73 676.634 1179.73 C 673.408 1173.55 666.45 1156.72 666.673 1150.27 C 667.378 1129.86 670.112 1107.15 672.271 1086.83 C 675.03 1059.62 678.212 1032.46 681.815 1005.35 C 683.178 995.071 685.218 976.386 687.67 966.925 z" fill="currentColor" />
<path d="M 699.137 1110.64 C 702.848 1120.52 703.462 1143.31 703.987 1154.67 C 705.437 1186.1 709.901 1218.05 711.713 1249.28 C 709.94 1248.76 709.311 1246.59 708.046 1244.42 C 700.471 1230.29 693.599 1215.6 686.666 1201.13 C 691.216 1168.96 690.796 1143.65 699.137 1110.64 z" fill="currentColor" />
<path d="M 548.787 503.445 L 569.228 503.067 C 568.875 509.195 567.807 515.365 567.147 521.479 C 564.131 549.415 560.121 577.621 558.381 605.656 L 557.559 606.401 C 555.953 602.694 554.086 587.218 553.41 581.919 C 550.112 556.061 544.551 530.991 539.92 505.407 C 542.239 503.37 545.482 503.679 548.787 503.445 z" fill="currentColor" />
<path d="M 1046.4 1795.84 L 1047.45 1796.87 C 1041.23 1817.36 1036.01 1837.06 1032.68 1858.21 C 1031.81 1863.74 1029.36 1886.59 1024.13 1888.03 C 1019.83 1882.72 1016.7 1851.46 1015.63 1842.89 C 1013.04 1828.55 1008.05 1809.5 1004.82 1794.71 C 1014.14 1809.15 1019.57 1825.43 1025.48 1841.45 C 1029.67 1824.72 1034.18 1808.85 1046.4 1795.84 z" fill="currentColor" />
<path d="M 1692.96 357.595 C 1693.97 357.991 1693.32 357.666 1694.68 358.953 C 1693.54 362.714 1691.81 367.985 1689.58 371.466 C 1686.95 375.579 1683.39 380.472 1680.51 384.532 C 1680.03 385.206 1680.56 389.338 1680.42 389.841 C 1678.48 396.717 1655.83 443.096 1653.11 445.643 C 1649.9 445.762 1651.41 446.12 1648.53 444.22 C 1646.74 438.492 1653.62 419.89 1655.94 413.295 C 1657.8 408.73 1661.36 402.183 1663.71 397.591 C 1659.35 399.946 1654.61 402.191 1650.15 404.403 C 1654.71 392.203 1659.92 372.122 1671.63 366.738 L 1672.38 367.743 C 1669.89 374.06 1665.53 381.938 1662.31 388.138 C 1678.75 381.64 1677.94 371.795 1692.96 357.595 z" fill="currentColor" />
<path d="M 349.805 349.819 C 358.396 352.606 365.556 373.348 371.453 379.637 C 376.976 385.527 384.935 391.787 391.178 396.999 C 383.767 385.295 377.15 375.49 373.634 362.04 C 384.919 369.378 387.726 373.019 393.744 384.45 C 401.204 397.892 405.224 406.392 410.43 420.831 C 393.793 402.904 350.216 374.753 349.805 349.819 z" fill="currentColor" />
<path d="M 1010.62 1780.89 C 1020.32 1788.26 1029.38 1786.71 1039.18 1780.3 C 1035.43 1788.42 1032.47 1794.52 1029.85 1803.13 C 1028.03 1809.64 1026.5 1814.04 1024.09 1820.37 C 1019.47 1805.14 1016.65 1795.43 1010.62 1780.89 z" fill="currentColor" />
<metadata><recraft-signature>{"signed_by": "recraft", "signature_b64": "QKb1TXNipesxYOyc3JOToFlQaDk/8A828GTRF+TCnhmJP3mQYneKWUu8/gEVIR9aCK48FUTtRI99Yuko5hu+Cg==", "signing_algo": "Ed25519", "generation_timestamp": 1772065409, "identifier": "491b4e58-b0de-4c7a-84ea-8f2e0b50d7c1"}</recraft-signature></metadata></g></svg>