<svg xmlns="http://www.w3.org/2000/svg" viewBox="0 0 24 24">
<g transform="scale(0.011719,0.011719)"><path d="M 1024.46 67.5 C 1044.67 65.971 1067.19 66.7214 1087.3 67.5353 C 1140.28 69.2842 1193.03 75.419 1245 85.8768 C 1482.94 135.181 1691.85 276.311 1826.4 478.653 C 1926.4 628.884 1980.4 805.027 1981.77 985.492 C 1981.26 1225.5 1891.32 1449.17 1729.42 1625.31 C 1678.15 1681.1 1620.92 1732.61 1557.33 1774.04 C 1346.78 1911.58 1089.76 1958.66 844.125 1904.69 C 769.8 1889.93 685.399 1857.99 618.628 1822.88 C 605.84 1816.28 593.228 1809.35 580.806 1802.09 C 569.192 1795.18 553.398 1785.07 541.535 1779.38 L 540.296 1778.79 C 516.729 1788.91 484.421 1799.25 459.636 1807.98 C 414.489 1824.22 369.198 1840.05 323.768 1855.47 L 221.326 1891.21 C 204.738 1896.98 188.063 1903.06 171.302 1908.28 C 169.064 1909.17 166.695 1908.95 164.419 1908.44 C 155.758 1906.46 155.16 1896.24 158.134 1889.43 C 160.157 1884.8 161.976 1879.72 163.587 1874.74 C 169.316 1856.84 174.868 1838.89 180.243 1820.88 L 243.427 1610.75 C 255.409 1571.12 268.047 1533.07 279.026 1492.96 C 262.47 1473.72 249.599 1451.79 236.535 1429.99 C 167.126 1312.29 126.774 1179.74 118.826 1043.34 C 105.439 798.292 191.026 558.137 356.371 376.791 C 395.334 334.056 438.192 295.042 484.39 260.255 C 645.423 137.941 823.23 78.3083 1024.46 67.5 z" fill="currentColor" />
<path d="M 1033.3 89.5299 C 1130.4 86.6139 1227.29 100.155 1319.86 129.579 C 1520.88 192.931 1693.43 324.543 1807.68 501.652 C 1825.32 528.904 1839.28 554.487 1854.23 583.164 C 1871.51 617.077 1886.39 652.166 1898.75 688.17 C 1949.86 834.926 1962.22 992.392 1934.63 1145.33 C 1928.48 1180.64 1921.23 1215.14 1910.39 1249.41 C 1850.04 1444.96 1727.14 1615.29 1560.58 1734.21 C 1530.21 1755.94 1498.39 1775.58 1465.36 1792.99 C 1247.34 1907.06 992.563 1928.5 758.549 1852.47 C 683.706 1829.1 638.647 1802.55 570.07 1767.29 C 578.147 1763.32 586.24 1761.46 594.298 1758.18 C 601.801 1754.66 615.656 1753.17 613.302 1741.62 C 611.33 1731.93 604.187 1730.86 596.241 1733.56 C 586.184 1736.98 576.024 1740.69 566.128 1744.29 L 506.622 1765.97 L 309.029 1835.55 C 274.341 1847.71 224.709 1866.76 190.468 1875.79 C 194.124 1861.63 200.189 1843.91 204.519 1829.28 L 245.561 1694.03 L 276.453 1593.48 C 283.307 1570.44 290.341 1542.79 298.279 1520.55 C 303.199 1526.72 311.572 1539.5 319.947 1540.38 C 327.009 1541.12 337.037 1532.48 331.817 1524.86 C 322.007 1510.52 310.848 1497.08 300.681 1482.83 C 281.459 1455.7 263.751 1427.53 247.638 1398.45 C 185.852 1287.1 153.758 1159.67 146.026 1033.1 C 145.701 1027.78 145.435 1022.49 145.323 1017.16 C 137.898 774.417 228.259 538.86 396.125 363.361 C 563.564 190.857 792.913 92.2924 1033.3 89.5299 z" fill="currentColor" />
<path d="M 1031.75 308.446 C 1186.04 300.606 1340.7 360.424 1464.77 449.538 C 1625.97 565.321 1744.07 749.736 1757.71 950.42 C 1769.42 1122.67 1702.41 1307.97 1587.3 1436.74 C 1457.88 1581.53 1267.32 1682.19 1072.25 1694.62 L 1070.64 1694.72 C 1030.89 1696.73 984.078 1696.59 944.87 1691.2 C 807.606 1672.35 682.611 1607.63 580.906 1515.12 C 440.715 1388.53 356.431 1211.52 346.528 1022.89 C 340.608 873.778 384.965 727.001 472.479 606.124 C 598.91 431.477 816.669 317.426 1031.75 308.446 z" fill="currentColor" />
<path d="M 1019.92 331.423 C 1039.48 328.986 1078.8 330.738 1098.84 332.339 C 1427.92 358.637 1728.96 650.636 1732.9 987.185 C 1733.1 1003.65 1731.19 1022.09 1730 1038.62 C 1720.56 1176.87 1666.85 1308.39 1576.83 1413.73 C 1456.77 1556.13 1273.62 1656.08 1087.24 1671.79 C 1048.94 1676.18 1008.1 1675.79 969.843 1672.08 C 837.189 1658.12 712.484 1602.08 613.972 1512.15 C 455.504 1369.89 362.93 1169.51 375.843 954.992 C 385.002 809.225 442.973 670.787 540.415 561.989 C 663.813 425.207 836.025 342.4 1019.92 331.423 z" fill="currentColor" />
<path d="M 898.112 765.056 C 927.697 763.883 957.792 766.704 986.996 766.935 L 1076 767.814 C 1092.99 767.834 1128.51 765.574 1143.71 769.38 C 1146.03 772.756 1150.72 779.204 1150.51 783.214 C 1149.18 808.768 1148.61 834.41 1147.92 859.993 C 1147.64 870.255 1145.7 881.673 1146.05 891.692 C 1147.38 929.492 1143.08 967.24 1141.47 1005.01 C 1140.56 1062.44 1138.57 1118.89 1133.27 1176.12 C 1131.99 1190.01 1134.52 1207.64 1133.73 1222.2 C 1131.05 1271.64 1128.32 1320.51 1129.02 1370.07 C 1150.72 1397.02 1177.49 1421.04 1197.82 1448.61 C 1210.42 1465.69 1205.41 1477.64 1184.34 1477.7 C 1162.38 1477.78 1141.16 1476.99 1119.35 1476.13 C 1095.61 1475.89 1069.73 1473.89 1046 1473.08 L 947.99 1470.15 C 932.356 1469.7 866.834 1469.38 855.356 1465.14 C 845.626 1454.6 855.76 1449.31 862.556 1441 C 885.678 1412.72 913.685 1385.55 935.674 1356.63 C 935.331 1344.79 936.245 1333.54 936.635 1321.73 L 938.786 1254.41 L 944.122 1130.95 C 944.662 1115.19 943.765 1096.36 944.433 1082.25 L 951.728 937.528 C 952.255 925.589 955.803 905.116 953.094 894.312 C 950.023 882.061 907.402 815.676 898.333 800.809 C 894.02 793.738 885.659 782.7 888.732 774.027 C 890.291 769.627 894.354 767.348 898.112 765.056 z" fill="currentColor" />
<path d="M 1039.75 474.817 C 1102.11 470.129 1156.54 516.728 1161.5 579.067 C 1166.47 641.407 1120.12 696.038 1057.8 701.287 C 995.089 706.57 940.033 659.856 935.032 597.118 C 930.032 534.381 976.993 479.535 1039.75 474.817 z" fill="currentColor" />
<path d="M 364.512 1544.79 C 375.52 1546.16 377.037 1553.97 378.974 1563.46 C 375.477 1573 374.643 1575.35 366.818 1582.3 C 354.237 1582.35 349.654 1572.7 352.167 1561.18 C 354.089 1552.37 357.015 1549.5 364.512 1544.79 z" fill="currentColor" />
<path d="M 1895.84 1464.18 C 1906.99 1464.92 1906.92 1466.6 1911.81 1475.62 C 1908.52 1486.63 1894.54 1507.79 1888.16 1518.01 C 1841.65 1592.91 1785.98 1661.72 1722.45 1722.86 C 1657.8 1785.1 1584.79 1838.04 1505.54 1880.16 C 1484.55 1891.54 1459.43 1907.51 1435.75 1906.95 L 1433.97 1907.06 C 1426.18 1902.45 1425.54 1899.88 1421.69 1891.85 C 1447.66 1876.49 1479.01 1864.64 1506.55 1849.56 C 1596.48 1801.43 1677.91 1738.87 1747.58 1664.37 C 1803.43 1604.81 1848.16 1538.03 1889.19 1468.01 C 1890.32 1466.09 1893.76 1464.87 1895.84 1464.18 z" fill="currentColor" />
<path d="M 1366.7 1905.04 C 1381.58 1904.97 1394.67 1923.86 1382.33 1938.45 C 1367.29 1938.44 1354.27 1925.16 1359.8 1909.26 C 1360.77 1906.47 1364.06 1905.92 1366.7 1905.04 z" fill="currentColor" />
<metadata><recraft-signature>{"signed_by": "recraft", "signature_b64": "qt2QhLVyyPCJd0X3RZJVUJtBJK4cCzOvyx8n4Tal3SoOfCfqgYgvsM3dR9yirqoWQAhlvoKHtyVN1r6Wh9PzCg==", "signing_algo": "Ed25519", "generation_timestamp": 1772065438, "identifier": "749c271f-decd-48e8-b33b-f823df3e9983"}</recraft-signature></metadata></g></svg>