<svg xmlns="http://www.w3.org/2000/svg" viewBox="0 0 24 24">
<g transform="scale(0.011719,0.011719)"><path d="M 1078.03 68.7553 C 1094.51 68.1858 1204.14 72.5433 1215.02 76.0902 C 1217.27 76.8247 1218.77 77.1623 1219.58 79.5783 C 1220.41 82.023 1220.13 84.4263 1219.21 86.7744 C 1212.34 104.461 1202.92 122.015 1194.71 139.178 L 1150.3 231.865 L 1048.76 443.537 C 1033.92 474.372 1018.13 504.957 1003.6 535.893 C 1035.49 531.726 1258.86 494.733 1271.8 497.796 C 1273.4 498.177 1274.99 499.8 1275.65 501.379 C 1277.36 505.489 1274.42 511.273 1272.75 515.152 C 1264.18 534.997 1253.91 554.386 1244.33 573.768 L 1193.25 677.604 C 1148.73 769.406 1104.18 864.378 1058.48 955.347 C 1077 954.226 1107.59 949.357 1126.61 946.873 L 1251 930.276 C 1267.36 927.974 1312.27 920.246 1324.93 921.675 C 1328.68 923.655 1330.57 928.718 1328.89 932.61 C 1325.14 941.303 1321.24 949.939 1317.44 958.609 C 1307.72 980.6 1297.84 1002.52 1287.8 1024.37 L 1221.99 1170.65 L 1128.85 1375.99 C 1105.79 1427.32 1082.36 1481.33 1058.11 1531.95 C 1068.24 1525.53 1079.77 1516.76 1089.83 1509.77 L 1177.73 1447.5 C 1187.38 1440.66 1197 1430.66 1207.38 1427 C 1215.54 1424.12 1220.91 1434.91 1217.67 1439.36 C 1212.8 1446.05 1201.06 1460.98 1196.32 1467.12 C 1178.38 1490.33 1160.6 1513.65 1142.97 1537.08 C 1069.55 1636.03 994.964 1734.1 919.22 1831.28 L 848.083 1922.42 C 835.407 1938.62 822.872 1955.08 809.548 1970.74 C 794.915 1987.93 791.883 1971.23 791.633 1958.23 C 791.176 1934.45 790.608 1910.69 789.744 1886.94 L 778.415 1563.25 L 773.775 1446.06 C 773.303 1434.83 768.456 1381.07 774.653 1375.33 C 777.722 1374.03 777.503 1373.93 780.759 1374.41 C 783.254 1376.06 785.658 1379.19 787.207 1381.79 C 813.429 1425.79 842.25 1467.82 870.225 1510.7 C 877.293 1496.74 884.391 1476.73 890.371 1461.8 C 903.212 1429.91 915.826 1397.92 928.211 1365.85 L 1024.88 1122.29 C 1007.24 1123.88 984.197 1128.46 965.996 1131.07 L 827.868 1151.14 C 810.649 1153.68 791.085 1157.48 773.677 1158.12 C 769.513 1158.28 766.754 1150.23 769.23 1145.74 C 773.331 1138.31 777.276 1130.16 781.026 1122.42 L 817.724 1047.71 L 926.478 825.387 C 944.029 789.418 964.714 750.605 980.571 714.291 C 896.286 724.842 810.528 739.972 726.19 750.494 C 723.613 750.815 720.588 747.289 719.271 745.359 C 718.541 741.705 718.374 741.779 719.396 738.009 C 724.333 731.424 726.808 738.011 733.681 724.963 C 741.114 710.852 748.099 696.216 755.606 682.2 C 778.941 638.915 801.979 595.471 824.719 551.871 L 993.578 228.756 C 1012.6 191.404 1031.96 154.227 1051.66 117.23 C 1056.99 107.128 1072.17 76.6565 1078.03 68.7553 z" fill="currentColor" />
<path d="M 1087.13 84.9078 C 1121.86 84.6836 1162.87 89.7561 1198.12 91.1655 C 1193.04 103.555 1184.12 120.79 1178.1 133.317 L 1142.7 207.421 L 1021.58 459.778 C 1009.23 485.393 988.011 523.854 978.782 550.906 C 978.224 552.543 980.428 554.785 981.57 556.082 C 990.695 557.471 1045.41 547.502 1058.24 545.53 L 1178.03 527.509 C 1202.01 523.88 1228.86 519.212 1252.79 516.528 C 1229.61 566.443 1202.96 618.515 1178.56 668.285 L 1094.5 841.423 C 1078.27 874.037 1062.24 906.752 1046.41 939.567 C 1042.51 947.667 1037.19 958.389 1033.57 966.866 C 1032.59 969.167 1034.44 971.193 1035.68 973.082 C 1041.62 975.776 1056.31 973.857 1062.96 972.831 C 1141.73 960.685 1223.13 954.578 1301.54 940.93 C 1237.58 1082.9 1172.21 1224.24 1105.44 1364.91 C 1084.36 1410.17 1064.55 1455.69 1043.75 1501 L 1020.86 1551 C 1016.54 1560.24 1011.97 1569.32 1008 1578.73 C 1005.85 1583.81 1006.52 1589.5 1012.57 1591.1 C 1017.36 1590.7 1022.52 1589.07 1026.49 1586.35 C 1061.77 1562.19 1095.12 1533.78 1130.65 1510.04 C 1119.5 1523.35 1107.92 1539.59 1097.49 1553.61 L 1042.19 1628.5 L 905.215 1812.49 C 874.834 1854.82 841.5 1895.26 811.98 1937.36 C 811.845 1900.36 809.723 1862.55 808.384 1825.46 L 803.675 1677.46 L 797.597 1519.02 C 796.301 1488.93 795.463 1455.45 792.727 1425.75 C 803.568 1440.51 862.428 1540.67 868.754 1542.95 C 871.04 1543.77 873.331 1543.66 875.407 1542.39 C 877.666 1541.01 879.491 1537.17 880.552 1534.87 C 884.002 1527.38 886.171 1518.91 889.17 1511.19 L 912.466 1452.03 L 1015.91 1191.95 C 1026.02 1166.56 1039.68 1134.75 1048.65 1108.4 C 1049.51 1105.88 1046.35 1102.37 1044.56 1100.52 C 1036.27 1098.23 821.736 1130.36 794.345 1133.83 C 803.664 1114.39 814.293 1094.58 823.83 1074.99 C 864.389 991.115 905.386 907.454 946.819 824.009 L 985.52 745.382 C 990.561 735.057 1002.75 711.47 1005.03 701.572 C 1004.54 698.311 1004.01 698.155 1001.88 695.646 C 995.875 692.889 916.469 706.09 903.837 707.934 L 751.296 729.533 C 782.629 665.039 822.114 594.441 856.005 530.296 L 973.286 305.03 C 1010.98 232.901 1051.15 157.777 1087.13 84.9078 z" fill="currentColor" />
<path d="M 1081.34 131.456 C 1084.51 132.656 1083.46 131.612 1084.79 134.494 C 1083.49 143.278 1053.07 197.212 1046.95 208.925 L 900.962 486.158 L 845.611 590.71 C 840.946 599.359 827.317 625.914 822.072 632.325 C 820.019 630.94 820.046 630.696 818.559 628.657 C 818.65 626.636 818.659 626.532 819.598 624.735 L 1026.06 234.881 L 1061.29 167.519 C 1065.77 158.95 1076.24 137.611 1081.34 131.456 z" fill="currentColor" />
<path d="M 807.677 1481.4 C 808.738 1481.53 811.546 1481.81 812.316 1482.77 C 826.42 1500.3 836.628 1523.08 848.7 1542.27 C 850.605 1545.3 852.137 1552.11 852.18 1554.91 L 850.748 1555.27 C 845.539 1550.53 816.953 1500.74 811.052 1491.24 C 810.589 1534.19 814.601 1578.92 816.998 1621.87 C 819.201 1666.3 820.548 1710.77 821.038 1755.25 C 821.043 1772.85 826.461 1840.92 820.504 1851.34 L 819.114 1851.35 C 816.136 1844.71 816.406 1807.88 816.056 1797.36 C 814.689 1755.75 813.554 1714.13 812.651 1672.5 C 810.882 1611.18 805.47 1550.63 804.309 1489.38 C 804.22 1484.69 804.933 1484.85 807.677 1481.4 z" fill="currentColor" />
<path d="M 1216.27 532.357 C 1220.63 531.697 1222.46 531.03 1226.55 532.215 C 1227.47 533.145 1228.32 533.429 1228.22 534.848 C 1227.77 540.933 1164.76 669.186 1160.3 672.417 C 1159.05 673.327 1159.21 672.886 1157.43 672.395 C 1156.64 669.513 1156.71 667.829 1158.09 664.944 C 1178.52 622.384 1201.61 580.568 1221.33 537.683 L 1147.74 548.181 C 1114.54 552.986 1081.39 557.006 1048.24 562.129 L 991.92 570.475 C 983.417 571.788 968.303 576.039 960.399 572.1 L 960.158 570.768 C 965.708 566.61 1031.77 558.069 1043.54 556.318 C 1101.05 547.852 1158.63 539.865 1216.27 532.357 z" fill="currentColor" />
<path d="M 1132 1262.62 C 1134.95 1264.13 1134.02 1262.98 1135.42 1265.58 C 1134.91 1275.81 1102.56 1344.73 1096.65 1358.04 C 1069.93 1418.44 1042.64 1478.57 1014.77 1538.45 C 1004.07 1561.55 987.413 1606.79 974.976 1625.25 C 972.569 1623.87 972.595 1624.07 971.349 1621.64 C 972.244 1617.29 984.707 1590.62 987.301 1584.8 L 1039.94 1468.94 L 1098.92 1337.31 L 1119.68 1289.78 C 1123.13 1281.89 1128 1269.79 1132 1262.62 z" fill="currentColor" />
<path d="M 1030.51 1617.61 C 1033.15 1618.7 1034.04 1619.06 1034.84 1621.45 C 979.641 1693.11 926.487 1770.2 872.161 1843.09 C 870.512 1842.06 869.419 1841.19 867.866 1840.02 C 867.865 1839.35 867.865 1838.69 867.865 1838.02 C 875.073 1828.56 893.634 1803.5 899.413 1795.7 L 984.827 1678.37 C 998.32 1659.89 1016 1634.24 1030.51 1617.61 z" fill="currentColor" />
<path d="M 1255.23 1000.64 C 1256.8 1001.61 1257.68 1002.38 1259.13 1003.52 C 1259.54 1007.12 1252.3 1021.97 1250.49 1026.05 C 1237.89 1053.98 1225.13 1081.85 1212.21 1109.64 C 1192.8 1152.47 1173.95 1195.55 1155.64 1238.86 C 1151.78 1237.25 1153.1 1238.52 1151.08 1235.49 C 1151.73 1225 1242.54 1026.11 1255.23 1000.64 z" fill="currentColor" />
<path d="M 1272.77 956.414 C 1276.98 955.855 1278.85 955.42 1282.15 958.59 L 1281.87 960.351 C 1277.11 963.331 1068.76 988.193 1042.75 991.554 C 1038.04 992.337 1033.61 994.382 1031.36 989.583 L 1032.31 987.704 C 1035.16 986.116 1038.32 985.077 1041.58 984.747 C 1118.75 976.939 1195.65 964.494 1272.77 956.414 z" fill="currentColor" />
<path d="M 1092.26 792.435 C 1095.89 794.245 1094.9 792.903 1096.41 795.833 C 1091.9 808.096 1083.58 823.442 1078.32 836.149 C 1059.9 880.602 1037.26 925.453 1019.53 969.852 C 1016.01 968.732 1015.78 968.91 1014.64 965.999 C 1016.61 956.704 1086.76 799.527 1092.26 792.435 z" fill="currentColor" />
<path d="M 1033.13 393.55 C 1036.44 394.496 1035.25 393.563 1037.09 396.076 C 1036.75 401.123 966.515 549.543 959.618 560.651 C 956.326 558.168 957.088 559.693 956.345 556.453 C 959.132 547.282 1027.32 400.913 1033.13 393.55 z" fill="currentColor" />
<path d="M 1059.32 1570.55 L 1060.74 1570.91 C 1063.37 1573.87 1062.96 1572.27 1063.16 1575.52 C 1058.5 1581.22 1049.01 1589.02 1043.38 1594.21 C 1026.31 1609.95 1008.13 1623.89 991.746 1640.38 C 989.083 1640.68 990.262 1641.06 988.061 1639.53 C 988.33 1630.91 1011.74 1613.87 1019.14 1607.41 C 1032.82 1595.44 1046.21 1583.14 1059.32 1570.55 z" fill="currentColor" />
<path d="M 1135.25 713.57 C 1136.78 714.39 1137.76 715.071 1139.21 716.02 C 1139.76 721.755 1123.34 755.009 1120.1 762.055 C 1116.7 760.233 1117.92 761.487 1116.05 758.447 C 1116.22 751.438 1131.26 721.028 1135.25 713.57 z" fill="currentColor" />
<metadata><recraft-signature>{"signed_by": "recraft", "signature_b64": "SHpPoZNK/5klgiBDWR3l4j5c77mwVlDPe0+zUHuW0UlmrFwIwxfXaI8rMirKXp//TBrgmp1cr703OpsMjN7wAg==", "signing_algo": "Ed25519", "generation_timestamp": 1772065336, "identifier": "5aa2e9be-ea06-4bc0-b20a-d91b829b9d8b"}</recraft-signature></metadata></g></svg>