<svg xmlns="http://www.w3.org/2000/svg" viewBox="0 0 24 24">
<g transform="scale(0.011719,0.011719)"><path d="M 1018.13 143.086 C 1030.69 142.193 1036.25 144.62 1041.52 156.093 C 1061.3 199.159 1077.06 244.265 1095.76 287.718 L 1231.68 610.205 C 1252.78 661.055 1274.72 718.35 1296.97 768.127 C 1314.53 768.774 1334.8 768.193 1352.58 768.261 L 1460.95 768.652 C 1560.96 768.068 1660.96 768.1 1760.96 768.749 L 1869.79 768.682 C 1888.22 768.73 1906.75 768.488 1925.14 769.508 C 1939.79 770.32 1951.38 781.551 1948.33 796.663 C 1947.61 800.235 1942.85 805.281 1940.49 808.172 C 1917.68 831.27 1894.62 854.18 1871.49 876.962 C 1820.24 927.178 1768.59 976.988 1716.56 1026.39 C 1636.7 1102.42 1556.1 1184.57 1474.2 1257.92 C 1476.61 1271.1 1482.11 1291.03 1485.34 1304.67 C 1494.46 1343.08 1503.79 1381.43 1513.34 1419.73 L 1591.22 1737.93 L 1614.84 1835.02 C 1618.8 1851.03 1623.82 1866.98 1626.46 1883.27 C 1627.22 1887.93 1626.39 1892.39 1624.01 1896.5 C 1617.98 1906.9 1604.99 1907.18 1595.58 1901.43 C 1566.93 1885.81 1539.43 1868.32 1511.25 1852 L 1326.42 1744.84 L 1118.8 1623.47 C 1088.94 1605.95 1056.42 1588.65 1027.58 1569.99 C 1025.77 1568.58 1023.72 1567.59 1021.53 1568.86 C 987.029 1589 952.66 1609.76 918.24 1630.07 L 599.365 1815.86 C 549.791 1844.47 501.099 1874.9 450.368 1901.54 C 445.879 1903.78 441.959 1904.89 436.998 1904.36 C 421.265 1902.66 419.6 1888.39 422.692 1875.38 C 429.583 1846.39 437.309 1817.5 444.72 1788.61 L 478.861 1651.72 L 574.363 1262.97 L 276.649 973.356 L 167.634 868.071 C 146.777 848.072 125.606 827.714 104.963 807.451 C 100.814 802.84 99.1596 801.808 98.6841 795.629 C 97.8869 785.269 107.189 769.896 118.617 769.354 C 140.089 768.337 162.588 768.885 184.37 768.964 L 312.712 769.08 L 752.081 769.327 L 919.107 365.867 C 947.164 296.345 974.557 226.427 1003.77 157.417 C 1007.28 149.124 1010.09 146.859 1018.13 143.086 z" fill="currentColor" />
<path d="M 1071.83 1160.47 C 1083.12 1161.87 1103 1167.53 1114.59 1170.56 L 1185.99 1189.14 C 1274.51 1210.48 1362.72 1233.16 1450.56 1257.17 C 1458.01 1281.42 1465.36 1317.55 1471.44 1343.24 L 1510.25 1503.73 C 1529.62 1581.18 1550.94 1657.91 1568.29 1735.84 C 1574.28 1762.72 1582.11 1787.45 1587.02 1815.2 C 1581.24 1810.5 1559.82 1781.03 1553.37 1773.09 C 1506.41 1715.31 1460.1 1657 1414.44 1598.18 L 1161.24 1274.2 L 1105.77 1203.64 C 1094.45 1189.41 1082.45 1175.17 1071.83 1160.47 z" fill="currentColor" />
<path d="M 1473.47 1532.19 C 1475.97 1532.89 1478.24 1533.01 1479.48 1535.48 C 1483.49 1543.5 1487.28 1553.61 1490.57 1561.9 L 1520.89 1639.8 C 1530.41 1664.35 1540.75 1689.11 1549.63 1713.89 C 1550.85 1717.31 1551.07 1719.08 1550.34 1722.52 C 1548.66 1722.53 1547.08 1722.45 1545.41 1722.38 C 1540.15 1717.75 1516.88 1652.74 1512.23 1640.82 L 1484.96 1571.46 C 1481.01 1561.31 1471.46 1542.3 1473.47 1532.19 z" fill="currentColor" />
<path d="M 1374.13 1285.63 C 1378.02 1285.56 1380.31 1285.27 1382.6 1288.98 C 1392.33 1304.74 1400.27 1321.63 1408.91 1338.03 C 1425.03 1368.61 1441.38 1399.19 1455.33 1430.82 C 1456.01 1432.36 1455.64 1434.54 1455.39 1436.13 C 1452.93 1436.32 1449.15 1436.59 1447.78 1434.06 C 1437.98 1416.09 1429.37 1397.02 1420.01 1378.79 C 1410.98 1361.11 1401.85 1343.48 1392.64 1325.89 C 1387.75 1316.72 1373.78 1294.41 1374.13 1285.63 z" fill="currentColor" />
<path d="M 1389.76 1463.32 L 1392.66 1464.4 C 1404.67 1478.03 1446.24 1556.76 1457.38 1576.53 C 1457.95 1577.54 1455.76 1579.83 1454.74 1581.23 C 1451.08 1580.23 1449.75 1578.38 1447.79 1575.11 C 1427.11 1540.72 1407.76 1505.35 1387.89 1470.51 C 1386.44 1467.97 1388.5 1465.48 1389.76 1463.32 z" fill="currentColor" />
<path d="M 1365.95 1356.28 C 1367.76 1356.74 1369.75 1357.41 1370.75 1359.17 C 1381.13 1377.45 1392.43 1395.27 1402.5 1413.71 C 1404.23 1416.86 1402.99 1418.55 1401.89 1421.5 C 1400.95 1421.39 1400.3 1421.36 1399.38 1421.01 C 1394.32 1419.09 1367.14 1371.34 1364.66 1364.59 C 1363.34 1360.99 1364.33 1359.45 1365.95 1356.28 z" fill="currentColor" />
<path d="M 972.012 1161.38 L 972.73 1162.51 C 971.458 1165.79 955.387 1185.58 952.232 1189.67 L 883.396 1278.63 C 806.856 1378.32 729.306 1477.24 650.756 1575.36 C 604.24 1633.3 558.43 1691.81 513.337 1750.87 C 496.503 1773.07 476.74 1797.28 461.18 1820.1 L 460.343 1818.51 C 464.442 1794.32 472.223 1772.12 478.265 1748.44 L 512.05 1610.3 L 565.793 1387.04 L 585.65 1307.33 C 588.919 1294.18 592.499 1275.96 596.823 1263.7 C 613.419 1257.36 648.411 1248.62 667.169 1243.43 L 812.914 1203.85 L 917.444 1174.58 C 932.634 1170.45 956.943 1163.25 972.012 1161.38 z" fill="currentColor" />
<path d="M 596.236 1343.36 C 597.809 1343.66 604.461 1344.97 603.767 1347.11 C 596.607 1369.23 586.216 1432.51 576.214 1450.01 C 572.176 1449.77 571.196 1449.96 568.565 1447.75 C 567.42 1437.24 591.269 1357.06 596.236 1343.36 z" fill="currentColor" />
<path d="M 560.268 1474.52 C 562.897 1474.74 569.094 1475.73 567.956 1479.48 C 563.349 1494.7 553.266 1553.31 545.211 1562.56 C 540.687 1563.02 539.735 1563.48 538.245 1559.44 C 539.414 1550.2 556.625 1481.82 560.268 1474.52 z" fill="currentColor" />
<path d="M 609.773 1290.5 L 614.052 1291.14 C 620.091 1297.65 612.824 1316.4 607.754 1322.01 C 603.774 1322.15 604.18 1322.83 601.996 1320.85 C 600.389 1313.66 607.024 1298.09 609.773 1290.5 z" fill="currentColor" />
<path d="M 534.029 1586.26 C 538.265 1587.75 536.698 1586.47 539.109 1589.94 C 540.63 1598.44 535.011 1611.63 531.468 1619.51 C 527.792 1618.8 529.2 1619.67 526.871 1617.21 C 525.269 1610.06 530.835 1592.75 534.029 1586.26 z" fill="currentColor" />
<path d="M 176.719 844.759 C 185.796 845.832 229.998 866.709 241.172 871.24 C 328.305 905.59 415.007 941.024 501.257 977.533 C 518.878 984.87 537.805 991.608 555.732 998.603 L 654.113 1037.75 C 752.141 1077.38 850.429 1118.18 950.129 1153.29 C 931.251 1160.17 895.508 1168.81 874.753 1174.61 L 594.102 1251.39 L 333.025 996.14 C 297.275 962.018 261.768 927.642 226.507 893.015 C 210.88 877.844 190.695 860.573 176.719 844.759 z" fill="currentColor" />
<path d="M 511.079 1151.65 C 520.397 1152.05 545.791 1176.45 548.481 1185.3 C 537.247 1185.18 516.951 1161.04 511.079 1151.65 z" fill="currentColor" />
<path d="M 397.051 1039.8 C 399.3 1039.81 401.004 1039.66 402.966 1041.06 C 410.096 1046.16 430.996 1063.38 432.643 1071.41 C 429.882 1071.26 426.797 1071.09 424.675 1069.23 C 418.474 1063.8 398.418 1047.32 397.051 1039.8 z" fill="currentColor" />
<path d="M 458.192 1096.66 C 466.524 1097.31 479.896 1110.52 479.322 1119.07 C 472.451 1118.78 458.25 1103.36 458.192 1096.66 z" fill="currentColor" />
<path d="M 1052.28 243.847 C 1057.11 249.516 1071.15 285.514 1074.99 294.479 L 1128.25 420.383 L 1221.06 641.235 C 1239.46 685.293 1261.61 736.295 1277.06 781.217 C 1237.19 834.869 1198.45 890.634 1158.28 944.184 C 1128.78 983.917 1099.52 1023.82 1070.47 1063.88 C 1069.65 1045.88 1069.84 1027.14 1069.19 1009 L 1061.11 768.626 C 1058.07 678.556 1052.16 588.676 1053.01 498.497 C 1053.5 447.487 1052.99 396.338 1052.9 345.313 C 1052.85 312.06 1054.05 276.89 1052.28 243.847 z" fill="currentColor" />
<path d="M 1075.79 395.478 C 1077.76 395.889 1081.95 396.659 1082.74 398.489 C 1098.16 434.375 1112.8 471.659 1126.25 508.348 C 1127.33 511.294 1127.16 514.998 1126.97 517.626 C 1125.03 517.823 1120.86 518.402 1119.95 516.417 C 1103.67 480.86 1090.21 443.246 1076.82 406.442 C 1075.71 403.396 1075.75 398.615 1075.79 395.478 z" fill="currentColor" />
<path d="M 1101.87 704.485 L 1104.73 705.356 C 1113.79 715.216 1135.63 797.567 1140.63 815.483 C 1142.11 820.781 1142.11 821.557 1139.64 825.594 L 1135.07 824.418 C 1129.46 819.328 1105.46 726.159 1099.17 711.611 C 1098.22 709.428 1100.66 706.407 1101.87 704.485 z" fill="currentColor" />
<path d="M 1163.99 597.582 C 1167.16 597.69 1170.43 597.37 1172.1 600.621 C 1185.07 625.879 1195.7 652.942 1205.81 679.456 C 1206.29 680.712 1205.65 683.191 1205.33 684.413 C 1203.61 684.651 1198.72 685.39 1198 683.407 C 1191.72 666.083 1163.61 612.329 1163.99 597.582 z" fill="currentColor" />
<path d="M 1082.8 505.336 C 1092.48 511.312 1107.44 562.172 1112.12 574.886 C 1114.25 580.684 1115.01 583.66 1111.52 588.766 C 1108.92 587.846 1109.27 587.923 1106.86 586.491 C 1102.02 577.843 1086.16 523.861 1080.25 511.611 C 1079.2 509.446 1081.41 507.197 1082.8 505.336 z" fill="currentColor" />
<path d="M 1123.31 644.568 C 1125.19 644.801 1127.91 644.919 1128.71 646.142 C 1133.29 653.115 1139.46 675.926 1138.65 682.92 C 1136.73 682.953 1134.8 682.863 1132.89 682.806 C 1128.79 679.053 1122.17 650.791 1123.31 644.568 z" fill="currentColor" />
<path d="M 1874.09 840.893 C 1874.54 840.964 1874.2 840.851 1875.3 841.664 C 1871.31 846.938 1855.7 860.724 1849.67 866.769 C 1820.92 895.599 1790.96 923.464 1761.62 951.751 L 1572.4 1135.2 C 1533.54 1172.43 1491.83 1210.03 1453.87 1247.59 C 1362.09 1221.28 1266.16 1200.42 1173.8 1175.12 C 1147.93 1168.37 1121.96 1162.03 1095.9 1156.08 C 1143.93 1138.88 1189.19 1119.63 1236.23 1101.05 L 1535.78 980.521 L 1694.88 916.665 C 1753.75 893.425 1817.26 868.74 1874.09 840.893 z" fill="currentColor" />
<path d="M 1649.59 1029.54 C 1653.27 1030.1 1654.13 1030.94 1654.83 1034.18 C 1649.3 1045.13 1567.14 1114.07 1551 1132.86 C 1547.66 1131.05 1546.1 1130.48 1545.46 1126.82 C 1549.2 1119.86 1636.98 1039.96 1649.59 1029.54 z" fill="currentColor" />
<path d="M 1533.79 1143.6 C 1536.56 1144.76 1536.62 1145.8 1537.55 1148.28 C 1536.22 1154.61 1492.61 1192.08 1486.15 1200.45 C 1484.1 1203.1 1472.42 1213.9 1469.62 1216.36 C 1465.37 1214.95 1464.76 1215.38 1464.34 1211.31 C 1469.61 1199.53 1520.87 1154.1 1533.79 1143.6 z" fill="currentColor" />
<path d="M 1567.04 1036.84 C 1569.63 1038.75 1569.43 1038.63 1570.63 1041.65 C 1568.47 1048.55 1530.09 1067.98 1521.37 1072.71 C 1518.03 1070.17 1518.94 1071.75 1517.9 1068.26 C 1520.56 1061.15 1558.46 1040.98 1567.04 1036.84 z" fill="currentColor" />
<path d="M 1432.18 1110.89 L 1434.71 1112.01 C 1436.1 1115.29 1436.04 1113.7 1435.26 1116.91 C 1429.77 1122.99 1399.79 1134.83 1390.56 1138.8 L 1387.85 1137.78 C 1386.63 1134.71 1386.73 1136.24 1387.53 1133.06 C 1393.33 1126.75 1423.04 1114.27 1432.18 1110.89 z" fill="currentColor" />
<path d="M 999.564 230.663 C 1001.14 235.16 997.881 333.738 997.574 346.576 L 983.367 820.006 L 978.988 982.017 C 978.226 1011.87 977.023 1040.17 976.893 1070.18 C 948.638 1030.98 920.959 989.397 892.43 949.514 C 867.839 914.643 842.893 880.024 817.596 845.662 C 801.568 823.597 787.761 803.857 770.92 782.02 C 790.045 739.972 809.233 687.091 827.374 642.987 L 940.291 371.652 C 960.095 323.898 976.546 276.933 999.564 230.663 z" fill="currentColor" />
<path d="M 919.269 464.667 L 920.631 466.292 C 923.61 479.459 836.776 683.243 827.425 712.217 C 825.642 717.741 824.195 719.01 819.276 721.297 C 818.034 719.285 816.363 716.793 817.05 714.473 C 821.738 698.625 828.916 680.373 834.794 665.091 C 854.975 612.738 875.463 560.271 897.451 508.657 C 901.054 500.199 913.763 468.233 919.269 464.667 z" fill="currentColor" />
<path d="M 951.717 520.219 C 954.123 520.629 958.109 521.424 957.898 524.513 C 956.925 538.748 958.035 582.941 951.478 594.124 C 947.332 592.495 947.947 593.406 945.501 590.361 C 944.599 582.089 949.113 528.298 951.717 520.219 z" fill="currentColor" />
<path d="M 943.559 677.56 C 947.791 677.657 948.161 677.179 950.787 679.402 C 953.06 686.705 948.721 733.238 946.44 740.733 C 944.788 740.767 940.39 740.746 940.265 738.425 C 939.478 723.89 939.218 690.471 943.559 677.56 z" fill="currentColor" />
<path d="M 943.25 836.408 C 944.851 836.867 949.846 838.37 949.903 840.254 C 950.31 853.74 948.463 883.428 943.944 895.416 L 940.416 894.935 C 938.507 893.259 937.4 892.135 937.294 889.111 C 936.952 879.279 938.55 842.9 943.25 836.408 z" fill="currentColor" />
<path d="M 934.515 420.289 C 936.558 421.153 935.61 420.582 937.081 422.513 C 937.872 429.579 931.932 441.921 928.331 448.111 L 926.678 447.044 C 925.636 441.748 932.274 426.198 934.515 420.289 z" fill="currentColor" />
<path d="M 1285.8 789.684 C 1478.11 792.308 1670.44 792.769 1862.75 791.067 C 1798.81 820.14 1732.39 843.848 1666.68 868.395 C 1608.78 890.026 1551.31 912.306 1493.17 933.398 C 1466.91 944.103 1437 954.525 1410.18 964.704 L 1184.76 1047.95 C 1162.73 1055.88 1140.53 1064 1118.37 1071.53 C 1110.46 1074.22 1074.56 1089.9 1070 1086.69 C 1068.58 1078.08 1090.77 1053.4 1097.07 1045.14 C 1111.94 1025.64 1126.55 1005.95 1140.92 986.078 L 1237.32 854.777 C 1253.45 832.987 1269.02 810.986 1285.8 789.684 z" fill="currentColor" />
<path d="M 1359.84 856.09 C 1362.54 857.479 1363.48 859.21 1363.96 862.091 C 1361.09 867.098 1252.81 910.756 1240.27 914.927 C 1239.1 914.826 1237.9 914.253 1236.73 913.824 C 1235.33 911.249 1235.71 912.696 1236.66 909.088 C 1242.26 902.236 1289.96 884.218 1301.5 879.554 C 1317.76 872.979 1343.39 860.767 1359.84 856.09 z" fill="currentColor" />
<path d="M 1520.9 804.4 C 1527.59 803.688 1534.42 802.52 1539.84 807.468 L 1538.69 809.319 C 1531.45 812.704 1449.47 823.555 1436.12 825.331 L 1434.28 825.618 C 1428.12 826.554 1422.11 828.457 1417.27 824.876 C 1417.06 821.468 1416.81 823.173 1418.75 819.75 C 1423.87 815.758 1507.78 805.986 1520.9 804.4 z" fill="currentColor" />
<path d="M 1368.6 821.323 C 1373.34 820.738 1381.62 819.577 1383.67 825.459 C 1377.23 832.46 1310.82 840.715 1297.53 842.904 C 1292.31 844.267 1288.37 846.153 1283.9 843.557 C 1282.59 840.005 1282.87 841.848 1283.47 837.77 C 1286.94 834.399 1357.98 823.166 1368.6 821.323 z" fill="currentColor" />
<path d="M 1511.18 822.153 C 1513.27 823.476 1512.33 822.636 1513.42 825.471 C 1510.31 830.398 1469.78 841.447 1460.05 844.942 C 1457.76 844.192 1458.79 844.795 1457.24 842.593 L 1457.8 840.235 C 1463.86 834.898 1501.43 825 1511.18 822.153 z" fill="currentColor" />
<path d="M 555.238 790.499 C 624.449 789.596 694.357 789.964 763.614 789.904 L 869.252 936.003 C 906.977 988.45 943.638 1039.11 978.61 1093.46 C 889.678 1058.41 800.386 1024.27 710.747 991.059 C 689.717 983.327 668.749 974.536 647.56 966.778 C 564.828 937.201 482.435 906.684 400.397 875.233 C 346.616 854.529 292.753 834.16 239.14 813.038 C 219.941 805.474 200.823 798.344 181.249 791.761 C 217.822 789.592 267.079 791.15 305.024 791.079 L 555.238 790.499 z" fill="currentColor" />
<path d="M 515.319 824.936 C 532.656 829.587 568.341 834.66 587.202 837.861 C 627.388 844.802 667.488 852.239 707.491 860.17 C 714.107 861.532 723.596 862.527 727.103 867.871 C 726.376 871.891 727.173 870.073 724.269 873.352 C 711.149 871.331 696.503 868.075 683.23 865.711 L 590.948 848.979 C 566.953 844.39 542.371 839.795 518.402 834.868 C 514.887 834.145 514.183 833.682 512.41 831.35 C 512.56 827.933 513.22 827.672 515.319 824.936 z" fill="currentColor" />
<path d="M 476.012 802.205 C 498.76 799.941 707.118 803.995 717.47 812.166 C 718.706 814.874 718.234 815.166 717.579 818.213 C 710.362 818.953 697.665 817.557 690.123 816.991 C 673.708 815.717 657.285 814.55 640.854 813.491 C 593.311 810.842 545.494 810.93 497.908 809.485 C 489.9 809.242 476.028 812.412 476.012 802.205 z" fill="currentColor" />
<path d="M 307.751 800.483 L 395.194 800.977 C 404.828 801.045 457.477 800.461 461.751 805.69 L 461.068 807.334 C 458.259 809.697 454.708 809.356 450.911 809.562 C 429.271 810.036 315.032 811.06 302.157 805.142 C 300.399 804.333 300.216 804.551 299.499 802.718 C 302.587 800.168 302.873 800.975 307.751 800.483 z" fill="currentColor" />
<path d="M 1019.62 1228.79 C 1020.66 1234.15 1020.27 1253.36 1020.23 1259.74 C 1020.04 1278.16 1019.96 1296.57 1019.96 1314.98 C 1020.43 1391.3 1020.43 1467.62 1019.95 1543.93 C 919.809 1603.71 819.175 1662.65 718.056 1720.75 C 685.441 1739.89 651.649 1758.28 619.374 1777.61 C 581.394 1800.35 548.41 1821.88 508.486 1841.8 C 508.826 1838.84 589.451 1744.53 598.719 1733.43 L 874.469 1399.01 L 968.152 1288.22 C 982.845 1270.99 1004.26 1244.31 1019.62 1228.79 z" fill="currentColor" />
<path d="M 981.853 1534.9 C 982.866 1535.33 985 1536.57 986.072 1537.14 C 987.892 1540.09 987.653 1538.56 986.897 1541.87 C 983.626 1545.54 979.229 1547.99 975.124 1550.7 C 924.085 1584.39 871.371 1615.43 819.616 1648.01 C 797.854 1661.71 775.433 1676.19 752.821 1688.23 C 750.449 1688.54 751.145 1688.34 748.537 1687.29 C 747.154 1683.97 748.985 1681.75 751.94 1679.89 C 761.654 1673.78 771.305 1667.66 780.91 1661.37 C 813.411 1640.42 846.16 1619.87 879.151 1599.7 C 913.27 1578.7 947.368 1554.97 981.853 1534.9 z" fill="currentColor" />
<path d="M 950.825 1471.63 L 953.38 1472.34 C 955.84 1474.98 955.13 1473.48 955.688 1476.96 C 953.997 1482.6 919.761 1508.27 913.06 1513.48 C 891.593 1530.02 870.24 1546.71 849.002 1563.54 C 845.496 1562.07 844.37 1560.8 844.082 1557.28 C 848.019 1551.02 942.778 1475.71 950.825 1471.63 z" fill="currentColor" />
<path d="M 817.522 1596.71 L 820.962 1597.33 C 823.85 1599.77 823.093 1598.3 823.804 1601.57 C 821.6 1608.98 760.346 1657.34 750.027 1665.19 L 747.991 1665.89 L 745.87 1664.54 C 744.245 1660.89 744.713 1658.19 748.072 1655.53 C 770.615 1637.64 794.027 1612.75 817.522 1596.71 z" fill="currentColor" />
<path d="M 1031.36 1233.64 C 1038.23 1238.7 1048.29 1252.45 1054.58 1259.61 C 1221.41 1449.5 1374.02 1654.51 1542.02 1843.07 C 1536.56 1841.3 1518.28 1830.71 1512.76 1827.6 C 1486.6 1812.81 1460.67 1797.6 1435 1781.97 L 1260.08 1679.69 L 1094.31 1583.19 C 1078.16 1573.59 1043.25 1554.78 1030.15 1544.16 C 1029.88 1531.87 1030.33 1518.69 1030.6 1506.32 C 1032.56 1415.61 1029.27 1324.27 1031.36 1233.64 z" fill="currentColor" />
<path d="M 1183.52 1606.46 C 1191.73 1607.35 1219.39 1623.18 1224.35 1629.73 C 1224.85 1633.76 1224.99 1631.74 1223.18 1635.94 C 1212.53 1632.61 1188.94 1620.62 1181.89 1611.62 C 1181.16 1610.69 1183.01 1607.59 1183.52 1606.46 z" fill="currentColor" />
<path d="M 1112.47 1564.57 C 1120.69 1566.6 1145.63 1580.4 1151.73 1587.71 C 1153.57 1589.92 1152.32 1591.99 1151.54 1594.62 C 1143.65 1593.53 1118.94 1577.86 1112.28 1571.25 C 1110.45 1569.44 1111.75 1566.92 1112.47 1564.57 z" fill="currentColor" />
<path d="M 1057.42 1531.62 C 1064.11 1533.44 1082.98 1544.1 1087.47 1550.41 C 1088.36 1551.66 1087.44 1553.44 1086.96 1555.48 C 1078.01 1557.09 1065.25 1547.11 1059.39 1540.89 C 1056.3 1537.61 1057.08 1535.7 1057.42 1531.62 z" fill="currentColor" />
<path d="M 1261.84 1650.81 C 1269.15 1653.18 1284.27 1661.34 1288.84 1668.2 C 1290.48 1670.65 1289.21 1672.15 1288.2 1674.72 C 1279.85 1672.48 1266.06 1664.29 1260.37 1657.23 C 1259.55 1653.5 1259.57 1654.96 1261.84 1650.81 z" fill="currentColor" />
<path d="M 1015.32 190.673 C 1017.51 199.743 1014.89 253.673 1014.74 266.469 L 1013.32 466.135 C 1011.95 684.331 1011.83 902.533 1012.97 1120.73 C 1009.33 1116.23 1005.1 1111.49 1001.29 1107.07 C 995.685 1100.79 989.784 1093.03 984.473 1086.38 C 986.394 1067.86 986.093 1029.09 986.693 1008.5 L 991.368 861.858 L 1003.99 399.455 L 1007.8 261.208 C 1008.36 243.278 1008.22 224.613 1009.31 206.696 C 1009.62 201.637 1012.98 195.345 1015.32 190.673 z" fill="currentColor" />
<path d="M 1029.29 1172.63 C 1034.25 1176.82 1058.98 1209.16 1064.51 1216.02 C 1105.93 1267.34 1146.12 1320.32 1187.19 1371.91 L 1300.4 1514.26 C 1312.94 1530.17 1325.08 1546.42 1337.57 1562.39 C 1416.95 1663.82 1499.01 1763.37 1582.74 1861.19 C 1588.01 1867.35 1594.7 1872.8 1600.15 1879.22 L 1600.81 1880.01 C 1578.53 1873.12 1561.1 1849.33 1546.24 1832.47 C 1524.8 1808.26 1503.75 1783.72 1483.08 1758.85 C 1421.39 1686.37 1360.65 1613.08 1300.87 1539 L 1131.9 1335.14 C 1098.97 1296.04 1060.14 1252.71 1029.04 1213.12 C 1028.84 1199.62 1028.92 1186.12 1029.29 1172.63 z" fill="currentColor" />
<path d="M 1017.8 1169.9 C 1019.61 1173.27 1019.23 1205.96 1019.25 1211.94 C 1005.38 1230.45 979.56 1259.07 963.674 1277.41 L 891.458 1362.07 C 845.823 1414.97 799.915 1472.36 755.067 1526.69 C 691.225 1605.59 626.563 1683.82 561.092 1761.38 L 509.228 1822.39 C 492.326 1842.43 477.855 1860.53 459.22 1879.02 C 454.164 1871.17 460.772 1866.92 465.546 1860.52 C 469.851 1854.74 474.966 1848.93 479.564 1843.3 L 642.71 1647.14 C 717.165 1555.55 790.649 1463.16 863.149 1370.01 C 899.923 1323.56 936.211 1276.72 972.007 1229.51 C 987.204 1209.66 1003.5 1190.29 1017.8 1169.9 z" fill="currentColor" />
<path d="M 1915.02 806.022 L 1916.67 805.913 L 1917.07 807.269 C 1903.64 824.619 1581.6 950.941 1535.18 969.539 L 1210.55 1100.32 C 1168.16 1117.17 1122.02 1133.61 1080.71 1151.77 C 1075.66 1150.73 1068.92 1148.68 1063.79 1147.26 L 1052.28 1143.11 C 1067.43 1136.87 1085.73 1130.63 1101.33 1124.79 L 1224.02 1079.09 L 1520.57 964.02 C 1607.96 929.893 1695.52 892.924 1782.87 858.503 C 1827.28 841.003 1869.91 822.349 1915.02 806.022 z" fill="currentColor" />
<path d="M 137.052 808.866 C 154.474 813.327 193.072 830.597 211.322 837.718 L 370.029 899.781 L 817.824 1076.19 C 838.569 1084.23 985.67 1138.96 992.234 1145.73 L 990.786 1146.82 C 984.859 1148.37 978.036 1149.72 971.989 1151.05 C 777.037 1075.82 582.883 998.538 389.557 919.22 C 346.102 901.66 302.75 883.845 259.503 865.777 L 191.832 837.976 C 169.328 828.634 155.781 824.758 137.052 808.866 z" fill="currentColor" />
<path d="M 1033.96 191.472 C 1045.01 215.132 1043.23 217.613 1043.59 243.408 L 1044.38 294.959 C 1045.19 356.52 1045.37 418.087 1044.91 479.651 C 1044.53 509.807 1042.83 541.48 1042.96 571.301 C 1042.75 578.402 1041.84 589.51 1042.07 596.019 L 1040.01 596.838 C 1040.28 578.36 1040 559.496 1040.12 540.952 L 1033.96 191.472 z" fill="currentColor" />
<path d="M 1040.12 540.952 C 1041.46 549.125 1040.55 568.206 1041.87 572.117 L 1042.96 571.301 C 1042.75 578.402 1041.84 589.51 1042.07 596.019 L 1040.01 596.838 C 1040.28 578.36 1040 559.496 1040.12 540.952 z" fill="currentColor" />
<path d="M 1042.07 596.019 C 1042.05 600.279 1040.92 608.681 1040.41 613.262 C 1040.09 607.743 1040.07 602.36 1040.01 596.838 L 1042.07 596.019 z" fill="currentColor" />
<metadata><recraft-signature>{"signed_by": "recraft", "signature_b64": "BJ/UEpwco914v2CAz8Dl1y4EKr8xJlmEKgXiscHis7hgW0q+Ihp+uRYFKXEcx820oKG5f30tfozJKceYUPzFBQ==", "signing_algo": "Ed25519", "generation_timestamp": 1772065365, "identifier": "ce546909-34d9-4e8b-b00d-6a20afff91a3"}</recraft-signature></metadata></g></svg>