<svg xmlns="http://www.w3.org/2000/svg" viewBox="0 0 24 24">
<g transform="scale(0.011719,0.011719)"><path d="M 1029.14 401.33 C 1030.12 401.225 1031.09 401.129 1032.07 401.045 C 1082.27 396.743 1108.6 416.09 1135.34 456.937 C 1150.47 480.036 1163.47 503.544 1177.24 527.406 C 1192.2 553.332 1207.46 579.08 1223.03 604.644 C 1299.48 730.654 1374.89 857.293 1449.25 984.55 L 1627.36 1285.44 L 1676.25 1369.02 C 1694.35 1399.64 1712.39 1430.41 1729.07 1461.85 C 1745.56 1492.92 1746.65 1532.44 1714.85 1554.38 C 1687.09 1573.06 1646.8 1593 1612.97 1597.49 C 1546.17 1606.36 1473.69 1606.44 1406.41 1609.42 L 1002.91 1628.88 C 986.674 1629.04 967.642 1630.41 951.145 1631.14 L 862.294 1634.75 C 761.287 1639.13 660.256 1642.93 559.205 1646.15 C 521.972 1647.42 484.72 1648.06 447.466 1648.07 C 425.995 1648.05 404.657 1648.31 384.219 1645.92 C 310.668 1637.3 291.414 1586.74 324.271 1524.01 C 328.947 1515.09 336.529 1502.69 341.055 1493.84 C 367.183 1442.8 399.54 1396.02 428.749 1346.85 C 442 1324.39 453.582 1300.23 466.468 1277.41 L 598.48 1048.4 C 642.663 972.986 689.378 899.32 734.41 824.515 C 796.338 721.647 854.24 615.969 915.818 512.827 C 930.895 487.572 947.404 463.456 964.621 439.627 C 981.071 416.858 1001.63 405.422 1029.14 401.33 z" fill="currentColor" />
<path d="M 1050.48 421.239 C 1107.33 416.881 1119.8 464.903 1144.81 505.122 C 1154.94 521.418 1164.88 537.907 1174.92 554.258 C 1246.46 671.029 1316.89 788.469 1386.23 906.562 L 1552.18 1196.54 C 1586.78 1255.08 1621.07 1313.8 1655.06 1372.69 C 1674.9 1406.35 1695.6 1438.64 1713.9 1473.27 C 1736.62 1516.27 1722.86 1541.8 1674.87 1549.57 C 1637.15 1555.69 1600.51 1557.53 1562.39 1559.57 L 1424.07 1566.4 L 1027.77 1586.18 C 1005.96 1587.9 982.024 1588.29 959.945 1589.31 C 916.11 1591.5 872.262 1593.43 828.403 1595.09 C 758.021 1597.82 688.414 1601.88 617.821 1604.07 C 582.225 1605.16 546.643 1606.63 511.079 1608.49 C 475.946 1610.21 450.79 1613.64 415.558 1606.26 C 358.542 1594.32 381.43 1552.67 399.078 1517.25 C 413.252 1488.81 429.305 1461.62 444.414 1434.1 C 478.431 1371.43 513.406 1309.29 549.328 1247.69 L 793.942 823.61 C 808.06 799.075 821.668 772.573 835.379 747.618 L 937.702 563.065 C 956.884 529.16 975.778 493.467 997.37 460.908 C 1010.9 440.508 1025.91 425.677 1050.48 421.239 z" fill="currentColor" />
<path d="M 1062.01 543.381 C 1116.38 545.477 1130.41 593.632 1154.24 633.13 C 1194.85 699.36 1234.42 766.225 1272.92 833.7 C 1359.67 980.878 1444.5 1129.18 1527.37 1278.58 L 1597.05 1403.95 C 1606.4 1421.1 1617.63 1437.72 1624.12 1456.28 C 1626.79 1463.92 1624.13 1474.28 1618.51 1480.14 C 1610.5 1488.49 1597.39 1490.81 1586.43 1492.59 C 1559.52 1496.32 1532.19 1497.34 1505.11 1498.63 L 1391.03 1503.79 L 1018.75 1522.12 L 661.877 1538.67 C 613.877 1540.65 565.117 1545.41 517.079 1544.24 C 508.164 1544.03 490.882 1543.7 483.488 1538.24 C 480.574 1536.08 478.504 1532.27 478.099 1528.71 C 476.374 1513.48 511.472 1458.45 521.584 1443.4 C 527.768 1434.2 535.296 1425.4 540.779 1415.8 C 546.217 1406.28 549.649 1395.29 554.649 1385.46 C 564.019 1367.03 574.893 1349.26 584.683 1331.03 C 601.692 1299.35 619.917 1268.44 637.383 1237.02 L 824.419 900.8 C 871.026 813.282 919.308 726.666 969.237 641 C 976.911 627.881 984.848 614.474 992.163 601.404 C 1002.7 582.583 1009.29 564.872 1029.14 554 C 1041 547.509 1048.54 544.722 1062.01 543.381 z" fill="currentColor" />
<path d="M 1035.39 565.004 C 1052.83 564.898 1069.74 573.871 1079.44 588.386 C 1111.39 636.181 1140.04 686.104 1169.25 735.6 L 1334.31 1019.59 L 1506.17 1313.85 C 1524.52 1345.38 1542.48 1377.13 1560.06 1409.09 C 1565.85 1419.42 1593.51 1464.35 1590.03 1472.36 C 1577.7 1480.11 1510.19 1482.45 1491.85 1483.56 L 1382.19 1490.13 C 1262.1 1496.93 1141.95 1502.57 1021.75 1507.04 C 980.614 1507.82 933.518 1511.1 892.033 1513.11 L 587.115 1527.92 C 558.697 1529.07 526.784 1531.97 499.072 1529.93 C 484.029 1528.82 494.663 1500.16 502.874 1494.71 C 505.624 1492.88 519.097 1475.25 520.647 1471.74 C 533.981 1441.51 547.504 1414.66 567.686 1388.22 C 574.288 1379.26 583.311 1359.61 589.293 1349.01 C 604.315 1322.39 619.546 1295.88 634.984 1269.49 C 734.032 1093.63 831.715 916.997 928.023 739.618 C 948.549 700.949 969.71 662.621 991.498 624.649 C 1000.08 609.347 1008.44 593.721 1017.87 578.932 C 1022.78 571.24 1027.01 568.472 1035.39 565.004 z" fill="currentColor" />
<path d="M 1032.17 805.362 C 1064.52 800.752 1092.04 813.169 1093.89 848.977 C 1094.67 864.074 1092.53 881.708 1091.5 896.983 L 1084.14 997.669 C 1079.85 1062.75 1078.83 1128.29 1072.72 1193.32 C 1070.33 1218.73 1066.94 1230.04 1038.47 1226.44 C 1020.61 1219.25 1016.12 1206.26 1013.3 1188.14 C 1010.29 1168.8 1011 1149.16 1007.77 1129.62 C 996.198 1059.69 987.374 989.218 980.066 918.725 C 978.258 896.095 973.782 873.718 973.322 850.997 C 972.545 812.613 1002.97 809.548 1032.17 805.362 z" fill="currentColor" />
<path d="M 1011.46 820.35 L 1012.54 820.76 L 1009.97 823.467 C 991.151 843.258 1004.89 868.974 1006.37 893.491 C 1010.44 960.807 1021.71 1027.07 1028.14 1094.16 C 1031.15 1125.63 1038.98 1156.27 1037.59 1188.5 C 1037.3 1195.56 1041.44 1202.86 1039.96 1211.41 L 1038.26 1212.3 L 1034.09 1210.49 C 1029.62 1201.97 1025.96 1175.01 1024.14 1163.83 C 1018.65 1130.17 1013.14 1095.12 1009.35 1061.22 C 1004.9 1021.54 1002.99 981.179 998.78 941.426 C 996.524 920.113 992.363 899.228 989.103 877.971 C 987.076 864.747 983.759 840.474 992.394 828.803 C 997.017 822.554 1004.39 821.406 1011.46 820.35 z" fill="currentColor" />
<path d="M 1039.62 1283.42 C 1057.14 1282.98 1089 1281.9 1103.78 1293.25 C 1116.04 1304.31 1122.25 1330.71 1123.7 1346.39 C 1126.9 1381.09 1099.74 1399.03 1069.86 1402.03 C 1045.49 1402.28 982.804 1395.64 982.46 1361.34 C 981.998 1315.22 987.465 1287.54 1039.62 1283.42 z" fill="currentColor" />
<path d="M 1015.97 1297.99 C 1017.59 1299.82 1012.86 1307.99 1012.75 1313.55 C 1012.28 1336.02 1015.36 1358.26 1019.04 1380.4 C 1014.13 1379.2 1009.86 1377.66 1005.09 1376.04 C 996.735 1370.67 993.653 1362.37 992.786 1352.74 C 990.791 1330.59 997.784 1311.17 1015.97 1297.99 z" fill="currentColor" />
<path d="M 1073.93 558.409 C 1109.41 571.173 1112.53 585.277 1130.45 616.471 C 1140.32 633.367 1150.09 650.315 1159.77 667.315 L 1240.08 806.794 C 1331.78 964.466 1421.27 1123.41 1508.52 1283.59 L 1506.69 1284.44 L 1336.82 991.666 C 1282.86 897.591 1230.13 801.691 1172.6 709.792 C 1145.49 666.488 1109.37 592.72 1073.93 558.409 z" fill="currentColor" />
<path d="M 1508.52 1283.59 C 1513.63 1291.37 1517.27 1298.24 1521.16 1306.72 C 1516.37 1301.21 1510.5 1290.95 1506.69 1284.44 L 1508.52 1283.59 z" fill="currentColor" />
<path d="M 1021.85 417.136 L 1022.66 418.204 C 1003.56 433.717 994.954 442.948 981.832 464.021 C 967.057 487.751 953.633 511.643 939.881 535.933 L 899.621 606.108 L 743.969 878.015 L 484.456 1328.02 C 464.84 1362.73 444.185 1397.1 424.28 1431.59 C 413.237 1451.88 401.878 1474.05 391.4 1494.32 C 368.619 1538.38 336.164 1604.4 410.794 1618.3 C 424.976 1620.94 437.321 1621.82 451.628 1622.68 C 516.297 1626.57 579.538 1621.55 644.043 1618.05 L 885.358 1604.27 C 1012.27 1597.26 1142.61 1595.12 1269.99 1589.64 L 1543.52 1579.35 C 1562.75 1578.61 1581.97 1577.54 1601.17 1576.13 C 1613.39 1575.19 1628.38 1573.42 1640.24 1573.2 L 1641.53 1573.19 C 1631.6 1576.26 1616.54 1578.52 1606.24 1579.73 C 1597.1 1581.11 1587.64 1581.7 1578.43 1582.56 C 1399.97 1599.21 1221.41 1598.28 1042.65 1607.9 C 972.217 1611.69 901.708 1617.97 831.287 1621.84 C 790.766 1624.07 749.58 1624.09 708.959 1624.96 L 580.399 1628.66 C 524.748 1630.27 469.248 1634.58 413.499 1633.98 C 382.287 1633.64 341.236 1625.68 329.714 1591.87 C 321.423 1567.55 335.593 1539.37 346.626 1518.15 C 366.744 1479.45 387.876 1441.14 409.473 1403.23 C 421.909 1381.29 433.158 1358.39 446.073 1336.58 C 469.486 1297.03 494.398 1258.9 518.022 1219.36 L 691.004 926.784 L 848.423 662.049 L 914.675 549.672 C 937.527 510.911 978.695 430.689 1021.85 417.136 z" fill="currentColor" />
<metadata><recraft-signature>{"signed_by": "recraft", "signature_b64": "CzGG9pzdB+/+61N66pmiFeuGFn34mn14McV2r6oeBXoFaQEF4pwHniohfgu2KS1ltLylfdKF1ZhXIrosJ/3pDw==", "signing_algo": "Ed25519", "generation_timestamp": 1772065449, "identifier": "c2a7815b-e260-4496-b9e3-282398443844"}</recraft-signature></metadata></g></svg>