<svg xmlns="http://www.w3.org/2000/svg" viewBox="0 0 24 24">
<g transform="scale(0.011719,0.011719)"><path d="M 973.556 98.3466 C 997.183 97.3598 1029.71 98.397 1054.04 98.2561 L 1269.44 98.1168 L 1399.83 97.8852 C 1421.66 97.826 1444.24 97.3392 1465.97 98.1232 C 1482.5 98.7198 1505.5 108.696 1508.93 126.47 C 1512.12 143.002 1501.9 155.378 1493.4 168.325 C 1485.38 180.427 1476.85 192.299 1468.48 204.138 C 1450.89 228.845 1433.63 253.776 1416.68 278.926 C 1611.5 404.51 1727.63 608.41 1742.33 838.755 C 1752.91 1030.39 1688.06 1218.56 1561.66 1362.98 C 1424.3 1518.53 1249.86 1602.79 1042.47 1615.54 C 1031.41 1630 1017.6 1652.52 1006.39 1668.52 C 981.483 1704.06 953.431 1742.39 929.777 1778.48 C 905.263 1815.65 880.269 1852.5 854.801 1889.03 C 843.453 1905.57 827.43 1932.28 813.689 1945.74 C 796.066 1963.01 737.161 1956.2 736.382 1924.6 C 736.192 1916.9 739.857 1899.24 741.296 1890.91 C 744.699 1871.81 747.872 1852.66 750.815 1833.49 L 775.408 1673.13 C 779.562 1645.51 782.628 1617.68 787.265 1590 C 725.079 1570.39 646.087 1525.99 594.25 1487.13 C 432.282 1366.99 325.872 1186.37 299.287 986.471 C 272.346 795.43 322.23 601.5 438.009 447.17 C 507.06 355.644 599.184 278.671 703.74 230.467 C 717.869 223.954 743.239 213.012 757.648 207.803 C 777.822 200.51 787.844 200.135 806.998 190.073 C 834.755 175.493 952.872 101.239 973.556 98.3466 z" fill="currentColor" />
<path d="M 975.321 114.404 C 992.618 113.294 1025.2 114.574 1043.49 114.618 L 1187.5 114.813 L 1379.88 114.142 C 1405.3 114.16 1430.93 113.901 1456.33 114.263 C 1465.54 114.88 1474.49 114.56 1482.9 119.027 C 1503.09 129.752 1489.18 143.491 1480.86 156.428 C 1466.2 179.216 1450.91 201.199 1435.6 223.44 C 1418.17 248.753 1399.55 272.962 1381.79 297.982 C 1312.66 393.959 1244.47 490.611 1177.23 587.925 C 1168.29 600.747 1144.25 631.546 1138.24 642.759 L 1137.61 643.967 C 1153.76 645.106 1179.31 644.238 1196.53 644.515 L 1351.09 646.365 C 1364.84 646.571 1406.11 646.093 1416.91 648.897 L 1417.74 650.563 C 1416.67 658.525 1192.68 990.247 1165.77 1030.43 C 1153.77 1048.01 1141.62 1065.48 1129.32 1082.86 C 1124.58 1089.7 1109.28 1108.36 1112.45 1115.55 C 1123.02 1121.99 1313.72 1115.95 1337.35 1117.39 C 1342.21 1117.69 1346.97 1116.91 1352.94 1118.88 L 1353.73 1120.6 C 1350.83 1128.47 1312.22 1183.47 1304.83 1194.66 L 1172 1394.55 C 1151.78 1424.51 1129.65 1454.24 1110.06 1484.5 C 1084.89 1524.08 1061.36 1556.62 1035.42 1594.68 L 927.478 1752.92 C 897.719 1795.84 862.952 1845.31 835.451 1889.58 C 841.831 1858.54 857.038 1814.86 866.134 1783.54 L 965.497 1438 L 1002.11 1316.04 C 1005.96 1303.42 1027.21 1238.76 1025.31 1230.06 C 1012.25 1225.47 874.161 1227.44 851.318 1227.11 C 854.703 1212.79 860.119 1196.62 864.358 1182.28 L 893.368 1087.36 C 917.541 1010.59 939.375 933.037 964.966 856.631 C 969.113 844.252 995.388 774.477 992.231 766.347 C 989.272 764.241 980.618 762.967 976.835 763.124 C 919.33 765.523 860.35 762.38 803.025 765.076 C 811.773 725.138 822.479 686.628 832.59 647.058 L 903.495 378.461 L 954.902 188.884 C 961.723 164.464 967.33 138.341 975.321 114.404 z" fill="currentColor" />
<path d="M 1380.43 242.28 C 1388.9 244.689 1382.84 254.343 1379.54 259.012 C 1362.42 283.233 1345.65 307.732 1328.82 332.161 L 1217.83 493.716 L 1145.92 599.468 C 1134.2 616.439 1119.87 638.286 1106.85 653.83 C 1104.29 652.512 1103.61 652.567 1102.14 650.213 C 1103.33 641.781 1180.62 532.383 1189.78 519.012 L 1312.02 340.031 C 1325.58 320.362 1339.01 300.61 1352.33 280.776 C 1358.12 272.202 1373.33 248.488 1380.43 242.28 z" fill="currentColor" />
<path d="M 1261.2 833.697 L 1263.22 834.353 C 1263.98 835.808 1264.03 836.853 1263.81 838.444 C 1260.66 861.277 1167.02 990.57 1148.34 1018.43 C 1133.94 1039.92 1092.63 1111.53 1076.69 1123.3 C 1074.71 1122.76 1075.62 1123.29 1074.1 1121.49 C 1074.34 1115.45 1078.23 1111.33 1081.3 1106.53 C 1118.51 1048.33 1157.27 990.602 1194.98 932.817 L 1238 867.002 C 1244.38 857.353 1254 841.698 1261.2 833.697 z" fill="currentColor" />
<path d="M 1055.83 136.458 C 1070.26 136.064 1154.37 134.032 1162.7 137.998 L 1162.22 139.045 L 1162.67 138.113 C 1153.03 144.643 1046.82 142.149 1025.25 143.799 C 1018.87 155.206 1011.27 174.813 1005.99 187.402 C 999.653 202.14 981.524 251.046 973.928 260.143 L 972.342 260.262 C 972.312 259.968 972.259 259.675 972.25 259.38 C 971.98 250.997 1014.43 145.795 1020.14 140.262 C 1025.94 134.645 1047.98 136.624 1055.83 136.458 z" fill="currentColor" />
<path d="M 1168.95 662.444 C 1186.81 661.386 1315.47 659.845 1323.47 667.641 L 1322.37 668.893 C 1312.38 672.134 1290.01 671.115 1278.34 671.046 L 1197.37 670.232 C 1172.15 670.038 1142.24 671.574 1118.25 665.222 C 1134.59 663.097 1152.42 662.906 1168.95 662.444 z" fill="currentColor" />
<path d="M 1275.95 1143.5 C 1283.47 1143.21 1298.28 1143.62 1303.21 1150.44 L 1302.26 1151.84 C 1292.04 1155.15 1184.08 1152.01 1164.58 1151.79 C 1158.75 1151.55 1140.99 1151.54 1137.15 1148.1 C 1145.91 1143.04 1258.37 1143.83 1275.95 1143.5 z" fill="currentColor" />
<path d="M 1045.88 1534.83 C 1047.24 1536.28 1046.65 1535.49 1046.99 1537.98 C 1040.15 1556.69 968.286 1663.11 954.316 1680.18 C 952.032 1675.38 957.7 1663.35 960.547 1659.79 C 977.295 1638.88 1028.59 1545.97 1045.88 1534.83 z" fill="currentColor" />
<path d="M 1414.63 131.448 C 1421.98 131.233 1454.01 128.799 1458.35 133.889 L 1457.49 135.716 C 1450.84 139.557 1318.44 139.087 1300.75 139.031 C 1291.4 139.009 1265.13 139.788 1257.92 135.652 L 1258.68 134.524 C 1267.37 131.405 1347.57 132.908 1361.25 132.83 C 1379.05 132.675 1396.85 132.214 1414.63 131.448 z" fill="currentColor" />
<path d="M 1142.37 1390.6 L 1144.58 1392.29 C 1146.16 1399.25 1131.15 1420.84 1126.85 1426.57 C 1116.82 1439.93 1085.05 1499.07 1070.68 1503.96 C 1069.66 1502.89 1067.91 1501.6 1068.47 1500.79 C 1088.74 1471.02 1107.42 1438.9 1127.43 1409.01 C 1132.67 1401.18 1137.56 1394.72 1142.37 1390.6 z" fill="currentColor" />
<path d="M 1241.11 1240.51 C 1242.57 1241.02 1241.89 1240.59 1243.05 1241.96 C 1236.64 1256.46 1203.95 1311.71 1193.74 1321.76 L 1192.72 1321.72 C 1191.96 1313.77 1226.84 1257.19 1233.13 1247.73 C 1234.82 1245.18 1238.49 1242.28 1241.11 1240.51 z" fill="currentColor" />
<path d="M 1341.53 713.845 L 1342.47 715.647 C 1340.44 726.85 1312.46 763.443 1303.84 772.377 L 1302.08 770.463 C 1301.44 759.492 1332.18 720.831 1341.53 713.845 z" fill="currentColor" />
<path d="M 1361.37 667.298 C 1367.76 666.884 1372.3 665.257 1376.81 670.161 C 1377.74 676.972 1371.11 685.649 1364.72 687.142 C 1364.7 680.257 1367.75 676.645 1371.42 670.902 C 1369.36 671.113 1367.29 671.301 1365.23 671.466 C 1361.73 671.738 1355.25 672.157 1352.63 669.9 C 1355.96 667.688 1357.25 667.847 1361.37 667.298 z" fill="currentColor" />
<path d="M 1436.41 174.703 L 1437.96 176.999 C 1438.07 182.37 1432.29 187.915 1428.73 192.045 L 1427.13 189.894 C 1427.44 184.107 1432.63 179.044 1436.41 174.703 z" fill="currentColor" />
<path d="M 1297.4 1161.72 C 1301.15 1166.69 1296.64 1170.04 1292.78 1173.07 C 1292.24 1172.45 1291.54 1171.2 1291.08 1170.45 C 1291.7 1166.82 1294.73 1164.46 1297.4 1161.72 z" fill="currentColor" />
<path d="M 1407.19 291.598 C 1427.97 304.138 1452.42 322.399 1471.24 337.749 C 1636.18 472.254 1731.59 674.782 1728.34 887.832 C 1725.99 1019.6 1687.96 1148.27 1618.28 1260.14 C 1602.95 1285.04 1587.48 1308.27 1568.98 1331.05 C 1447.38 1482.4 1270.08 1578.58 1076.89 1597.96 C 1070.21 1599.04 1059.9 1599.61 1052.92 1600.2 C 1056.82 1593.3 1065.72 1581 1070.37 1574.13 C 1079.81 1560.17 1089.66 1545.37 1099.56 1531.79 C 1111.93 1528.84 1125.94 1527.46 1138.06 1524.53 C 1163.94 1518.26 1193.37 1511.58 1218.49 1503.27 C 1328.59 1465.71 1426.92 1399.92 1503.67 1312.49 C 1631.27 1167.17 1689.62 968.965 1654.1 778.528 C 1630.31 650.944 1569.37 534.672 1480.37 440.301 C 1447.23 405.162 1406.34 374.453 1366.94 346.948 C 1380.09 328.305 1394.02 310.267 1407.19 291.598 z" fill="currentColor" />
<path d="M 796.593 212.075 L 798.285 212.577 C 798.12 216.552 794.746 228.94 793.707 233.463 C 789.126 253.412 783.378 272.879 778.64 292.826 C 765.706 297.784 752.932 303.151 740.339 308.92 C 584.097 380.908 463.432 512.788 405.577 674.797 C 344.511 840.86 357.8 1009.81 430.584 1170.26 C 498.332 1319.62 644.374 1455.37 798.314 1511.92 C 795.997 1533.2 792.008 1554.33 789.657 1576 C 779.282 1571.97 768.075 1567.01 757.734 1562.68 C 732.95 1552.63 708.849 1540.96 685.587 1527.76 C 515.214 1433.44 389.488 1275.07 336.266 1087.75 C 291.626 933.352 299.623 768.491 358.997 619.14 C 372.384 586.667 387.885 555.108 405.399 524.663 C 473.303 406.914 574.59 311.939 696.459 251.742 C 727.469 236.317 763.212 221.393 796.593 212.075 z" fill="currentColor" />
<path d="M 1341.46 385.048 C 1346.5 376.48 1351.81 368.072 1357.38 359.835 C 1405.59 392.251 1452.31 429.71 1490.22 474.004 C 1679.72 695.405 1702.58 998.37 1538.16 1241.98 C 1443.75 1380.21 1299.1 1476.12 1135.02 1509.3 C 1127.33 1510.81 1119.63 1512.21 1111.9 1513.51 C 1120.86 1499.62 1130.66 1484.22 1140.48 1470.91 C 1160.73 1464.39 1180.36 1461.03 1201.63 1453.77 C 1268.81 1430.77 1331.35 1395.98 1386.33 1351.05 C 1402.41 1337.66 1416.09 1322.91 1431.32 1309.74 C 1385.58 1290.33 1333.46 1272.71 1288.31 1252.26 C 1289.94 1249.49 1291.77 1246.13 1293.6 1243.57 C 1327.37 1257.52 1361.34 1270.97 1395.51 1283.91 C 1410.06 1289.52 1425.83 1296.17 1440.4 1301.33 C 1445.9 1295.45 1451.06 1289.88 1456.29 1283.78 C 1408.3 1266.46 1359.43 1251.08 1311.62 1233.22 C 1308.7 1232.12 1306.24 1230.56 1304.33 1228.1 L 1304.55 1226.09 C 1306.92 1224.66 1307.57 1224.05 1311.01 1225.11 C 1324.2 1229.17 1338.09 1234.6 1351.06 1238.87 C 1388.18 1250.81 1425.08 1263.44 1461.73 1276.75 C 1466.98 1270.3 1472.67 1263.55 1477.73 1257.01 C 1428.24 1240.57 1379.17 1223.06 1329.08 1208.5 C 1325.98 1207.6 1323.33 1206.09 1321.12 1203.76 L 1320.84 1201.77 C 1321.96 1200.51 1322.35 1199.46 1323.59 1199.79 C 1352.4 1207.6 1388.7 1219.36 1416.64 1227.91 C 1439.69 1234.85 1462.8 1241.63 1485.95 1248.24 C 1514.86 1206.83 1539.88 1168.79 1559.18 1121.56 C 1567.3 1101.7 1573.34 1082.83 1580.17 1062.65 C 1536.83 1051.26 1486.1 1042.63 1441.61 1033.44 C 1393.22 1023.44 1345.54 1011.92 1297.55 1001.69 L 1301.35 999.428 C 1359.92 1008.25 1417.24 1019.16 1475.22 1031.11 C 1510.49 1038.39 1548.31 1045.01 1583.23 1052.99 L 1589.47 1029.28 C 1572 1026.38 1554.19 1024.55 1536.58 1022.66 C 1478.69 1016.46 1420.95 1009.24 1363.32 1000.98 C 1323.88 995.321 1284.15 991.529 1245.08 983.319 C 1235.62 981.378 1223.18 979.423 1214.36 975.822 C 1249.51 975.992 1304.33 983.729 1339.28 988.721 L 1458.69 1005.24 C 1487.7 1009.2 1517.01 1012.29 1546.01 1016.13 C 1559.47 1017.91 1578.24 1019.47 1591.21 1022.25 C 1593.67 1013.59 1595.96 1004.88 1598.1 996.13 C 1570.16 993.165 1540.74 991.661 1512.52 989.203 C 1434.31 982.52 1356.19 974.768 1278.2 965.949 C 1314.41 961.744 1365.9 968.78 1402.68 971.558 C 1467.81 976.477 1534.43 984.916 1599.35 989.646 C 1611.6 904.792 1610.89 832.819 1591.5 748.496 C 1551.79 754.765 1512.29 759.783 1472.45 765.019 C 1432.44 770.278 1391.2 777.346 1351.08 781.325 C 1353.26 778.218 1355.58 774.748 1357.9 771.787 C 1397.37 767.773 1438.55 761.423 1478.01 756.079 C 1514.83 751.092 1553.37 746.884 1589.94 741.022 C 1587.34 732.121 1585.64 726.873 1582.06 718.374 C 1574.43 720.004 1567.01 721.155 1559.36 722.522 C 1494.94 734.041 1430.43 747.788 1365.81 758.086 C 1368.92 754.291 1370.63 752.125 1374.35 748.842 C 1439.13 738.845 1515.6 723.409 1580.41 710.608 C 1577.69 701.623 1574.81 692.686 1571.77 683.802 C 1508.45 703.418 1447.83 714.824 1385.51 732.15 L 1389.93 723.879 C 1450.19 710.119 1510.09 694.835 1569.57 678.04 C 1564.83 664.055 1559.47 653.626 1553.74 640.306 C 1532.47 590.842 1506.34 549.75 1473.23 507.27 C 1427.73 522.668 1382.06 537.541 1336.22 551.885 C 1290.71 566.263 1238.27 582.719 1191.73 592.737 C 1196.15 589.47 1200.67 586.391 1205.34 583.497 C 1280.33 536.999 1366.43 510.762 1446.64 475.647 L 1434.07 462.19 C 1394.38 480.497 1354.13 497.542 1313.36 513.301 C 1292.1 521.762 1263.95 533.184 1242.13 539.708 C 1254.72 531.895 1288.76 517.411 1303.83 510.623 L 1428.54 455 C 1411.02 438.436 1392.57 422.884 1373.28 408.418 C 1363.89 401.33 1350.03 392.105 1341.46 385.048 z" fill="currentColor" />
<path d="M 1453.09 482.937 C 1456.86 483.349 1466.53 496.681 1469.6 500.444 C 1449.97 507.58 1427.6 513.641 1407.59 520.264 C 1359.25 536.265 1309.6 550.064 1261.27 565.715 C 1255.74 567.753 1250.78 568.747 1245.07 570.061 C 1259.32 562.688 1281.27 553.869 1296.33 547.41 C 1328.45 533.67 1360.71 520.248 1393.09 507.149 C 1412.89 499.163 1433.6 491.458 1453.09 482.937 z" fill="currentColor" />
<path d="M 771.088 312.916 L 772.165 313.205 C 772.716 315.976 764.835 347.819 763.503 354.041 C 715.576 375.358 670.911 403.358 630.84 437.206 C 622.423 444.182 610.344 454.055 602.958 461.82 C 638.592 472.764 672.969 489.696 709.104 499.643 C 713.845 500.949 721.125 503.525 723.23 508.29 C 722.628 511.622 723.38 510.303 721.237 512.551 C 713.968 511.104 708.366 507.775 701.416 505.587 C 670.204 495.759 639.957 483.008 609.166 471.998 C 603.238 469.878 595.82 469.086 590.094 472.178 C 588.938 476.447 594.178 478.926 597.723 480.068 C 638.592 493.237 679.393 507.259 720.35 520.096 L 716.293 534.442 C 690.503 527.898 663.183 522.629 637.125 516.446 C 614.306 511.031 586.701 503.075 563.954 499.9 C 562.806 502.994 561.891 506.493 560.967 509.697 C 599.941 516.789 638.846 525.625 677.81 532.97 C 689.397 535.154 703.041 537.555 714.398 540.391 C 715.664 543.391 715.456 541.807 714.507 545.341 C 713.853 546.002 713.199 546.663 712.545 547.323 C 676.603 541.269 638.153 532.535 602.548 525.028 C 582.829 520.871 572.768 517.584 554.793 515.873 C 552.204 515.627 548.611 522.863 547.322 525.23 C 553.036 525.94 558.315 527.243 563.936 528.333 C 591.208 533.623 618.569 539.448 645.925 544.235 C 660.988 546.718 676.077 549.043 691.189 551.211 C 696.845 552.025 704.811 552.474 709.905 553.838 L 710.899 555.706 L 709.525 559.494 C 700.26 564.463 565.955 531.773 547.697 531.565 C 526.633 531.326 468.015 654.688 461.574 672.532 C 489.538 676.218 519.462 683.004 547.553 688.089 C 579.296 693.539 610.95 699.49 642.505 705.941 C 650.332 707.552 660.598 709.26 668.247 711.715 C 669.627 712.158 669.39 712.716 669.928 714.386 L 668.682 716.437 C 666.504 717.811 664.004 718.863 661.326 718.203 C 614.074 706.563 565.893 698.637 517.935 690.603 C 497.419 687.167 478.585 682.537 457.777 680.976 C 455.725 685.433 452.801 691.405 453.581 696.147 C 471.449 695.899 512.14 703.481 532.066 706.585 L 666.455 727.584 C 665.59 730.942 665.176 732.221 663.914 735.452 C 661.514 737.166 659.32 736.8 656.378 735.968 C 631.251 728.862 606.235 726.158 580.525 722.138 L 450.384 702.315 C 448.542 706.915 446.774 712.034 445.048 716.728 C 461.343 719.946 479.556 719.976 496.158 722.086 C 546.971 728.545 598.087 733.774 648.688 741.671 C 652.703 742.298 657.152 743.826 660.58 745.978 L 660.325 747.288 C 653.183 749.267 591.846 742.194 580.022 740.341 C 534.976 733.279 487.975 730.49 443.39 722.37 C 441.639 728.033 440.439 733.913 439.131 739.704 C 458.271 742.397 481.173 741.958 500.865 743.357 C 551.723 746.968 602.671 750.026 653.506 753.872 C 656.222 754.077 657.785 755.875 659.056 757.917 L 658.248 759.499 C 653.667 761.077 616.487 758.395 609.212 758.003 L 488.063 751.255 C 470.915 750.261 453.733 748.27 436.637 747.952 C 417.826 818.477 415.914 883.845 421.26 956.199 C 433.733 957.467 474.11 953.625 488.299 952.822 L 569.847 948.627 C 611.301 946.505 657.417 944.334 698.579 949.78 C 682.064 952.816 633.036 954.134 613.864 955.175 C 550.132 958.445 486.381 961.349 422.616 963.886 C 423.326 970.945 424.121 975.56 425.522 982.537 C 432.846 981.242 459.728 979.228 467.57 978.594 C 500.481 975.935 542.963 971.832 575.106 970.248 C 610.574 968.5 731.176 950.964 760.81 957.903 C 759.957 959.094 759.098 960.138 758.107 961.228 C 750.724 969.35 463.924 986.579 426.922 988.56 L 429.66 1008.37 C 447.086 1007 469.411 1003.3 487.394 1000.99 L 579.997 989.599 C 602.38 986.772 642.211 981.65 664.241 983.381 C 655.085 986.471 613.068 991.839 601.81 993.46 C 564.612 998.913 527.337 1003.83 489.998 1008.22 C 469.431 1010.78 452.156 1013.44 431.223 1015.25 C 441.681 1069.14 466.304 1135.27 493.806 1182.75 C 518.134 1175.77 555.995 1168.24 581.509 1162.16 L 672.584 1140.56 C 681.115 1138.46 717.312 1128 723.221 1128.57 C 723.883 1131.62 723.095 1132.91 722.305 1136.19 C 718.476 1138.61 689.076 1145.03 683.178 1146.52 C 621.973 1161.95 559.68 1174.8 498.649 1190.75 C 502.289 1197.51 505.167 1201.88 509.511 1208.26 C 529.105 1204.8 558.275 1195.57 578.524 1190.1 C 621.164 1178.59 664.539 1168.13 706.678 1155.2 C 711.571 1153.7 715.668 1152.67 720.035 1155.11 L 720.209 1156.93 C 715.222 1165.04 697.225 1166.94 687.924 1169.12 C 674.137 1172.38 660.384 1175.79 646.665 1179.33 L 513.212 1214.6 C 517.235 1221.77 520.715 1227.48 525.223 1234.35 C 572.87 1221.28 619.147 1204.97 666.116 1189.87 C 674.276 1187.25 710.008 1174.18 714.578 1173.68 C 715.501 1177.01 713.728 1180.34 712.474 1183.74 C 697.279 1188.35 680.609 1195.23 665.003 1200.28 C 620.527 1214.17 576.121 1228.29 531.789 1242.64 C 542.855 1259.49 556.972 1276.57 570.257 1291.79 C 634.246 1365.4 714.757 1422.81 805.199 1459.32 C 804.813 1471.96 803.139 1485.51 801.162 1497.99 C 772.231 1484.9 731.318 1464.81 704.104 1448.32 C 579.463 1373.66 482.673 1260.26 428.507 1125.45 C 366.235 972.938 367.527 801.862 432.094 650.312 C 495.713 497.231 617.708 375.811 771.088 312.916 z" fill="currentColor" />
<path d="M 581.556 482.892 C 588.502 484.79 596.217 487.399 603.047 489.754 C 635.096 500.804 669.024 510.094 700.465 522.481 L 697.712 522.368 C 686.458 520.281 675.228 518.068 664.024 515.73 C 651.373 512.998 579.524 496.804 575.666 490.818 C 576.629 487.239 578.897 485.582 581.556 482.892 z" fill="currentColor" />
<path d="M 790.073 905.341 C 796.95 910.075 835.53 962.447 843.073 972.09 C 858.569 991.534 874.207 1010.87 889.985 1030.08 C 886.824 1041.98 883.414 1053.81 879.758 1065.56 C 875.149 1061.53 857.251 1036.47 851.581 1029.39 L 780.427 941.905 C 781.853 931.433 786.352 915.11 790.073 905.341 z" fill="currentColor" />
<path d="M 839.535 1365.59 C 843.262 1369.23 859.075 1394.9 863.491 1401.69 C 885.673 1435.76 906.936 1468.74 930.443 1501.98 C 927.573 1512.88 924.244 1524.12 921.163 1535 L 920.47 1535.66 C 917.343 1534.3 839.652 1417.56 831.644 1404.02 C 833.43 1392.46 832.741 1372.72 839.535 1365.59 z" fill="currentColor" />
<path d="M 776.524 959.568 C 779.783 962.254 793.076 979.549 796.691 984.131 L 837.889 1035.61 C 846.554 1046.5 865.505 1071.56 875.918 1079.3 C 873.336 1090.82 869.964 1101.47 866.531 1112.74 C 866.324 1113.12 865.296 1114.21 864.967 1114.58 C 861.638 1113.41 776.557 1006.62 770.286 994.238 C 771.932 983.213 774.361 970.52 776.524 959.568 z" fill="currentColor" />
<path d="M 787.082 330.914 C 812.103 365.49 838.597 414.785 865.734 447.243 C 864.273 458.898 858.538 477.595 855.211 489.567 C 852.862 487.371 838.711 466.004 836.036 462.046 C 822.952 442.696 810.055 423.219 797.348 403.619 C 790.282 392.819 782.08 381.271 776.022 369.984 C 779.84 356.998 783.527 343.974 787.082 330.914 z" fill="currentColor" />
<path d="M 815.242 215.659 C 822.998 223.965 834.591 243.062 841.403 252.97 C 859.451 279.226 877.246 308.872 896.739 333.924 C 893.848 346.464 890.72 358.949 887.357 371.371 C 884.553 369.613 815.305 271.854 805.592 258.736 C 809.062 245.056 812.15 229.559 815.242 215.659 z" fill="currentColor" />
<path d="M 800.813 276.292 C 808.589 282.462 832.44 319.414 839.586 329.832 L 881.37 390.153 C 877.372 403.421 873.662 416.775 870.241 430.203 C 866.615 427.147 848.504 397.955 844.294 391.63 L 791.035 312.641 C 794.547 301.407 797.799 287.822 800.813 276.292 z" fill="currentColor" />
<path d="M 740.812 505.463 C 746.799 511.036 756.055 526.346 761.174 533.51 C 776.812 555.392 802.438 600.772 820.773 619.315 C 816.808 633.334 813.697 647.314 810.432 661.507 C 802.091 656.514 747.915 562.876 731.121 547.24 C 734.902 534.824 737.956 518.481 740.812 505.463 z" fill="currentColor" />
<path d="M 756.94 447.475 C 760.675 451.032 770.787 468.071 774.568 473.358 C 794.626 501.408 813.912 535.106 834.678 562.227 C 831.414 576.015 829.229 588.331 825.157 602.054 C 811.311 586.651 796.309 561.565 784.907 543.82 C 771.95 523.654 760.353 507.739 745.906 488.585 C 749.39 474.83 753.069 461.126 756.94 447.475 z" fill="currentColor" />
<path d="M 726.902 561.541 C 728.972 563.98 738.899 580.349 741.469 584.26 L 781.242 644.527 C 786.916 653.189 799.37 673.294 805.739 680.255 C 803.173 692.558 799.262 707.444 796.047 719.729 C 769.378 681.25 741.184 640.068 715.428 601.18 C 720.376 588.227 723.537 574.957 726.902 561.541 z" fill="currentColor" />
<path d="M 765.515 1013.1 C 774.704 1024.13 784.606 1037.82 793.705 1049.39 C 815.26 1077.15 837.312 1104.52 859.849 1131.49 C 857.73 1140.94 853.814 1153.62 851.135 1163.29 L 850.89 1164.21 L 849.738 1164.72 C 828.358 1138.2 807.8 1110.92 785.819 1084.81 C 776.629 1073.89 766.186 1061.2 758.429 1049.31 C 759.467 1038.93 763.078 1023.29 765.515 1013.1 z" fill="currentColor" />
<path d="M 771.332 388.467 C 774.257 391.026 779.052 399.53 781.399 403.349 C 803.062 438.602 826.48 472.71 849.673 506.987 C 846.393 520.159 843.242 533.363 840.222 546.597 C 836.866 543.646 825.344 523.879 822.241 519.109 C 802.89 489.353 783.194 458.291 761.577 430.182 C 763.92 415.686 767.519 402.587 771.332 388.467 z" fill="currentColor" />
<path d="M 710.945 619.708 C 717.8 628.444 724.638 640.35 731.112 649.496 C 750.251 676.535 770.29 711.376 790.574 737.087 C 788.756 745.617 784.66 767.507 781.577 774.387 C 776.226 768.437 763.705 749.982 758.749 742.801 C 739.486 714.89 722.098 687.669 701.41 660.621 C 704.178 647.122 708.058 633.532 710.945 619.708 z" fill="currentColor" />
<path d="M 755.082 1068.71 C 758.138 1071.55 761.19 1076.11 763.742 1079.49 C 790.052 1114.31 818.41 1147.44 845.162 1181.95 L 836.194 1214.77 C 835.309 1215.59 835.911 1215.23 834.178 1215.36 C 827.089 1208.75 809.891 1184.72 802.957 1175.54 C 785.054 1151.83 765.032 1127.86 747.728 1103.94 C 750.356 1091.88 752.066 1081.05 755.082 1068.71 z" fill="currentColor" />
<path d="M 825.839 880.754 C 830.584 882.016 883.437 954.857 892.164 963.258 C 894.143 965.163 903.538 977.623 905.687 980.449 C 903.525 990.621 899.687 1003.43 897.09 1013.86 C 894.474 1011.23 892.136 1008.34 889.749 1005.5 C 860.644 968.79 830.956 932.548 800.695 896.785 C 809.204 891.694 817.524 886.168 825.839 880.754 z" fill="currentColor" />
<path d="M 848.786 184.806 C 854.517 188.97 885.352 238.708 891.581 248.083 C 898.245 258.124 905.202 267.966 912.444 277.598 C 909.081 291.31 905.43 304.95 901.492 318.508 L 896.999 310.425 C 874.116 273.994 844.247 237.027 823.109 199.584 C 830.971 194.675 840.632 189.473 848.786 184.806 z" fill="currentColor" />
<path d="M 827.352 1426.51 C 830.337 1429.06 834.482 1435.24 836.693 1438.69 C 861.641 1477.59 888.75 1514.97 914.352 1553.44 C 911.783 1560.81 908.266 1575.49 906.13 1583.44 C 905.558 1585.1 906.091 1584.44 904.429 1585.31 C 898.647 1578.53 889.372 1562.72 883.635 1554.54 C 864.166 1526.81 844.426 1493.86 822.722 1468.15 C 823.986 1454.24 825.53 1440.36 827.352 1426.51 z" fill="currentColor" />
<path d="M 820.072 1488.65 C 823.502 1491.75 833.635 1507.21 836.835 1511.91 L 872.08 1563.6 C 879.605 1574.62 891.323 1593.55 900.89 1602.03 C 898.056 1612.96 895.14 1623.88 892.141 1634.77 C 891.441 1636.29 891.348 1636.19 890.267 1637.51 C 886.052 1635.46 821.775 1537.92 814.6 1525.88 C 815.256 1514.75 817.852 1499.59 820.072 1488.65 z" fill="currentColor" />
<path d="M 873.251 1344.15 C 879.402 1348.41 934.708 1433.68 945.151 1447.89 C 942.553 1456.66 939.75 1475.07 935.628 1481.45 L 934.178 1481.6 L 931.783 1478.51 C 906.72 1437.78 876.71 1397.97 851.436 1357.03 L 873.251 1344.15 z" fill="currentColor" />
<path d="M 742.598 1122.37 C 749.131 1127.58 777.709 1166.72 784.785 1176.04 C 799.187 1194.89 813.905 1213.49 828.933 1231.84 C 824.42 1234.91 820.47 1238.39 816.319 1241.91 C 812.269 1245.56 809.968 1247.34 805.496 1250.46 C 781.744 1219.05 758.854 1190.71 736.652 1158.06 C 737.678 1148.01 740.781 1132.71 742.598 1122.37 z" fill="currentColor" />
<path d="M 810.837 1550.64 C 819.741 1559.9 827.859 1573.1 835.306 1583.61 C 851.747 1606.84 866.844 1632.27 885.351 1653.81 C 882.707 1665.56 879.379 1677.16 876.176 1688.76 C 875.248 1691.15 876.074 1690.38 874.04 1691.47 C 869.23 1685.99 848.759 1653.44 843.796 1645.58 C 832.028 1626.94 816.432 1606.07 805.485 1587.6 L 810.837 1550.64 z" fill="currentColor" />
<path d="M 697.061 676.824 C 702.727 683.344 718.836 708.494 724.486 717.048 L 768.215 782.262 L 753.425 790.843 L 741.682 798.628 C 727.544 775.657 703.683 737.963 687.606 716.998 C 689.604 703.361 692.767 689.92 697.061 676.824 z" fill="currentColor" />
<path d="M 802.47 1608.74 C 805.396 1611.85 816.154 1629.42 818.667 1633.55 C 829.384 1651.28 840.496 1668.77 851.997 1685.99 C 856.305 1692.56 863.78 1704.83 868.987 1710.12 C 865.784 1719.87 862.694 1731.73 859.846 1741.74 L 858.548 1742.45 C 854.844 1739.83 802.411 1658.25 795.244 1647.87 C 797.465 1634.79 799.874 1621.75 802.47 1608.74 z" fill="currentColor" />
<path d="M 792.594 1670.72 C 797.733 1676.44 804.504 1687.9 809.219 1694.59 C 824.135 1715.75 838.19 1740.73 853.693 1761.19 C 851.028 1773 847.8 1784.11 844.479 1795.75 C 844.089 1796.86 844.421 1796.16 843.046 1797.59 C 840.903 1796.2 837.527 1792.2 836.351 1789.87 C 822.746 1762.96 799.842 1735.15 786.668 1708.73 C 789.102 1696.88 790.161 1683.28 792.594 1670.72 z" fill="currentColor" />
<path d="M 862.868 857.822 C 869.79 862.654 912.859 921.344 921.668 932.604 C 917.484 943.581 914.823 953.828 911.714 965.128 L 905.423 957.431 C 885.42 931.387 861.022 895.846 837.714 874.391 C 845.36 867.829 854.194 862.948 862.868 857.822 z" fill="currentColor" />
<path d="M 783.488 1729.74 C 784.987 1731.42 792.69 1744.77 794.13 1747.37 C 807.104 1770.76 825.936 1795.55 836.294 1819.92 L 827.446 1854.36 L 825.858 1854.22 C 810.281 1832.61 791.061 1800.69 775.693 1777.33 C 778.04 1762.01 780.325 1744.75 783.488 1729.74 z" fill="currentColor" />
<path d="M 909.866 1320.09 C 926.683 1342.36 944.847 1371.2 959.94 1394.83 C 957.815 1404.97 952.994 1418.96 949.806 1429.14 L 945.211 1421.98 C 925.689 1395.47 905.674 1360.91 885.221 1336.23 C 891.766 1331.14 902.609 1324.69 909.866 1320.09 z" fill="currentColor" />
<path d="M 890.864 160.802 C 891.641 161.29 922.623 210.072 928.962 217.759 C 925.775 231.75 921.313 247.084 917.449 260.932 L 910.213 250.489 C 895.33 228.185 875.711 200.62 862.375 178.066 C 871.826 171.608 880.952 166.487 890.864 160.802 z" fill="currentColor" />
<path d="M 732.316 1176.54 C 737.28 1180.82 762.956 1217.89 767.52 1224.53 C 775.68 1236.39 783.854 1246.74 793.095 1258.28 C 787.994 1262.02 782.707 1265.72 777.549 1269.4 L 769.267 1275.23 C 757.903 1260.4 745.731 1246.15 734.919 1230.88 C 731.282 1225.74 727.369 1220.84 723.254 1216.07 C 726.465 1202.94 729.486 1189.76 732.316 1176.54 z" fill="currentColor" />
<path d="M 772.648 1799.4 C 787.165 1814.4 805.93 1854.58 821.755 1872.61 C 818.66 1885.78 815.769 1898.44 811.908 1911.41 L 811.301 1911.46 C 808.66 1909.69 798.731 1892.2 796.193 1887.99 C 786.616 1872.1 775.329 1857.98 765.314 1842.57 L 772.648 1799.4 z" fill="currentColor" />
<path d="M 812 1267.03 C 816.254 1271.46 824.584 1283.29 828.571 1288.57 C 839.42 1302.93 850.501 1317.58 860.743 1332.38 C 852.486 1338.07 844.103 1343.57 835.601 1348.89 C 835.272 1348.8 795.524 1294.71 787.496 1284.58 L 812 1267.03 z" fill="currentColor" />
<path d="M 807.66 783.464 C 809.58 783.238 809.147 783.351 811.13 783.747 C 819.692 801.003 841.442 828.07 854.051 843.124 C 845.679 848.418 836.523 853.779 828.014 858.946 C 812.595 837.114 796.686 815.633 780.3 794.518 C 785.157 791.312 790.187 787.664 794.985 784.311 L 807.66 783.464 z" fill="currentColor" />
<path d="M 767.367 803.023 C 772.532 808.03 782.719 822.339 787.55 828.81 C 797.115 841.67 806.882 854.378 816.847 866.931 C 806.44 872.233 801.184 876.133 791.802 883.188 C 789.517 881.65 750.321 826.529 743.853 818.197 C 751.824 812.82 759.074 807.958 767.367 803.023 z" fill="currentColor" />
<path d="M 730.295 828.078 C 736.01 830.68 773.333 883.456 778.496 890.848 C 773.404 896.058 772.327 901.091 764.73 899.809 C 755.425 897.292 749.865 896.361 740.257 894.969 C 733.703 878.469 713.449 855.718 712.812 840.237 C 712.711 837.806 726.722 830.171 730.295 828.078 z" fill="currentColor" />
<path d="M 681.463 734.481 C 688.385 739.527 723.35 796.266 729.748 806.753 C 724.82 810.625 719.026 814.448 713.819 818.035 L 704.877 824.304 C 695.249 809.722 681.581 788.844 673.335 773.876 C 675.666 760.669 678.376 747.532 681.463 734.481 z" fill="currentColor" />
<path d="M 844.132 1243.9 C 851.771 1248.1 887.308 1296.26 896.468 1307.25 L 876.695 1322.19 C 874.648 1323.52 875.286 1323.15 872.914 1323.88 C 867.583 1319.52 829.325 1264.25 825.809 1257.19 C 830.477 1253.27 838.929 1247.61 844.132 1243.9 z" fill="currentColor" />
<path d="M 900.605 832.949 C 904.183 836.527 912.016 848.068 915.113 852.573 C 922.612 863.485 929.539 873.282 937.713 883.689 C 934.24 894.608 930.833 905.548 927.49 916.508 C 925.057 913.629 922.787 910.52 920.5 907.513 C 905.774 885.921 891.886 869.561 875.704 849.2 C 884.069 843.883 892.37 838.466 900.605 832.949 z" fill="currentColor" />
<path d="M 762.204 1862.72 C 767.996 1871.64 804.704 1927.87 804.423 1931.93 C 801.329 1934.82 798.588 1935.25 794.466 1936.53 C 781.72 1939.66 752.654 1938.91 753.916 1922.68 C 755.318 1904.65 759.41 1880.73 762.204 1862.72 z" fill="currentColor" />
<path d="M 944.153 1297.8 L 945.688 1297.94 C 951.414 1302.33 969.291 1330.74 975.964 1339.31 C 974.33 1347.38 968.94 1367.83 964.699 1374.25 L 963.267 1374.52 L 961.209 1371.44 C 948.518 1351.23 933.94 1331.09 921.824 1311.24 L 944.153 1297.8 z" fill="currentColor" />
<path d="M 777.571 1293.09 C 779.741 1295.25 793.895 1316.69 796.442 1320.42 C 805.114 1332.97 814.142 1345.27 823.514 1357.31 C 815.64 1357.67 806.708 1357.28 798.75 1357.11 L 789.622 1356.86 C 778.306 1341.48 767.465 1324.76 755.813 1308.87 L 777.571 1293.09 z" fill="currentColor" />
<path d="M 866.179 1245.01 C 878.911 1244.8 891.646 1244.96 904.369 1245.49 C 913.806 1258.21 922.935 1271.15 931.746 1284.31 L 922.879 1290.36 L 906.03 1300.79 C 891.272 1277.09 883.521 1266.72 866.179 1245.01 z" fill="currentColor" />
<path d="M 830.716 782.507 L 863.627 782.259 C 873.027 794.558 882.045 806.462 892.062 818.259 L 878.397 826.671 C 874.178 829.909 869.905 832.596 865.457 835.491 C 860.475 829.26 828.716 787.758 827.697 783.131 L 830.716 782.507 z" fill="currentColor" />
<path d="M 964.794 794.051 L 965.249 794.68 C 966.684 805.954 956.238 821.903 954.414 829.016 C 950.68 843.571 947.853 852.128 942.821 866.451 C 938.486 861.239 934.479 855.893 930.379 850.499 C 924.474 841.916 918.483 833.393 912.409 824.931 C 930.389 815.223 947.139 804.314 964.794 794.051 z" fill="currentColor" />
<path d="M 952.774 124.956 C 953.263 131.312 936.71 189.17 933.967 199.074 C 929.889 194.27 925.294 187.055 921.663 181.686 C 915.83 173.217 909.192 162.116 903.567 153.278 C 919.689 140.82 936.735 135.56 952.774 124.956 z" fill="currentColor" />
<path d="M 744.494 1317.75 C 748.054 1319.77 767.07 1349.55 773.297 1357.26 C 756.984 1357.11 740.671 1357.09 724.359 1357.17 C 714.22 1357.6 704.076 1357.87 693.93 1357.99 C 705.148 1346.49 730.801 1328.04 744.494 1317.75 z" fill="currentColor" />
<path d="M 719.689 1234.38 C 724.395 1238.54 753.554 1277.83 759.036 1285.05 L 746.521 1294.71 L 739.593 1300.06 C 729.205 1290.19 720.185 1278.99 712.773 1266.73 L 719.689 1234.38 z" fill="currentColor" />
<path d="M 667.222 792.585 C 671.22 796.107 689.401 826.746 693.344 833.187 C 684.171 838.12 676.358 843.385 667.691 849.09 C 662.143 852.893 657.061 855.927 651.272 859.359 C 655.852 836.932 661.172 814.662 667.222 792.585 z" fill="currentColor" />
<path d="M 696.65 849.835 C 697.925 850.813 719.108 885.375 722.088 889.936 C 710.659 888.307 699.552 886.052 688.228 883.847 C 677.484 881.844 666.754 879.771 656.037 877.629 C 669.282 869.898 682.451 858.468 696.65 849.835 z" fill="currentColor" />
<path d="M 882.279 782.205 L 950.404 781.96 L 932.522 793.867 L 903.832 812.402 C 896.642 803.767 888.777 791.643 882.279 782.205 z" fill="currentColor" />
<path d="M 923.092 1244.52 C 936.191 1243.92 951.968 1244.73 965.31 1245.13 L 973.613 1257.4 C 969.725 1259.96 965.425 1262.48 961.433 1264.93 C 955.344 1268.62 948.916 1272.11 942.685 1275.6 C 936.789 1267.97 926.538 1253.79 921.682 1245.55 L 923.092 1244.52 z" fill="currentColor" />
<path d="M 984.329 1270.93 C 986.523 1271.95 991.814 1280.69 993.445 1283.18 C 990.545 1296.01 985.583 1311.66 981.798 1324.47 L 976.792 1316.08 C 970.675 1307.06 964.451 1298.11 958.121 1289.24 C 966.475 1283.91 976.165 1276.75 984.329 1270.93 z" fill="currentColor" />
<path d="M 707.201 1281.6 C 714.812 1291.29 720.273 1298.77 728.381 1308.32 C 722.724 1312.46 716.846 1317.33 711.382 1321.77 L 697.45 1331.97 C 700.821 1315.18 703.664 1298.45 707.201 1281.6 z" fill="currentColor" />
<path d="M 1279.05 996.444 L 1301.35 999.428 L 1297.55 1001.69 C 1289.64 999.99 1286.55 999.567 1279.05 996.444 z" fill="currentColor" />
<metadata><recraft-signature>{"signed_by": "recraft", "signature_b64": "+0WHQLniKHO9xkFDvEfeo+K7qC4IRh8xHa4JApZGmfJAH8bcRGHs8oIbc2CKUGglLz112Qhksf8MpUOI8F0nDg==", "signing_algo": "Ed25519", "generation_timestamp": 1772065355, "identifier": "70b76176-d9d2-47ad-8036-d4448f7f5874"}</recraft-signature></metadata></g></svg>