<svg xmlns="http://www.w3.org/2000/svg" viewBox="0 0 24 24">
<g transform="scale(0.011719,0.011719)"><path d="M 1015.75 92.3752 C 1040.26 89.5635 1066.66 99.8469 1086.48 113.568 C 1201.59 193.254 1253.49 433.769 1278.12 566.158 C 1400.49 514.937 1576.2 455.544 1710.02 464.916 C 1747.49 468.056 1789.99 479.178 1814.61 509.628 C 1859.74 565.463 1830.67 643.965 1801.57 700.383 C 1789.55 724.203 1776.05 747.252 1761.17 769.395 C 1700.31 858.991 1594.38 963.834 1509.9 1033.29 C 1620.74 1134.15 1742.55 1249.32 1811.71 1383.53 C 1875 1506.36 1811.14 1588.99 1678.52 1587.27 C 1536.67 1585.43 1406.74 1538.55 1275.49 1489.01 C 1273.33 1511.19 1266.09 1542.51 1261.15 1564.25 C 1235.71 1676.21 1173.62 1932.33 1036.25 1953.85 C 890.597 1969.97 813.258 1684.62 789.924 1578.88 C 784.338 1553.57 776.871 1524.77 773.505 1499.24 C 654.224 1549.92 492.458 1604.55 361.996 1594.32 C 315.792 1590.7 267.204 1578.25 236.176 1541.51 C 216.534 1518.24 209.819 1489.54 212.386 1459.57 C 223.915 1324.9 441.908 1113.17 543.703 1027.08 C 522.084 1008.64 501.761 988.345 481.198 968.727 C 395.853 887.3 293.207 782.207 240.514 676.823 C 219.925 635.648 202.35 583.1 217.847 537.518 C 226.51 512.04 246.54 492.803 270.432 481.273 C 375.165 430.73 585.492 497.555 691.699 534.896 C 717.99 544.139 743.643 555.052 769.899 564.351 C 777.967 532.214 783.665 498.172 790.998 465.987 C 815.153 359.958 885.025 106.867 1015.75 92.3752 z" fill="currentColor" />
<path d="M 1023.13 769.271 C 1032.16 772.708 1074.61 800.05 1086.08 807.14 C 1123.87 830.519 1162.67 854.449 1199.58 879.223 C 1214.82 889.453 1239.42 905.065 1252.9 916.506 C 1256.55 992.418 1255.12 1056.43 1252.99 1131.91 C 1178.85 1184.24 1102.96 1234.04 1025.44 1281.22 C 964.059 1244.57 902.897 1206.14 843.625 1166.18 C 827.068 1155.02 810.298 1142.82 793.024 1132.9 C 790.91 1097.56 791.303 1059.11 791.364 1023.64 C 791.422 989.571 790.543 952.947 791.798 919.092 C 806.165 907.556 830.564 892.934 846.52 881.9 C 886.498 854.255 928.332 829.006 969.276 802.849 C 987.06 791.488 1005.61 781.039 1023.13 769.271 z" fill="currentColor" />
<path d="M 1013.31 845.542 C 1111.69 838.917 1196.83 913.277 1203.5 1011.66 C 1210.17 1110.04 1135.86 1195.21 1037.48 1201.93 C 939.033 1208.66 853.786 1134.28 847.109 1035.83 C 840.431 937.382 914.853 852.172 1013.31 845.542 z" fill="currentColor" />
<path d="M 1005.6 878.357 C 1016.37 877.153 1025.65 877.643 1036.4 878.436 C 952.651 895.129 896.522 961.668 891.919 1046.79 C 891.772 1054.68 892.063 1063.37 892.165 1071.32 C 888.396 1060.49 885.66 1049.32 883.994 1037.97 C 879.058 1001.96 889.878 962.046 911.888 933.175 C 934.611 903.188 968.326 883.466 1005.6 878.357 z" fill="currentColor" />
<path d="M 395.597 527.416 C 502.877 520.455 663.918 576.611 760.519 621.264 C 756.357 652.457 748.455 687.386 743.887 719.957 C 736.454 772.951 732.573 820.185 728.806 873.506 C 698.967 894.271 655.478 929.65 626.675 953.083 C 614.471 963.454 602.424 974.009 590.54 984.745 C 578.172 975.442 566.264 965.432 554.35 955.554 C 471.512 886.87 303.033 725.737 293.383 615.746 C 291.65 595.994 295.472 575.529 308.574 560.075 C 329.598 535.275 365.032 529.677 395.597 527.416 z" fill="currentColor" />
<path d="M 1465.29 1072.78 C 1470.37 1073.97 1485.55 1087.66 1490.72 1092.05 C 1547.3 1139.68 1600.04 1191.69 1648.48 1247.59 C 1691.29 1297.77 1758.94 1382.92 1753.93 1452.02 C 1748.28 1529.91 1636.94 1523.69 1580.98 1518.33 C 1491.95 1510.83 1367.68 1465.59 1286.76 1427.97 C 1290.16 1412.3 1293.91 1388.79 1296.25 1372.75 C 1304.89 1313.58 1314.02 1244.07 1315.09 1184.07 C 1347.87 1162.71 1381.48 1137.18 1412.66 1113.47 C 1430.21 1100.13 1448.3 1086.76 1465.29 1072.78 z" fill="currentColor" />
<path d="M 1631.6 527.442 C 1639.36 527.196 1647.23 527.582 1654.98 528.031 C 1684.64 529.75 1718.89 537.17 1739.39 560.582 C 1752.18 575.177 1755.83 593.743 1754.36 612.68 C 1747.46 701.277 1615.72 834.416 1552.29 893.445 C 1519.76 923.728 1485.56 951.931 1451.83 980.848 C 1444.61 973.89 1438.07 968.263 1430.46 961.811 C 1394.98 932.236 1353.83 900.305 1317.18 872.359 C 1314.31 818.598 1307.64 763.06 1300.98 709.606 C 1297.35 680.407 1291.14 649.011 1288.22 620.258 C 1399.59 570.055 1508.36 532.418 1631.6 527.442 z" fill="currentColor" />
<path d="M 587.498 1066.71 C 593.271 1067.86 675.226 1142.26 689.989 1149.21 C 693.676 1150.95 724.363 1174.58 730.237 1178.94 C 735.049 1260.26 746.517 1338.86 760.219 1418.96 C 658.068 1464.8 574.038 1496.04 463.5 1516.01 C 432.798 1520.72 401.029 1523.54 370.134 1519.01 C 345.691 1515.44 321.311 1506.38 306.268 1485.7 C 293.685 1468.41 292.138 1446.83 295.409 1426.28 C 313.402 1313.32 495.664 1132.98 587.498 1066.71 z" fill="currentColor" />
<path d="M 1016.67 182.369 C 1114.48 170.996 1183.63 382.807 1201.96 453.45 C 1213.09 496.325 1221.4 541.253 1229.69 584.763 C 1213.13 591.117 1190.09 602.124 1173.75 609.654 C 1125 631.846 1077.21 656.081 1030.5 682.294 C 1025.07 685.518 1026.02 685.465 1020.83 682.512 C 955.528 645.327 887.586 615.214 818.881 585.178 C 825.036 558.717 829.35 529.145 835.3 503 C 853.632 422.444 916.52 193.22 1016.67 182.369 z" fill="currentColor" />
<path d="M 1028.5 1371.96 C 1032.38 1373.17 1046.73 1381.57 1051.06 1383.92 C 1065.69 1391.84 1080.38 1399.66 1095.11 1407.38 C 1138.14 1429.72 1182.07 1450.26 1226.81 1468.94 C 1211.05 1565.15 1148.7 1856.37 1025.75 1865.21 C 903.362 1864.93 836.178 1567.21 824.997 1476.68 C 894.436 1444.98 962.346 1410.03 1028.5 1371.96 z" fill="currentColor" />
<path d="M 347.265 484.5 C 376.911 482.184 415.938 486.191 445.101 490.706 C 538.254 505.129 629.448 533.996 717.449 567.342 C 733.768 573.526 750.829 579.077 766.887 585.767 L 764.145 599.366 C 653.209 549.195 481.209 489.653 356.996 511.803 C 331.562 516.631 300.31 530.689 286.501 554.033 C 247.565 620.703 297.357 701.922 336.073 757.015 C 363.94 796.671 393.892 832.11 427.769 866.449 C 484.863 924.322 544.862 978.261 609.581 1027.49 C 640.962 1051.36 674.061 1073.65 706.283 1096.53 C 785.67 1153.53 866.761 1208.11 949.444 1260.21 C 1014.55 1300.23 1080.44 1338.93 1147.1 1376.29 C 1175.86 1392.11 1206.35 1406.44 1234.33 1421.92 C 1233.23 1430.69 1231.92 1439.43 1230.43 1448.14 C 1122.41 1402.94 1013.85 1341.27 914.86 1279.21 C 819.647 1219.52 719.515 1150.56 634.015 1077.57 C 519.953 980.2 244.358 736.432 233.262 584.552 C 231.602 561.826 235.775 538.643 251.134 521.06 C 274.36 494.469 313.773 486.808 347.265 484.5 z" fill="currentColor" />
<path d="M 558.254 1041.67 C 562.072 1042.14 569.272 1048.24 572.588 1050.79 C 541.981 1075.78 511.338 1100.73 482.346 1127.61 C 410.249 1194.46 309.272 1305.41 280.1 1399.63 C 271.373 1427.81 268.717 1462.03 283.17 1488.84 C 295.986 1512.61 319.452 1527.3 344.824 1534.76 C 479.181 1574.26 754.668 1449.27 877.09 1387.78 C 908.643 1371.93 939.429 1354.38 970.45 1337.51 C 982.656 1345.18 994.905 1352.78 1007.2 1360.31 C 999.071 1364.4 991.033 1368.67 983.088 1373.1 C 819.083 1464.46 552.306 1587.8 363.214 1573.43 C 325.091 1570.53 278.929 1559.83 253.07 1529.19 C 236.857 1509.97 231.064 1484.49 233.354 1459.83 C 243.049 1355.44 387.143 1205.9 459.474 1133.93 C 491.208 1102.35 523.763 1070.22 558.254 1041.67 z" fill="currentColor" />
<path d="M 1074.79 737.866 C 1082.22 739.459 1146.48 782.405 1157.76 789.495 C 1296.66 876.834 1424.75 977.077 1542.39 1091.6 C 1634.85 1181.61 1729.9 1271.84 1790.42 1387.56 C 1846.7 1495.16 1800.01 1569.03 1680.39 1566.94 C 1544.22 1566.38 1418.38 1517.88 1292.25 1472.56 L 1279.47 1468.28 L 1282.5 1450.24 C 1303.85 1458.84 1324.91 1468.32 1346.42 1476.83 C 1434.52 1511.73 1527.28 1539.79 1622.72 1541.17 C 1673.6 1541.91 1734.44 1538.48 1763.41 1490.02 C 1776.82 1467.88 1777.78 1432.03 1770.3 1407.64 C 1743.38 1319.84 1671.05 1236.4 1608.26 1172.76 C 1579.06 1143.11 1548.78 1114.55 1517.49 1087.11 C 1454.43 1032.92 1391.06 987.745 1323.72 939.848 C 1233.33 874.453 1139.8 813.502 1043.48 757.209 C 1053.84 750.646 1064.28 744.197 1074.79 737.866 z" fill="currentColor" />
<path d="M 1658.32 484.566 C 1788.18 474.815 1853.41 537.223 1795.82 663.796 C 1732.23 803.546 1611.08 923.064 1493.73 1019.35 C 1484.85 1011.03 1475.92 1002.76 1466.95 994.538 C 1472.28 989.317 1485.37 979.235 1491.85 973.909 C 1504.51 963.541 1516.92 952.873 1529.07 941.916 C 1584.23 892.905 1624.29 854.344 1672.76 798.289 C 1706.35 759.671 1739.32 716.886 1760 669.728 C 1773.79 638.293 1782.69 602.547 1769.54 569.284 C 1760.4 546.149 1741.45 530.563 1719.02 520.955 C 1628.82 482.327 1462.56 529.672 1374.43 561.868 C 1343.73 573.082 1314.09 586.885 1283.8 599.098 C 1283.24 594.824 1282.94 590.245 1282.56 585.927 C 1388.97 542.777 1544.81 490.008 1658.32 484.566 z" fill="currentColor" />
<path d="M 1229.78 607.951 C 1231.1 607.943 1230.22 607.883 1232.36 608.563 C 1234.33 614.087 1234.18 619.151 1234.49 625.042 C 1180.91 652.666 1124.49 685.405 1072.64 715.875 C 975.067 772.597 879.58 832.84 786.372 896.484 C 750.66 920.839 715.093 945.406 679.672 970.184 C 664.223 981.158 640.947 999.908 623.57 1009.68 C 622.594 1010.23 619.622 1007.52 618.447 1006.65 L 607.202 997.171 C 623.225 984.807 641.469 968.037 657.634 954.776 C 688.954 929.461 720.799 904.801 753.147 880.814 C 782.074 859.613 818.948 836.779 849.064 816.656 C 969.741 736.023 1096.24 665.238 1229.78 607.951 z" fill="currentColor" />
<path d="M 1247.22 1476.75 C 1248.92 1477.56 1253.59 1479.17 1255.55 1479.9 C 1251.93 1512.12 1243.69 1545.15 1236.26 1576.69 C 1214.39 1669.54 1188.58 1768.35 1136.53 1849.41 C 1114.39 1883.89 1082.37 1922.67 1040.22 1931.55 C 1016.7 1936.51 993.113 1929.13 973.461 1916.14 C 875.115 1851.12 824.026 1641.59 801.22 1532.57 C 798.372 1518.78 795.949 1504.16 793.428 1490.25 C 796.881 1488.5 800.855 1486.86 804.426 1485.29 C 818.204 1584.5 855.359 1719.16 909.483 1803.88 C 931.972 1839.08 963.551 1875.62 1006.24 1884.8 C 1032.12 1890.37 1055.29 1883.44 1077.07 1869.21 C 1161.18 1814.24 1208.68 1655.98 1230.35 1562.55 C 1236.96 1534.09 1241.25 1505.31 1247.22 1476.75 z" fill="currentColor" />
<path d="M 1019.57 113.343 C 1063.17 109.454 1107.71 155.54 1129.55 188.413 C 1194.71 286.505 1221.95 405.85 1247.91 519.141 C 1251.86 536.381 1255.99 556.018 1257.36 573.567 C 1257.41 574.81 1254.03 575.719 1252.33 576.43 C 1251.62 576.289 1250.91 576.149 1250.2 576.009 C 1230.85 471.745 1168.73 180.672 1033.13 161.038 C 1007.41 160.077 987.62 165.657 966.396 180.583 C 870.114 248.296 818.988 465.054 799.257 576.935 L 790.665 573.09 C 813.628 458.411 876.612 132.063 1019.57 113.343 z" fill="currentColor" />
<path d="M 1420.07 1034.95 C 1430.45 1042.32 1439.69 1050.01 1449.53 1058.06 C 1441.83 1065.36 1428.62 1075.86 1420.02 1082.37 C 1382.37 1110.91 1343.53 1139.27 1304.88 1166.39 C 1244.18 1209.52 1182.18 1250.81 1118.97 1290.18 C 1112.44 1294.27 1083.44 1313.68 1078.53 1313.09 C 1067.6 1306.84 1056.83 1300.33 1046.23 1293.55 C 1107.94 1253.78 1166.45 1217.19 1227.43 1175.48 C 1292.69 1130.09 1356.92 1083.24 1420.07 1034.95 z" fill="currentColor" />
<path d="M 809.566 645.979 C 857.01 669.15 908.245 699.069 953.508 725.955 C 929.588 740.251 905.869 754.88 882.357 769.837 C 853.151 788.327 824.306 807.383 795.84 826.993 C 797.7 799.892 798.163 772.405 800.338 745.227 C 802.992 712.072 806.59 679.1 809.566 645.979 z" fill="currentColor" />
<path d="M 1235.95 648.145 C 1241.28 658.069 1248.48 808.608 1248.32 823.83 C 1239.79 818.861 1229.31 811.205 1220.86 805.628 L 1165.49 769.408 C 1142.99 754.542 1119.37 739.084 1096.07 725.566 C 1121.7 711.464 1146.78 696.397 1172.35 682.246 C 1193.3 670.65 1214.82 659.478 1235.95 648.145 z" fill="currentColor" />
<path d="M 797.763 1228.9 C 807.97 1233.88 828.025 1249.51 839.027 1256.52 C 875.343 1279.89 912.082 1302.6 949.226 1324.63 C 936.334 1332.85 917.998 1342.16 904.192 1349.57 C 873.976 1365.97 843.213 1381.35 811.956 1395.67 C 804.502 1343.74 800.3 1281.12 797.763 1228.9 z" fill="currentColor" />
<path d="M 1246.64 1231.81 L 1247.38 1232.49 C 1250.96 1244.97 1239.21 1376.62 1236.69 1399.4 C 1213.41 1389.77 1171.69 1365.42 1148.86 1352.9 L 1100.78 1326.25 C 1150.39 1296.32 1199.03 1264.83 1246.64 1231.81 z" fill="currentColor" />
<path d="M 723.766 965.133 C 724.348 969.027 723.707 999.098 723.724 1005.45 C 723.874 1031.61 724.339 1057.77 725.117 1083.92 C 708.695 1072.91 692.525 1060.86 676.529 1049.19 C 664.96 1040.76 653.245 1032.52 641.39 1024.49 C 665.593 1005.07 697.76 982.288 723.766 965.133 z" fill="currentColor" />
<path d="M 1322.45 964.534 C 1329.9 969.013 1343.02 978.722 1350.34 984.014 C 1367.38 996.345 1385.85 1009.37 1402.35 1022.37 C 1392.85 1030.95 1377.21 1041.93 1366.55 1049.84 C 1351.73 1061.2 1336.04 1071.33 1321.68 1083.23 C 1322.1 1043.15 1323.47 1004.85 1322.45 964.534 z" fill="currentColor" />
<path d="M 815.28 606.565 C 882.693 635.215 938.887 662.689 1003.9 696.617 L 991.046 704.13 C 985.492 707.588 979.916 711.011 974.319 714.399 C 921.182 681.379 868.738 653.708 814.085 623.758 C 814.088 618.546 814.836 611.872 815.28 606.565 z" fill="currentColor" />
<path d="M 1274.58 930.811 C 1283.44 936.623 1292.34 942.893 1301.09 948.9 C 1301.83 999.466 1301.41 1047.14 1300.98 1097.61 L 1288.72 1105.43 C 1284.28 1108.28 1278.2 1112.92 1273.76 1116.09 C 1278.36 1058.65 1275.44 988.767 1274.58 930.811 z" fill="currentColor" />
<path d="M 769.771 933.93 C 771.626 935.691 770.251 1001.94 770.23 1009.64 L 770.905 1116.95 L 757.051 1106.79 L 746.768 1099.4 C 744.732 1049.55 744.167 999.654 745.072 949.771 L 769.771 933.93 z" fill="currentColor" />
<path d="M 1293.58 1199.83 C 1294.65 1204.02 1293.99 1210.98 1293.66 1215.39 C 1288.25 1289.17 1276.55 1362.2 1263.97 1435.03 C 1262.68 1442.46 1262.1 1450.4 1260.18 1457.62 C 1257.56 1459.59 1257.59 1458.83 1253.29 1458.64 C 1250.21 1454.28 1255.17 1425.41 1255.96 1417.57 C 1262.57 1352.3 1268.9 1281.99 1268.99 1216.53 C 1277.07 1211.79 1285.83 1205.29 1293.58 1199.83 z" fill="currentColor" />
<path d="M 779.889 631.219 C 783.389 632.541 787.985 634.72 791.516 636.259 C 787.351 654.745 784.465 691.121 782.958 711.132 C 779.855 752.335 775.471 799.777 775.113 840.886 C 768.951 844.903 762.572 849.538 756.512 853.785 L 750.641 858.166 C 752.875 784.48 767.653 703.834 779.889 631.219 z" fill="currentColor" />
<path d="M 1266.9 630.807 C 1271.31 635.054 1296.79 839.031 1294.9 855.303 L 1293.56 856.235 L 1290.51 854.405 C 1283.37 849.698 1276.37 844.765 1269.54 839.612 C 1268.24 765.717 1263.43 709.92 1256.68 637.086 L 1266.9 630.807 z" fill="currentColor" />
<path d="M 752.016 1195.32 C 755.721 1196.96 771.269 1209.39 776.104 1212.93 C 778.142 1259.99 781.478 1306.98 786.108 1353.86 C 787.102 1365.02 792.184 1396.09 791.636 1405.39 L 789.645 1406.71 L 779.42 1411.87 C 772.666 1371.61 766.274 1330.92 761.253 1290.42 C 757.327 1258.76 755.416 1227.01 752.016 1195.32 z" fill="currentColor" />
<path d="M 1260.75 593.911 C 1263.23 597.049 1263.95 604.359 1264.63 608.513 L 1254.66 613.641 L 1253.91 613.469 C 1252.32 610.368 1252.16 601.983 1251.88 598.068 L 1260.75 593.911 z" fill="currentColor" />
<path d="M 786.426 594.013 C 791.324 595.282 792.615 595.509 795.423 599.162 C 796.364 603.6 794.546 608.045 793.281 612.601 C 788.451 611.388 787.228 611.234 784.514 607.82 C 783.426 603.405 785.249 598.635 786.426 594.013 z" fill="currentColor" />
<metadata><recraft-signature>{"signed_by": "recraft", "signature_b64": "2jdPdcz0HiKY21x87M95xmWMBDwXVv5d6di93dSk/beAoJOFrc9IabLRyA4u6BS4OEhoHP/70sQtEfRlKSbJDQ==", "signing_algo": "Ed25519", "generation_timestamp": 1772065427, "identifier": "33eec7b3-6518-457e-88aa-523b680bb44a"}</recraft-signature></metadata></g></svg>