<svg xmlns="http://www.w3.org/2000/svg" viewBox="0 0 24 24">
<g transform="scale(0.011719,0.011719)"><path d="M 875.855 95.1522 C 893.776 92.93 910.355 97.9202 920.891 113.461 C 936.458 136.425 925.6 158.101 914.01 179.502 C 906.506 193.357 898.925 206.746 890.364 220.056 C 822.132 326.334 731.708 416.586 625.301 484.616 C 626.274 502.836 626.068 517.848 622.798 535.746 C 646.91 559.685 676.514 584.955 702.553 607.295 C 779.582 673.38 866.503 755.245 963.3 788.781 C 1080.31 829.319 1187.02 735.468 1270.98 667.339 C 1322.58 625.459 1372.76 581.106 1423.11 537.17 C 1420.35 517.974 1422.49 505.199 1425.57 486.492 C 1327.66 432.502 1196.28 289.107 1140.24 191.922 C 1130.85 173.351 1112.8 149.163 1121.03 127.269 C 1135.83 87.9013 1169.46 89.4368 1199.8 106.214 C 1308.02 166.068 1408.19 247.51 1481.56 347.489 C 1498.92 371.149 1512.58 397.003 1526.14 422.846 C 1542.98 424.157 1557.02 425.554 1572.17 433.506 C 1608.87 452.765 1625.73 484.583 1626.41 524.844 C 1711.56 563.582 1795.99 641.36 1853.84 713.942 C 1879.09 745.616 1958.05 855.282 1952.81 893.371 C 1951.23 904.831 1944.79 915.77 1935.31 922.422 C 1925.53 929.28 1913.7 931.288 1902.08 928.904 C 1880.07 924.388 1856.6 907.973 1837.74 895.993 C 1751.6 841.284 1659.18 756.064 1597.35 674.766 C 1584.55 657.923 1573.3 640.307 1561.88 622.521 C 1538.45 626.377 1532.03 627.488 1508.17 624.438 C 1442.52 693.121 1379.48 765.95 1324.52 843.458 C 1275.97 911.936 1226.78 1000.76 1260.93 1086.2 C 1291.95 1163.85 1347.56 1237.81 1399.68 1302.71 C 1433.31 1344.44 1467.78 1385.5 1503.06 1425.85 C 1527.38 1421.33 1536.13 1420.79 1560.43 1425.52 C 1619.86 1330.55 1707.11 1246.52 1796.94 1180.46 C 1822.07 1161.98 1848.85 1143.42 1876.7 1129.3 C 1891.81 1121.64 1908.86 1114.1 1925.79 1120.19 C 1936.25 1124.02 1944.75 1131.88 1949.41 1142 C 1973.16 1193.34 1841.94 1349.82 1807.94 1386.64 C 1757.45 1441.31 1697.32 1493.81 1629.28 1524.9 C 1627.86 1564.99 1607.13 1598.83 1570.33 1615.76 C 1555.3 1622.68 1543.79 1623.4 1527.54 1624.1 C 1524.89 1629.87 1522.18 1635.61 1519.4 1641.33 C 1506.55 1667.37 1489.98 1690.29 1472.33 1713.25 C 1406.32 1799.21 1323.95 1871.24 1229.97 1925.21 C 1213.72 1934.38 1195.01 1945.54 1177.54 1951.5 C 1170.42 1953.41 1162.96 1953.73 1155.71 1952.42 C 1143.52 1950.14 1132.83 1942.89 1126.22 1932.39 C 1121.05 1924.24 1117.5 1910.9 1120.24 1901.74 C 1126.48 1880.89 1142.46 1855.07 1153.85 1836.61 C 1221.02 1726.94 1312.54 1634.21 1421.31 1565.61 C 1418.89 1541.35 1418.8 1534.19 1423.85 1510.21 C 1391.66 1481.11 1358.97 1452.58 1325.79 1424.61 C 1253.76 1363.09 1133.78 1259.44 1038.18 1249.91 C 923.233 1238.46 754.98 1395.8 673.916 1468.32 C 657.395 1483.1 641.43 1498.66 624.338 1512.78 C 625.683 1531.97 625.221 1543.34 622.203 1562.2 C 737.194 1637.52 831.818 1734.84 904.331 1852.4 C 913.67 1870.54 935.169 1898.84 927.539 1920.06 C 912.357 1962.29 877.701 1958.3 845.36 1940.73 C 818.778 1926.3 794.835 1912.87 770.311 1895.21 C 671.28 1823.87 576.488 1736.05 521.949 1625.2 C 461.666 1625.99 422.081 1580.52 418.573 1522.43 C 337.107 1484.48 265.754 1419.68 208.315 1351.41 C 178.758 1316.28 90.882 1201.39 95.7487 1154.52 C 96.8333 1144.07 101.97 1133.76 110.298 1127.21 C 119.223 1120.2 130.447 1116.46 141.764 1118.18 C 158.362 1120.69 174.534 1130.78 188.867 1139.09 C 265.163 1183.35 350.98 1257.57 409.228 1323.84 C 428.165 1345.38 446.847 1367.83 463.233 1391.4 C 471.044 1402.64 477.534 1414.72 485.44 1425.87 C 512.172 1423.25 518.764 1421.06 545.736 1425.49 C 629.125 1324.29 801.213 1153.79 797.008 1018.49 C 796.018 986.625 785.849 956.014 772.213 927.439 C 740.382 860.734 689.894 798.564 644.067 740.948 C 611.821 700.407 578.409 657.943 540.623 622.444 C 515.578 626.784 508.877 626.87 483.867 624.672 C 426.969 723.779 287.2 858.959 185.666 912.126 C 167.257 921.765 143.914 934.19 122.731 926.966 C 112.836 923.591 104.332 916.069 100.094 906.46 C 93.2725 890.996 98.6677 872.994 104.665 858.169 C 119.572 821.323 141.972 786.471 164.842 754.125 C 228.079 664.684 316.452 569.618 418.993 525.817 C 423.447 462.651 460.742 427.254 522.615 419.684 C 525.462 414.109 528.398 408.58 531.423 403.099 C 589.733 297.583 702.566 192.561 805.275 130.105 C 824.24 118.573 854.794 101.232 875.855 95.1522 z" fill="currentColor" />
<path d="M 1161.54 118.133 C 1176.3 118.633 1194.47 130.375 1207.4 137.847 C 1271.03 175.026 1330.05 219.582 1383.23 270.591 C 1432.98 318.642 1477.58 373.692 1506.56 436.882 C 1522.57 471.775 1526.05 469.261 1498.7 494.533 L 1496.01 495.583 C 1483.35 493.912 1450.91 476.226 1440.04 469.148 C 1338.1 402.801 1246.09 309.64 1178.77 208.598 C 1166.19 189.709 1147.38 159.934 1142.71 138.411 C 1145.88 125.989 1148.91 121.454 1161.54 118.133 z" fill="currentColor" />
<path d="M 1496.98 1551.06 C 1504.74 1559.6 1511.83 1565.57 1521.07 1572.37 C 1517.92 1585.91 1510.93 1603.77 1504.66 1616.26 C 1448.5 1728.2 1343.28 1827.66 1237.56 1892.88 C 1219.08 1904.28 1188.04 1922.16 1168.31 1928.91 C 1152.36 1929.99 1147.21 1923.91 1143.61 1909.11 C 1144.17 1906.78 1144.82 1904.48 1145.57 1902.21 C 1151.82 1883.95 1172.05 1853 1182.38 1836.66 C 1259.44 1714.72 1368.18 1616.01 1496.98 1551.06 z" fill="currentColor" />
<path d="M 1906.63 1143.14 C 1907.16 1143.1 1907.69 1143.05 1908.22 1143.01 C 1913.98 1142.62 1920.87 1143.57 1925.18 1147.78 C 1928.17 1150.71 1929.02 1154.46 1929.04 1158.52 C 1929.21 1193.76 1858.78 1289.53 1836.47 1317.48 C 1818.01 1340.53 1798.46 1362.68 1777.89 1383.88 C 1736.98 1425.96 1642.57 1511.46 1581.77 1512.32 C 1578.86 1511.84 1573.19 1510.7 1570.49 1509.52 C 1565.92 1507.52 1562.64 1503.21 1560.9 1498.65 C 1557.2 1488.97 1561.31 1475.8 1565.47 1466.78 C 1615.27 1358.72 1798.51 1184.55 1906.63 1143.14 z" fill="currentColor" />
<path d="M 464.033 534.203 C 475.06 533.251 481.93 542.623 488.668 550.328 C 486.657 596.555 415.88 681.899 384.403 716.48 C 333.505 772.395 274.866 827.49 211.257 868.865 C 191.194 881.916 168.738 896.539 146.086 904.31 C 136.107 906.379 124.463 905.033 121.711 894.008 C 117.784 878.276 133.8 847.87 141.454 834.735 C 208.41 719.837 331.589 571.989 464.033 534.203 z" fill="currentColor" />
<path d="M 879.665 119.019 C 918.262 117.175 901.673 152.513 890.545 171.857 C 823.715 288.023 727.335 393.783 612.206 463.337 C 594.892 473.798 572.878 486.451 553.618 491.983 L 550.671 491.667 C 530.287 474.655 523.166 472.459 535.615 446.935 C 593.833 327.571 697.599 228.895 807.8 157.148 C 829.725 142.873 855.297 128.503 879.665 119.019 z" fill="currentColor" />
<path d="M 132 1142.09 C 142.742 1141.18 155.277 1146.82 164.582 1152.29 C 281.284 1220.8 386.549 1317.61 460.782 1431.01 C 472.245 1448.52 488.73 1477.16 494.417 1496.08 C 489.198 1502.42 482.929 1508.69 477.326 1515.45 L 476.176 1517.11 C 467.637 1520.09 425.953 1500.06 415.204 1494.22 C 297.986 1430.54 201.889 1323.59 138.009 1207.46 C 128.13 1189.5 106.678 1154.42 132 1142.09 z" fill="currentColor" />
<path d="M 1575.38 529.998 C 1599.15 529.708 1666.37 572.659 1687.53 588.006 C 1776.65 652.985 1850.77 736.364 1904.85 832.491 C 1914.77 850.426 1948.34 901.596 1909.73 905.68 C 1900.6 904.279 1892 900.885 1883.92 896.201 C 1770.83 830.642 1670.55 738.117 1595.36 631.243 C 1581.47 611.5 1561.14 575.979 1554.32 553.498 C 1559.78 542.921 1565.99 536.836 1575.38 529.998 z" fill="currentColor" />
<path d="M 548.624 1554.73 C 559.523 1555.07 574.795 1562.76 584.417 1568.07 C 698.762 1631.1 801.163 1738.52 872.303 1846.95 C 882.694 1864.75 896.081 1883.44 902.787 1902.9 C 907.599 1916.87 899.309 1926.72 886.367 1930.16 C 857.478 1927.8 785.735 1877.06 761.098 1858.51 C 680.198 1797.61 596.378 1718.7 550.263 1627.12 C 541.748 1610.21 532.796 1590.75 530.207 1572.01 C 537.444 1565.87 542.03 1561.56 548.624 1554.73 z" fill="currentColor" />
<path d="M 1011.97 913.156 C 1073.22 907.149 1127.74 951.964 1133.69 1013.22 C 1139.65 1074.48 1094.79 1128.96 1033.53 1134.87 C 972.333 1140.77 917.929 1095.98 911.978 1034.79 C 906.027 973.596 950.781 919.156 1011.97 913.156 z" fill="currentColor" />
<path d="M 1068.68 937.684 C 1085.39 951.645 1095.15 961.006 1108.78 977.716 C 1075.21 1006.53 1046.83 1034.7 1016.84 1067.23 C 1003.52 1081.69 989.612 1095.74 976.969 1110.82 C 961.73 1098.82 950.618 1087.25 937.83 1072.71 C 951.784 1058.05 971.402 1041.05 986.427 1026.03 C 1014.66 997.349 1042.09 967.89 1068.68 937.684 z" fill="currentColor" />
<path d="M 619.113 553.972 C 643.657 578.036 673.733 603.904 699.624 626.781 C 743.525 665.961 788.24 704.219 833.741 741.53 C 852.618 756.894 871.691 772.015 890.956 786.89 C 901.042 794.662 911.768 802.196 921.522 810.335 C 924.614 812.914 924.496 814.435 924.668 817.913 C 923.17 821.648 921.77 822.493 918.741 825.353 C 909.02 821.573 892.845 808.011 883.794 801.334 C 819.787 754.115 759.155 701.184 699.406 648.712 C 681.476 632.851 663.646 616.875 645.918 600.788 C 634.941 590.897 621.498 579.55 611.694 568.982 C 613.777 564.268 616.756 558.67 619.113 553.972 z" fill="currentColor" />
<path d="M 820.768 1118.79 C 826.536 1119.27 828.17 1119.16 831.07 1124.52 C 831.448 1130.44 828.585 1134.36 825.299 1139.23 C 799.122 1178.01 769.48 1215.25 739.823 1251.51 C 704.791 1293.46 668.912 1335.05 632.784 1376.07 C 625.304 1384.56 580.362 1438.39 576.564 1439.13 L 563.59 1430.6 C 574.139 1419.05 584.752 1407.04 594.909 1395.16 C 647.832 1333.26 702.454 1272.36 753.543 1208.97 C 766.908 1192.42 779.806 1175.49 792.222 1158.22 C 798.605 1149.21 814.053 1125.54 820.768 1118.79 z" fill="currentColor" />
<path d="M 916.815 1223.9 C 922.143 1223.96 926.573 1226.39 925.554 1231.98 C 924.216 1239.33 909.554 1246.79 903.885 1250.5 C 892.831 1257.62 881.943 1265 871.228 1272.63 C 825.048 1305.55 780.134 1343.07 737.126 1379.97 C 697.144 1413.88 657.897 1448.65 619.414 1484.26 L 618.937 1484.45 C 616.736 1483.27 612.024 1474 610.371 1471.12 C 623.652 1457.97 639.765 1444.06 653.742 1431.34 C 687.653 1400.01 722.48 1369.68 758.177 1340.4 C 806.923 1300.11 861.542 1254.72 916.815 1223.9 z" fill="currentColor" />
<path d="M 1473.88 611.037 C 1477.53 613.314 1486.25 616.916 1490.51 618.789 C 1483.89 627.064 1470.36 640.307 1462.54 648.518 C 1444.17 667.64 1426.12 687.065 1408.39 706.785 C 1345.41 777.378 1285.51 850.652 1228.84 926.404 C 1225.58 929.397 1223.74 929.86 1219.51 928.826 C 1211.67 922.52 1216.81 917.688 1221.32 911.299 C 1297.29 803.765 1387.21 709.458 1473.88 611.037 z" fill="currentColor" />
<path d="M 1218.84 1119.71 C 1221.75 1119.55 1226.46 1119.3 1228.3 1122.12 C 1302.08 1234.81 1389.13 1339.44 1480.29 1438.51 C 1478.71 1439.93 1474.8 1442.77 1472.98 1444.19 C 1469.74 1446.45 1470.46 1446.72 1467.25 1446.7 C 1453.71 1433.26 1439.39 1418.12 1426.88 1403.61 C 1356.93 1322.49 1287.48 1240.85 1229.03 1150.82 C 1224.2 1143.38 1218.74 1135.4 1216.05 1126.97 C 1215.28 1124.53 1217.55 1121.66 1218.84 1119.71 z" fill="currentColor" />
<path d="M 580.077 602.708 C 584.853 603.407 603.213 623.702 607.539 628.213 C 675.644 700.382 737.914 777.841 793.763 859.862 C 800.92 870.446 835.027 917.294 832.061 926.516 C 829.759 929.312 828.221 929.524 824.832 930.785 C 818.632 926.213 814.831 919.569 810.637 913.234 C 790.109 882.233 769.587 850.525 747.357 820.717 C 707.837 768.444 666.463 717.6 623.315 668.279 C 606.042 648.554 586.685 629.216 570.025 609.47 L 580.077 602.708 z" fill="currentColor" />
<path d="M 1126.84 1223.58 C 1157.69 1225.87 1402.43 1441.94 1440.7 1478.16 C 1438.79 1481.65 1436.14 1485.6 1433.98 1489 C 1432.6 1489.43 1432.76 1489.62 1431.46 1489.21 C 1425.47 1487.29 1310.12 1384.04 1294.92 1370.8 C 1274.63 1353.08 1254.09 1335.65 1233.3 1318.52 C 1208.76 1298.35 1183.71 1278.82 1158.15 1259.97 C 1148.98 1253.32 1139.07 1247.59 1129.97 1240.82 C 1121.53 1234.53 1121.4 1232.08 1126.84 1223.58 z" fill="currentColor" />
<path d="M 1432.43 565.836 C 1435.93 569.735 1439.48 576.495 1442.21 581.191 C 1413.92 602.501 1374.16 639.303 1345.85 663.791 C 1320.67 685.366 1295.11 706.491 1269.19 727.157 C 1224.57 763.224 1182.85 795.785 1133.84 825.727 C 1123.58 826.067 1122.98 815.214 1129.5 810.586 C 1135.34 806.445 1141.88 802.542 1147.9 798.565 C 1158.18 791.814 1168.23 784.735 1178.05 777.337 C 1270.42 708.805 1347.79 643.174 1432.43 565.836 z" fill="currentColor" />
<path d="M 1449.45 495.764 C 1459.51 499.589 1467.23 501.99 1477.6 504.706 C 1478.33 545.284 1502.35 571.736 1544.16 570.978 C 1546.3 577.619 1553.15 591.964 1553.12 598.155 L 1550.78 599.68 C 1537.82 602.11 1529.03 603.005 1515.84 600.39 C 1493.6 595.839 1474.03 582.76 1461.32 563.955 C 1447.24 542.744 1444.32 520.258 1449.45 495.764 z" fill="currentColor" />
<path d="M 506.944 477.596 C 520.344 475.27 533.958 480.34 542.573 490.863 C 551.188 501.387 553.47 515.734 548.544 528.411 C 543.618 541.088 532.248 550.13 518.787 552.076 C 498.38 555.026 479.387 541.038 476.148 520.674 C 472.91 500.311 486.628 481.122 506.944 477.596 z" fill="currentColor" />
<path d="M 1524.37 476.351 C 1545.62 474.444 1561.48 484.682 1571.13 503.829 C 1574.82 510.59 1575.85 525.719 1568.72 530.787 C 1559.56 537.292 1556.44 546.512 1546.07 550.881 C 1542.91 551.009 1539.26 551.174 1536.13 550.883 C 1524.51 549.714 1513.88 543.854 1506.69 534.661 C 1496.99 522.504 1496.49 511.678 1498.27 497.331 C 1506.76 491.697 1517.51 479.801 1524.37 476.351 z" fill="currentColor" />
<path d="M 514.404 1497.3 C 534.294 1497.8 550.088 1514.2 549.84 1534.09 C 549.593 1553.99 533.397 1569.99 513.5 1569.99 C 500.403 1570 488.316 1562.96 481.86 1551.56 C 475.405 1540.16 475.579 1526.18 482.315 1514.94 C 489.052 1503.71 501.31 1496.97 514.404 1497.3 z" fill="currentColor" />
<path d="M 1527.47 1496.61 C 1540.39 1494.13 1553.65 1498.84 1562.12 1508.91 C 1570.59 1518.99 1572.94 1532.86 1568.27 1545.17 C 1563.59 1557.47 1552.63 1566.29 1539.61 1568.2 C 1520.07 1571.08 1501.81 1557.82 1498.51 1538.35 C 1495.21 1518.87 1508.07 1500.33 1527.47 1496.61 z" fill="currentColor" />
<path d="M 600.731 495.929 L 602.589 496.658 C 603.437 501.102 603.335 505.107 603.142 509.612 C 600.626 568.397 557.403 605.424 498.36 602.63 L 497.716 602.155 C 497.406 599.663 507.132 577.834 508.983 572.01 C 510.321 572.03 511.659 572.039 512.998 572.037 C 549.452 571.959 572.134 544.174 571.496 509.206 C 582.143 505.068 590.512 500.948 600.731 495.929 z" fill="currentColor" />
<path d="M 1527.35 1447.3 C 1534.66 1446.5 1541.99 1446.92 1549.35 1447.14 C 1544.72 1458.18 1540.37 1466.5 1540.3 1478.65 C 1502.31 1476.62 1479.33 1500.4 1476.48 1536.86 C 1472.24 1538.49 1467.86 1540.46 1463.67 1542.26 C 1457.66 1545.06 1452.02 1548.66 1446.32 1552.07 C 1441.44 1499.92 1475.62 1455.66 1527.35 1447.3 z" fill="currentColor" />
<path d="M 510.898 1448.46 C 569.195 1447.78 601.841 1483.93 600.7 1542.86 C 600.651 1545.42 600.079 1546.91 598.11 1548.34 L 594.131 1546.5 C 585.675 1542.01 578.907 1539.17 570.132 1535.53 C 568.628 1500.94 545.964 1475.96 510.572 1474.91 C 506.677 1465.28 503.698 1458.55 499.039 1449.22 L 510.898 1448.46 z" fill="currentColor" />
<path d="M 1601.43 1533.42 L 1603.95 1533.98 C 1604.21 1534.68 1604.65 1535.66 1604.5 1536.4 C 1597.38 1571.8 1575.37 1596.31 1538.79 1599.37 L 1536.76 1598.47 L 1536.95 1595.6 C 1537.6 1594.59 1538.24 1593.58 1538.89 1592.57 C 1547.87 1589.17 1564.04 1585.73 1571.67 1579.33 C 1581.77 1570.57 1588.53 1558.91 1593.14 1546.5 C 1595.59 1539.9 1595.75 1537.18 1601.43 1533.42 z" fill="currentColor" />
<path d="M 510.664 446.187 L 512.822 446.585 C 513.289 450.994 513.491 452.084 510.035 454.559 C 485.264 456.223 465.5 475.147 457.382 497.708 C 454.867 504.701 453.827 513.222 449.649 517.007 C 446.32 516.019 447.467 516.985 445.749 514.487 C 444.798 494.905 462.335 472.843 476.36 460.685 C 486.884 451.561 497.437 449.052 510.664 446.187 z" fill="currentColor" />
<path d="M 1527.75 450.766 C 1529.82 450.674 1531.89 450.618 1533.95 450.596 C 1571.32 450.246 1598.29 482.788 1598.56 518.838 C 1596.57 518.728 1594.68 518.554 1592.7 518.378 C 1590.03 514.921 1590.16 499.151 1585.11 489.547 C 1577.74 475.54 1566.39 464.048 1550.77 459.454 C 1544.47 457.601 1534.66 457.294 1528.62 455.204 L 1527.75 450.766 z" fill="currentColor" />
<path d="M 447.546 1533.38 L 453.52 1535.95 C 456.37 1539.31 459.261 1552.96 461.211 1557.82 C 470.098 1579.95 487.796 1584.05 508.004 1590.27 C 510.371 1590.99 511.223 1596.17 511.902 1598.5 C 476.424 1595.13 450.806 1568.59 447.546 1533.38 z" fill="currentColor" />
<metadata><recraft-signature>{"signed_by": "recraft", "signature_b64": "oVVGnefgWvqLs1nRdtjTFR8F/iQvNUp/6hRLufvdxXQ7Cn1DvNVv7lPx3qW8sMLn9q0ROogXkuTzsljANNDPBQ==", "signing_algo": "Ed25519", "generation_timestamp": 1772065511, "identifier": "b9cd2946-1734-45c5-a912-f1beadac5657"}</recraft-signature></metadata></g></svg>