<svg xmlns="http://www.w3.org/2000/svg" viewBox="0 0 24 24">
<g transform="scale(0.011719,0.011719)"><path d="M 731.955 236.351 C 760.713 235.812 790.065 240.607 818.195 245.742 C 944.616 268.819 1069.27 322.396 1179.91 386.829 C 1205.38 401.662 1230.99 419.206 1255.72 435.576 C 1269.31 444.573 1285.34 457.564 1299.4 465.366 C 1304.47 468.181 1307.76 461.622 1321.79 466.141 L 1323.13 466.581 C 1345.8 441.306 1362.9 414.648 1384.24 388.684 C 1398.91 389.409 1423.53 394.208 1437.94 398.434 C 1444.01 406.969 1468.98 452.664 1471.32 461.982 C 1466.47 471.157 1456.49 483.708 1450.19 492.475 C 1439.19 507.792 1428.1 522.926 1416.36 537.688 C 1428.65 547.722 1429.04 552.868 1423.01 567.105 C 1459.96 594.145 1489.05 620.801 1521.8 653.264 C 1600.37 731.148 1668.73 818.702 1725.22 913.82 C 1747.22 950.267 1769.41 990.806 1784.05 1031 C 1786.92 1040.71 1792.44 1057.78 1787.52 1067.29 C 1783.64 1074.8 1776.49 1072.05 1771.65 1067.29 C 1764.98 1060.72 1759.36 1053.63 1753.25 1046.49 L 1722.2 1010.57 C 1660.33 940.27 1594.84 873.24 1525.99 809.757 C 1472.59 760.52 1415.34 710.61 1353.6 671.995 C 1337.02 687.496 1338.31 691.185 1315.88 679.849 C 1287.54 711.572 1259.15 755.78 1231.05 788.623 C 1221.34 799.967 1213.37 802.167 1198.67 803.078 C 1185.44 818.235 1171.51 836.424 1158.7 852.276 L 1068.82 964.492 L 834.339 1253.46 C 793.2 1306.83 746.335 1361.11 703.941 1414.26 C 649.224 1482.87 593.899 1552.58 537.576 1619.76 C 539.534 1645.54 531.609 1661.85 505.663 1669.95 C 497.889 1686.08 493.82 1695.02 477.105 1703.11 C 477.572 1735.6 457.586 1744.6 429.983 1751.53 C 418.695 1765.85 380.621 1819.45 364.475 1822.25 C 358.24 1823.33 351.371 1819.55 346.385 1816.2 C 334.745 1808.4 315.337 1796.54 312.889 1781.64 C 309.268 1759.61 351.274 1717.63 363.687 1699.54 L 364.416 1698.45 C 361.774 1693.2 359.727 1688.79 359.394 1682.87 C 358.539 1667.65 370.093 1657.92 380.447 1648.88 C 384.51 1645.33 388.177 1641.27 392.477 1638.03 C 394.376 1636.51 400.451 1638.26 401.81 1636.38 C 409.078 1626.32 414.76 1619.59 424.269 1611.68 C 424.055 1609.39 423.904 1607.09 423.815 1604.79 C 422.975 1581.64 446.125 1558.38 469.303 1558.07 C 482.975 1543.2 496.25 1525.27 509.035 1509.41 L 597.688 1397.74 L 842.875 1090.58 C 915.236 1001.49 987.074 911.984 1058.39 822.057 C 1071.42 805.662 1084.61 789.398 1097.96 773.267 C 1106.42 762.997 1121.29 745.841 1127.35 734.458 C 1126.9 730.676 1126.5 726.887 1126.16 723.093 C 1125.02 709.305 1129.19 702.189 1137.51 691.84 C 1161.77 661.671 1184.24 630.262 1209.26 600.713 C 1204.99 586.947 1210.14 582.054 1217.97 570.981 C 1111.52 475.257 993.79 392.89 867.379 325.708 C 837.049 309.337 806.096 294.147 774.59 280.173 C 763.668 275.223 752.89 270.241 741.839 265.295 C 734.107 261.705 720.79 259.342 719.239 249.077 C 717.973 240.692 725.281 237.312 731.955 236.351 z" fill="currentColor" />
<path d="M 1120 768.548 C 1122.79 769.878 1144.15 788.54 1148.97 792.228 C 1118.71 827.737 1085.88 870.35 1056.74 906.931 L 968.204 1016.08 L 676.674 1375.71 L 547.107 1536.26 C 534.376 1552.06 522.898 1568.54 509.827 1584.33 C 509.15 1585.04 508.497 1585.22 507.551 1585.71 C 503.864 1584.23 487.216 1570.48 482.592 1566.8 C 496.119 1548.49 512.915 1528.4 527.21 1510.24 L 658.104 1346.34 L 1120 768.548 z" fill="currentColor" />
<path d="M 739.305 249.838 C 769.179 250.275 808.872 256.775 838.083 263.171 C 983.086 294.918 1125.16 361.718 1246.79 446.364 C 1260.41 455.844 1279.7 467.663 1291.95 478.033 C 1281.97 490.294 1271.96 503.568 1262.22 516.095 C 1254.8 526.02 1245.62 538.636 1237.01 547.259 C 1212.1 530.955 1181.6 505.127 1157.95 486.542 C 1121.77 458.217 1084.57 431.213 1046.42 405.586 C 1023.39 390.287 998.301 376.102 974.224 362.467 C 939.46 342.363 903.881 323.702 867.579 306.532 C 825.443 286.942 781.716 269.257 739.305 249.838 z" fill="currentColor" />
<path d="M 1147.43 451.424 C 1158.11 454.845 1227.89 511.838 1235.27 522.27 C 1235.81 526.293 1235.54 525.174 1233.32 529.541 C 1219.39 522.548 1200.74 505.012 1188.05 494.578 C 1175.79 484.502 1152.39 469.399 1143.43 457.842 C 1143.91 454.173 1144.36 454.806 1147.43 451.424 z" fill="currentColor" />
<path d="M 1415.02 578.809 C 1435.59 592.661 1471.29 624.596 1489.37 641.876 C 1581.42 729.085 1660.1 829.396 1722.88 939.569 C 1742.4 973.641 1764.99 1016.32 1776.36 1053.98 C 1768.48 1045.28 1759.33 1033.26 1751.76 1023.92 C 1735.37 1003.87 1718.98 983.744 1702.61 963.713 C 1647.22 895.931 1586.41 833.066 1522.35 773.468 C 1486.5 740.115 1452.44 704.994 1411.35 677.881 C 1395.87 667.669 1379.27 657.373 1364.22 646.81 C 1381.01 624.144 1398.73 601.702 1415.02 578.809 z" fill="currentColor" />
<path d="M 1450.17 682.445 C 1451.91 682.633 1453.47 682.867 1455.12 683.512 C 1465.67 687.631 1554.9 769.987 1556.72 776.551 C 1557.5 779.366 1556.43 781.298 1555.24 783.731 C 1553.9 783.538 1552.29 783.39 1550.99 782.944 C 1547.8 781.856 1464.99 705.69 1456.27 696.872 C 1453.59 694.167 1449.98 690.853 1448.71 687.23 C 1448.07 685.408 1449.38 684.063 1450.17 682.445 z" fill="currentColor" />
<path d="M 1280.3 658.135 C 1284.89 660.502 1298.2 669.867 1303.37 673.245 C 1276.3 705.366 1251.26 741.061 1225.09 774.045 C 1213.02 789.251 1209.12 789.019 1190.06 791.169 C 1175.67 808.206 1160.68 827.882 1146.37 845.474 L 1002.19 1024.64 L 736.129 1352.24 C 684.834 1416.86 632.977 1481.04 580.566 1544.75 C 563.156 1565.77 547.474 1587.12 529.223 1607.47 L 517.019 1596.09 C 521.855 1591.2 527.674 1583.16 532.016 1577.5 C 567.728 1531.42 606.998 1484.36 643.527 1438.55 L 966.223 1039.4 L 1088.66 888.204 C 1106.91 865.764 1125.21 843.72 1142.69 820.647 C 1150.37 810.505 1159.13 800.469 1166.18 789.937 C 1159.13 782.911 1136.31 766.224 1127.4 759.374 C 1129.85 753.847 1132.32 749.53 1135.28 744.269 C 1151.84 756.215 1172.77 788.956 1192.08 769.476 C 1199 762.497 1206.25 753.782 1212.14 745.891 C 1233.8 716.836 1260.56 688.416 1280.3 658.135 z" fill="currentColor" />
<path d="M 1310.57 477.734 C 1322.67 478.629 1402.65 542.865 1413.78 554.393 C 1407.04 568.988 1353.03 638.86 1339.71 652.469 L 1338.91 652.214 L 1337.59 651.769 C 1313.19 643.718 1267.7 608.753 1245.75 592.282 C 1240.83 588.593 1235.82 582.431 1235.43 575.728 C 1237.92 570.898 1247.67 558.266 1251.49 553.702 C 1269.89 531.714 1290.41 497.365 1310.57 477.734 z" fill="currentColor" />
<path d="M 1306.96 507.822 C 1311.4 508.881 1312.45 508.795 1314.94 511.855 C 1313.31 519.072 1287.49 551.085 1280.98 559.434 L 1277.28 559.715 C 1274.65 557.958 1275.56 559.162 1274.82 555.733 C 1277.25 546.109 1299.84 517.584 1306.96 507.822 z" fill="currentColor" />
<path d="M 1383.09 553.595 C 1387.64 554.941 1388.12 555.21 1389.36 559.464 C 1388.23 566.352 1375.12 581.042 1370.1 587.646 C 1366.74 585.995 1366.57 585.934 1363.69 583.579 C 1363.9 578.147 1378.98 557.882 1383.09 553.595 z" fill="currentColor" />
<path d="M 1219.27 611.015 C 1236.95 627.592 1252.16 638.72 1272.01 652.283 C 1268.08 657.307 1263.33 662.702 1259.1 667.568 C 1233.6 696.96 1211.08 729.984 1185.69 759.319 C 1182.16 762.479 1177 765.03 1172.73 761.449 C 1164.07 754.397 1155.76 746.202 1147.41 738.913 C 1129.74 723.498 1139.43 712.897 1150.82 698.313 C 1173.62 669.132 1195.88 639.811 1219.27 611.015 z" fill="currentColor" />
<path d="M 1384.28 414.01 C 1387.74 416.25 1397.12 424.411 1400.55 427.334 C 1410.31 435.642 1419.31 442.826 1429.58 450.426 C 1423.25 459.803 1391.59 504.161 1384.37 509.864 L 1382.51 509.38 C 1365.81 498.788 1351.31 486.377 1334.78 475.497 C 1350.18 459.248 1368.08 432.633 1384.28 414.01 z" fill="currentColor" />
<path d="M 402.332 1649.93 C 414.092 1656.21 455.281 1688.75 462.854 1700.87 C 463.395 1713.09 462.29 1723.14 449.66 1730.66 C 446.135 1732.76 441.147 1733.63 437.163 1732.22 C 428.631 1722.37 418.028 1714.69 406.749 1708.24 C 361.269 1682.2 364.908 1679.94 402.332 1649.93 z" fill="currentColor" />
<path d="M 457.792 1572.93 C 469.353 1572.48 478.208 1581.37 486.828 1589.22 C 501.229 1602.33 533.248 1621.53 520.672 1644.5 C 518.23 1648.96 508.989 1653.9 504.302 1655.04 C 484.163 1644.48 457.404 1622.14 438.582 1608.53 C 429.295 1601.81 452.005 1577.93 457.792 1572.93 z" fill="currentColor" />
<path d="M 372.318 1711.63 C 377.841 1713.89 390.607 1724.7 395.855 1728.99 C 381.772 1749.76 362.873 1772.28 346.656 1791.31 L 343.725 1793.54 C 337.473 1794.32 325.807 1783.09 326.83 1779.04 C 331.668 1759.86 360.812 1725.33 372.318 1711.63 z" fill="currentColor" />
<path d="M 1439.59 458.509 C 1442.97 460.806 1448.52 463.691 1452.23 465.773 C 1443.01 481.752 1417.7 513.419 1405.84 527.951 L 1394.05 517.765 C 1409.76 498.902 1424.39 478.009 1439.59 458.509 z" fill="currentColor" />
<path d="M 407.286 1737.89 C 409.963 1739.68 413.131 1742.83 415.582 1745.12 C 407.456 1758.23 375.676 1797.29 364.36 1809.02 C 360.718 1807.52 357.556 1806.6 355.64 1803.27 C 357.921 1797.9 377.242 1776.13 381.761 1770.46 C 390.218 1759.86 398.936 1748.68 407.286 1737.89 z" fill="currentColor" />
<path d="M 426.336 1627.67 C 430.558 1629.22 459.021 1654.1 464.676 1658.9 L 455.338 1670.82 C 444.781 1664.04 424.752 1649.87 415.189 1642.11 C 419.305 1635.76 421.281 1633.35 426.336 1627.67 z" fill="currentColor" />
<path d="M 1399.26 405.904 C 1409.16 407.216 1418.97 409.165 1428.62 411.74 C 1436.51 420.547 1443.54 435.435 1449.18 446.22 C 1445.21 444.722 1404.52 410.721 1399.26 405.904 z" fill="currentColor" />
<path d="M 476.954 1665.01 C 479.858 1667.19 486.707 1670.52 490.188 1672.34 C 486.554 1677.24 482.298 1681.2 477.97 1685.5 C 475.155 1687.6 472.606 1688.56 469.163 1687.43 C 464.288 1679.4 472.042 1670.69 476.954 1665.01 z" fill="currentColor" />
<metadata><recraft-signature>{"signed_by": "recraft", "signature_b64": "YrnhXgFtcTpC1HYGQYrgv8ayxAi2uBPhxWhMw3uvp6+gKs71KWDcL9fGYn4A5L+8pOJQqpw1gGbCKZeYHsVlAA==", "signing_algo": "Ed25519", "generation_timestamp": 1772065493, "identifier": "b72d5688-fce8-4593-913c-7af14fe26f48"}</recraft-signature></metadata></g></svg>