<svg xmlns="http://www.w3.org/2000/svg" viewBox="0 0 24 24">
<g transform="scale(0.011719,0.011719)"><path d="M 1662.27 208.312 C 1670.95 208.531 1678.5 210.76 1685.23 216.583 C 1700.46 229.769 1714.78 244.958 1728.6 259.661 L 1798.54 334.514 C 1808.06 344.611 1817.93 354.695 1827.32 364.698 C 1840.57 378.825 1862.72 391.031 1863.13 412.094 C 1863.42 426.847 1858.74 437.344 1849.77 448.564 C 1826.8 477.298 1802.89 505.104 1779.25 533.223 L 1644.28 694.122 C 1499.15 870.834 1352.92 1046.65 1205.62 1221.56 L 1029.26 1430.64 L 982.02 1486.48 C 955.098 1518.13 934.656 1546.52 897.583 1504.03 C 787.84 1378.26 671.182 1261.08 552.969 1143.3 C 523.209 1113.07 493.094 1083.19 462.629 1053.67 C 454.587 1046 432.668 1021.52 422.437 1020.62 L 421.895 1022 C 426.179 1030.01 474.684 1076.93 484.418 1087.11 C 555.903 1161.89 633.688 1234.24 704.321 1309.65 C 740.454 1346.09 775.911 1383.19 810.674 1420.94 C 832.187 1443.93 887.145 1499.75 898.628 1526.63 C 885.987 1519.16 848.441 1479.85 835.593 1467.25 L 652.494 1284.4 C 611.693 1243.72 570.496 1203.44 528.909 1163.56 C 492.128 1128.58 455.49 1093.54 418.589 1058.57 C 401.453 1042.33 394.44 1024.52 409.182 1002.9 C 420.743 985.942 434.467 969.501 447.152 953.249 C 471.549 921.71 496.195 890.365 521.088 859.215 C 534.717 842.205 547.419 824.158 561.946 808.178 C 572.621 796.436 592.991 796.787 603.818 807.502 C 616.925 820.473 628.871 834.757 641.796 848.063 C 670.663 877.721 700.01 906.907 729.827 935.609 C 763.32 967.823 797.144 999.691 831.292 1031.21 C 846.356 1045.08 873.318 1067.74 885.588 1081.73 C 907.491 1055.22 930.306 1029.6 952.463 1003.33 L 1114.07 811.464 C 1158.97 758.408 1203.78 702.465 1249.29 650.27 C 1316.39 574.158 1384.18 498.652 1452.64 423.761 C 1514.29 355.343 1573.26 283.649 1638.58 218.616 C 1645.45 211.783 1653.13 209.598 1662.27 208.312 z" fill="currentColor" />
<path d="M 1657.12 225.193 C 1673.09 222.751 1681.68 233.151 1691.88 244.066 C 1712.85 266.522 1731.81 290.941 1752.84 313.366 C 1772.79 335.043 1792.22 355.991 1811.44 378.494 C 1816.15 385.104 1842.09 407.45 1838.46 416.078 C 1829.11 438.352 1789.08 482.327 1775.28 499.032 L 1660.07 638.218 C 1605.22 705.149 1552.59 773.315 1497.66 840.216 C 1347.51 1021.91 1196.33 1202.75 1044.12 1382.71 L 972.056 1469.41 C 944.191 1502.96 936.087 1526.41 902.32 1481.7 C 899.59 1478.08 896.529 1474.51 893.815 1470.7 C 911.046 1444.98 929.38 1422.33 948.62 1398.11 C 978.902 1360.76 1008.89 1323.18 1038.59 1285.36 C 1050.69 1269.73 1063.12 1248.76 1074.44 1234.98 C 1128.32 1169.2 1182.89 1103.98 1236.42 1037.91 C 1270.73 996.433 1299.95 950.487 1334.97 909.701 C 1370.66 868.13 1406.96 827.002 1443.12 785.848 C 1458.43 768.429 1468.81 746.416 1483.46 728.15 C 1498.01 710.022 1512.72 691.983 1527.16 673.779 C 1554.94 638.767 1581.97 603.157 1608.21 566.975 C 1649.72 510.429 1680.12 444.499 1712.98 382.905 C 1720.47 368.857 1728.66 355.66 1737.47 342.409 C 1729 331.745 1679.33 272.887 1671.13 267.872 C 1666.61 265.1 1660.74 268.696 1657.02 271.478 C 1642.45 282.375 1613.2 318.914 1599.72 334.285 C 1576.45 360.832 1552.35 386.573 1528.87 412.924 C 1512.97 430.771 1497.69 450.014 1480.79 466.862 C 1478.52 469.133 1475.86 472.046 1472.66 472.753 C 1470.53 470.911 1471.18 472.009 1470.89 469.267 C 1475.88 460.451 1489.32 445.39 1496.13 437.255 C 1517.59 411.613 1540.72 387.335 1562.68 362.127 L 1616.53 299.557 C 1626.62 287.686 1636.51 275.723 1646.89 264.106 C 1653.61 256.586 1668.64 250.4 1676.69 259.136 C 1696.42 280.544 1715.64 302.476 1735.39 323.913 C 1752.59 342.595 1772.86 357.96 1790.61 375.84 C 1790.49 375.593 1790.37 375.344 1790.25 375.099 C 1781.27 357.578 1686.44 246.868 1671.69 242.806 C 1663.63 240.587 1654.35 242.35 1647.87 247.579 C 1635.76 257.33 1625.87 271.171 1615.32 282.687 C 1589.14 311.166 1563.14 339.799 1537.31 368.587 L 1400.4 521.302 C 1359.51 566.788 1318.07 611.994 1278.82 658.915 C 1260.22 681.153 1145.49 822.41 1134.06 827.803 C 1132.52 828.527 1132.91 828.235 1131.14 827.502 C 1130.7 820.149 1175.34 768.488 1183.04 759.178 C 1225.93 706.447 1269.64 654.39 1314.16 603.026 C 1396.15 509.53 1478.84 416.658 1562.24 324.418 L 1607.16 274.275 C 1619.15 260.736 1641.85 232.23 1657.12 225.193 z" fill="currentColor" />
<path d="M 937.638 1427.73 C 941.535 1428.44 940.221 1427.45 942.49 1429.79 C 942.876 1434.65 930.832 1447.51 927.326 1453.8 C 932.633 1457.8 937.6 1460.58 939.17 1467.05 C 938.242 1470.76 939.153 1469.09 935.691 1471.81 C 905.663 1470.16 916.526 1438.9 937.638 1427.73 z" fill="currentColor" />
<path d="M 578.48 818.912 C 590.059 817.982 592.015 821.928 599.838 830.032 C 643.011 874.75 685.353 919.89 729.017 964.168 L 790.544 1026.86 C 802.383 1038.86 820.853 1056.5 830.533 1069.22 C 806.351 1056.45 770.732 1019.85 750.666 1000.58 C 704.778 956.496 661.859 909.516 618.171 863.343 C 613.733 858.653 589.744 832.662 585.827 831.018 C 583.846 831.148 582.868 830.795 581.792 831.932 C 573.14 841.067 564.571 854.814 557.406 865.151 C 535.191 896.827 513.532 928.89 492.438 961.324 C 484.623 973.167 476.357 984.76 468.84 996.764 C 464.856 1003.13 463.079 1008.27 468.602 1013.93 C 470.612 1014.41 470.872 1015.03 473.016 1012.64 C 479.677 1005.18 483.464 995.259 489.081 987.056 C 519.827 942.16 547.424 895.247 577.367 849.859 C 579.03 847.337 580.37 846.167 583.112 845.036 C 585.683 845.193 586.803 844.933 588.948 846.983 C 598.516 856.132 608.08 867.329 616.931 877.112 C 632.09 893.915 647.67 910.332 663.655 926.35 C 684.229 946.391 811.544 1067.96 817.791 1086.06 L 816.854 1087.11 C 808.274 1084.59 792.616 1067.08 785.595 1060.07 L 742.045 1016.67 C 697.717 972.926 651.591 931.054 610.326 884.251 C 602.372 875.23 593.791 865.665 585.171 857.311 C 575.711 870.366 565.834 887.183 557.058 901.173 C 541.094 927.029 524.594 952.552 507.57 977.723 C 497.277 993.074 488.792 1006.37 477.266 1020.82 C 499.386 1043.64 536.993 1076.74 558.76 1102.22 C 559.595 1103.19 558.668 1104.19 557.934 1105.78 L 556.063 1106.32 C 551.179 1104.76 547.487 1101.61 543.674 1098.3 C 532.577 1088.69 453.195 1015.26 453.461 1008.35 C 453.665 1003.03 458.326 995.658 460.999 991.119 C 483.664 952.634 512.121 913.589 537.383 876.486 C 546.493 863.106 567.439 827.987 578.48 818.912 z" fill="currentColor" />
<path d="M 655.756 1205.45 C 665.478 1207.61 767.897 1313.35 778.374 1326.9 L 777.765 1329.34 C 775.7 1329.99 774.734 1330.11 772.58 1330.45 L 771.587 1329.6 C 756.532 1316.57 656.611 1216.62 655.756 1205.45 z" fill="currentColor" />
<path d="M 785.803 1348.61 C 799.511 1352.91 880.642 1440.39 880.76 1450.2 C 879.067 1450.33 877.251 1450.55 875.971 1449.29 C 862.903 1436.41 787.438 1360.48 785.803 1348.61 z" fill="currentColor" />
<path d="M 1436.34 511.544 C 1439.13 512.506 1437.96 511.735 1439.93 514.015 C 1439.37 519.577 1351.1 621.57 1341.04 630.307 C 1339.91 630.188 1338.89 629.759 1337.77 629.401 C 1337.65 622.32 1422.6 526.704 1436.34 511.544 z" fill="currentColor" />
<path d="M 1000.06 994.486 C 1003.18 995.813 1003.48 996.397 1003.97 999.103 C 1000.7 1005.23 982.777 1027.2 977.637 1033.61 C 964.913 1049.48 952.055 1067.68 938.777 1082.71 C 936.679 1083.06 937.524 1083.06 935.375 1082.33 C 935.402 1070.02 988.893 1005.6 1000.06 994.486 z" fill="currentColor" />
<path d="M 1320.64 646.692 C 1322.42 647.755 1322.94 648.134 1324.59 649.348 C 1323.67 655.1 1256.09 735.45 1245.56 747.456 C 1243.23 745.84 1243.25 745.921 1241.49 743.712 C 1242.15 740.207 1313.08 655.896 1320.64 646.692 z" fill="currentColor" />
<path d="M 1096.63 868.61 C 1099.45 869.492 1099.26 869.581 1101.34 871.752 C 1101.11 878.453 1043.03 946.329 1034.97 955.367 L 1033.87 956.283 L 1032.86 955.657 C 1035.43 940.845 1083.87 881.737 1096.63 868.61 z" fill="currentColor" />
<path d="M 588.674 1141.88 C 599.159 1144.4 637.258 1184.41 646.446 1194.28 C 648.507 1196.5 647.769 1197.1 647.346 1199.72 C 636.543 1199.78 606.301 1163.49 596.61 1155 C 592.876 1151.73 588.065 1146.99 588.674 1141.88 z" fill="currentColor" />
<path d="M 957.734 289.456 C 1090.16 285.67 1221.45 314.748 1339.89 374.09 C 1373.61 390.939 1399.19 407.985 1430.65 425.45 C 1411.74 446.766 1392.61 467.891 1373.28 488.824 C 1364.2 498.768 1348.68 514.776 1341.62 525.321 C 1324.91 517.947 1303.3 503.747 1286.26 494.993 C 1127.88 415.353 944.371 401.797 776.004 457.298 C 616.923 508.741 475.621 619.405 397.659 769.158 C 322.174 914.154 315.065 1090.1 365.243 1244.67 C 419.415 1411.54 539.231 1545.06 695.543 1624.29 C 846.057 1700.71 1020.9 1713.69 1181.05 1660.34 C 1340.63 1607.28 1472.94 1493.57 1549.39 1343.78 C 1634.01 1175.95 1640.14 989.026 1581.56 811.949 L 1578.76 802.318 C 1612.47 761.942 1645.83 721.269 1678.82 680.305 C 1687.9 704.37 1700.65 729.127 1710.05 754.358 C 1741.25 837.913 1759.01 925.887 1762.66 1015 C 1769.84 1185.86 1722.2 1354.53 1626.7 1496.39 C 1604.38 1529.33 1572.84 1568.09 1545.77 1597.21 C 1410.47 1742.8 1207.81 1833 1009.93 1840.92 C 798.217 1850.02 591.644 1774.17 436.141 1630.21 C 282.648 1488.17 191.281 1300.74 183.51 1090.92 C 176.54 886.615 251.775 688.041 392.378 539.645 C 539.121 382.149 744.016 297.111 957.734 289.456 z" fill="currentColor" />
<path d="M 945.851 304.576 C 1072.81 296.274 1215.48 327.634 1328.62 384.149 C 1353.37 396.515 1383.82 412.526 1406.42 428.359 C 1383.32 451.295 1357.22 482.735 1334.11 507.616 C 1307.67 493.092 1290.4 482.498 1261.66 469.674 C 1138.6 415.286 1002.28 398.206 869.607 420.552 C 689.989 448.571 528.988 547.134 422.347 694.36 C 327.995 827.67 290.222 992.896 317.275 1153.96 C 347.094 1335.52 444.917 1486.83 594.215 1593.58 C 736.835 1696.47 914.676 1738.06 1088.13 1709.08 C 1263.52 1679.81 1420.08 1582.02 1523.32 1437.25 C 1629.19 1288.15 1665.34 1101 1635.1 921.769 C 1630.39 895.724 1624.61 869.884 1617.78 844.315 C 1612.87 826.648 1606.69 809.595 1601.78 791.938 C 1626.67 765.956 1649.93 730.544 1674.55 703.46 C 1682.99 720.805 1692.3 745.511 1698.8 763.679 C 1727.33 841.984 1743.83 924.159 1747.74 1007.41 C 1758.36 1215.63 1685.39 1419.48 1545.03 1573.66 C 1408.41 1720.89 1219.8 1809.11 1019.22 1819.62 C 817.878 1828.44 609.658 1749.97 461.526 1614.01 C 309.099 1475.78 218.069 1282.48 208.593 1076.93 C 201.477 883.189 271.927 694.615 404.328 553 C 545.2 402.279 739.721 313.043 945.851 304.576 z" fill="currentColor" />
<metadata><recraft-signature>{"signed_by": "recraft", "signature_b64": "qa6QZIjy36NHJriz5y1ccwlXMeKpn8c6OaYxFy7H0aOtUj8OojBciW8OR9sLy9f/EsplJKi+sQp0WnagE9DEBw==", "signing_algo": "Ed25519", "generation_timestamp": 1772065484, "identifier": "7ae30012-a7dc-40ab-a414-3c25005e71c8"}</recraft-signature></metadata></g></svg>