<svg xmlns="http://www.w3.org/2000/svg" viewBox="0 0 24 24">
<g transform="scale(0.011719,0.011719)"><path d="M 1018.82 181.394 C 1020.57 181.225 1021.73 181.129 1023.5 181.088 C 1057.93 180.565 1091.18 193.651 1116.01 217.503 C 1132.64 233.776 1143.15 255.911 1154.81 276.013 C 1166.37 295.712 1177.77 315.509 1189 335.4 L 1319.02 566.346 L 1747.01 1319.78 C 1798.81 1410.26 1850.15 1501.01 1901.03 1592.02 C 1917.4 1621.48 1935.07 1650.68 1951.06 1680.35 C 1961 1698.79 1966.24 1720.97 1966.35 1741.93 C 1966.59 1775.32 1953.53 1807.43 1930.06 1831.17 C 1911.34 1849.56 1887.3 1861.59 1861.35 1865.55 C 1842.61 1868.48 1795.46 1867.23 1774.64 1867.24 L 1614.24 1867.41 L 1034.25 1867.06 L 459.926 1867.32 L 284.865 1867.27 C 260.955 1867.26 211.77 1868.47 190.472 1865.8 C 169.206 1863 149.072 1854.57 132.15 1841.39 C 105.503 1820.95 88.2295 1790.63 84.2409 1757.28 C 77.9379 1707.25 97.489 1680.63 120.992 1639.5 C 135.594 1613.81 150.34 1588.2 165.229 1562.67 L 275.151 1370.52 L 660.74 695.981 L 840.521 378.646 L 893.412 284.392 C 927.164 224.263 943.16 190.468 1018.82 181.394 z" fill="currentColor" />
<path d="M 1024.65 205.452 C 1095.6 206.61 1115.23 254.772 1145.09 308.798 C 1156.54 329.479 1168.14 350.078 1179.88 370.591 L 1350.08 670.871 L 1710.58 1305.16 L 1835.39 1525.81 L 1891.44 1624.71 C 1911.02 1659 1942.77 1703.7 1942.62 1743.46 C 1942.66 1770.27 1931.99 1795.99 1912.99 1814.91 C 1898.22 1829.69 1879.02 1839.24 1858.33 1842.13 C 1836.17 1845.28 1791.1 1843.9 1766.65 1843.87 L 1604.77 1843.79 L 1022.5 1843.63 L 429.715 1843.35 L 274.289 1843.54 C 248.467 1843.53 220.18 1844.63 194.646 1842.02 C 147.049 1837.16 109.519 1794.6 107.027 1747.18 C 106.047 1728.25 110.044 1709.4 118.619 1692.5 C 121.165 1687.54 124.154 1682.76 127.052 1678.01 C 142.007 1653.47 156.292 1628.54 170.571 1603.6 L 289.303 1395.26 L 721.59 638.503 L 874.637 367.816 L 915.404 294.657 C 943.431 244.423 960.691 209.043 1024.65 205.452 z" fill="currentColor" />
<path d="M 419.412 1837.76 C 392.112 1827.4 377.752 1828.61 348.548 1828.86 C 331.736 1829 314.393 1827.24 297.506 1828.27 C 288.589 1827.61 270.954 1832.01 263.258 1830.61 C 241.687 1826.69 217.916 1828.34 196.986 1824.58 C 140.808 1814.49 107.545 1764.92 131.071 1710.38 C 140.703 1688.05 154.43 1667.67 166.338 1647.27 C 187.132 1611.61 207.683 1575.8 227.991 1539.85 L 491.125 1079.85 L 809.905 517.084 L 905.234 347.19 C 922.34 316.659 940.951 278.801 961.133 251.784 C 983.572 221.745 1030.21 213.372 1063.08 228.961 C 1094.66 242.537 1106.83 272.21 1122.77 300.274 L 1161.92 369.057 L 1284.19 583.422 L 1654.3 1236.38 L 1844.15 1571.54 L 1898.14 1665.97 C 1906.46 1680.41 1920.11 1701.15 1925.83 1715.59 C 1934 1736.51 1933.6 1759.8 1924.73 1780.44 C 1912.68 1808.19 1886.86 1828 1856.18 1828.44 C 1832.5 1828.78 1808.93 1828.46 1785.25 1828.39 L 1659.1 1828.44 L 1450.39 1828.32 C 1398.28 1828.31 1346.48 1829.74 1294.52 1824.96 C 1279.93 1825.07 1264.09 1824.55 1249.61 1825.59 C 1194.78 1829.52 1139.06 1827.26 1084.23 1824.47 C 1051.36 1822.8 1020.89 1829.18 988.507 1830.88 C 966.622 1832.03 943.638 1824.69 921.722 1824.96 C 896.436 1825.5 885.517 1834.56 857.499 1826.78 C 857.081 1826.79 855.535 1826.34 855.053 1826.22 C 831.456 1817.62 780.265 1822.17 755.308 1827.08 C 712.59 1825.92 669.843 1826.4 627.162 1828.52 C 602.85 1829.89 578.727 1833.13 554.484 1833.92 C 542.113 1834.32 531.417 1827.08 519.954 1825.31 C 510.572 1823.86 498.071 1828.17 488.311 1828.21 C 472.692 1828.28 457.147 1825.68 441.491 1827.35 C 430.953 1828.48 427.091 1831.41 419.412 1837.76 z" fill="currentColor" />
<path d="M 419.412 1837.76 C 392.112 1827.4 377.752 1828.61 348.548 1828.86 C 331.736 1829 314.393 1827.24 297.506 1828.27 C 288.589 1827.61 270.954 1832.01 263.258 1830.61 C 241.687 1826.69 217.916 1828.34 196.986 1824.58 C 140.808 1814.49 107.545 1764.92 131.071 1710.38 C 140.703 1688.05 154.43 1667.67 166.338 1647.27 C 187.132 1611.61 207.683 1575.8 227.991 1539.85 L 491.125 1079.85 L 809.905 517.084 L 905.234 347.19 C 922.34 316.659 940.951 278.801 961.133 251.784 C 983.572 221.745 1030.21 213.372 1063.08 228.961 C 1094.66 242.537 1106.83 272.21 1122.77 300.274 L 1161.92 369.057 L 1284.19 583.422 L 1654.3 1236.38 L 1844.15 1571.54 L 1898.14 1665.97 C 1906.46 1680.41 1920.11 1701.15 1925.83 1715.59 C 1934 1736.51 1933.6 1759.8 1924.73 1780.44 C 1912.68 1808.19 1886.86 1828 1856.18 1828.44 C 1832.5 1828.78 1808.93 1828.46 1785.25 1828.39 L 1659.1 1828.44 L 1450.39 1828.32 C 1398.28 1828.31 1346.48 1829.74 1294.52 1824.96 C 1279.93 1825.07 1264.09 1824.55 1249.61 1825.59 C 1194.78 1829.52 1139.06 1827.26 1084.23 1824.47 C 1051.36 1822.8 1020.89 1829.18 988.507 1830.88 C 966.622 1832.03 943.638 1824.69 921.722 1824.96 C 896.436 1825.5 885.517 1834.56 857.499 1826.78 C 857.081 1826.79 855.535 1826.34 855.053 1826.22 L 854.723 1824 C 857.345 1822.26 862.629 1823 866.333 1823.05 C 861.79 1820.96 857.358 1820.55 853.372 1818.07 L 853.961 1816.65 C 856.848 1815.77 858.267 1815.54 861.199 1815.01 L 1018.23 1814.52 C 1050.53 1814.59 1087.46 1814.07 1119.48 1816 L 1118.96 1818.02 C 1116.15 1817.85 1113.54 1818.03 1110.73 1818.15 L 1111.01 1818.91 C 1112.91 1818.91 1112.5 1818.74 1114 1819.27 C 1132.09 1825.66 1150.51 1821.44 1168.26 1816.12 C 1177.81 1814.53 1204.21 1815.14 1214.68 1815.15 L 1299.73 1815.02 L 1681.41 1814.85 L 1774.53 1814.95 C 1799.21 1815.19 1828.37 1817.13 1852.77 1812.94 C 1867.69 1810.52 1881.61 1803.92 1892.93 1793.92 C 1922.12 1768.21 1919.22 1729.56 1901.53 1698.09 C 1884.57 1667.92 1867.46 1637.84 1850.33 1607.77 L 1737.09 1409.51 L 1346.89 720.521 L 1152.99 380.332 L 1111.82 307.469 C 1102.6 291.066 1094.52 273.733 1081.92 259.194 C 1053.86 226.822 1002.56 223.725 973.578 256.693 C 953.714 279.287 937.486 312.614 921.982 339.409 L 838.438 485.824 L 494.181 1092.2 L 298.891 1430.12 C 248.208 1516.83 197.275 1601.58 149.895 1690.85 C 120.483 1746.27 136.388 1803.52 204.541 1813.53 C 222.729 1816.2 247.961 1814.28 266.849 1814.13 L 369.25 1813.95 L 776.656 1814.76 L 780.502 1816.2 C 774.176 1823.53 760.907 1818.56 755.308 1827.08 C 712.59 1825.92 669.843 1826.4 627.162 1828.52 C 602.85 1829.89 578.727 1833.13 554.484 1833.92 C 542.113 1834.32 531.417 1827.08 519.954 1825.31 C 510.572 1823.86 498.071 1828.17 488.311 1828.21 C 472.692 1828.28 457.147 1825.68 441.491 1827.35 C 430.953 1828.48 427.091 1831.41 419.412 1837.76 z" fill="currentColor" />
<path d="M 866.333 1823.05 C 876.206 1822.93 885.235 1822.88 895.141 1823.26 C 882.079 1826.44 861.291 1825.51 857.499 1826.78 C 857.081 1826.79 855.535 1826.34 855.053 1826.22 L 854.723 1824 C 857.345 1822.26 862.629 1823 866.333 1823.05 z" fill="currentColor" />
<path d="M 776.656 1814.76 C 795.007 1814.57 813.36 1814.56 831.711 1814.74 C 839.513 1814.77 853.836 1814.34 861.199 1815.01 C 858.267 1815.54 856.848 1815.77 853.961 1816.65 L 853.372 1818.07 C 857.358 1820.55 861.79 1820.96 866.333 1823.05 C 862.629 1823 857.345 1822.26 854.723 1824 L 855.053 1826.22 C 831.456 1817.62 780.265 1822.17 755.308 1827.08 C 760.907 1818.56 774.176 1823.53 780.502 1816.2 L 776.656 1814.76 z" fill="currentColor" />
<path d="M 1159.74 1815.87 L 1160.06 1816.62 C 1155.13 1817.84 1154.46 1818.18 1149.52 1817.85 C 1142.66 1816.78 1134.6 1817.35 1126.47 1816.15 L 1159.74 1815.87 z" fill="currentColor" />
<path d="M 1119.48 1816 L 1126.47 1816.15 C 1134.6 1817.35 1142.66 1816.78 1149.52 1817.85 C 1139.34 1818.14 1129.15 1818.2 1118.96 1818.02 L 1119.48 1816 z" fill="currentColor" />
<path d="M 1021.72 305.156 C 1022.31 305.117 1022.9 305.068 1023.49 305.04 C 1031.32 304.676 1038.41 308.173 1043.99 313.451 C 1056.32 325.104 1090.91 391.508 1101.24 409.974 L 1180.61 550.632 L 1652.68 1381.59 C 1695.26 1456.55 1737.17 1531.88 1778.41 1607.57 C 1792.3 1632.59 1807.33 1656.78 1821.76 1681.46 C 1827.86 1691.89 1833.21 1703.12 1833.22 1715.44 C 1833.22 1723.84 1829.81 1731.89 1823.77 1737.75 C 1816.26 1745.04 1803.33 1750.43 1793.02 1750.88 C 1766.54 1752.04 1738.76 1751.4 1712.22 1751.37 L 1556.58 1751.38 L 1035.25 1751.18 L 528.34 1751.31 L 363.345 1751.33 C 333.188 1751.35 302.618 1751.69 272.446 1750.9 C 262.137 1750.64 250.256 1749.15 240.693 1745.24 C 219.358 1736.53 217.204 1707.98 227.32 1689.99 C 239.181 1668.6 252.271 1647.79 264.354 1626.47 L 362.31 1453.71 C 457.304 1281.91 553.263 1110.64 650.182 939.921 L 874.635 541.484 L 957.665 393.137 L 985.665 343.01 C 997.043 322.698 997.932 313.121 1021.72 305.156 z" fill="currentColor" />
<path d="M 1018.38 505.076 C 1028.69 505.314 1037.9 508.271 1043.67 517.464 C 1055.58 536.432 1066.75 555.914 1077.98 575.294 L 1131.09 667.106 L 1267.62 906.697 L 1686 1632.91 C 1693.3 1645.5 1697.27 1648.16 1682.54 1655.23 C 1661.94 1637.57 1638.46 1623.46 1615.72 1608.6 L 1512.88 1541.39 C 1414.56 1475.92 1318.01 1407.13 1219.99 1341.14 C 1206.83 1332.27 1193.6 1323.65 1180.59 1314.54 L 1183 1305.12 C 1177.7 1292.67 1167.48 1275.99 1160.49 1264.02 L 1124.1 1201.77 L 1066.62 1102.27 C 1060.29 1091.34 1041.86 1056.12 1033.44 1049.73 C 1024.54 1046.85 1015.94 1046.94 1010.38 1055.72 C 997.786 1075.58 986.55 1096.44 974.971 1116.92 L 922.855 1207.42 C 911.439 1227.25 899.897 1247.01 888.231 1266.7 C 882.113 1277.09 875.101 1288.39 869.823 1299.23 C 867.426 1304.16 868.401 1310.8 869.386 1315.96 C 794.136 1364.44 717.457 1417.94 642.558 1467.86 L 466.713 1586.01 C 433.393 1608.66 400.796 1630.34 368.187 1654 C 363.561 1648.74 361.461 1645.89 357.534 1640.06 C 495.854 1393.81 636.427 1148.83 779.236 905.158 L 936.356 633.259 L 982.142 552.859 C 989.396 540.243 996.625 527.262 1004.45 515.011 C 1008.24 509.062 1011.99 507.411 1018.38 505.076 z" fill="currentColor" />
<path d="M 1024.47 1108.72 C 1030.81 1116.37 1055.37 1160.72 1061.38 1171.28 C 1083.55 1210.22 1108.67 1250.85 1129.58 1290.31 L 1025.5 1290.23 L 919.467 1290.07 C 953.688 1231.07 989.305 1166.19 1024.47 1108.72 z" fill="currentColor" />
<path d="M 1081.07 412.012 C 1083.64 414.02 1091.95 431.304 1093.94 435.238 C 1068.34 449.058 1045.89 465.207 1021.34 480.498 C 1011.87 485.409 1002.91 486.766 993.321 491.974 C 960.86 509.598 929.174 533.263 896.637 550.143 L 887.342 554.617 C 893.487 542.297 899.988 528.677 908.168 517.589 C 908.508 517.127 908.861 516.674 909.199 516.21 C 913.524 510.271 941.607 497.158 950.407 492.052 C 994.383 466.065 1037.94 439.382 1081.07 412.012 z" fill="currentColor" />
<path d="M 1064.83 383.019 C 1068.18 386.949 1075.06 400.268 1077.82 405.468 C 1067.45 412.663 1050.03 422.191 1038.58 429.313 C 1001.9 452.529 964.629 474.8 926.805 496.101 L 918.48 500.631 C 926.712 485.061 935.464 467.926 945.424 453.44 C 966.253 444.433 992.961 427.684 1012.42 415.783 C 1029.19 405.525 1048.84 393.933 1064.83 383.019 z" fill="currentColor" />
<path d="M 844.049 754.973 L 844.929 756.428 C 832.947 775.976 822.098 794.644 810.466 814.233 C 804.607 816.458 799.951 818.76 794.623 822.113 C 765.017 840.742 735.542 860.196 705.055 877.333 L 704.679 877.137 C 704.935 872.059 727.548 831.517 732.407 826.067 C 736.021 822.015 759.024 808.325 765.307 804.362 L 844.049 754.973 z" fill="currentColor" />
<path d="M 1768.2 1630.84 C 1771.24 1632.38 1778.31 1647.32 1780.1 1650.88 C 1768.2 1658.21 1754.66 1669.28 1743.61 1677.94 L 1699.31 1712.45 C 1689.51 1720.13 1677.91 1729.69 1667.26 1735.86 C 1657.09 1735.61 1646.92 1735.45 1636.75 1735.39 L 1623.7 1735.34 C 1639.2 1721.11 1671.69 1701.63 1689.87 1688.66 C 1716.52 1669.63 1742.05 1650.58 1768.2 1630.84 z" fill="currentColor" />
<path d="M 767.913 883.968 C 767.542 888.674 746.902 925.483 742.644 929.025 C 733.494 936.636 716.615 946.979 706.002 953.56 C 683.1 967.761 660.301 984.195 636.815 997.17 C 636.049 993.072 661.098 950.988 666.151 946.64 C 670.051 943.283 686.58 933.614 692.141 930.154 C 717.149 914.353 742.409 898.956 767.913 883.968 z" fill="currentColor" />
<path d="M 910.863 639.963 L 911.334 640.409 L 911.358 642.113 C 905.887 651.198 893.096 675.515 887.382 681.993 C 881.724 688.409 855.039 704.529 846.468 709.953 L 774.015 755.592 L 773.452 754.887 C 779.682 740.253 792.002 721.203 800.659 707.085 C 817.253 699.368 839.914 684.729 855.217 674.986 L 910.863 639.963 z" fill="currentColor" />
<path d="M 734.671 941.932 L 735.55 943.335 C 725.529 960.037 715.898 976.97 706.667 994.122 C 678.853 1005.34 631.448 1039.5 603.772 1055.7 L 602.902 1054.56 C 610.862 1038.79 620.062 1023.89 629.324 1008.87 C 663.683 989.124 700.694 963.637 734.671 941.932 z" fill="currentColor" />
<path d="M 1634.76 1676.05 L 1689.19 1675.94 C 1675.99 1685.73 1661.32 1695.21 1647.67 1704.54 C 1633.32 1714.35 1618.31 1725.29 1603.58 1734.3 C 1593.98 1737.96 1564.04 1735.99 1551.94 1735.84 C 1561.75 1726.62 1576.35 1717.42 1587.55 1709.46 C 1603.09 1698.41 1618.84 1686.42 1634.76 1676.05 z" fill="currentColor" />
<path d="M 1212.16 1676.89 C 1229.23 1676.26 1247.28 1676.59 1264.43 1676.65 C 1245.74 1691.85 1206.82 1720.94 1186.26 1733.97 C 1179.9 1735.62 1143.67 1734.78 1134.68 1734.69 C 1149.56 1720.3 1194 1689.33 1212.16 1676.89 z" fill="currentColor" />
<path d="M 1400.97 1676.52 C 1417.78 1675.93 1435.53 1676.12 1452.41 1676.05 C 1424.63 1698.19 1401.85 1716.04 1370.34 1732.48 C 1365.73 1735.67 1330.96 1734.43 1322.71 1734.36 C 1331.5 1726.04 1391.31 1678.75 1400.97 1676.52 z" fill="currentColor" />
<path d="M 874.009 703.054 C 873.774 707.63 856.356 737.644 853.22 739.792 C 817.26 764.422 778.133 790.804 740.788 813.023 C 740.16 810.436 760.764 775.566 764.081 769.17 C 800.969 749.597 837.892 724.882 874.009 703.054 z" fill="currentColor" />
<path d="M 1034.13 1677.01 L 1085.84 1677.18 C 1058.36 1697.16 1031.77 1714.05 1004.65 1733.11 C 995.071 1734.49 965.108 1733.68 953.89 1733.57 C 972.542 1717.32 1012.31 1691.83 1034.13 1677.01 z" fill="currentColor" />
<path d="M 699.045 1005.12 L 699.474 1005.63 C 699.143 1007 676.302 1046.73 674.016 1048.59 C 661.775 1058.59 637.363 1068.68 623.522 1077.42 C 606.177 1088.38 588.647 1100.36 571.936 1112.01 L 571.288 1110.71 C 577.886 1097.96 586.941 1083.23 594.255 1070.65 C 598.668 1068.43 603.452 1065.43 607.572 1062.67 C 637.519 1042.62 668.816 1024.73 699.045 1005.12 z" fill="currentColor" />
<path d="M 800.801 829.078 C 800.309 832.779 781.787 864.332 778.594 870.056 C 772.533 872.668 767.58 875.345 761.931 878.767 C 732.452 896.628 702.549 913.754 673.946 932.997 C 673.369 929.153 690.306 900.449 693.339 894.905 C 705.44 888.541 721.847 877.81 733.781 870.496 C 756.238 856.881 778.579 843.074 800.801 829.078 z" fill="currentColor" />
<path d="M 959.819 549.877 L 960.746 551.42 C 945.761 584.508 938.906 585.172 909.289 603.655 C 884.072 619.573 858.635 635.14 832.985 650.35 L 832.269 649.572 C 837.147 638.97 848.091 622.892 854.543 609.863 C 889.441 590.915 926.275 571.037 959.819 549.877 z" fill="currentColor" />
<path d="M 934.834 598.075 L 935.445 599.344 C 931.869 605.354 922.733 623.184 918.633 627.032 C 910.049 635.088 894.274 643.836 884.032 650.639 C 858.049 667.899 834.29 685.173 806.179 698.951 L 805.501 697.676 C 812.193 684.793 819.455 672.214 827.267 659.977 C 836.419 655.885 853.45 645.632 862.628 640.359 L 934.834 598.075 z" fill="currentColor" />
<path d="M 1284.55 1676.43 C 1299.31 1675.87 1315.55 1676.16 1330.43 1676.16 C 1308.64 1696.49 1276.21 1716.69 1251.2 1733.99 C 1238.98 1735.01 1219.58 1734.41 1206.73 1734.32 C 1214.88 1727.56 1224.12 1721.3 1232.89 1715.33 C 1250.77 1703.16 1267.59 1689.81 1284.55 1676.43 z" fill="currentColor" />
<path d="M 609.982 1157.07 L 610.546 1157.61 C 609.639 1161.86 589.606 1196.21 586.624 1198.02 C 553.577 1218.08 521.912 1236.5 489.985 1258.68 L 489.638 1258.39 C 489.629 1253.83 508.422 1224.07 512.285 1217.66 C 517.301 1215.24 521.783 1212.38 526.405 1209.3 C 553.974 1190.97 581.261 1173.53 609.982 1157.07 z" fill="currentColor" />
<path d="M 696.843 1678.18 C 711.685 1677.75 728.089 1678.08 743.052 1678.08 C 716.881 1694.91 691.442 1714.35 666.678 1733.18 C 651.803 1733.71 635.88 1733.4 620.917 1733.35 C 639.713 1717.37 675.628 1691.41 696.843 1678.18 z" fill="currentColor" />
<path d="M 988.781 503.187 C 988.466 505.722 971.356 533.703 969.029 535.208 C 935.763 556.73 897.988 579.175 863.638 598.452 C 863.04 594.359 880.327 565.219 884.336 562.357 C 894.831 554.704 907.962 550.087 918.959 543.428 C 941.562 529.742 966.921 517.809 988.781 503.187 z" fill="currentColor" />
<path d="M 1514.07 1675.46 C 1527.62 1675.02 1541.71 1675.28 1555.32 1675.36 C 1532.42 1694.67 1501.78 1717.85 1476.72 1734.02 C 1470.78 1737.48 1447.87 1735.9 1439.89 1735.7 C 1450.17 1725.19 1467.47 1712.56 1479.44 1702.96 C 1490.16 1694.37 1503.21 1683.2 1514.07 1675.46 z" fill="currentColor" />
<path d="M 864.864 1677.22 C 878.203 1677.06 891.544 1677.18 904.877 1677.59 C 894.517 1684.37 884.414 1691.54 874.588 1699.07 C 866.291 1705.43 835.412 1731.68 828.905 1733.82 L 786.471 1733.77 C 807.348 1715.74 841.598 1692.92 864.864 1677.22 z" fill="currentColor" />
<path d="M 502.754 1343.08 L 503.351 1344.15 C 499.403 1350.87 483.525 1380.31 479.253 1383.09 C 468.345 1390.19 447.62 1402.64 436.166 1409.71 C 420.866 1419.07 405.762 1428.75 390.863 1438.74 L 390.477 1438.42 C 390.447 1433.66 408.069 1404.67 411.736 1398.36 C 427.172 1391.55 442.68 1380.5 457.009 1371.25 C 472.102 1361.61 487.352 1352.22 502.754 1343.08 z" fill="currentColor" />
<path d="M 533.978 1679 L 576.981 1678.95 C 567.484 1685.25 557.739 1694.59 548.332 1701.19 C 532.705 1712.14 515.904 1723.09 499.585 1732.96 C 485.95 1733.48 470.575 1733.18 456.812 1733.21 C 481.361 1716.96 510.851 1696.8 533.978 1679 z" fill="currentColor" />
<path d="M 1576.56 1675.46 C 1589.08 1675.08 1602.47 1675.27 1615.06 1675.24 C 1598.67 1687.1 1582.36 1699.05 1566.12 1711.12 C 1555.78 1718.88 1544.29 1728.15 1533.68 1735.09 L 1495.64 1735.29 C 1503.43 1728.15 1571.43 1676.83 1576.56 1675.46 z" fill="currentColor" />
<path d="M 1157.33 1677 C 1168.72 1676.71 1180.97 1676.92 1192.42 1676.92 C 1171.6 1694.99 1149.23 1711.15 1127.27 1727.77 C 1124.01 1730.23 1120.77 1732.64 1117.24 1734.69 L 1078.51 1734.09 C 1101.27 1714.87 1131.69 1692.04 1157.33 1677 z" fill="currentColor" />
<path d="M 763.275 1677.03 L 800.926 1677.05 C 785.724 1690.96 736.455 1721.9 717.238 1733.71 C 704.724 1733.87 692.208 1733.77 679.699 1733.38 C 691.533 1722.53 711.955 1711.55 725.679 1702.4 C 738.224 1694.03 750.647 1685.16 763.275 1677.03 z" fill="currentColor" />
<path d="M 925.268 1677.11 C 937.079 1677.03 949.043 1677.18 960.866 1677.23 C 952.036 1684.46 888.395 1730.71 881.016 1733.82 C 868.738 1734.07 855.562 1733.81 843.214 1733.78 C 870.026 1710.28 897.839 1696.89 925.268 1677.11 z" fill="currentColor" />
<path d="M 393.98 1679.5 L 409.548 1679.13 C 385.034 1697.82 359.95 1715.74 334.331 1732.88 L 306.435 1732.95 L 291.783 1732.91 C 316.989 1715.13 343.371 1697.73 368.168 1679.93 L 393.98 1679.5 z" fill="currentColor" />
<path d="M 1465.31 1676.03 C 1475.71 1675.63 1487.94 1675.85 1498.49 1675.8 C 1481.56 1691.43 1436.91 1723 1417.4 1735.2 C 1414.88 1735.98 1389.14 1735.19 1384.91 1735.16 C 1412.4 1712.24 1435.14 1695.1 1465.31 1676.03 z" fill="currentColor" />
<path d="M 665.829 1062.13 C 664.881 1065.95 649.507 1093.32 646.918 1095.13 C 614.307 1117.86 577.578 1137.72 545.02 1160.88 L 544.819 1159.5 C 547.62 1154.39 559.538 1132.83 562.531 1130.11 C 571.01 1122.39 590.211 1111.41 600.417 1104.59 C 622.06 1090.11 643.889 1076.01 665.829 1062.13 z" fill="currentColor" />
<path d="M 1347.58 1676.03 C 1358.75 1675.22 1369.81 1675.63 1381.01 1675.84 C 1363.13 1691.62 1343.8 1706 1324.29 1719.68 C 1318.13 1724 1310.04 1729.08 1304.99 1734.48 C 1293.26 1734.67 1281.53 1734.58 1269.81 1734.21 C 1293.66 1716.17 1322.82 1690.77 1347.58 1676.03 z" fill="currentColor" />
<path d="M 1049.51 360.887 L 1051.39 361.281 C 1055.19 364.788 1057.77 369.936 1060.47 374.48 C 1052.56 380.919 1037.5 389.971 1028.45 395.657 C 1006.05 409.555 983.544 423.28 960.933 436.83 L 951.929 440.835 C 954.823 435.794 969.501 411.17 972.583 408.756 C 992.185 393.405 1027.82 372.674 1049.51 360.887 z" fill="currentColor" />
<path d="M 988.203 1677.49 C 998.284 1677.48 1008.37 1677.63 1018.44 1677.95 C 1007.03 1685.76 941.855 1733.29 934.25 1733.74 L 902.414 1733.81 C 925.269 1716.26 955.752 1693.07 981.292 1678.43 C 982.511 1677.74 986.592 1677.53 988.203 1677.49 z" fill="currentColor" />
<path d="M 1784.34 1659.83 C 1788.45 1662.49 1792.31 1671.67 1794.68 1676.42 C 1769.37 1693.14 1741.71 1717.05 1716.22 1735.05 L 1696.75 1735.04 L 1686.27 1735.21 C 1718.2 1713.08 1751.82 1683.66 1784.34 1659.83 z" fill="currentColor" />
<path d="M 1103.97 1677.11 L 1134.71 1677.23 C 1127.54 1683.42 1063.36 1733.75 1057.25 1733.85 L 1023.22 1733.83 C 1047.61 1714.66 1077.35 1693.09 1103.97 1677.11 z" fill="currentColor" />
<path d="M 600.448 1678.94 C 609.649 1678.56 622.643 1678.99 632.105 1679.04 C 606.083 1695.65 581.468 1715.02 555.995 1732.46 C 554.501 1733.48 552.942 1733.41 551.25 1733.33 C 539.515 1733.4 527.554 1733.2 515.804 1733.1 C 537.479 1714.38 575.011 1694.43 600.448 1678.94 z" fill="currentColor" />
<path d="M 1387.42 949.969 C 1391.69 954.279 1400.24 970.61 1403.31 976.584 C 1389.91 981.609 1364.45 1001.36 1348.93 1009.81 L 1348.01 1009.77 C 1344.34 1006.22 1336.18 990.149 1333.49 984.885 C 1348.81 973.868 1370.94 960.73 1387.42 949.969 z" fill="currentColor" />
<path d="M 482.376 1678.89 C 492.352 1678.35 506.186 1678.68 516.456 1678.65 C 492.754 1695.1 464.045 1718.3 440.977 1733.03 L 403.573 1733.27 C 425.52 1717.09 459.386 1693.33 482.376 1678.89 z" fill="currentColor" />
<path d="M 428.559 1679.14 L 462.646 1678.98 C 438.24 1697.9 412.218 1715.44 386.825 1733.11 C 375.318 1733.74 362.857 1733.5 351.265 1733.49 C 376.56 1714.71 402.334 1696.59 428.559 1679.14 z" fill="currentColor" />
<path d="M 422.797 1482.13 C 423.193 1482.39 423.108 1483.03 423.221 1483.49 C 411.02 1505.99 408.2 1514.33 385.101 1526.62 C 363.069 1538.34 340.987 1550.94 318.831 1562.63 L 318.466 1562.36 L 318.405 1560.74 C 320.683 1556.95 330.973 1539.19 333.708 1537.15 C 359.083 1518.19 395.171 1496.22 422.797 1482.13 z" fill="currentColor" />
<path d="M 575.056 1217.05 L 575.346 1217.32 C 576.008 1220.86 559.752 1245.37 556.879 1249.97 C 525.072 1264.55 497.161 1283.7 467.061 1301.11 L 466.521 1300.63 C 466.072 1296.79 477.344 1278.97 480.028 1274.44 C 484.483 1272.24 489.173 1269.12 493.328 1266.35 C 519.894 1248.67 547.604 1233.28 575.056 1217.05 z" fill="currentColor" />
<path d="M 374.747 1566.14 L 375.286 1567.02 C 368.695 1578.86 362.098 1589.53 354.913 1601.04 C 347.331 1603.56 335.416 1609.95 328.05 1613.68 L 273.893 1641.7 L 273.438 1640.65 C 277.694 1631.94 283.825 1622.4 288.917 1614.01 C 294.265 1612.31 298.125 1609.6 302.69 1606.47 C 325.518 1590.78 350.122 1578.74 374.747 1566.14 z" fill="currentColor" />
<path d="M 648.513 1678.99 L 681.253 1678.92 C 655.231 1697.06 631.855 1714.89 604.868 1733.22 L 571.609 1733.23 C 597.883 1710.05 624.332 1698.1 648.513 1678.99 z" fill="currentColor" />
<path d="M 472.925 1395.04 C 472.63 1396.48 455.331 1428.45 453.725 1429.77 C 429.227 1449.9 395.585 1460.55 368.716 1477.09 L 367.469 1477.87 C 367.374 1463.5 391.388 1449.45 401.504 1441.97 C 424.785 1424.76 447.666 1409.2 472.925 1395.04 z" fill="currentColor" />
<path d="M 548.958 1263.25 L 549.494 1263.87 C 544.952 1273 539.1 1282.45 533.877 1291.29 L 445.543 1340.14 L 444.653 1339.14 C 447.146 1332.5 454.592 1319.62 458.236 1312.9 C 468.576 1308.65 481.668 1301.09 491.834 1295.49 C 510.948 1284.87 529.989 1274.12 548.958 1263.25 z" fill="currentColor" />
<path d="M 337.044 1643.25 C 336.225 1642.21 343.873 1659.29 344.95 1661.26 C 316.688 1677.14 287.923 1696.65 259.803 1711.73 C 256.596 1709.46 254.325 1705.62 252.013 1702.33 C 266.05 1689.84 320.336 1652.06 337.044 1643.25 z" fill="currentColor" />
<path d="M 1419.85 1008.81 C 1423.77 1010.4 1431.52 1026.63 1434.02 1031.35 C 1417.78 1039.9 1396.32 1054.52 1380.95 1064.95 C 1377.4 1061.94 1369.11 1046.27 1366.38 1041.28 C 1378.3 1035.78 1407.19 1016.6 1419.85 1008.81 z" fill="currentColor" />
<path d="M 1492.91 1136.14 C 1496.3 1140.01 1502.32 1152.86 1504.82 1158.05 C 1489.77 1166.22 1469.46 1182.44 1452.6 1192.55 C 1447.88 1185.49 1443.33 1176.69 1439.96 1168.89 C 1456.37 1157.31 1475.54 1146.35 1492.91 1136.14 z" fill="currentColor" />
<path d="M 819.75 1677.32 C 828.608 1677.1 838.003 1677.31 846.905 1677.36 C 822.45 1695.12 791.758 1716.88 766.683 1733.85 L 739.171 1733.58 C 753.267 1720.98 803.102 1686.37 819.75 1677.32 z" fill="currentColor" />
<path d="M 1128.67 494.207 C 1131.45 497.462 1140.29 514.038 1142.77 518.578 C 1131.29 524.955 1095.45 544.813 1087.8 553.204 C 1084.28 551.219 1076.88 536.045 1074.8 532.039 C 1088.22 523.818 1117.5 503.91 1128.67 494.207 z" fill="currentColor" />
<path d="M 346.716 1616.09 C 346.571 1617.92 341.731 1628.36 340.428 1633.13 C 313.674 1650.52 275.566 1673.85 248.226 1689.04 C 248.657 1682.36 258.761 1663.6 264.297 1659.99 C 289.754 1643.36 319.393 1629.98 346.716 1616.09 z" fill="currentColor" />
<path d="M 1111.69 466.8 C 1115.33 468.48 1122.81 483.401 1125.19 487.793 C 1106.77 497.803 1086.86 510.773 1068.83 521.874 C 1066.42 520.372 1058.06 507.177 1055.87 503.858 C 1072.59 491.786 1094.14 478.332 1111.69 466.8 z" fill="currentColor" />
<path d="M 633.091 1116.09 C 633.293 1116.71 633.495 1117.33 633.698 1117.95 C 630.327 1126.13 622.907 1137.26 617.821 1144.59 C 609.495 1148.07 595.755 1156.01 587.711 1160.5 C 566.727 1172.31 545.947 1184.48 525.38 1197 L 525.079 1196.79 C 524.671 1194.47 534.396 1179.17 536.398 1175.74 C 545.821 1170.36 555.529 1165.52 564.64 1159.6 C 587.618 1144.68 609.091 1129.47 633.091 1116.09 z" fill="currentColor" />
<path d="M 1521.75 1189.25 C 1524.66 1192.27 1531.61 1206.31 1533.58 1210.4 C 1518.45 1221.81 1497.28 1234.33 1484.15 1247.21 L 1470.41 1224.27 C 1487.62 1212.8 1504.44 1200.45 1521.75 1189.25 z" fill="currentColor" />
<path d="M 348.235 1665.8 C 350.856 1667.11 354.284 1672.68 356.194 1675.35 C 343.677 1687.77 329.37 1698.25 314.979 1708.37 C 303.67 1716.31 292.318 1724.22 280.888 1731.99 C 280.082 1731.92 279.275 1731.84 278.468 1731.77 C 272.63 1727.71 270.659 1725.91 266.127 1720.52 C 289.384 1706.23 327.205 1682.8 348.235 1665.8 z" fill="currentColor" />
<path d="M 1587.39 1304.22 C 1591.47 1310.75 1595.47 1318.27 1599.24 1325.06 C 1582.99 1335.73 1565.78 1349.04 1549.63 1360.49 C 1544.94 1353.13 1540.4 1345.68 1536.01 1338.14 C 1548.89 1331.29 1574.44 1312.92 1587.39 1304.22 z" fill="currentColor" />
<path d="M 1283.74 766.851 C 1287.34 770.269 1293.5 782.239 1295.87 786.762 C 1282.71 795.017 1251.57 813.678 1241.36 823.118 C 1237.12 817.877 1232.08 807.73 1229.15 801.717 C 1244.13 794.193 1268.66 776.838 1283.74 766.851 z" fill="currentColor" />
<path d="M 1538.65 1219.95 C 1541.39 1222.42 1549.39 1237.46 1551.69 1241.65 C 1533.28 1250.55 1517.37 1262.8 1501.08 1274.98 C 1497.97 1271.93 1490.93 1258.68 1488.38 1254.05 C 1506.8 1240.36 1519 1231.75 1538.65 1219.95 z" fill="currentColor" />
<path d="M 1244.69 698.769 C 1248.34 701.282 1254.87 715.224 1257.33 719.996 C 1239.15 730.688 1221.85 742.693 1203.43 753.406 C 1198.89 751.24 1193.64 739.531 1191.06 734.672 C 1210.71 721.663 1225.5 714.086 1244.69 698.769 z" fill="currentColor" />
<path d="M 1299.48 794.857 C 1302.78 797.867 1309.22 811.535 1311.54 816.263 C 1296.39 826.299 1271.68 840.26 1258.54 851.405 C 1256.07 848.378 1249.19 835.68 1246.89 831.646 C 1264.51 819.506 1282.04 807.243 1299.48 794.857 z" fill="currentColor" />
<path d="M 1173.12 571.903 C 1176.26 574.382 1183.27 588.966 1185.45 593.292 C 1167.67 604.649 1147.94 615.68 1130.8 627.492 C 1127.85 625.76 1121.14 611.8 1119.11 607.835 C 1133.57 601.14 1161.38 582.226 1173.12 571.903 z" fill="currentColor" />
<path d="M 1372.65 923.866 C 1376.05 927.813 1381.36 938.619 1383.77 943.383 C 1371.5 953.132 1343.23 970.467 1329.48 978.052 C 1325.19 971.811 1322 965.987 1318.28 959.377 C 1334.73 950.429 1356.84 934.579 1372.65 923.866 z" fill="currentColor" />
<path d="M 1660.68 1436.12 C 1665.72 1442.7 1669.99 1451.02 1673.56 1458.47 C 1661.91 1466.08 1634.49 1483.24 1625.59 1491.7 C 1620.82 1484.29 1616.83 1477.11 1612.53 1469.44 C 1629.47 1459.67 1645.57 1448.53 1660.68 1436.12 z" fill="currentColor" />
<path d="M 1097.24 441.956 C 1099.85 443.115 1106.11 455.57 1107.75 458.572 C 1101.42 463.154 1053.76 493.617 1048.46 495.522 L 1045.76 494.136 C 1038.95 489.59 1037.88 489.083 1030.4 486.428 C 1052.94 472.008 1075.23 457.182 1097.24 441.956 z" fill="currentColor" />
<path d="M 443.407 1445.97 L 443.936 1446.11 L 444.285 1447.08 C 439.406 1454.89 435.716 1461.17 431.434 1469.3 C 400.744 1483.9 371.874 1502.76 343.496 1521.38 L 342.803 1521.53 L 342.225 1520.61 C 353.349 1494.25 365.857 1490.82 388.959 1477.44 L 443.407 1445.97 z" fill="currentColor" />
<path d="M 1315.88 824.107 C 1319.78 828.149 1325.03 839.517 1327.38 844.716 C 1310.83 853.011 1288.86 867.74 1273.81 878.663 C 1270.96 877.148 1264.47 863.638 1262.71 860.255 C 1274.61 854.463 1303.71 832.725 1315.88 824.107 z" fill="currentColor" />
<path d="M 1436.2 1036.88 C 1438.26 1037.74 1446.17 1053.15 1447.97 1056.45 C 1431.82 1067.45 1412.65 1078.73 1395.87 1088.96 L 1395.28 1089.46 C 1392.48 1087.18 1386.61 1075.83 1384.41 1071.93 C 1401.85 1060.51 1419.11 1048.82 1436.2 1036.88 z" fill="currentColor" />
<path d="M 1570.95 1275.61 C 1573.34 1277.48 1581.23 1292.38 1583.26 1296.07 C 1566.53 1306.18 1549.23 1317.72 1532.54 1328.21 L 1530.78 1328.27 C 1527.41 1324.13 1523.36 1316.34 1520.59 1311.39 C 1536.63 1300.28 1555.79 1287.51 1570.95 1275.61 z" fill="currentColor" />
<path d="M 395.053 1529.98 C 395.043 1531.61 395.165 1530.91 394.51 1532.76 C 391.818 1540.36 386.914 1548.25 381.009 1553.71 C 370.183 1563.73 314.259 1592.34 298.578 1600.21 C 298.09 1596.51 304.357 1585.91 306.345 1582.1 C 319.448 1574.64 333.436 1567.16 346.271 1559.38 C 362.823 1549.34 378.045 1539.4 395.053 1529.98 z" fill="currentColor" />
<path d="M 1738.11 1576.68 C 1741.16 1578.11 1749.58 1594.94 1751.51 1598.59 C 1739.17 1605.75 1719.46 1621.57 1707.47 1630.76 L 1707.05 1630.79 C 1703.04 1629.03 1696.42 1613.9 1694.25 1609.46 C 1710.52 1599.5 1723.83 1589.07 1738.11 1576.68 z" fill="currentColor" />
<path d="M 1452.56 1065.05 L 1463.6 1083.14 C 1445.58 1094.17 1427.7 1105.41 1409.97 1116.89 L 1398.83 1097.27 C 1416.7 1085.44 1434.22 1077.97 1452.56 1065.05 z" fill="currentColor" />
<path d="M 1677.67 1465.92 C 1680.64 1469.12 1686.58 1480.63 1688.99 1485.1 C 1674.98 1496.9 1656.86 1507.75 1642.03 1520.09 C 1637.19 1513.06 1633.7 1506.54 1629.95 1498.91 C 1646.14 1488.85 1662.14 1477.07 1677.67 1465.92 z" fill="currentColor" />
<path d="M 525.597 1304.02 L 526.027 1304.28 C 525.993 1306.5 515.122 1323.71 513.096 1327.09 C 504.679 1330.74 493.57 1337.95 485.255 1342.66 C 464.713 1354.19 444.243 1365.84 423.847 1377.61 L 423.581 1377.44 L 423.481 1376.02 C 425.725 1371.95 430.171 1363.4 433.352 1360.55 C 445.465 1349.7 462.928 1341.13 477.298 1332.86 C 493.545 1323.49 509.646 1313.88 525.597 1304.02 z" fill="currentColor" />
<path d="M 1555.14 1248.07 C 1557.87 1250.26 1565.28 1264.58 1567.39 1268.52 C 1550.8 1276.78 1533.07 1289.36 1517.44 1299.86 L 1515.38 1299.66 C 1511.48 1295.01 1508.79 1289.5 1505.84 1284.15 C 1521.86 1271.57 1538.31 1259.54 1555.14 1248.07 z" fill="currentColor" />
<path d="M 1631.82 1384.74 C 1635.19 1385.98 1641.93 1399.95 1644.15 1404.07 C 1626.87 1413.88 1610.31 1424.92 1594.6 1437.1 C 1590 1435.37 1584.97 1423.2 1582.54 1418.35 C 1597.42 1411.24 1618.86 1394.96 1631.82 1384.74 z" fill="currentColor" />
<path d="M 1231 673.889 C 1234.1 675.851 1239.4 687.89 1241.19 691.59 C 1225.03 703.279 1204.07 712.855 1186.73 725.87 C 1184.61 724.596 1178.31 712.364 1176.63 709.292 C 1191.41 701.461 1215.67 683.839 1231 673.889 z" fill="currentColor" />
<path d="M 1707.16 1520.85 C 1708.98 1521.8 1717.28 1537.57 1720.35 1541.93 C 1709.21 1547.5 1686.77 1563.88 1675.47 1571.72 C 1674.05 1572.86 1674.94 1572.49 1672.65 1572.31 C 1668.8 1567.69 1665.36 1560.69 1662.44 1555.28 C 1676.35 1545.12 1694.3 1531.86 1707.16 1520.85 z" fill="currentColor" />
<path d="M 1203.94 624.922 C 1206.72 627.354 1212.18 638.441 1214.16 642.203 C 1194.57 652.945 1177.95 663.717 1159.37 676.143 C 1155.27 673.111 1151.05 664.459 1148.58 659.797 C 1167.29 648.587 1185.75 636.959 1203.94 624.922 z" fill="currentColor" />
<path d="M 1160.13 548.054 C 1162.88 550.494 1167.45 560.757 1169.23 564.497 C 1155.86 574.909 1130.88 588.299 1114.68 599.534 C 1111.3 594.798 1107.46 587.909 1104.42 582.773 C 1121.6 574.478 1143.91 558.964 1160.13 548.054 z" fill="currentColor" />
<path d="M 1332.47 851.941 C 1336.21 857.76 1339.15 862.94 1342.52 868.989 C 1323.95 879.544 1305.54 891.563 1287.54 903.13 C 1284.72 900.288 1279.4 890.728 1277.15 886.895 C 1298.12 875.385 1312.75 865.596 1332.47 851.941 z" fill="currentColor" />
<path d="M 1692.08 1493.78 C 1695.33 1495.5 1702.39 1509.34 1704.44 1513.11 C 1692.1 1519.66 1670.09 1536.42 1657.92 1545.21 C 1654.56 1543.82 1648.1 1531.11 1646.05 1527.46 C 1660.21 1520.88 1679.77 1504.07 1692.08 1493.78 z" fill="currentColor" />
<path d="M 1723.93 1549.16 C 1727 1552.42 1732.45 1563.09 1734.7 1567.33 C 1719.63 1578.03 1704.21 1590.4 1689.53 1601.78 C 1685.59 1595.63 1682.24 1589.59 1678.67 1583.23 C 1692.77 1573.22 1711.09 1560.58 1723.93 1549.16 z" fill="currentColor" />
<path d="M 1618.76 1359.89 C 1621.28 1362.17 1626.58 1373.93 1628.32 1377.53 C 1610.87 1388.51 1596.15 1398.89 1577.41 1407.93 C 1573.76 1404.34 1570.36 1397.24 1568.04 1392.6 C 1583.18 1384.12 1603.87 1369.65 1618.76 1359.89 z" fill="currentColor" />
<path d="M 1261.95 728.907 C 1264.57 730.664 1269.46 740.525 1271.19 743.718 C 1255.89 752.641 1230.38 768.716 1216.95 779.936 C 1213.2 775.71 1209.88 768.655 1207.45 763.574 C 1225.95 752.555 1244.13 740.995 1261.95 728.907 z" fill="currentColor" />
<path d="M 1346.17 876.987 C 1348.35 878.413 1353.68 889.829 1355.14 892.724 C 1337.36 903.516 1319.12 915.606 1301.54 926.869 L 1300.28 926.654 C 1296.97 922.421 1294.67 917.285 1292.22 912.453 C 1307.36 904.369 1332.41 887.152 1346.17 876.987 z" fill="currentColor" />
<path d="M 1646.7 1413.82 L 1648.42 1414.15 C 1651.6 1417.82 1654.59 1424.28 1656.92 1428.75 C 1642.32 1438.17 1621.91 1451.42 1608.24 1461.7 C 1604.68 1456.38 1601.66 1450.76 1598.53 1445.18 C 1614.79 1434.91 1630.18 1423.77 1646.7 1413.82 z" fill="currentColor" />
<path d="M 1604.04 1334.07 C 1606.69 1336.67 1612.42 1347.39 1614.4 1350.93 C 1600.03 1357.88 1578.45 1373.29 1564.5 1382.76 L 1563.53 1382.73 C 1560.91 1380.81 1556.31 1372.25 1554.37 1368.98 C 1572.34 1357.18 1586.77 1345.95 1604.04 1334.07 z" fill="currentColor" />
<path d="M 1407.13 984.957 C 1409.86 986.465 1414.79 997.296 1416.46 1000.61 C 1398.65 1010.35 1379.46 1022.47 1361.93 1033.03 C 1359.39 1031.66 1354.75 1022.85 1353.09 1019.99 C 1370.73 1010.52 1390.91 996.62 1407.13 984.957 z" fill="currentColor" />
<path d="M 1218.16 650.222 C 1220.98 653.852 1224.2 660.508 1226.45 664.748 C 1218.06 669.459 1175.85 694.241 1171.6 699.385 L 1162.9 685.799 C 1182.4 674.714 1199.6 662.796 1218.16 650.222 z" fill="currentColor" />
<path d="M 1359.02 901.884 C 1361.71 903.865 1365.44 910.985 1367.44 914.302 C 1349.74 926.422 1331.92 938.36 1313.97 950.114 C 1311.09 949 1307.28 940.267 1305.69 937.135 C 1323.54 925.495 1341.31 913.745 1359.02 901.884 z" fill="currentColor" />
<path d="M 1146.82 525.581 C 1149.12 527.705 1154.75 538.481 1156.41 541.552 C 1136.92 550.253 1118.64 561.671 1100.4 572.706 L 1098.96 572.619 C 1095.99 569.62 1093.87 564.951 1091.82 561.121 C 1108.54 551.353 1132.51 537.976 1146.82 525.581 z" fill="currentColor" />
<path d="M 1478.88 1111.98 C 1481.77 1114.54 1485.85 1122.99 1487.76 1126.72 C 1470.48 1136.08 1451.64 1148.45 1434.81 1158.99 C 1432.09 1157.9 1428.09 1148.95 1426.6 1146.02 C 1445.89 1135.01 1460.99 1124.95 1478.88 1111.98 z" fill="currentColor" />
<path d="M 1190.39 602.014 C 1193.21 605.16 1196.48 611.538 1198.67 615.431 C 1179.9 625.764 1161.43 638.469 1143.5 650.319 C 1140.62 647.765 1137.57 640.389 1135.82 636.66 C 1153.88 627.296 1173.26 613.458 1190.39 602.014 z" fill="currentColor" />
<path d="M 1509.68 1165.91 C 1512.44 1169.89 1514.65 1175.27 1516.71 1179.74 C 1501.5 1191.12 1481.03 1203.97 1464.96 1214.67 C 1462.31 1210.72 1459.95 1206.42 1457.58 1202.28 C 1473.61 1190.51 1492.91 1177.94 1509.68 1165.91 z" fill="currentColor" />
<path d="M 1754.95 1607.79 C 1757.88 1608.96 1762.81 1619.23 1764.6 1622.55 C 1751.41 1629.1 1731.81 1644.26 1719.19 1653.53 C 1717.04 1655.1 1716.99 1655.37 1714.47 1656.04 C 1713.13 1654.1 1713.61 1648.73 1712.47 1644.08 L 1712.18 1642.93 C 1725.37 1631.03 1740.98 1618.99 1754.95 1607.79 z" fill="currentColor" />
<path d="M 1467.17 1090.22 C 1469.82 1091.97 1473.04 1099.58 1474.49 1102.69 C 1457.62 1112.94 1438.63 1126.41 1421.96 1137.55 C 1419.3 1133.97 1416.43 1129.31 1413.94 1125.52 C 1427.74 1119.71 1455.42 1100.33 1467.17 1090.22 z" fill="currentColor" />
<path d="M 1799.07 1684.95 C 1801.07 1686.7 1802.74 1690.85 1803.99 1693.44 C 1785.71 1705.6 1768.58 1719.4 1752.8 1734.67 L 1739.75 1734.97 L 1737.13 1734.76 C 1737.63 1731.06 1791.81 1690.62 1799.07 1684.95 z" fill="currentColor" />
<path d="M 1275 751.833 C 1277.51 753.193 1278.88 756.603 1280.38 759.276 L 1225.55 793.682 C 1222.78 792.557 1222.47 790.372 1220.59 786.973 C 1238.89 775.07 1256.44 763.422 1275 751.833 z" fill="currentColor" />
<path d="M 1026.82 361.163 L 1027.22 361.375 C 1026.6 362.632 987.011 388.213 982.574 391.129 L 981.484 390.276 L 981.466 387.706 C 985.492 380.035 1017.04 366.005 1026.82 361.163 z" fill="currentColor" />
<metadata><recraft-signature>{"signed_by": "recraft", "signature_b64": "elUOeT9v1/fIBz8RWwGcoIcYq7Y5U6PcBUJlhyNRsr3m11JYnUjWEaLP6QD/4+MqQdP5YHLb8iJV7HY/SKxFAQ==", "signing_algo": "Ed25519", "generation_timestamp": 1772065391, "identifier": "ff7ee400-0f15-4225-8427-1e3a433277ab"}</recraft-signature></metadata></g></svg>