<svg xmlns="http://www.w3.org/2000/svg" viewBox="0 0 24 24">
<g transform="scale(0.011719,0.011719)"><path d="M 983.754 106.476 C 1490.9 84.2529 1919.98 477.468 1942 984.62 C 1964.02 1491.77 1570.64 1920.7 1063.48 1942.52 C 556.603 1964.33 127.968 1571.21 105.959 1064.34 C 83.9499 557.477 476.896 128.687 983.754 106.476 z" fill="currentColor" />
<path d="M 994.217 217.429 L 995.594 217.364 C 1192.63 208.555 1420.48 285.338 1566.63 418.961 C 1715.19 554.781 1819.91 778.963 1828.84 980.461 C 1837.64 1179.11 1788.22 1341.02 1680.29 1507.11 C 1664.67 1531.58 1648.08 1555.41 1630.57 1578.56 C 1607.07 1610.22 1604.67 1612.82 1571.8 1635 L 1527.43 1664.83 C 1499.08 1683.87 1468.96 1704.29 1439.19 1720.99 C 1321.38 1786.93 1189.65 1824.08 1054.75 1829.41 C 1031.53 1831.18 1002.62 1830.08 979.501 1828.85 C 841.364 1821.31 707.3 1779.37 589.484 1706.86 C 535.77 1673.44 486.464 1633.75 438.641 1592.57 C 432.115 1586.95 421.071 1581.26 415.346 1575.98 C 394.499 1556.73 387.956 1532.71 373.35 1509.75 C 355.688 1481.98 338.247 1453.97 322.707 1425.11 C 264.445 1317.05 229.344 1198.04 219.646 1075.66 C 205.705 913.449 252.102 735.195 335.298 596.051 C 348.228 574.429 362.332 553.531 377.547 533.451 C 385.192 523.212 393.706 513.443 400.984 502.961 C 414.329 483.742 430.088 447.966 444.034 432.117 C 456.803 417.606 501.399 391.28 519.587 379.489 C 670.579 281.606 813.621 227.198 994.217 217.429 z" fill="currentColor" />
<path d="M 1026.05 298.181 C 1035.65 297.24 1042.65 298.277 1051.6 301.957 C 1084.5 315.487 1117.63 330.173 1150.13 344.576 L 1292.64 406.519 L 1444.57 471.999 C 1471.08 483.409 1498.19 494.709 1524.39 506.803 C 1529.66 509.239 1533.19 511.072 1535.71 516.184 C 1541.25 527.415 1546.13 539.054 1551.14 550.541 L 1576.54 608.736 L 1660.4 800.401 L 1728.2 954.433 C 1731.52 961.998 1756.4 1017.82 1756.1 1020.08 C 1753.91 1036.3 1714.99 1119.68 1708.16 1135.21 L 1623.64 1326.89 L 1571.89 1442.99 C 1558.8 1472.94 1544.77 1506.2 1530.28 1535.44 C 1528.78 1538.45 1458.83 1567.31 1452.18 1570.13 L 1160.25 1691.82 L 1074.04 1728.11 C 1061.13 1733.58 1038.76 1744 1026.29 1747.32 C 1004.36 1750.94 987.739 1741.94 968.155 1733.85 C 945.136 1724.34 922.398 1714.18 899.477 1704.43 L 706.436 1621.8 L 584.082 1569.51 C 563.063 1560.55 540.446 1551.99 520.346 1541.32 C 513.365 1537.61 510.838 1532.16 507.343 1524.96 C 501.418 1512.75 496.059 1499.45 490.649 1486.91 L 465.651 1429.83 L 369.737 1206.93 L 321.151 1092.4 C 312.253 1071.34 301.995 1048.59 295.182 1026.82 C 293.43 1021.22 296.985 1011.79 299.365 1006.18 C 318.118 961.983 338.042 917.869 357.497 873.988 L 449.092 665.464 C 463.696 632.932 478.09 600.306 492.273 567.588 C 499.999 549.644 506.552 528.594 517.1 512.286 C 519.988 507.823 614.301 470.251 626.819 464.952 L 905.061 347.792 L 973.805 318.596 C 988.401 312.315 1011.17 301.768 1026.05 298.181 z" fill="currentColor" />
<path d="M 1030.23 324.04 C 1047.34 324.988 1296.61 436.997 1332.31 452.418 L 1452.72 504.074 C 1464.97 509.302 1504.39 525.313 1514.21 531.658 C 1520.37 544.842 1526.01 559.104 1531.93 572.508 L 1595.56 717.885 L 1663.21 873.681 C 1685.06 923.301 1707.43 972.112 1728.7 1022.12 C 1721.58 1040.38 1711.37 1062.24 1703.4 1080.53 L 1657.71 1185.29 L 1511.81 1517.37 C 1393.91 1565.48 1276.32 1614.36 1159.05 1663.99 L 1067.87 1702.72 C 1055.18 1708.13 1030.87 1719.22 1018.25 1723.05 C 1002.81 1723.2 883.527 1669.51 860.094 1659.39 L 682.718 1583.69 L 583.087 1541.43 C 569.565 1535.66 544.903 1525.97 533.09 1519 C 528.211 1510.06 519.211 1488 514.524 1477.55 C 498.021 1440.36 481.838 1403.02 465.978 1365.55 C 458.079 1347.12 449.245 1329.12 441.483 1310.81 C 401.761 1215.39 361.238 1120.31 319.919 1025.57 C 323.414 1008.55 337.853 980.586 345.259 963.457 C 364.684 918.224 384.481 873.153 404.649 828.247 L 493.06 627.482 C 506.787 596.157 520.538 563.081 534.878 532.192 C 543.282 526.807 588.82 508.71 600.159 503.903 C 658.054 479.098 716.181 454.838 774.532 431.127 L 954.028 355.564 C 977.914 345.644 1006.2 331.807 1030.23 324.04 z" fill="currentColor" />
<path d="M 958.715 601.271 C 970.333 600.262 989.585 600.633 1001.7 600.652 L 1073.24 600.869 C 1095.52 601.004 1108.54 602.064 1125.43 618.884 C 1136.88 630.291 1169.12 678.806 1168.23 693.77 C 1166.82 717.297 1162.24 749.086 1159.46 773.065 L 1140.52 938.903 L 1123.77 1102.84 L 1118.88 1149.44 C 1115.72 1179.07 1113.83 1195.94 1085.85 1213.08 C 1064.52 1223.48 1050.81 1221.77 1027.54 1222.19 C 994.666 1222.79 959.436 1223.77 941.132 1190.65 C 937.218 1183.56 934.128 1176.17 932.948 1168.1 C 928.546 1134 925.34 1099.68 921.962 1065.46 L 905.584 912.193 L 889.964 770.5 C 887.544 748.406 882.427 714.982 883.628 693.455 C 884.579 676.41 904.313 645.398 914.537 631.142 C 927.084 613.645 937.053 604.739 958.715 601.271 z" fill="currentColor" />
<path d="M 998.876 621.519 C 1014.59 621.397 1076 620.141 1087.61 622.956 C 1094.77 624.665 1101.37 628.187 1106.77 633.184 C 1118.68 644.161 1141.5 679.565 1141.47 695.98 C 1141.45 706.871 1138.2 732.15 1136.85 744.257 L 1126.26 840.761 L 1101.21 1070.76 C 1097.31 1104.61 1094.21 1138.82 1089.33 1172.53 C 1086.59 1191.41 1067.16 1202.63 1049.11 1203.14 C 1014.18 1202.8 958.753 1214.12 951.92 1165.65 C 948.248 1139.61 945.757 1113.26 942.988 1087.09 L 927.199 938.252 C 920.825 882.695 914.957 827.081 909.596 771.416 C 907.338 748.303 904.242 724.744 902.977 701.365 C 901.78 679.236 924.955 649.935 938.709 633.404 C 951.782 617.69 979.626 621.457 998.876 621.519 z" fill="currentColor" />
<path d="M 961.416 638.341 C 977.088 637.47 999.018 638.371 1015.53 638.273 C 1038.44 638.935 1061.31 636.521 1084.05 639.949 C 1099.21 642.236 1108.07 658.017 1116.04 669.689 C 1119.83 675.246 1125.93 688.845 1125.49 695.455 C 1124.09 716.671 1121.09 738.062 1118.73 759.256 L 1103.96 893.434 C 1097.36 956.981 1090.39 1020.49 1083.07 1083.96 L 1077.07 1137.52 C 1075.85 1148.6 1074.89 1162.46 1072.27 1173.04 C 1058.5 1189.35 1046.62 1186.11 1026.77 1185.88 C 1007.33 1185.66 974.795 1190.57 970.927 1164.6 C 966.137 1132.44 963.164 1099.86 959.621 1067.4 C 952.387 1004.76 945.506 942.079 938.978 879.362 L 926.188 761.283 C 923.76 740.243 920.355 716.21 919.392 695.28 C 919.002 686.812 931.738 665.806 936.807 658.944 C 944.471 648.569 948.142 640.88 961.416 638.341 z" fill="currentColor" />
<path d="M 1028.36 338.259 C 1037.74 339.138 1068.28 353.146 1078.3 357.382 L 1147.29 386.665 C 1169.63 396.323 1333.89 468.79 1340.44 485.257 C 1340.15 485.383 1339.88 485.546 1339.58 485.633 C 1321.91 490.79 1073.14 385.571 1029.11 368.148 C 1015.51 372.434 987.499 385.137 973.72 391.018 L 869.204 435.332 L 663.112 521.939 C 633.192 534.678 593.083 550.282 564.962 563.936 C 557.763 578.071 551.087 595.726 544.538 610.713 L 500.596 711.249 C 477.08 767.475 451.199 823.306 426.744 879.161 C 407.666 922.735 386.487 967.895 359.324 1007.05 C 359.543 992.344 361.079 968.121 365.857 954.671 C 378.409 919.335 394.442 885.303 409.679 851.207 L 473.07 707.357 L 518.206 603.73 C 526.398 584.725 534.51 564.01 544.383 545.892 C 544.666 545.373 546.883 542.123 547.186 541.974 C 565.205 533.119 591.904 522.812 609.573 515.282 L 908.519 389.334 L 992.852 353.228 C 1001.1 349.687 1021.03 340.089 1028.36 338.259 z" fill="currentColor" />
<path d="M 1010.63 1262.2 C 1060.81 1255 1107.26 1290.01 1114.16 1340.23 C 1121.06 1390.44 1085.79 1436.69 1035.53 1443.3 C 985.685 1449.86 939.9 1414.93 933.052 1365.13 C 926.205 1315.32 960.865 1269.33 1010.63 1262.2 z" fill="currentColor" />
<path d="M 398.022 1138.97 C 414.553 1157.72 428.338 1188.27 439.157 1211.06 C 446.767 1205.37 461.623 1190.75 469.223 1183.71 C 477.491 1188.03 484.148 1191.6 492.121 1196.58 C 478.633 1210.18 465.036 1223.67 451.329 1237.05 C 456.501 1249.57 462.556 1262.59 468.109 1275.01 C 486.032 1261.1 513.41 1232.28 530.376 1215.67 C 537.987 1219.85 545.522 1224.18 552.976 1228.64 C 528.543 1252.72 504.48 1274.93 480.089 1299.66 C 484.47 1311.76 491.707 1327.5 496.865 1339.63 C 522.06 1314.8 547.279 1289.99 571.933 1264.62 C 577.416 1258.98 583.182 1252.48 589.355 1247.71 C 595.919 1251.43 602.678 1255.62 609.185 1259.51 C 573.979 1293.14 541.006 1328.47 506.38 1362.08 L 523.901 1401.66 C 532.31 1393.73 540.786 1383.83 549.216 1375.52 C 581.915 1343.29 613.508 1309.01 647.233 1277.87 C 653.453 1281.31 658.011 1284.28 663.927 1288.24 C 657.765 1295.12 649.604 1302.87 642.978 1309.5 L 532.93 1420.71 C 537.904 1433.22 544.209 1446.06 550.045 1458.2 C 555.08 1453.71 563.821 1443.64 568.725 1438.42 C 579.9 1426.71 591.133 1415.06 602.424 1403.46 C 633.591 1371.24 666.83 1338.64 697.205 1306.21 C 702.745 1309.14 708.459 1312.46 713.948 1315.54 C 677.158 1352.37 641.208 1391.23 604.642 1428.41 C 590.475 1442.82 571.498 1460.35 560.025 1476.2 C 558.826 1485.05 560.379 1504.91 556.812 1510.73 C 541.419 1508.63 515.323 1442.22 507.972 1426.05 C 486.644 1379.71 466.093 1333.03 446.327 1286.01 C 436.013 1262.18 425.85 1238.28 415.839 1214.33 C 411.499 1204.1 404.349 1188.11 400.701 1178.18 C 398.433 1172.01 398.712 1147.96 398.022 1138.97 z" fill="currentColor" />
<path d="M 1471.53 1499.39 C 1474.32 1499.05 1480.3 1499.04 1483.34 1498.94 C 1468.91 1509.99 1449.55 1524.29 1433.41 1532.73 C 1403.72 1548.25 1370.15 1561.15 1339.16 1574.34 L 1190.39 1636.35 L 1085.17 1680.32 C 1066.25 1688.23 1047.53 1696.44 1028.32 1703.62 C 1015.64 1708.36 1009.49 1707.23 997.229 1702.08 C 977.61 1693.84 958.497 1684.8 938.819 1676.66 C 894.634 1658.29 850.602 1639.55 806.729 1620.44 C 766.486 1603.01 726.724 1585.85 687.601 1565.96 C 678.447 1560.91 669.367 1555.73 660.363 1550.42 C 748.912 1567.47 829.424 1602.79 912.834 1636.22 C 941.588 1647.75 983.924 1668.86 1012.62 1677.31 C 1020.71 1679.7 1072.86 1656.1 1085.47 1650.88 L 1262.48 1577.39 L 1353.79 1538.83 C 1391.95 1522.7 1430.31 1503.17 1471.53 1499.39 z" fill="currentColor" />
<path d="M 1500.01 553.338 C 1515.23 557.655 1525.52 587.018 1531.32 600.632 L 1558.5 664.97 C 1573.13 699.422 1588.73 733.78 1603.47 768.193 C 1604.62 771.87 1607.85 778.692 1606.61 782.332 C 1602.9 793.133 1592.49 790.755 1584.3 787.701 L 1579.13 776.484 C 1560.88 794.86 1540.53 814.915 1521.19 832.188 C 1516.37 829.192 1512.22 825.819 1507.74 822.352 C 1521.74 810.093 1559.71 769.498 1572.39 762.611 C 1567.51 751.84 1562.75 738.546 1558.15 727.33 C 1535.34 751.165 1507.49 776.916 1483.65 800.928 C 1481.63 802.871 1481.9 802.549 1479.48 804.064 C 1473.53 802.911 1472.5 797.393 1472.42 792.188 C 1474.63 786.389 1542.7 719.808 1552.05 712.57 C 1547.34 702.359 1542.7 692.113 1538.14 681.833 C 1516.07 702.161 1495 724.921 1473.01 745.793 C 1473.02 737.554 1473.82 729.335 1475.4 721.248 C 1477.89 718.231 1482.71 714.124 1485.71 711.366 C 1501.55 696.781 1516.05 679.776 1532.3 665.739 C 1529.28 657.693 1522.83 644.483 1519.09 636.258 C 1506.18 650.192 1492.88 663.084 1479.29 676.355 C 1480.31 668.514 1480.85 659.334 1481.52 651.364 C 1487.58 644.17 1505.29 628.147 1512.88 620.831 C 1508.76 610.991 1505.5 603.803 1500.7 594.251 C 1495.43 599.277 1491.35 602.855 1485.7 607.455 C 1485.89 598.666 1486.87 589.911 1488.64 581.3 C 1490.62 578.75 1494.02 575.527 1496.36 573.16 C 1496.17 570.421 1496.01 567.681 1495.87 564.939 C 1495.62 559.005 1496.01 557.683 1500.01 553.338 z" fill="currentColor" />
<path d="M 698.234 1384.82 C 699.005 1387.86 693.514 1416.16 691.607 1418.28 C 663.272 1449.72 630.565 1486.33 598.537 1513.76 L 587.267 1509.46 C 584.783 1508.52 585.526 1509.36 584.525 1507.34 C 617.468 1468.3 662.95 1422.8 698.234 1384.82 z" fill="currentColor" />
<path d="M 1604.6 807.629 C 1608.36 810.834 1608.93 815.504 1611.62 821.078 C 1606.08 827.496 1571.07 863.068 1565.47 865.968 L 1564.34 864.871 C 1561.09 861.834 1557.26 858.707 1553.85 855.789 C 1567.42 841.891 1590.04 819.05 1604.6 807.629 z" fill="currentColor" />
<path d="M 1623.84 874.022 C 1624.68 882.442 1628.19 898.383 1618.15 901.555 C 1613.99 901.008 1613.05 899.615 1609.67 896.756 L 1602.25 890.952 C 1607.99 885.17 1617.09 878.959 1623.84 874.022 z" fill="currentColor" />
<path d="M 606.746 234.993 L 607.565 236.042 L 344.209 514.878 C 297.62 564.235 253.474 609.992 208.289 661.116 L 207.6 660.306 C 208.311 653.94 239.29 593.021 244.858 586.521 C 264.052 564.113 287.859 539.481 308.342 517.814 L 422.236 397.159 L 502.201 312.921 C 511.471 303.288 532.466 280.398 541.52 273.396 C 557.562 260.99 588.309 244.846 606.746 234.993 z" fill="currentColor" />
<path d="M 1805.61 1458.89 C 1806.02 1468.65 1748.23 1549.02 1738.86 1562.76 C 1737.21 1565.16 1720.32 1581.84 1717.16 1585.03 C 1703.32 1598.91 1689.57 1612.88 1675.9 1626.93 C 1656.18 1647.24 1636.32 1667.41 1616.33 1687.45 C 1601.81 1702.22 1587.74 1717.78 1571.54 1730.73 C 1543.39 1753.23 1514.93 1772.4 1483.97 1790.84 L 1483.76 1789.71 C 1533.17 1736.2 1584.76 1685.89 1635.5 1634.12 L 1739.67 1527.41 C 1761.61 1504.69 1783.36 1481.2 1805.61 1458.89 z" fill="currentColor" />
<path d="M 1587.95 1652.01 L 1588.73 1652.85 L 1456.98 1785.68 C 1445.31 1797.32 1426.83 1819.43 1415.22 1828.75 C 1406.55 1835.7 1371.63 1849.4 1360.37 1853.83 L 1359.74 1853 C 1368.51 1842.65 1378.36 1833.08 1387.8 1823.26 C 1406.32 1803.95 1424.96 1784.75 1443.72 1765.67 C 1460.3 1748.61 1479.92 1727.04 1497.15 1711.53 C 1501.31 1707.78 1528.08 1691.35 1534.3 1687.36 C 1552.25 1675.69 1570.14 1663.9 1587.95 1652.01 z" fill="currentColor" />
<path d="M 1860.82 1338.9 C 1860.66 1344.85 1841.87 1388.3 1837.85 1393.15 C 1814.91 1420.88 1788.69 1447.38 1763.5 1473.05 C 1727.29 1510.02 1691.44 1547.34 1655.96 1585 L 1655.91 1583.07 C 1659.83 1576.93 1664.33 1570.29 1668.91 1564.6 C 1691.1 1537 1708.23 1506.01 1728.9 1477.5 C 1740.13 1464.43 1752.19 1451.57 1764.2 1439.22 C 1796.17 1406.33 1828.05 1370.83 1860.82 1338.9 z" fill="currentColor" />
<path d="M 333.573 550 C 333.462 553.015 320.826 571.853 317.745 576.287 C 305.35 594.125 295.011 620.933 283.08 638.182 C 273.727 651.704 254.514 670.147 243.009 682.395 C 218.918 707.705 195.117 733.29 171.61 759.143 C 170.616 753.617 187.698 706.895 191.755 702.428 C 238.409 651.075 286.77 601.263 333.573 550 z" fill="currentColor" />
<path d="M 709.672 186.04 L 711.175 186.185 L 710.989 187.312 C 671.765 225.299 635.504 267.885 594.921 304.742 C 591.395 307.945 578.639 314.736 573.865 317.567 L 531.642 342.644 L 531.104 342.595 L 530.969 341.698 L 620.679 247.427 C 631.418 236.145 651.685 213.773 662.747 205.229 C 667.224 201.771 702.036 188.96 709.672 186.04 z" fill="currentColor" />
<path d="M 792.257 160.138 L 793.502 160.588 C 766.169 187.783 729.172 229.344 700.155 255.386 C 696.473 258.691 652.184 277.428 644.692 280.978 L 643.946 280.694 L 644.168 279.713 C 667.846 256.224 691.081 232.293 713.859 207.931 C 719.195 202.295 742.396 176.41 746.096 174.18 C 751.969 170.641 783.52 162.589 792.257 160.138 z" fill="currentColor" />
<path d="M 1420.25 1758.87 L 1421.11 1759.04 L 1421.26 1760.06 C 1405.79 1774.56 1390.41 1791.47 1375.44 1806.67 C 1353.95 1828.48 1332.1 1850.31 1311.33 1872.78 C 1300.85 1874.93 1281.33 1881.39 1270.52 1884.65 L 1269.65 1884.02 C 1281.47 1870.65 1296.76 1855.52 1309.52 1841.95 C 1327.34 1823.01 1347.64 1799.62 1367.71 1783.56 C 1370.43 1781.39 1386.05 1775.13 1390.45 1773.22 C 1400.61 1768.91 1410.55 1764.12 1420.25 1758.87 z" fill="currentColor" />
<path d="M 259.811 687.88 C 259.89 690.169 237.361 748.579 235.849 750.1 C 207.817 778.286 181.433 810.5 152.114 837.145 C 151.282 832.278 159.677 797.02 162.989 792.617 C 172.222 780.341 185.867 767.401 196.589 756.072 C 217.825 733.492 238.899 710.761 259.811 687.88 z" fill="currentColor" />
<path d="M 1889.29 1251.87 C 1890.29 1257.21 1880.73 1288.79 1877.07 1292.94 C 1863.33 1308.49 1847.6 1324.28 1832.9 1339.09 C 1811.83 1360.35 1791.12 1382.64 1769.32 1403.05 C 1769.57 1399.19 1789.06 1356.21 1792.62 1351.63 C 1798.18 1344.5 1815.51 1327.04 1822.67 1319.67 C 1844.75 1296.95 1866.96 1274.35 1889.29 1251.87 z" fill="currentColor" />
<path d="M 862.258 145.433 L 862.882 146.386 C 836.698 172.689 810.75 199.227 785.041 225.997 C 769.948 231.194 754.76 236.111 739.484 240.743 L 738.842 240.541 C 743.094 230.06 810.701 166.862 823.653 154.586 C 827.036 151.379 855.603 146.484 862.258 145.433 z" fill="currentColor" />
<path d="M 223.801 786.86 C 223.965 790.596 214.07 828.101 212.436 834.612 C 188.978 857.331 162.859 887.638 138.814 912.263 C 137.727 906.261 143.344 877.375 144.632 870.165 C 170.733 842.898 197.564 813.497 223.801 786.86 z" fill="currentColor" />
<path d="M 1319.42 1802.13 L 1319.94 1802.25 L 1319.98 1803.32 C 1288.9 1834.7 1257.58 1864.25 1227.07 1896.53 C 1216.21 1898.11 1205.01 1900.23 1194.17 1902.12 L 1192.84 1901.86 L 1193.04 1900.65 C 1219.66 1877.05 1252.34 1836.72 1281.14 1814.62 C 1283.58 1812.75 1313.32 1804.19 1319.42 1802.13 z" fill="currentColor" />
<path d="M 928.13 135.548 L 928.622 136.621 C 921.123 145.352 908.131 157.617 899.62 166.364 C 886.12 180.241 871.876 196.477 857.781 209.206 L 819.394 217.206 L 818.586 216.421 C 830.286 197.015 875.829 157.404 893.796 141.1 C 897.066 138.133 921.992 136.146 928.13 135.548 z" fill="currentColor" />
<path d="M 1904.27 1180.74 C 1907.1 1183.25 1900.42 1211.32 1897.87 1214.01 C 1869.72 1243.63 1839.2 1277.74 1809.12 1305 L 1808.76 1304.57 C 1808.63 1299.9 1820.15 1269.19 1822.29 1263.24 C 1830.32 1258.88 1891.98 1193.19 1904.27 1180.74 z" fill="currentColor" />
<path d="M 205.607 864.905 C 207.394 866.911 199.603 905.089 198.507 911.016 C 190.821 916.622 179.843 928.689 172.941 935.951 C 159.508 950.129 146.165 964.392 132.913 978.739 L 132.063 978.08 C 131.619 971.298 134.155 948.574 134.885 940.671 C 156.713 920.643 185.914 887.058 205.607 864.905 z" fill="currentColor" />
<path d="M 1235.6 1827.06 C 1236.34 1827.08 1237.08 1827.09 1237.82 1827.11 C 1235.71 1832.84 1165.18 1898.6 1155.44 1908.62 C 1146.17 1910.26 1135.56 1911.38 1126.13 1912.59 L 1123.87 1912.75 L 1123.61 1911.5 C 1137.18 1898.16 1188.79 1841.66 1199.98 1836.42 C 1210.49 1831.5 1224.33 1830.61 1235.6 1827.06 z" fill="currentColor" />
<path d="M 194.863 937.873 C 196.78 940.003 193.051 969.531 192.829 975.448 C 174.446 998.106 149.667 1019.98 131.415 1042.23 C 129.201 1039.69 130.235 1012.51 130.284 1007.14 C 151.959 984.569 172.973 960.759 194.863 937.873 z" fill="currentColor" />
<path d="M 968.951 131.421 C 975.463 130.917 984.527 131.017 991.242 130.901 C 986.318 136.719 974.729 147.718 968.994 153.483 L 924.319 198.292 L 911.762 199.283 C 903.975 200.208 896.197 201.209 888.429 202.284 C 910.75 178.755 933.284 155.429 956.028 132.309 L 968.951 131.421 z" fill="currentColor" />
<path d="M 1914.58 1115.84 C 1914.34 1125.73 1913.68 1136.05 1911.62 1145.73 C 1886.75 1172.55 1857.26 1199.43 1832.1 1226.09 L 1831.76 1225 C 1832.81 1219.51 1837.31 1195.02 1840.12 1191.82 C 1861 1168.11 1892.55 1137.5 1914.58 1115.84 z" fill="currentColor" />
<path d="M 191.587 1002.7 C 192.913 1008.5 191.844 1031.28 191.522 1037.99 C 172.111 1058.6 151.678 1081.38 132.806 1102.53 C 131.187 1091.26 130.846 1080.12 130.7 1068.77 C 151.101 1048.75 171.363 1023.46 191.587 1002.7 z" fill="currentColor" />
<path d="M 1157.7 1844.37 L 1159.87 1844.36 C 1158.44 1849.59 1099.58 1905.8 1090.31 1916.44 C 1082.57 1917.33 1070.35 1917.23 1062.25 1917.41 L 1060.47 1917.57 L 1060.19 1916.72 C 1079.61 1897.81 1107.58 1864.58 1130.03 1849.1 C 1132.48 1847.41 1153.12 1845.04 1157.7 1844.37 z" fill="currentColor" />
<path d="M 1017.38 130.19 C 1027.32 130.007 1037.15 130.3 1047.08 130.532 C 1032.52 146.14 1002.43 176.433 985.859 192.623 C 984.656 192.712 983.452 192.8 982.249 192.888 C 972.627 192.929 961.791 193.997 952.24 195.198 C 971.812 175.557 997.243 148.034 1017.38 130.19 z" fill="currentColor" />
<path d="M 1917.8 1056.83 C 1918.8 1065.89 1917.39 1077.73 1916.36 1086.76 C 1910.26 1093.41 1899.06 1103.57 1892.28 1110.33 C 1876.79 1126.04 1861.21 1141.66 1845.54 1157.19 C 1844.72 1153.07 1848.43 1132.25 1849.09 1126.02 C 1859.43 1116.73 1868.86 1106.1 1878.55 1096.07 C 1891.41 1082.77 1904.5 1069.69 1917.8 1056.83 z" fill="currentColor" />
<path d="M 191.842 1063.8 C 193.91 1066.14 194.98 1090.25 195.327 1095.04 C 177.762 1115.4 158.3 1135.36 139.524 1154.57 C 137.65 1144.45 136.454 1136.62 135.223 1126.36 C 150.252 1112.34 177.406 1080.04 191.842 1063.8 z" fill="currentColor" />
<path d="M 1086.93 1852.5 C 1090.92 1851.92 1091.28 1851.8 1095.2 1852.4 C 1092.33 1856.35 1081.59 1865.93 1077.63 1870.08 C 1062.45 1885.99 1043.85 1902.27 1029.78 1918.96 L 1009.75 1918.71 C 1006.38 1918.59 1005.86 1918.43 1002.69 1917.72 C 1002.91 1916.42 1056.08 1861.67 1062.23 1854.49 C 1070.55 1854.08 1078.65 1853.28 1086.93 1852.5 z" fill="currentColor" />
<path d="M 1917.39 1001.74 C 1920.04 1005.64 1919.04 1022.44 1918.97 1028.21 C 1897.36 1049.14 1875.77 1071.79 1854.21 1093.15 C 1851.74 1089.38 1853.95 1070.45 1854.36 1064.77 C 1872.14 1047.22 1899.8 1016.52 1917.39 1001.74 z" fill="currentColor" />
<path d="M 1070.11 131.139 C 1080.77 131.537 1089.45 132.223 1100 133.267 C 1080.34 153.266 1060.32 172.907 1039.95 192.182 C 1038.43 192.852 1015.6 192.049 1011.82 191.962 C 1030.81 171.006 1050.59 151.579 1070.11 131.139 z" fill="currentColor" />
<path d="M 197.624 1118.83 C 199.325 1127.92 200.343 1138.11 201.465 1147.36 C 188.936 1160.86 160.302 1194.82 147.821 1204.26 C 146.026 1195.87 145.718 1188.31 143.03 1179.64 C 159.006 1163.14 183.979 1136.38 197.624 1118.83 z" fill="currentColor" />
<path d="M 1012.06 1855.48 L 1034.83 1855.19 C 1019.05 1870.44 1004.25 1887.91 988.317 1903.18 C 984.23 1907.1 977.529 1914.4 973.061 1917.32 C 965.003 1916.66 956.942 1916.05 948.877 1915.48 C 965.322 1897.75 987.652 1873.73 1005.85 1856.88 C 1007.23 1855.61 1010.15 1855.57 1012.06 1855.48 z" fill="currentColor" />
<path d="M 1914.78 948.749 C 1916.86 956.142 1916.94 968.153 1915.85 975.776 C 1895.45 994.616 1876.02 1016.74 1856.34 1034.23 L 1855.87 1034.4 L 1854.89 1033.55 C 1854.77 1025.63 1854.79 1017.71 1854.97 1009.8 C 1875.4 987.531 1893.1 969.719 1914.78 948.749 z" fill="currentColor" />
<path d="M 1121.65 134.881 C 1130.24 135.864 1138.82 136.957 1147.39 138.159 C 1130.36 156.899 1108.94 177.113 1090.78 195.017 L 1064.59 193.017 C 1083.42 173.459 1102.45 154.079 1121.65 134.881 z" fill="currentColor" />
<path d="M 955.336 1852.91 C 964.788 1853.81 974.253 1854.56 983.729 1855.16 C 969.4 1865.59 939.72 1897.53 926.702 1911.11 L 924.944 1912.73 C 920.758 1913.55 905.53 1910.88 900.238 1910.21 C 914.008 1893.58 940.007 1867.41 955.336 1852.91 z" fill="currentColor" />
<path d="M 1908.88 900.991 C 1910.04 905.173 1912.03 919.707 1912.86 924.732 C 1893.62 941.845 1874.49 962.663 1856.27 981.207 L 1855.7 981.445 C 1853.3 978.619 1853.28 962.33 1853.04 957.4 C 1871.47 939.269 1890.27 919.487 1908.88 900.991 z" fill="currentColor" />
<path d="M 215.449 1217.02 C 218.056 1223.65 220.399 1233.69 222.04 1240.61 C 207.348 1254.67 186.741 1278.58 171.912 1294.45 C 168.554 1286.28 166.786 1281.14 164.303 1272.64 C 176.368 1262.19 202.884 1230.52 215.449 1217.02 z" fill="currentColor" />
<path d="M 1214.84 150.647 C 1219.81 151.274 1232.69 154.935 1238.12 156.325 C 1220.35 173.521 1202.85 191.002 1185.63 208.76 C 1181.73 208.53 1171.13 205.134 1162.37 204.494 C 1172.48 191.276 1202.06 163.348 1214.84 150.647 z" fill="currentColor" />
<path d="M 204.656 1170.84 C 206.38 1173.46 209.897 1189.83 210.9 1194.11 C 193.735 1212.62 176.678 1231.22 159.731 1249.93 C 157.561 1244.86 154.696 1233.69 153.06 1227.95 C 169.191 1210.4 190.303 1189.19 204.656 1170.84 z" fill="currentColor" />
<path d="M 906.364 1847.85 C 914.304 1849.14 923.863 1850.09 931.971 1851.14 C 913.8 1867.89 896.146 1886.96 878.121 1904.35 L 877.511 1904.99 C 874.193 1906.06 859.958 1902.44 855.386 1901.5 C 870.524 1884.29 890.25 1864.29 906.364 1847.85 z" fill="currentColor" />
<path d="M 1900.55 854.985 C 1902.21 862.395 1903.36 870.056 1904.58 877.564 C 1891.28 893.678 1866.25 916.662 1850.7 932.498 C 1848.67 925.686 1847.53 915.829 1846.62 908.761 C 1865.25 890.917 1883.05 873.992 1900.55 854.985 z" fill="currentColor" />
<path d="M 1171.21 141.689 C 1177.76 142.469 1185.74 144.394 1192.31 145.803 C 1177.08 162.947 1151.3 185.259 1138.66 200.877 L 1115.57 197.033 L 1171.21 141.689 z" fill="currentColor" />
<path d="M 1889.69 811.762 C 1892.91 815.506 1894.78 827.587 1895.85 832.793 C 1884.74 846.115 1857.23 873.182 1844.67 885.606 L 1843.83 885.75 C 1841.03 882.774 1840.09 869.028 1839.5 864.11 C 1855.39 847.315 1874.8 828.58 1889.69 811.762 z" fill="currentColor" />
<path d="M 226.796 1262.61 C 229.895 1265.64 232.742 1279.28 234.048 1284.32 C 220.682 1299.49 201.058 1321.34 186.372 1334.95 C 183.656 1331.84 179.685 1320.39 178.138 1316.21 C 194.675 1298.63 210.897 1280.76 226.796 1262.61 z" fill="currentColor" />
<path d="M 1259.67 161.688 C 1267.67 163.295 1273.5 165.543 1281.21 168.298 L 1231.7 217.725 L 1208.91 212.86 C 1224.92 195.821 1243.02 178.317 1259.67 161.688 z" fill="currentColor" />
<path d="M 860.337 1840.02 C 866.178 1841.5 877.572 1842.99 883.897 1844.03 C 873.176 1856.62 843.809 1885.07 831.126 1896.28 C 829.746 1896.98 812.571 1892.62 809.419 1891.89 C 826.695 1875.73 844.028 1857.28 860.337 1840.02 z" fill="currentColor" />
<path d="M 255.69 1345.66 C 258.456 1348.17 263.709 1361.63 265.545 1365.93 C 249.919 1381.16 236.097 1397.9 220.478 1413.24 C 217.165 1409.26 212.73 1399.02 210.462 1394.08 L 255.69 1345.66 z" fill="currentColor" />
<path d="M 814.363 1829.67 C 821.226 1830.44 831.926 1833.77 838.882 1835.7 C 822.198 1851.51 805.773 1867.59 789.613 1883.93 L 788.346 1885.3 C 783.727 1886.68 773.019 1881.57 768.416 1879.6 C 783.061 1862.63 799.931 1847.94 814.363 1829.67 z" fill="currentColor" />
<path d="M 1795.43 576.717 C 1799.78 581.39 1803.58 590.399 1806.13 596.247 C 1794.01 610.327 1775.5 626.667 1761.67 641.898 C 1757.9 636.104 1754.04 627.959 1750.83 621.635 C 1765.88 606.852 1780.75 591.878 1795.43 576.717 z" fill="currentColor" />
<path d="M 1834.63 649.82 C 1837.06 653.034 1841.62 665.313 1843.23 669.413 C 1827.93 685.971 1812.17 702.103 1795.98 717.791 C 1793.56 710.991 1790.03 703.943 1786.92 697.365 C 1799.92 686.965 1822.37 662.473 1834.63 649.82 z" fill="currentColor" />
<path d="M 772.778 1817.73 C 779.409 1820.2 786.961 1822.35 793.794 1824.44 C 778.664 1840.34 761.749 1859.17 746.058 1874.06 C 739.919 1871.5 732.342 1868.92 726.006 1866.57 C 736.565 1853.58 759.949 1831.1 772.778 1817.73 z" fill="currentColor" />
<path d="M 1878.72 768.841 C 1880.68 770.84 1884.64 786.61 1885.7 790.441 C 1871.29 802.761 1850.41 825.158 1836.23 839.344 L 1835.18 839.899 C 1832.15 836.763 1831.23 824.526 1830.58 819.728 C 1845.9 802.63 1862.82 785.545 1878.72 768.841 z" fill="currentColor" />
<path d="M 1865.7 728.812 C 1868.44 731.516 1872.09 744.457 1873.36 748.527 C 1858.31 762.208 1840.35 782.7 1825.7 797.842 L 1825.12 797.797 C 1821.9 794.895 1819.07 782.63 1817.76 777.952 C 1833.61 761.446 1849.59 745.066 1865.7 728.812 z" fill="currentColor" />
<path d="M 1380.53 204.931 C 1387.36 207.903 1393.87 211.057 1400.58 214.289 C 1389 227.513 1368.07 246.631 1354.94 259.384 C 1348.55 257.201 1341.23 253.696 1334.97 250.891 C 1346.56 237.436 1367.39 218.123 1380.53 204.931 z" fill="currentColor" />
<path d="M 1341.84 188.645 C 1346.79 189.732 1357.64 194.125 1362.86 196.088 C 1348.2 208.854 1328.8 229.089 1314.57 243.128 C 1309.31 242.722 1299.71 238.517 1294.62 236.445 C 1305.75 223.253 1329 201.44 1341.84 188.645 z" fill="currentColor" />
<path d="M 731.852 1803.88 L 753.268 1811.16 C 738.611 1827.34 721.008 1841.96 705.96 1859.31 C 698.904 1856.74 692.499 1853.94 685.61 1850.95 C 699.983 1835.7 716.953 1819.34 731.852 1803.88 z" fill="currentColor" />
<path d="M 273.429 1384.73 C 276.363 1387.3 281.403 1400.45 283.08 1404.5 C 270.368 1417.08 252.575 1438.25 240.167 1452.08 L 229.457 1433.33 C 243.108 1419.63 260.171 1399.53 273.429 1384.73 z" fill="currentColor" />
<path d="M 240.742 1305.83 C 242.671 1307.9 247.345 1320.41 249.13 1324.31 C 234.36 1339.15 217.153 1359.46 203.117 1375.51 C 199.464 1370.38 195.991 1361.89 193.686 1356.06 C 207.259 1343.26 227.391 1320.27 240.742 1305.83 z" fill="currentColor" />
<path d="M 1302.47 174.712 C 1308.69 176.34 1315.8 179.439 1321.87 181.88 C 1309.68 195.604 1287.46 215.945 1273.69 229.805 C 1266.21 227.539 1259.86 225.316 1252.07 224.51 C 1267.18 208.205 1286.34 190.868 1302.47 174.712 z" fill="currentColor" />
<path d="M 1851.72 688.891 C 1853.05 691.044 1857.23 705.581 1858.25 709.01 C 1844.43 722.583 1824.96 745.8 1811.22 756.908 C 1809.02 754.136 1805.76 743.033 1804.52 739.191 C 1812.45 727.615 1841.17 699.448 1851.72 688.891 z" fill="currentColor" />
<path d="M 1418.73 222.699 C 1425.79 226.186 1430.77 228.827 1437.48 232.91 C 1430.22 241.932 1404 267.132 1394.44 277.317 C 1388 274.194 1381.65 270.899 1375.4 267.434 L 1418.73 222.699 z" fill="currentColor" />
<path d="M 1454.58 242.239 C 1461.7 245.213 1466.61 248.188 1473.3 252.084 C 1466.91 260.403 1439.76 288.346 1431.23 295.258 L 1412.19 285.042 C 1426.61 271.056 1440.74 256.785 1454.58 242.239 z" fill="currentColor" />
<path d="M 291.557 1422.64 C 295.409 1426.45 299.392 1437.8 301.507 1443.12 C 287.627 1457.85 273.977 1472.79 260.562 1487.94 L 249.883 1470.01 C 263.167 1454.35 277.929 1438.56 291.557 1422.64 z" fill="currentColor" />
<path d="M 1815.52 613.759 C 1819.17 619.237 1822.2 625.64 1825.22 631.556 L 1780.06 678.19 C 1778.98 675.409 1772.1 663.737 1770.02 659.704 C 1780.42 651.767 1804.72 624.793 1815.52 613.759 z" fill="currentColor" />
<path d="M 1753.36 509.634 C 1755.28 511.756 1762.27 523.218 1764.13 526.157 C 1750.67 540.833 1735.65 555.69 1721.48 569.667 C 1717.54 564.275 1713.56 558.351 1709.71 552.844 C 1724.12 538.753 1738 522.598 1753.36 509.634 z" fill="currentColor" />
<path d="M 1490.47 263.233 L 1508.46 275.364 C 1498.04 287.074 1480.14 305.354 1468.6 315.855 C 1461.21 312.237 1456.73 309.445 1449.75 304.979 C 1463.41 291.146 1476.98 277.23 1490.47 263.233 z" fill="currentColor" />
<path d="M 692.861 1788.62 C 697.007 1789.91 707.437 1794.76 711.892 1796.69 C 697.096 1811.73 682.275 1827.46 667.701 1842.73 C 667.311 1842.69 650.954 1835.61 648.801 1834.74 C 662.177 1819.91 678.813 1803.39 692.861 1788.62 z" fill="currentColor" />
<path d="M 584.674 1733.83 C 590.094 1736.7 596.61 1740.89 601.965 1744.14 C 587.774 1758.44 573.679 1772.82 559.679 1787.3 C 555.03 1785.73 547.41 1779.64 543.393 1776.53 C 556.564 1761.74 570.336 1747.49 584.674 1733.83 z" fill="currentColor" />
<path d="M 1525.49 286.674 C 1531.59 290.535 1537.73 294.772 1543.74 298.806 L 1503.9 337.76 C 1499.59 336.182 1490.04 329.042 1486.09 326.177 L 1525.49 286.674 z" fill="currentColor" />
<path d="M 1591.7 335.658 C 1598.44 340.829 1601.91 344.119 1607.98 350.137 C 1597.25 359.18 1580.54 377.149 1569.74 387.794 C 1563.92 383.602 1557.89 378.623 1552.23 374.122 C 1565.61 361.529 1578.77 348.706 1591.7 335.658 z" fill="currentColor" />
<path d="M 655.558 1772.75 C 661.845 1775.36 668.118 1778.02 674.375 1780.71 C 661.96 1794.31 644.283 1810.96 630.845 1824.43 C 626.297 1823.49 616.402 1818.02 612.297 1815.74 C 627.506 1801.87 640.814 1786 655.558 1772.75 z" fill="currentColor" />
<path d="M 618.746 1753.8 L 637.696 1763.64 C 623.732 1777.78 609.469 1791.02 595.685 1805.58 C 591.06 1806.23 582.399 1800.48 577.912 1797.97 C 585.977 1787.54 609.124 1763.32 618.746 1753.8 z" fill="currentColor" />
<path d="M 311.658 1459.82 C 315.446 1465.08 318.589 1471.34 321.707 1477.1 C 310.704 1491.82 295.108 1507.91 282.166 1521.2 C 278.674 1515.86 275.147 1510.55 271.584 1505.26 C 282.383 1491.41 299.633 1473.31 311.658 1459.82 z" fill="currentColor" />
<path d="M 1728.8 478.2 C 1733.28 482.894 1736.6 488.112 1740.26 493.459 C 1728.51 508.551 1712.59 520.831 1699.81 535.15 C 1697.43 533.838 1690.15 522.622 1688.06 519.587 C 1701.06 505.227 1714.65 491.419 1728.8 478.2 z" fill="currentColor" />
<path d="M 1703.65 447.832 C 1709.19 453.731 1711.43 456.432 1716.07 463.045 C 1704.55 476.289 1689.96 490.203 1677.56 504.252 C 1674.16 500.894 1667.71 491.473 1664.6 487.177 C 1677.76 473.02 1689.3 460.734 1703.65 447.832 z" fill="currentColor" />
<path d="M 1774.69 543.851 C 1776.65 545.963 1782.59 555.938 1784.47 558.983 C 1770.25 574.795 1757.7 588.824 1742.16 603.238 C 1738.69 600.34 1734.39 591.381 1732.21 587.181 C 1742.17 575.767 1763.52 554.121 1774.69 543.851 z" fill="currentColor" />
<path d="M 1559.1 310.68 C 1563.34 312.702 1571.34 319.91 1574.91 323.132 C 1565.38 334.231 1547.28 352.648 1536.52 362.18 L 1519.82 349.319 L 1559.1 310.68 z" fill="currentColor" />
<path d="M 550.626 1711.67 C 556.389 1715.6 562.176 1719.83 567.864 1723.89 C 554.334 1736.98 540.433 1752.13 526.655 1764.31 C 524.084 1763.73 513.457 1756.08 510.505 1754.07 C 524.193 1740.24 537.57 1726.11 550.626 1711.67 z" fill="currentColor" />
<path d="M 1677.02 417.829 C 1682.09 422.041 1687.06 428.562 1691.34 433.763 C 1678.5 446.185 1665.77 458.709 1653.14 471.335 L 1652.33 471.631 C 1649.66 470.145 1641.8 460.309 1639.3 457.347 C 1651.7 444.011 1664.27 430.837 1677.02 417.829 z" fill="currentColor" />
<path d="M 331.3 1494.84 C 336.322 1501.23 339.102 1505.8 342.824 1512.92 C 330.066 1526.16 317.597 1539.67 305.424 1553.45 C 301.32 1547.92 297.841 1543.61 293.371 1538.38 C 302.502 1526.36 320.73 1507.04 331.3 1494.84 z" fill="currentColor" />
<path d="M 1622.77 362.938 C 1629.02 367.611 1631.9 370.501 1637.1 376.195 C 1626.26 388.093 1610.58 403.102 1599.03 414.238 C 1594.5 410.95 1588.67 405.043 1584.43 400.992 C 1597.15 388.241 1609.93 375.556 1622.77 362.938 z" fill="currentColor" />
<path d="M 1650.33 390.016 C 1655.31 394.417 1659.75 399.193 1664.35 403.98 C 1651.8 416.668 1639.34 429.446 1626.97 442.313 C 1623.52 440.453 1615.95 430.577 1613.25 427.246 C 1625.76 414.989 1638.12 402.578 1650.33 390.016 z" fill="currentColor" />
<path d="M 518.328 1690.54 C 523.152 1691.92 530.721 1698.53 534.776 1701.82 C 522.597 1713.66 507.085 1728.85 496.133 1741.47 L 495.48 1741.86 C 492.775 1741.21 484.442 1733.78 481.093 1731.35 C 492.301 1717.9 506.309 1703.3 518.328 1690.54 z" fill="currentColor" />
<path d="M 352.406 1529.7 C 354.891 1531.49 361.671 1542.88 363.715 1546.08 C 355.03 1556.99 339.339 1573.88 329.741 1584.26 L 316.508 1568.6 C 328.725 1556.12 340.493 1542.59 352.406 1529.7 z" fill="currentColor" />
<path d="M 488.667 1667.66 C 492.39 1669.84 499.126 1675.61 502.798 1678.59 C 490.413 1691.78 477.996 1705.87 465.816 1719.31 C 462.156 1717.36 454.972 1710.3 451.667 1707.19 C 458.217 1698.17 480.074 1676.48 488.667 1667.66 z" fill="currentColor" />
<path d="M 457.683 332.153 C 457.387 334.318 319.66 478.851 305.348 493.899 C 306.51 487.307 345.282 444.462 351.544 437.233 C 383.822 399.968 420.761 364.846 457.683 332.153 z" fill="currentColor" />
<path d="M 428.09 1619.44 C 432.192 1620.94 439.034 1628.01 442.465 1631.26 L 408.783 1669.37 C 405.486 1668.02 397.222 1658.51 394.413 1655.46 C 405.612 1643.27 417.149 1631.99 428.09 1619.44 z" fill="currentColor" />
<path d="M 457.439 1643.67 C 460.045 1644.79 469.82 1652.67 472.678 1654.89 C 464.748 1665.09 446.039 1683.46 436.639 1692.94 C 433.967 1692.54 425.997 1684.78 422.6 1682.17 C 434.315 1669.43 445.929 1656.59 457.439 1643.67 z" fill="currentColor" />
<path d="M 399.936 1593.73 C 405.031 1597.19 409.502 1602.14 413.862 1606.56 C 406.46 1616.18 390.717 1631.63 381.502 1642.32 C 376.437 1637.68 372.039 1632.63 367.432 1627.54 C 376.609 1617.22 390.21 1603.31 399.936 1593.73 z" fill="currentColor" />
<path d="M 374.377 1563.69 C 378.068 1565.49 384.105 1574.73 386.797 1578.43 C 376.39 1590.83 365.356 1601.57 354.547 1613.53 C 350.416 1608.87 345.651 1603.98 341.363 1599.4 C 351.813 1589.85 364.313 1574.64 374.377 1563.69 z" fill="currentColor" />
<metadata><recraft-signature>{"signed_by": "recraft", "signature_b64": "5sM/invUvIHz6wEBC8IRhqQZIIZ61rRoVuouCBGXak4hIc3wPTuSaoNxuy4UDZymdptE9RRYpn2cK9rVgc24Cw==", "signing_algo": "Ed25519", "generation_timestamp": 1772065457, "identifier": "ace2bd0f-4a79-498f-bbaa-04bcd78a5afd"}</recraft-signature></metadata></g></svg>