<svg xmlns="http://www.w3.org/2000/svg" viewBox="0 0 24 24">
<g transform="scale(0.011719,0.011719)"><path d="M 983.743 61.4416 C 1131.55 55.577 1288.3 83.8988 1421.76 148.638 C 1425.35 141.007 1444.23 97.596 1450.28 95.9664 C 1483.21 87.0881 1448.1 146.317 1442.74 156.606 C 1538.75 207.465 1608.77 252.757 1687.45 329.065 C 1866.49 504.318 1969.09 743.174 1972.94 993.68 C 1976.93 1245.56 1880.83 1488.73 1705.74 1669.84 C 1573.48 1807.3 1402.78 1901.61 1216.02 1940.44 C 1172.37 1949.6 1109.83 1958.45 1065.17 1959.11 C 1038.04 1960.86 1011.38 1960.21 984.284 1959.37 C 858.314 1955.47 741.102 1924.96 625.567 1875.91 C 621.333 1883.84 603.513 1923.45 599.342 1926.22 C 596.529 1928.09 593.015 1928.56 589.806 1927.51 C 573.962 1922.14 600.318 1876.64 605.139 1866.06 C 526.045 1827.65 452.911 1778.02 388.002 1718.7 C 201.522 1549.69 89.2135 1313.96 75.4479 1062.66 C 62.4049 808.577 151.034 559.751 321.766 371.125 C 495.511 179.198 725.781 74.4062 983.743 61.4416 z" fill="currentColor" />
<path d="M 1433.78 176.252 C 1434.1 176.36 1434.41 176.468 1434.73 176.576 C 1470.26 192.986 1504.08 212.89 1536.89 234.153 C 1711.1 347.027 1842.8 521.314 1906.54 718.675 C 1973.69 924.033 1967.44 1146.34 1888.85 1347.6 C 1797.93 1579.13 1618.66 1764.99 1390.57 1864.22 C 1208.36 1942.07 1006.23 1960.48 812.953 1916.82 C 743.176 1900.56 698.071 1882.91 633.082 1857.19 C 661.571 1793.8 692.358 1729.95 721.594 1666.69 C 819.077 1460.35 912.882 1252.29 1002.97 1042.62 C 990.781 1057.98 979.399 1074.23 967.453 1089.82 C 928.361 1075.5 912.132 1053.56 904.74 1013.05 L 889.913 1012.58 C 896.574 1058.5 913.622 1083.36 955.26 1103.11 C 947.529 1118.06 938.578 1139.91 931.58 1155.68 C 916.607 1189.86 901.158 1223.82 885.236 1257.57 C 878.235 1254.02 870.786 1249.22 864.353 1244.73 C 811.906 1208.18 772.586 1155.74 752.189 1095.15 C 742.934 1066.9 738.194 1040.06 733.089 1010.98 C 727.387 1010.56 721.3 1010.4 715.552 1010.16 C 727.662 1123.27 775.295 1217.1 877.837 1274.18 C 871.871 1289.83 859.493 1315.02 852.265 1330.79 L 798.763 1446.73 C 616.086 1357.42 540.263 1191.19 501.574 1001.05 L 480.862 1000.18 C 472.898 1034.99 462.171 1086.05 451.849 1119.11 C 450.699 1112.86 449.311 1106.35 447.928 1100.13 C 440.46 1066.59 434.954 1032.53 427.599 998.986 L 411.456 998.898 C 416.813 1034.08 427.319 1078.42 434.639 1113.46 C 438.595 1132.78 442.755 1152.07 447.118 1171.31 C 449.099 1179.89 451.829 1192.98 454.837 1201 C 460.183 1161.92 466.986 1123.04 475.233 1084.46 C 479.079 1065.99 483.438 1043 489.142 1025.37 C 493.22 1041.31 496.432 1058 500.49 1074.11 C 505.773 1094.27 511.727 1114.24 518.341 1134 C 567.387 1281.21 649.234 1392.48 790.205 1463.14 C 767.675 1513.74 744.729 1564.16 721.369 1614.38 C 658.954 1588.58 589.598 1535.9 541.891 1488.96 C 406.635 1355.9 340.088 1184.37 341.066 996.035 L 322.763 995.994 C 321.865 1069.19 329.737 1136.04 350.836 1206.36 C 394.313 1351.53 483.904 1478.58 606.047 1568.29 C 644.5 1596.01 671.945 1609.97 712.816 1631.94 L 659.685 1748.82 C 631.81 1737.36 601.166 1719.61 575.701 1703.31 C 394.086 1585.36 266.092 1400.77 219.309 1189.33 C 171.813 973.671 212.469 747.97 332.234 562.437 C 451.886 377.627 640.347 248.211 855.797 202.908 C 1003.8 171.277 1157.68 181.328 1300.32 231.944 C 1317.12 237.996 1356.05 251.782 1369.88 260.719 C 1359.19 282.206 1348.81 303.846 1338.74 325.632 C 1275.04 462.218 1212.15 599.18 1150.07 736.513 C 1129.13 781.831 1108.52 827.307 1088.27 872.937 C 1073.16 906.252 1054.61 945.975 1042.42 980.436 C 1055.89 963.705 1069.59 947.161 1083.52 930.811 C 1110.77 946.771 1124.3 968.369 1127.65 999.902 C 1132.71 1000.31 1138.12 1000.47 1143.22 1000.71 C 1138.34 962.948 1125.28 938.072 1092.01 918.595 C 1114.78 865.674 1139.37 814.422 1162.56 761.859 C 1167.13 764.551 1171.57 767.591 1175.91 770.621 C 1234.58 811.682 1277.84 871.173 1298.83 939.641 C 1305.59 961.239 1309.52 982.449 1313.44 1004.68 C 1324.68 1004.9 1335.92 1005.04 1347.16 1005.07 C 1352.05 983.751 1358.18 943.581 1364.89 924.093 C 1369.88 950.521 1375.73 976.176 1380.53 1002.97 L 1399.63 1003.07 C 1404.1 985.607 1409.84 967.175 1414.94 949.789 C 1420.61 963.456 1428.22 999.174 1432.55 1007.48 C 1436.46 1009.22 1440.13 1008.86 1444.49 1008.95 C 1437.49 976.56 1424.61 934.778 1415.55 902.171 C 1408.87 923.417 1400.34 953.037 1391.97 973.036 C 1383.14 938.66 1373.41 883.941 1362.24 852.444 C 1356.02 880.048 1350.31 907.764 1345.11 935.579 C 1341.56 953.623 1337.22 978.356 1331.64 995.286 C 1329.67 986.228 1327.63 977.187 1325.51 968.161 C 1302.45 871.998 1256.23 798.22 1170.5 745.798 C 1179.28 723.995 1191.39 699.255 1201.38 677.628 L 1248.07 575.049 C 1283.05 590.354 1329.11 623.961 1357.68 648.919 C 1446.17 726.216 1499.94 829.108 1522.42 943.605 C 1526.48 964.269 1531.91 992.032 1533.25 1013.06 C 1540.41 1014.04 1549.11 1014.38 1556.45 1014.85 L 1578.21 941.379 C 1586.15 965.207 1590.45 992.335 1597.69 1016.32 C 1605.99 1016.69 1627.78 1018.33 1634.8 1016.48 C 1637 1013.48 1636.19 1010.27 1634.06 1007.66 C 1627.51 1004.78 1616.65 1005.15 1609.07 1004.87 C 1598.61 965.44 1587.83 926.091 1576.75 886.829 C 1566.18 917.344 1558.38 950.534 1547.95 981.569 C 1540.88 936.889 1527.73 882.758 1511.63 840.746 C 1477.77 750.884 1419.55 672.233 1343.49 613.614 C 1316.23 592.319 1287.84 573.655 1256.16 559.565 C 1259.26 552.051 1263.16 543.951 1266.72 536.63 C 1287.79 493.259 1306.78 448.632 1327.89 405.311 C 1523.45 502.192 1666.2 680.443 1704.4 897.295 C 1711.92 940.025 1713.4 979.854 1714.59 1022.99 C 1720.58 1023.07 1727.57 1023.64 1733.63 1023.98 C 1735.81 942.068 1718.4 848.896 1689.57 772.492 C 1639.73 642.789 1552.6 530.746 1439.18 450.489 C 1408.03 428.15 1369.27 404.374 1334.25 388.523 C 1352.33 349.396 1371.82 311.21 1389.18 271.865 C 1421.23 286.384 1459.33 309.871 1488.11 329.705 C 1609.84 412.647 1707.08 526.75 1769.66 660.1 C 1797.38 718.944 1809.93 759.049 1824.21 822.46 C 1860.48 978.765 1850.73 1142.23 1796.14 1293.11 C 1721.93 1497.62 1569.83 1664.47 1373.03 1757.23 C 1216.13 1828.98 1041.03 1850.98 871.253 1820.27 C 806.79 1808.22 763.673 1793.74 703.036 1771.85 C 701.317 1776.5 697.612 1783.99 695.423 1788.74 C 721.19 1800.07 750.414 1809.84 777.318 1817.9 C 927.858 1862.72 1087.77 1865.68 1239.86 1826.46 C 1455.17 1770.13 1639.08 1630.19 1750.77 1437.69 C 1864.09 1241.88 1895 1009.08 1836.7 790.488 C 1786.17 599.573 1669.48 432.812 1507.42 319.947 C 1467.44 291.577 1438.34 277.02 1397.68 253.202 C 1405.58 232.882 1424.05 196.887 1433.78 176.252 z" fill="currentColor" />
<path d="M 1553.43 1036.93 C 1560.87 1036.9 1568.33 1037.41 1575.76 1037.85 C 1615.34 1040.24 1654.97 1041.72 1694.61 1043.12 C 1691.09 1161.65 1655.22 1276.96 1590.89 1376.58 C 1488.43 1536.6 1343.07 1634.07 1158.38 1674.76 C 1116.67 1682.7 1074.37 1687.15 1031.92 1688.03 L 1031.8 1543.85 C 1057.86 1542.75 1081.67 1541.37 1107.53 1537.29 C 1207 1521.36 1299.95 1477.66 1375.68 1411.22 C 1487.41 1313.44 1543.7 1183.45 1553.43 1036.93 z" fill="currentColor" />
<path d="M 985.648 335.425 C 994.834 334.607 1006.68 334.73 1016.07 334.572 L 1015.86 475.951 C 898.3 477.536 768.143 529.532 679.872 606.732 C 569.357 701.812 502.191 837.694 493.765 983.237 C 459.223 982.897 421.694 980.082 386.75 978.916 L 351.871 977.154 C 356.025 828.759 418.004 679.776 514.797 567.911 C 604.763 464 724.162 389.859 857.192 355.301 C 902.267 343.816 939.74 338.71 985.648 335.425 z" fill="currentColor" />
<path d="M 990.525 206.434 L 1015.17 205.583 C 1015.59 241.598 1015.76 277.615 1015.69 313.633 C 985.038 314.685 952.874 316.709 922.574 321.324 C 792.771 341.373 671.168 397.346 571.521 482.912 C 451.497 586.781 370.383 728.395 341.512 884.476 C 335.506 916.76 333.071 943.848 330.725 976.282 C 304.555 975.537 278.394 974.472 252.25 973.088 C 241.836 972.725 231.417 972.537 220.997 972.525 C 221.356 950.78 224.888 925.045 227.634 903.375 C 276.567 517.237 603.228 222.849 990.525 206.434 z" fill="currentColor" />
<path d="M 1715.71 1044.46 C 1751.74 1045.65 1787.75 1047.25 1823.74 1049.27 C 1823.54 1070.42 1820.6 1097.23 1817.99 1118.19 C 1800.84 1253.35 1748.91 1381.76 1667.27 1490.84 C 1533.76 1669.14 1353.91 1774.64 1133.76 1806.29 C 1098.36 1811.18 1067.51 1812.76 1031.99 1813.93 L 1031.93 1707.01 C 1177.83 1707.6 1322.76 1656.23 1439.48 1569.5 C 1570.18 1471.14 1661.98 1329.81 1698.71 1170.41 C 1704.33 1145.1 1708.35 1120.93 1711.64 1095.24 C 1713.51 1080.67 1713.27 1059.76 1715.4 1046.34 L 1715.71 1044.46 z" fill="currentColor" />
<path d="M 1389.3 1028.95 C 1434.95 1028.92 1486.45 1034.29 1533.03 1035.18 C 1532.43 1109.5 1505.81 1200.23 1469.11 1264.27 C 1398.75 1387.02 1293.64 1468.35 1158.34 1506.5 C 1117.76 1517.87 1073.72 1522.9 1031.7 1524.31 L 1031.68 1383.38 C 1120.61 1380.51 1205.52 1345.59 1270.73 1285.05 C 1341.38 1218.62 1386.4 1126.4 1389.3 1028.95 z" fill="currentColor" />
<path d="M 1001.57 497.42 C 1005.06 496.997 1012.02 496.984 1015.79 496.856 L 1015.97 636.926 C 938.017 636.907 851.832 674.627 792.225 723.831 C 728.673 777.047 683.728 849.126 663.908 929.612 C 658.855 950.675 656.565 969.379 654.527 990.877 C 615.71 988.426 575.179 987.128 536.211 985.281 L 513.975 984.837 C 521.928 867.783 563.449 760.846 641.701 672.6 C 733.37 568.387 862.999 505.285 1001.57 497.42 z" fill="currentColor" />
<path d="M 1031.62 1011.77 C 1107.71 1012.91 1188.4 1021.73 1264.94 1023.18 C 1257.28 1094.18 1243.8 1137.37 1192.07 1190.67 C 1146.96 1235.05 1093.84 1256.41 1031.83 1262.91 C 1030.85 1180.89 1031.2 1094.03 1031.62 1011.77 z" fill="currentColor" />
<path d="M 1009.11 761.414 L 1014.08 761.077 L 1015.67 762.517 C 1017.2 783.432 1015.76 824.04 1015.7 846.167 L 1015.07 1007.08 C 995.414 1007.16 968.637 1005.11 948.454 1004.21 L 799.364 997.106 L 779.679 996.689 C 791.211 873.257 884.567 773.634 1009.11 761.414 z" fill="currentColor" />
<path d="M 1014.06 657.467 L 1014.94 657.751 C 1016.72 660.966 1015.6 730.242 1015.45 740.65 C 961.525 742.46 902.795 766.581 861.582 800.819 C 800.256 851.767 767.965 917.03 759.779 995.077 C 733.446 994.394 706.454 992.602 679.749 991.804 C 677.32 991.612 678.094 991.807 675.951 990.914 C 675.688 990.219 675.009 988.437 675.072 987.677 C 688.169 830.993 808.049 693.197 963.363 663.458 C 980.292 660.216 996.685 658.712 1014.06 657.467 z" fill="currentColor" />
<path d="M 1284.73 1023.99 C 1312.8 1024.94 1340.86 1026.79 1369 1027.8 C 1366.76 1083.94 1351.14 1138.73 1323.43 1187.6 C 1276.27 1269.45 1198.1 1328.82 1106.61 1352.3 C 1081.6 1359.39 1057.55 1362 1031.79 1363.82 L 1031.83 1283.14 C 1095.54 1278.51 1155.74 1252.18 1202.37 1208.53 C 1253.42 1160.52 1283.09 1094.05 1284.73 1023.99 z" fill="currentColor" />
<path d="M 824.095 1508.79 C 886.143 1533.62 949.18 1541.53 1015.35 1543.7 L 1015.17 1688.05 C 995.668 1687.6 976.188 1686.52 956.758 1684.8 C 890.613 1678.86 825.647 1663.56 763.806 1639.34 C 784.558 1597.5 803.17 1551.83 824.095 1508.79 z" fill="currentColor" />
<path d="M 1032.84 334.976 C 1101.51 334.459 1169.83 344.942 1235.19 366.028 C 1250.52 370.893 1267.4 376.364 1282.11 382.779 C 1273.42 405.929 1253.16 446.358 1242.01 470.342 C 1235.9 483.207 1229.08 497.796 1224.04 510.994 C 1206.85 505.988 1190.13 500.227 1172.6 495.329 C 1124.04 481.755 1083.09 476.951 1033.14 475.539 L 1032.84 334.976 z" fill="currentColor" />
<path d="M 1032.64 205.986 C 1143.21 206.846 1233.7 226.078 1335.8 267.368 L 1304 335.6 C 1299.49 345.386 1294.84 355.104 1290.03 364.749 C 1200.11 327.78 1128.03 317.187 1032.39 313.689 C 1032.45 278.319 1031.77 241.193 1032.64 205.986 z" fill="currentColor" />
<path d="M 756.816 1658.32 C 763.534 1659.76 775.924 1664.54 782.964 1667.01 C 796.055 1671.74 809.308 1676 822.699 1679.79 C 885.506 1697.55 950.433 1706.71 1015.7 1707 C 1015.39 1742.5 1015.27 1777.99 1015.33 1813.49 C 1001.18 1813.27 986.086 1813.3 972.069 1812.16 C 876.273 1806.29 801.333 1787.25 712.142 1753.88 C 727.377 1722.02 741.309 1690.24 756.816 1658.32 z" fill="currentColor" />
<path d="M 1033.1 496.857 C 1087.77 496.61 1164.18 508.239 1214.46 529.892 C 1200.8 559.452 1187.64 589.838 1174.12 619.585 C 1168.07 632.873 1162.37 645.4 1155.66 658.351 C 1111.57 644.839 1079.39 637.13 1033.09 636.96 L 1033.1 496.857 z" fill="currentColor" />
<path d="M 890.079 1364.55 C 937.777 1379.06 966.032 1382.23 1015.19 1383.99 L 1015.14 1524.17 C 997.792 1523.87 980.459 1522.91 963.181 1521.29 C 918.927 1517.4 874.703 1505.93 832.76 1491.67 C 850.584 1448.97 871.036 1406.83 890.079 1364.55 z" fill="currentColor" />
<path d="M 1033.36 656.965 C 1080.26 658.253 1103.38 663.615 1148.05 676.04 C 1139.79 692.959 1132.04 711.026 1124.36 728.283 C 1120.75 736.491 1116.96 744.613 1112.97 752.642 C 1080.7 743.772 1066.52 741.052 1033.19 740.472 L 1033.36 656.965 z" fill="currentColor" />
<path d="M 931.978 1271.62 C 957.927 1280.82 987.746 1282.78 1015 1283.47 L 1015.04 1363.33 C 1004.27 1363.39 992.855 1363.16 982.168 1362.13 C 950.571 1359.74 929.151 1354.34 899.062 1345.55 C 905.835 1325.72 922.87 1291.61 931.978 1271.62 z" fill="currentColor" />
<path d="M 1013.48 1092.8 C 1015.48 1095.55 1014.84 1248.57 1014.87 1263.05 C 992.332 1263.27 972.105 1261.33 950.238 1255.67 L 941.716 1253.35 C 948.707 1233.23 965.344 1197.05 974.48 1177.25 C 986.188 1151.86 1000.74 1116.98 1013.48 1092.8 z" fill="currentColor" />
<path d="M 629.864 1005.31 L 648.56 1005.84 C 654.022 1030.72 662.719 1061.2 670.195 1085.78 C 671.712 1061.55 675.825 1033.63 678.845 1009.3 C 684.247 1009.21 689.789 1009.53 695.199 1009.76 C 691.09 1026.41 690.059 1041.41 687.748 1058.13 C 682.296 1097.56 681.048 1133.43 680.651 1172.94 C 669.152 1136 658.042 1098.93 647.324 1061.75 C 644.037 1050.95 640.548 1040.02 637.822 1029.08 C 635.595 1044.12 630.778 1060.46 627.44 1075.5 C 621.453 1102.47 615.347 1130.29 612.298 1157.75 C 609.307 1148.26 606.641 1131.75 604.643 1121.65 C 597.593 1086.03 591.22 1048.35 593.221 1011.88 C 600.17 1031.17 607.801 1064.59 610.125 1084.5 C 615.886 1057.12 621.385 1031.98 629.864 1005.31 z" fill="currentColor" />
<path d="M 1033.05 760.288 C 1060.1 760.774 1078.57 763.015 1104.5 771.674 L 1055.7 880.302 C 1047.8 897.532 1040.25 914.927 1033.08 932.475 L 1033.05 760.288 z" fill="currentColor" />
<path d="M 814.599 1010.86 L 830.266 1011.01 C 833.947 1025.64 838.946 1041.02 843.398 1055.52 C 844.94 1040.96 846.834 1026.19 848.559 1011.64 L 861.203 1012.05 C 858.231 1048.97 854.67 1085.83 850.52 1122.64 C 841.644 1095.34 831.793 1066.14 823.836 1038.73 C 822.731 1042.81 821.956 1047.07 821.117 1051.23 C 815.675 1075.08 811.343 1103.02 807.184 1127.23 C 798.535 1089.4 786.839 1051.52 778.012 1012.77 L 789.788 1012.37 C 793.785 1030.97 799.461 1050.27 804.395 1068.79 C 804.913 1055.41 811.185 1024.14 814.599 1010.86 z" fill="currentColor" />
<path d="M 1224.39 890.736 C 1228.24 896.561 1251.16 990.802 1254.02 1002.9 L 1239.17 1002.31 L 1224.99 952.076 C 1222.49 963.522 1219.02 975.721 1216.02 987.114 L 1212.62 1001.64 L 1188.52 1000.89 C 1181.03 975.345 1186.29 969.424 1190.86 943.897 C 1194.46 955.966 1197.88 968.087 1201.12 980.257 C 1209.82 952.479 1215.14 917.435 1224.39 890.736 z" fill="currentColor" />
<path d="M 990.82 81.4331 C 1122.22 72.6428 1295.28 109.866 1413.98 165.534 C 1404.79 186.218 1387.23 222.981 1376.6 242.561 C 1257.26 187.135 1126.45 160.89 994.973 165.992 C 770.755 173.658 558.822 270.307 406.021 434.576 C 253.821 598.419 172.988 816.041 181.325 1039.51 C 188.612 1265.53 286.693 1479.06 453.398 1631.85 C 514.655 1690.34 575.866 1728.29 650.281 1766.96 C 638.099 1794.02 625.761 1821.02 613.267 1847.94 C 597.51 1842.1 574.944 1828.37 560.232 1819.95 C 505.568 1788.64 452.71 1749.9 405.618 1707.88 C 221.291 1543.12 109.812 1312 95.622 1065.18 C 82.0949 817.336 167.242 574.215 332.449 388.966 C 466.487 238.682 646.194 136.607 843.92 98.448 C 896.307 88.2919 938.33 84.2583 990.82 81.4331 z" fill="currentColor" />
<metadata><recraft-signature>{"signed_by": "recraft", "signature_b64": "j8hB3AvC55BC6ZLkPe8E5sDEcZAxBVhA7Qy4acPD5XT7N+TqEoeDaEB6h2DqN5iolaLg9x/tYuCoe0JbES+3CQ==", "signing_algo": "Ed25519", "generation_timestamp": 1772065502, "identifier": "30d092a1-d14f-4af5-845c-c33f3cc327f0"}</recraft-signature></metadata></g></svg>