<svg xmlns="http://www.w3.org/2000/svg" viewBox="0 0 24 24">
<g transform="scale(0.011719,0.011719)"><path d="M 1013.23 82.1381 C 1018.81 81.3591 1024.02 81.5646 1028.07 85.9553 C 1043.07 102.22 1057.21 119.335 1071.62 136.117 C 1104.44 174.106 1136.88 212.43 1168.92 251.083 L 1572.85 731.608 L 1688.05 869.539 L 1721.89 909.882 C 1728.05 917.216 1736.99 927.169 1741.95 935.04 L 1743.06 1223.84 C 1743.01 1266.84 1739.13 1307.56 1741.62 1350.66 C 1734.29 1358.75 1720.54 1369.45 1710.11 1359.75 C 1648.25 1302.26 1595.04 1236.33 1539.8 1172.78 C 1413.3 1025.53 1288.1 877.161 1164.22 727.688 L 1041.78 579.515 C 1034.08 570.92 1026.41 561.734 1018.87 552.943 L 1017.63 553.93 C 1010.19 559.809 985.089 591.127 977.373 600.264 C 948.183 634.249 919.266 668.467 890.626 702.916 L 628.381 1017.11 C 605.97 1043.49 582.608 1068.34 559.731 1094.21 L 455.663 1212.62 C 420.798 1251.95 386.94 1292.05 350.316 1329.85 C 338.535 1342.01 321.457 1346.4 319.728 1324.31 C 318.377 1307.05 318.77 1288.41 318.461 1271 C 317.739 1235.65 317.255 1200.3 317.007 1164.95 C 316.291 1088.23 313.72 1012.67 312.204 936.165 C 316.733 929.269 329.57 914.888 335.586 907.627 L 385.175 848.169 L 524.415 678.744 L 853.583 271.5 L 949.315 154.138 C 961.628 139.17 999.941 90.6246 1013.23 82.1381 z" fill="currentColor" />
<path d="M 1016.79 102.669 C 1027.38 110.716 1062.12 153.672 1072.62 166.22 L 1177.79 292.028 L 1556.51 742.073 L 1656.39 862.464 C 1673.32 883.138 1704.74 922.538 1722.78 941.02 C 1725.22 960.876 1725.05 997.779 1725.37 1018.86 C 1725.83 1082.36 1725.67 1145.86 1724.89 1209.35 C 1689.18 1174.88 1654.29 1134.59 1621.7 1097.17 C 1568.42 1035.34 1515.67 973.051 1463.46 910.312 L 1039.36 405.612 C 1028.8 393.887 1021.27 385.768 1007.65 399.979 C 989.197 419.233 973.052 440.453 955.798 460.804 L 834.411 606.389 C 717.055 748.865 598.653 890.477 479.214 1031.21 L 400.922 1124.19 C 385.345 1142.7 354.579 1178.76 337.217 1193.88 C 336.606 1184.81 336.35 1175.92 336.355 1166.83 C 336.384 1110.43 334.399 1054.09 332.326 997.729 C 331.711 981.013 330.961 963.434 329.275 946.818 C 339.313 933.608 351.659 919.693 362.259 906.48 C 426.007 827.011 491.988 749.805 555.874 670.337 L 718.9 469.255 C 816.569 345.744 915.876 223.538 1016.79 102.669 z" fill="currentColor" />
<path d="M 1016.3 133.605 C 1023.34 135.167 1098.9 231.488 1109.87 243.234 C 1111.67 245.158 1115.37 251.549 1115.61 254.383 C 1113.72 256.598 1114.85 255.652 1111.36 256.425 C 1099.2 251.631 1056.18 195.861 1044.68 182.059 C 1035.06 170.54 1025.24 159.191 1015.22 148.016 C 1004.77 159.147 991.291 176.477 980.978 188.612 C 953.09 221.348 925.396 254.25 897.899 287.315 C 870.642 318.439 844.584 350.534 817.623 381.91 C 813.893 386.251 806.325 397.989 800.578 397.041 C 796.878 390.908 800.419 386.127 804.227 381.216 C 819.6 361.391 836.341 342.668 852.29 323.3 C 888.837 278.682 925.921 234.505 963.532 190.78 C 974.057 178.511 1005.28 140.627 1016.3 133.605 z" fill="currentColor" />
<path d="M 349.001 927.557 C 352.419 927.805 354.25 927.57 357.006 929.571 C 361.4 937.027 363.134 1110.89 363.675 1133.25 C 371.932 1120.55 423.111 1045.97 435.319 1048.87 C 438.754 1053.72 434.905 1059.06 431.73 1062.62 C 419.13 1076.29 406.875 1091.73 395.344 1106.73 C 385.089 1120.07 374.787 1137.19 363.203 1149.66 C 361.533 1151.46 358.608 1151.23 356.236 1151.05 C 353.809 1150.86 352.723 1148.59 351.574 1146.79 C 349.649 1125.77 350.928 1087.32 350.445 1063.81 L 348.493 981.689 C 348.176 969.802 345.896 937.73 349.001 927.557 z" fill="currentColor" />
<path d="M 1701.58 961.469 C 1704.62 962.156 1704.74 961.975 1707.25 963.711 C 1707.88 965.385 1709.97 1143.92 1707.41 1153.71 C 1705.35 1155.45 1705.02 1156.19 1702.47 1156.63 C 1693.81 1150.73 1679.06 1131.51 1671.09 1123.18 C 1643.61 1094.48 1616.84 1065.17 1590.84 1035.11 C 1586.46 1029.64 1582.3 1025.53 1582.1 1018.37 L 1583.74 1017.24 C 1587.02 1017.86 1592.42 1021.74 1594.41 1024.27 C 1626.24 1064.86 1662.09 1099.48 1697.72 1136.49 C 1698.2 1081.39 1696.74 1026.16 1697.71 971.1 C 1697.77 967.225 1699.28 964.432 1701.58 961.469 z" fill="currentColor" />
<path d="M 986.419 374.312 C 987.151 374.495 988.429 374.767 989.059 375.145 C 990.799 376.189 991.426 377.921 991.347 379.876 C 990.978 389.01 924.69 464.407 913.705 474.489 C 913.187 474.426 911.243 473.751 910.663 473.564 L 909.656 471.587 C 909.981 465.314 916.377 457.549 920.527 452.866 C 942.875 427.644 963.511 398.764 986.419 374.312 z" fill="currentColor" />
<path d="M 1008.63 351.339 C 1009.89 351.267 1011.15 351.229 1012.41 351.226 C 1029.58 351.247 1044.54 362.218 1056.09 373.864 C 1062.85 380.68 1094.43 418.141 1094.38 426.316 C 1091.55 427.582 1093.12 427.263 1089.16 425.806 C 1072.16 405.728 1053.48 381.178 1031.17 367.06 C 1018.41 358.988 1005.85 364.062 1000.31 358.522 L 1000.53 356.708 C 1003.71 353.429 1004.37 353.335 1008.63 351.339 z" fill="currentColor" />
<path d="M 1107.35 442.384 C 1109.66 442.634 1112.06 442.797 1113.98 444.213 C 1122.1 450.18 1138.77 469.247 1140.34 478.696 C 1128.43 478.819 1110.38 452.982 1107.35 442.384 z" fill="currentColor" />
<path d="M 1028.09 423.405 C 1034.75 427.043 1073.45 474.759 1080.66 483.407 C 1068.83 488.197 1050.89 491.505 1041.01 496.357 C 1038.9 499.681 1038.69 498.826 1038.99 501.933 C 1047.07 507.934 1079.56 494.748 1087.91 491.276 C 1097.23 501.039 1110.54 518.86 1120.24 529.939 C 1109.3 532.891 1068.74 541.397 1064.19 548.742 C 1073.84 555.068 1115.46 541.075 1127.49 537.672 C 1139.15 552.581 1151.6 569.157 1164.09 583.188 C 1145.59 588.674 1126.8 595.331 1108.21 600.363 C 1105.58 601.074 1096.23 601.437 1091.87 602.199 L 1091.42 603.375 C 1101.76 617.065 1155.7 596.394 1169.24 589.382 C 1181.32 603.174 1194.57 619.574 1205.87 633.917 C 1190.84 639.277 1176.06 644.482 1160.66 648.658 C 1153.6 650.573 1142.2 653.356 1140 660.964 L 1140.95 662.257 C 1154.05 663.781 1199.53 647.268 1212.89 641.465 C 1222.43 652.141 1230.89 662.458 1239.92 673.587 C 1224.08 677.585 1207.71 681.476 1192.22 686.739 C 1187.41 688.371 1181.01 690.474 1180.89 696.35 C 1188.62 701.723 1234.98 684.26 1245.48 680.347 C 1256.36 692.103 1268.65 707.57 1279.22 720.075 C 1262.19 724.898 1244.74 729.643 1227.84 734.969 C 1223 736.496 1214.87 738.888 1214.79 744.462 L 1216.63 745.921 C 1229.21 747.815 1271.8 731.813 1284.92 727.104 C 1298.13 740.514 1313.51 761.173 1325.64 776.257 C 1312.32 778.945 1298.99 784.072 1285.97 788.231 C 1278 790.164 1265.32 791.934 1260.74 798.408 C 1260.27 801.881 1259.83 800.45 1261.52 802.984 C 1269.34 805.213 1320.82 786.359 1330.85 782.533 C 1339.17 791.731 1347.2 801.18 1354.94 810.869 C 1343.88 815.061 1292.47 829.067 1291.84 838.852 L 1293.73 840.599 C 1308.11 841.641 1346.01 824.444 1362.44 818.837 C 1372.8 830.384 1384.38 845.437 1394.3 857.685 C 1378.85 862.842 1343.19 872.292 1330.83 878.028 C 1328.73 880.953 1328.83 881.673 1328.32 885.165 L 1329.58 886.333 C 1348.16 884.551 1381.6 871.866 1399.17 864.698 C 1410.72 876.027 1418.99 886.091 1428.2 899.253 C 1404.66 909.998 1383.67 911.062 1356.91 927.682 C 1347.45 917.181 1339.16 906.233 1330.06 895.487 L 1260.06 811.22 L 1124.38 649.224 C 1106.4 627.361 1088.21 605.666 1069.82 584.144 C 1057.71 569.698 1042.93 551.316 1029.46 538.261 C 1028.59 499.932 1029.22 461.918 1028.09 423.405 z" fill="currentColor" />
<path d="M 1433.44 905.138 C 1436.31 905.663 1463.89 940.854 1467.29 945.126 C 1457.9 948.447 1448.56 951.888 1439.26 955.449 C 1433.47 957.712 1421.81 962.033 1419.21 967.95 L 1420.5 969.309 C 1433.59 971.13 1460.97 957.65 1473.7 951.775 C 1488.52 968.395 1502.93 986.456 1517.54 1003.46 L 1500.79 1008.62 C 1491.12 1011.64 1462.94 1018.69 1458.6 1026.99 C 1459.23 1030.3 1458.47 1028.83 1461.47 1031.24 C 1471.11 1031.6 1512.08 1014.19 1523.51 1009.89 C 1528.02 1016.3 1532.57 1022.17 1537.37 1028.37 C 1541.98 1034.73 1553.87 1047.04 1559.98 1054.72 C 1531.54 1062.89 1513.94 1069.51 1486.58 1081.3 L 1402.74 982.798 C 1389.03 966.531 1373.3 948.854 1360.62 931.922 C 1374.48 929.424 1419.41 911.741 1433.44 905.138 z" fill="currentColor" />
<path d="M 1564.12 1062.01 C 1564.21 1062.02 1564.3 1062.02 1564.38 1062.03 C 1569.1 1062.84 1599.52 1099.97 1604.65 1106.06 C 1595.99 1109.02 1551.89 1123 1550.05 1130.42 L 1551.58 1132.43 C 1561.45 1135.74 1600.7 1117.18 1612.34 1112.43 C 1620.93 1123.73 1637.92 1145.46 1647.63 1155.26 C 1630.24 1159.87 1612.62 1166.58 1595.79 1173.05 C 1589.35 1175.52 1581.01 1179.1 1582.9 1187.17 C 1590.15 1191.38 1646.4 1162.98 1653.92 1161.89 L 1656.77 1164.54 L 1688.18 1199.96 C 1665.89 1206.76 1632.88 1217.84 1614.28 1230.64 C 1606.36 1222.62 1599.09 1212.7 1591.34 1204.52 C 1556.79 1168 1525.81 1126.02 1492.62 1088.86 C 1516.46 1080.09 1540.11 1069.98 1564.12 1062.01 z" fill="currentColor" />
<path d="M 696.258 901.044 L 697.382 901.375 C 692.716 909.946 676.674 927.358 669.825 934.522 C 657.051 937.553 641.39 945.522 629.049 950.417 C 601.596 961.306 573.255 975.32 545.263 984.374 L 543.637 983.622 C 545.023 980.564 571.612 953.608 575.562 949.39 C 594.959 944.795 627.305 930.061 645.674 921.855 C 663.51 913.887 677.771 907.994 696.258 901.044 z" fill="currentColor" />
<path d="M 1692.15 1204.21 C 1694.78 1206.25 1706.46 1218.49 1710.74 1222.28 C 1711.15 1227.22 1712.28 1232.59 1713.17 1237.51 C 1689.36 1245.47 1666.06 1253.1 1642.81 1262.65 C 1634.48 1254.81 1626.81 1246.3 1619.88 1237.2 C 1636.89 1230.79 1678.88 1215.56 1692.15 1204.21 z" fill="currentColor" />
<path d="M 864.381 699.989 C 865.104 700.039 864.667 699.924 865.469 700.8 C 862.182 704.827 852.878 717.809 849.709 719.698 C 838.801 726.2 823.785 731.782 812.04 736.824 C 782.44 749.839 752.658 762.435 722.702 774.608 L 722.227 774.53 L 721.321 773.143 C 722.61 769.315 738.415 753.825 742.099 750.081 C 759.866 746.961 846.683 709.367 864.381 699.989 z" fill="currentColor" />
<path d="M 779.091 804.072 C 779.697 804.635 779.344 804.211 779.698 805.61 C 761.348 828.19 761.297 827.151 733.448 837.91 C 700.323 850.707 667.731 867.114 634.254 879.125 L 633.216 877.638 C 655.946 849.386 649.942 861.026 679.913 848 C 711.813 834.135 748.997 820.68 779.091 804.072 z" fill="currentColor" />
<path d="M 816.243 755.959 L 817.467 756.572 C 815.472 761.726 807.984 769.903 803.221 772.305 C 761.668 793.256 717.531 810.754 675.443 830.506 L 674.557 830.574 L 674.485 829.213 C 689.664 808.802 699.852 806.63 721.98 796.348 C 753.104 782.202 784.533 768.736 816.243 755.959 z" fill="currentColor" />
<path d="M 1712.06 1248.97 L 1713.16 1249.59 C 1714.79 1258.26 1715.87 1269.77 1716.95 1278.71 C 1703.2 1282.73 1686.79 1289.46 1673.19 1294.68 L 1664.11 1285.98 C 1659.15 1281.12 1655.23 1276.69 1650.64 1271.47 C 1670.85 1263.49 1690.9 1257.62 1712.06 1248.97 z" fill="currentColor" />
<path d="M 438.067 1196.96 L 439.259 1197.27 C 438.348 1201.87 417.421 1223.56 413.208 1228.12 C 390.481 1233.47 365.988 1249.26 343.292 1258.45 L 342.355 1258.6 L 341.013 1257.51 C 340.078 1251.87 340.638 1244.54 340.82 1238.69 C 373.929 1229.02 406.688 1210.54 438.067 1196.96 z" fill="currentColor" />
<path d="M 563.717 1053.14 L 564.445 1053.88 C 562.382 1057.56 554.334 1069.32 551.154 1071.11 C 536.948 1078.93 520.929 1084.41 505.723 1090.21 C 482.369 1099.1 457.885 1111.54 434.144 1118.8 L 433.449 1117.49 C 435.868 1114.56 444.47 1103.83 447.478 1102.51 C 485.868 1085.73 524.946 1068.88 563.717 1053.14 z" fill="currentColor" />
<path d="M 518.746 1105.15 L 518.983 1105.29 L 519.249 1106.51 C 516.569 1109.99 509.384 1119.86 505.875 1121.24 C 467.189 1136.44 425.331 1158.51 386.438 1172.06 L 385.955 1171.73 L 385.987 1170.6 C 391.847 1163.95 399.41 1154.04 407.251 1150.58 C 417.531 1146.04 428.839 1141.72 439.278 1137.48 C 465.843 1126.89 492.333 1116.12 518.746 1105.15 z" fill="currentColor" />
<path d="M 646.789 960.154 L 647.462 961.188 C 630.468 985.114 619.494 983.582 593.263 994.474 L 505.678 1031.79 L 505.506 1030.82 C 507.694 1027.36 520.594 1011.37 523.411 1010.6 C 564.931 999.326 607.832 977.47 646.789 960.154 z" fill="currentColor" />
<path d="M 906.105 650.184 L 906.631 650.877 C 904.24 654.969 892.3 667.865 888.354 670.022 C 871.229 679.387 851.971 685.814 834.095 693.817 C 810.11 704.555 786.296 715.642 762.118 725.94 C 761.675 725.567 761.558 724.925 761.318 724.398 C 778.074 703.851 774.386 712.09 795.967 702.008 C 832.011 685.17 871.042 668.632 906.105 650.184 z" fill="currentColor" />
<path d="M 729.399 860.046 L 730.111 860.244 L 730.084 861.382 C 727.425 864.396 718.422 874.632 715.292 875.653 C 702.171 879.934 689.652 884.456 676.797 889.498 C 649.426 900.234 623.669 914.009 596.48 924.983 L 595.317 924.744 L 595.071 923.604 C 615.354 898.934 620.751 905.045 647.519 893.928 C 674.783 882.605 701.898 870.98 729.399 860.046 z" fill="currentColor" />
<path d="M 606.097 1008.17 L 606.858 1009.09 C 598.089 1022.32 587.877 1025.37 573.823 1030.85 C 539.768 1044.13 506.412 1059.87 471.821 1071.75 L 471.287 1070.65 C 475.005 1065.65 479.651 1060.96 483.923 1056.37 C 501.773 1053.56 529.796 1040.49 547.41 1033.03 C 567.052 1024.93 586.615 1016.64 606.097 1008.17 z" fill="currentColor" />
<path d="M 474.869 1155.96 L 475.925 1155.99 L 476.378 1157.07 C 467.979 1168.1 457.39 1169.99 445.072 1175.1 C 433.747 1179.86 422.471 1184.73 411.246 1189.71 C 386.339 1200.88 367.58 1212.39 341.562 1222.07 L 340.299 1221.51 C 342.18 1218.78 354.583 1205.26 357.639 1201.63 C 397.634 1188.88 436.788 1173.62 474.869 1155.96 z" fill="currentColor" />
<path d="M 1715.14 1289.01 L 1715.63 1289.43 C 1717.4 1293.59 1717.7 1331.06 1712.84 1333.83 C 1707.09 1331.92 1702.44 1326.68 1698.32 1322.29 C 1692.63 1316.16 1687.04 1309.93 1681.56 1303.61 C 1692.57 1298.37 1703.9 1293.74 1715.14 1289.01 z" fill="currentColor" />
<path d="M 975.868 572.187 L 976.289 573.049 C 974.379 575.387 969.74 581.31 967.36 582.628 C 953.818 590.125 937.712 595.832 923.318 601.945 C 894.656 614.135 866.062 626.486 837.539 638.997 L 836.904 638.048 C 838.579 636.628 843.944 631.955 845.673 631.234 C 889.444 612.996 931.933 589.839 975.868 572.187 z" fill="currentColor" />
<path d="M 934.9 613.111 C 935.099 613.643 935.298 614.175 935.497 614.707 C 930.721 620.615 914.839 624.713 906.952 628.738 C 883.62 640.645 859.751 651.766 836.143 663.106 C 824.524 668.686 812.503 673.035 801.004 678.799 L 800.622 678.485 C 801.945 674.167 807.023 669.94 810.988 668.214 C 852.126 650.301 893.792 630.839 934.9 613.111 z" fill="currentColor" />
<path d="M 390.678 1254 C 391.528 1254.76 391.122 1254.2 391.25 1255.98 C 377.951 1273.32 361.912 1278.81 341.606 1285.83 C 340.664 1283.31 340.745 1283.23 340.524 1280.51 C 343.9 1276.27 381.751 1259.05 390.678 1254 z" fill="currentColor" />
<path d="M 1004.93 491.133 L 1005.55 492.438 C 1001.85 497.071 940.681 521.577 931.463 524.492 L 930.515 523.338 C 934.087 519.381 995.506 494.804 1004.93 491.133 z" fill="currentColor" />
<path d="M 1001.96 477.227 L 1002.37 477.464 C 1001.07 478.864 955.689 495.07 950.42 497.178 L 949.464 496.059 C 952.197 491.867 994.861 479.307 1001.96 477.227 z" fill="currentColor" />
<path d="M 996.337 519.412 C 986.402 521.965 975.878 528.666 964.814 531.452 L 964.941 530.994 C 974.424 526.154 984.393 521.934 994.151 517.643 L 996.337 519.412 z" fill="currentColor" />
<path d="M 994.151 517.643 C 998.449 515.275 1001.87 512.717 1006.61 512.67 L 1007.71 513.685 C 1003.93 518.332 1002.38 518.234 996.337 519.412 L 994.151 517.643 z" fill="currentColor" />
<path d="M 1022.45 628.585 C 1024.76 629.513 1027.32 630.608 1028.93 632.595 C 1042.55 649.326 1055.53 666.579 1069.14 683.336 L 1163.22 798.381 C 1299.74 964.079 1437.71 1128.58 1577.12 1291.86 C 1632.19 1356.71 1686.75 1421.99 1740.78 1487.7 C 1741.48 1501.01 1741.13 1517.42 1741.36 1531.05 L 1743.08 1607.36 C 1745.22 1679.65 1746.21 1751.97 1746.03 1824.3 C 1745.8 1841.96 1745.77 1859.63 1745.94 1877.29 C 1746.2 1893.13 1751.87 1954.24 1719.17 1920.33 C 1691.04 1891.17 1665.39 1858.47 1639.18 1827.6 L 1470.89 1626.74 L 1091.55 1180.03 C 1084.12 1171.23 1026.03 1098.26 1023.27 1097.4 L 1020.89 1099.59 C 1007.16 1118.19 989.211 1139.03 974.314 1156.92 C 944.711 1192.88 914.581 1228.4 883.932 1263.47 C 818.056 1341.67 751.681 1419.46 684.812 1496.82 C 643.86 1544.7 605.247 1593.02 565.543 1641.69 C 497.479 1725.28 428.783 1808.36 359.464 1890.91 C 349.105 1903.1 324.596 1934.35 312.849 1940 C 295.197 1948.51 302.064 1874.47 302.313 1866.13 C 302.933 1842.14 303.308 1818.15 303.436 1794.16 L 308.387 1490.23 C 313.567 1482.36 331.692 1462.52 338.566 1454.32 C 359.619 1429.19 381.453 1404.38 402.022 1378.82 C 506.291 1250.28 611.833 1122.77 718.633 996.313 L 942.412 723.475 C 960.693 701.427 977.991 678.248 996.932 656.625 C 1005.08 647.322 1012.97 636.389 1022.45 628.585 z" fill="currentColor" />
<path d="M 1022.77 655.765 C 1045.2 682.13 1065.26 707.873 1087.07 734.131 L 1323.32 1020.36 C 1392.43 1103.55 1465.78 1184.63 1534.74 1268.16 C 1572.08 1313.39 1610.75 1357.81 1648.35 1402.79 C 1674.29 1433.84 1697.92 1465.69 1725.15 1495.94 C 1725.83 1510.65 1724.96 1528.41 1725.21 1543.59 L 1727.05 1660 C 1727.26 1693.71 1729.44 1738.62 1726.93 1771.14 C 1687.24 1725.42 1647.74 1675.81 1608.92 1628.99 L 1454.2 1444.57 C 1342.95 1312.34 1231.03 1180.68 1118.43 1049.59 C 1091.63 1018.1 1066.05 985.497 1038.89 954.294 C 1032.26 946.679 1028.71 938.699 1017.78 942.633 C 978.994 994.997 930.662 1048.39 889.051 1099.22 L 637.579 1406.47 C 556.497 1504.41 476.951 1603.46 392.751 1698.73 C 369.221 1725.36 345.109 1758.41 320.952 1783.26 C 321.417 1689.25 326.971 1592.91 326.188 1498.57 C 368.336 1448.75 409.881 1398.42 450.815 1347.59 C 486.573 1303.9 524.15 1261.18 558.579 1216.39 C 584.569 1182.58 612.665 1151.27 640.085 1118.71 L 790.729 937.276 L 953.213 739.3 C 975.818 712.203 998.672 681.034 1022.77 655.765 z" fill="currentColor" />
<path d="M 1019.69 682.935 C 1021.69 683.58 1023.77 684.311 1025.18 685.96 C 1072.45 741.411 1120.54 797.469 1165.86 854.442 C 1234.68 941.078 1305.08 1026.45 1377.02 1110.53 C 1392.88 1129.18 1409.74 1147.17 1425.62 1165.89 L 1563.18 1330.01 C 1591.82 1363.99 1621.8 1397.31 1650.64 1431.17 C 1660.49 1442.75 1671.47 1453.75 1681.8 1464.91 C 1683.23 1466.44 1683.95 1470.61 1683.34 1472.34 C 1682.17 1475.59 1682.51 1474.97 1680.1 1476.26 C 1670.47 1475.1 1568.6 1351.13 1554.79 1334.41 C 1520.1 1291.48 1481.56 1247.94 1445.56 1205.81 L 1214.12 934.459 C 1170.02 881.991 1127.73 826.123 1083.52 773.635 C 1064.71 751.309 1040.92 719.806 1021.01 699.334 C 1006.02 715.455 907.878 840.802 897.128 841.966 C 895.44 842.148 895.221 841.463 894.007 840.479 C 891 830.676 920.495 801.122 927.838 792.531 C 951.123 765.487 974.053 738.139 996.623 710.496 C 1002.28 703.599 1013.51 686.39 1019.69 682.935 z" fill="currentColor" />
<path d="M 815.649 944.815 C 818.684 944.715 818.48 944.696 821.316 945.797 C 822.111 946.944 822.999 947.633 822.906 949.111 C 822.286 958.924 763.225 1024.2 753.757 1035.27 C 716.012 1079.71 678.56 1124.41 641.404 1169.35 C 623.884 1190.48 606.561 1210.3 589.27 1231.83 L 526.196 1309.43 C 519.171 1318.2 493.924 1350.97 486.375 1357.49 C 484.883 1357.55 483.092 1357.45 481.602 1357.41 C 478.477 1355.32 479.467 1356.72 478.526 1353.08 C 479.346 1349.38 480.861 1346.56 483.32 1343.64 C 499.41 1324.55 515.341 1305.17 531.114 1285.83 C 583.395 1221.11 636.485 1157.05 690.371 1093.66 L 767.342 1002.37 C 780.79 986.183 801.788 959.137 815.649 944.815 z" fill="currentColor" />
<path d="M 343.77 1504.26 C 347.348 1504.57 349.318 1504.33 352.036 1506.61 C 354.629 1513.31 349.331 1682.09 349.006 1702.89 C 367.967 1683.12 440.244 1575.08 446.629 1572.38 C 448.236 1571.7 447.79 1571.94 449.557 1572.72 C 454.395 1580.17 444.835 1591.77 440.733 1597.41 C 429.94 1613.31 350.069 1729.25 342.401 1732.63 C 338.534 1732.42 340.217 1733.01 337.094 1731.01 C 334.627 1716.65 340.299 1514.73 343.77 1504.26 z" fill="currentColor" />
<path d="M 1009.96 902.411 C 1019.65 901.973 1027.24 901.504 1036.97 902.277 C 1055.91 914.365 1088.26 967.113 1104.18 986.352 C 1122.18 1008.1 1139.78 1031.87 1158.61 1053.51 C 1168.45 1064.83 1184.32 1080.11 1189.72 1093.59 C 1190.04 1094.7 1188.76 1095.52 1187.76 1096.57 L 1185.21 1096.37 C 1176.97 1091.02 1084.47 975.607 1072.81 960.8 C 1066.32 952.751 1059.9 943.817 1053.53 935.67 C 1037.75 915.504 1037 908.08 1010.25 914.527 C 997.046 928.46 906.034 1044.68 897.577 1045.88 C 893.942 1044.96 895.315 1045.94 893.236 1042.96 C 892.835 1036.28 904.8 1024.45 909.357 1019 L 943.089 978.552 L 979.917 933.469 C 986.71 925.045 999.865 905.066 1009.96 902.411 z" fill="currentColor" />
<path d="M 1510.18 1473.29 C 1517.71 1476.52 1564.27 1535.09 1573.74 1546.22 L 1665.33 1653.16 C 1676.58 1666.31 1705 1696.03 1713.38 1713.34 C 1714.56 1715.78 1711.44 1720.06 1709.29 1722.32 C 1707.27 1721.62 1707.38 1721.58 1705.51 1720.5 C 1691.32 1695.97 1674.74 1680.28 1656.69 1659.07 L 1557.74 1542.98 C 1543.57 1526.36 1516.03 1495.87 1505.52 1479.48 C 1507 1476.38 1507.86 1475.88 1510.18 1473.29 z" fill="currentColor" />
<path d="M 1695.36 1493.73 C 1698.63 1493.65 1698.71 1493.53 1701.81 1494.37 C 1705.36 1498.36 1704.79 1529.36 1704.86 1536.53 L 1705.48 1590.66 L 1706.29 1644.04 C 1706.42 1652.11 1708.38 1670.34 1703.85 1676.22 C 1701.97 1675.28 1700.02 1674.76 1699.86 1672.12 C 1699.26 1662.79 1698.65 1651.65 1698.09 1642.47 C 1696.12 1611.99 1694.61 1581.48 1693.55 1550.96 C 1693.21 1541.36 1690.76 1499.97 1695.36 1493.73 z" fill="currentColor" />
<path d="M 1031.14 973.906 C 1034.66 976.578 1045.69 990.213 1048.97 994.147 C 1059.95 1007.27 1070.85 1020.47 1081.67 1033.73 C 1071.36 1036.49 1039.78 1046.22 1034.68 1054.93 C 1034.61 1058.64 1034.15 1056.89 1036.62 1060.2 C 1037.46 1060.53 1038.3 1060.86 1039.15 1061.19 C 1049.12 1058.37 1079.59 1045.73 1087.78 1042.43 C 1098.02 1052.8 1106.83 1063.78 1116.11 1075 C 1106.5 1078.31 1066.13 1090.81 1062.55 1096.8 C 1062.84 1100.8 1062.07 1099.18 1064.74 1101.92 C 1072.98 1104.07 1094.43 1094.47 1103.59 1091.04 C 1111.01 1088.28 1114.45 1086.41 1121 1082.18 L 1160.83 1127.42 C 1145.33 1131.59 1121.19 1139.17 1106.87 1147.07 C 1106.04 1147.53 1100.81 1155.07 1098.97 1156.86 C 1098.45 1156.47 1097.64 1155.91 1097.13 1155.44 C 1086.06 1145.5 1073.06 1126.36 1063.54 1114.37 C 1053.9 1102.24 1039.1 1087.29 1033.58 1072.73 C 1030.63 1064.93 1031.56 989.601 1031.14 973.906 z" fill="currentColor" />
<path d="M 1544.53 1582.8 C 1549.47 1582.74 1582.55 1624.97 1588.93 1631.69 C 1575.39 1638.21 1536.08 1650.21 1529.31 1660.98 C 1529.23 1664.51 1528.7 1663.01 1530.78 1665.69 C 1536.96 1665.44 1587.94 1646.77 1599.22 1643.33 C 1604.65 1650.71 1623.39 1672.28 1625.83 1678.19 C 1623.93 1680.72 1621.29 1681.33 1618.26 1682.56 C 1599.75 1689.97 1581.92 1698.94 1564.93 1709.37 C 1544.95 1684.62 1523.23 1661.28 1503.17 1636.59 C 1496.51 1628.4 1489.92 1620.16 1482.81 1612.36 C 1502.63 1603.19 1524.22 1592.33 1544.53 1582.8 z" fill="currentColor" />
<path d="M 490.363 1701 L 491.55 1701.65 C 480.024 1718.35 406.912 1807.17 394.686 1814.97 C 383.119 1822.34 348.654 1832.31 334.258 1836.72 C 336.728 1825.23 338.456 1813.6 339.431 1801.89 C 356.76 1796.34 367.266 1792.35 383.702 1784.66 C 392.345 1781.19 428.146 1766.83 429.737 1759.12 C 429.077 1757.85 428.958 1757.01 427.595 1756.33 C 416.662 1750.9 363.111 1774.25 348.788 1778.77 C 363.644 1764.88 369.457 1757.66 381.98 1741.62 C 403.227 1736.33 424.631 1724.96 445.265 1717.15 C 460.349 1711.45 475.418 1707.01 490.363 1701 z" fill="currentColor" />
<path d="M 1401.77 1411.97 C 1416.18 1425.89 1433.84 1448.25 1446.36 1464.13 C 1428.18 1469.99 1394.66 1478.79 1382.67 1492.23 C 1366.9 1475.93 1348.75 1455.12 1335.2 1437.02 C 1360.7 1428.43 1376.57 1422.63 1401.77 1411.97 z" fill="currentColor" />
<path d="M 1450.27 1472.85 C 1450.35 1472.84 1450.43 1472.82 1450.51 1472.83 C 1457.18 1473.69 1487.03 1511.66 1493.6 1519.43 C 1470.14 1527.54 1452.07 1535.39 1430.4 1547.4 L 1429.07 1547.55 C 1419.02 1538.07 1395.95 1509.09 1387.57 1497.67 C 1404.69 1493 1433.31 1480.2 1450.27 1472.85 z" fill="currentColor" />
<path d="M 1500.76 1529.1 C 1504.05 1530.87 1533.21 1567.84 1537.26 1573.15 C 1521.25 1579.4 1504.26 1587.82 1489.29 1596.44 C 1482.43 1600.39 1483.38 1603.84 1479.09 1607.49 L 1477.34 1605.29 C 1465.57 1591.73 1444.37 1568.48 1435.3 1554.26 C 1439.94 1552.52 1445.15 1551.19 1449.91 1549.61 C 1467.36 1543.83 1483.18 1534.52 1500.76 1529.1 z" fill="currentColor" />
<path d="M 1313.86 1310.86 C 1318.98 1311.78 1348.4 1348.55 1353.11 1354.23 C 1332.66 1363.94 1308.63 1370.52 1289.7 1383.34 L 1289.57 1383.34 C 1283.23 1380.11 1257.36 1345.2 1252.05 1338.21 C 1273.35 1330.76 1294.02 1321.61 1313.86 1310.86 z" fill="currentColor" />
<path d="M 1164.56 1133.95 C 1167.77 1135.32 1199.47 1172.03 1205.02 1177.76 C 1181.94 1188.51 1163.85 1191.53 1140.73 1206.61 C 1139.89 1205.96 1130.88 1194.88 1129.62 1193.37 L 1101.47 1159.76 C 1116.6 1156.17 1152.25 1143.14 1164.56 1133.95 z" fill="currentColor" />
<path d="M 1359.03 1362.03 C 1369.67 1373.43 1385.72 1391.91 1394.41 1404.45 C 1374.34 1414.29 1351.98 1417.82 1330.28 1430.98 C 1317.32 1417.7 1305.05 1403.77 1293.51 1389.23 C 1316.95 1382.09 1337.13 1372.71 1359.03 1362.03 z" fill="currentColor" />
<path d="M 1210.93 1186.86 C 1214.89 1188.94 1237.82 1217.77 1242.58 1223.52 C 1220.63 1231.57 1199.21 1239.97 1178.48 1250.89 C 1167.58 1238.45 1156.84 1225.86 1146.26 1213.15 C 1167.38 1203.15 1186.1 1199.68 1210.93 1186.86 z" fill="currentColor" />
<path d="M 1664.51 1727.18 C 1670.28 1731.8 1690.76 1757.49 1695.93 1764.13 C 1677.55 1771.84 1649.37 1779.14 1635.7 1793.37 C 1624.53 1781.2 1613.65 1769.19 1603.72 1755.95 C 1619.97 1746.03 1646.21 1735.31 1664.51 1727.18 z" fill="currentColor" />
<path d="M 901.001 1210.99 L 901.84 1212.36 C 890.748 1226.19 880.869 1238.77 868.42 1251.4 C 855.385 1253.72 756.318 1306.15 740.561 1314.2 L 739.688 1313.44 C 742.901 1308.56 764.752 1280.86 768.039 1279.31 C 810.743 1259.17 859.023 1230.71 901.001 1210.99 z" fill="currentColor" />
<path d="M 1280.78 1270.11 C 1284.63 1271.66 1305.98 1298.89 1309.88 1303.71 C 1291.91 1310.39 1262.45 1321.69 1246.02 1331.04 C 1241.67 1329.84 1221.27 1302.3 1217.55 1297.38 C 1233.41 1292.68 1265.53 1278.23 1280.78 1270.11 z" fill="currentColor" />
<path d="M 958.713 1142.11 L 959.083 1142.32 L 958.922 1143.64 C 951.419 1153.64 929.031 1180.25 919.345 1187.27 C 917.276 1187.34 911.036 1187.53 909.334 1188.23 C 870.268 1204.31 834.963 1227.2 796.648 1245.09 L 795.53 1244.8 C 796.593 1241.24 820.624 1212.3 825.67 1208.79 C 831.144 1204.97 846.257 1200.23 853.257 1196.62 L 958.713 1142.11 z" fill="currentColor" />
<path d="M 1247.96 1229.86 C 1253.49 1233.53 1270.68 1256.08 1275.23 1262 C 1253.62 1269.8 1232.32 1279.41 1213.04 1291.97 C 1209.96 1289.7 1189.35 1263.93 1185.45 1259.12 C 1201.87 1252.02 1233.08 1238.68 1247.96 1229.86 z" fill="currentColor" />
<path d="M 1633.32 1691.01 C 1638.39 1691.46 1653.8 1711.86 1658.59 1717.58 C 1636.9 1725.02 1616.31 1735.35 1597.38 1748.3 C 1588.95 1738.66 1577.93 1726.73 1570.71 1716.52 C 1592.63 1706.49 1610.18 1698.07 1633.32 1691.01 z" fill="currentColor" />
<path d="M 641.909 1518.05 C 642.52 1518.57 642.17 1518.17 642.389 1519.58 C 637.563 1525.33 615.031 1553.1 610.679 1555.29 L 607.488 1553.65 C 590.022 1555.68 522.523 1596.81 497.398 1607.94 C 496.035 1608.05 496.844 1608.11 495.031 1607.39 C 495.81 1604.92 523.156 1572.1 525.545 1571.1 C 563.273 1555.26 605.342 1535.92 641.909 1518.05 z" fill="currentColor" />
<path d="M 1695.75 1776.69 C 1699.18 1774.94 1700.33 1773.7 1703.79 1773.83 C 1708.84 1779.23 1719.91 1792.91 1724.17 1799.16 C 1710.61 1807.23 1671.52 1819.66 1669.19 1834.24 C 1659.61 1822.26 1648.99 1810.62 1639.76 1798.57 C 1656.98 1791.13 1680.02 1784.52 1695.75 1776.69 z" fill="currentColor" />
<path d="M 729.378 1411.95 L 730.474 1412.17 C 729.556 1416.05 707.738 1440.34 702.977 1442.23 C 665.007 1457.26 627.776 1481.1 590.3 1496.06 L 588.97 1495.77 C 589.379 1491.91 617.774 1460.33 622.338 1455.84 C 645.697 1453.95 673.687 1436.41 695.524 1426.9 C 706.755 1422.01 718.284 1417.11 729.378 1411.95 z" fill="currentColor" />
<path d="M 790.523 1339.92 L 791.535 1340.72 L 791.373 1342.6 C 783.083 1352.46 768.508 1371.61 759.67 1379.72 C 748.139 1385.83 730.582 1392.25 718.509 1396.5 C 694.447 1404.95 669.975 1421.6 646.974 1429.73 L 646.586 1428.69 C 650.521 1424.15 660.666 1411.21 664.494 1408.52 C 677.294 1399.55 694.724 1392.56 708.73 1384.75 C 735.89 1369.61 763.329 1354.91 790.523 1339.92 z" fill="currentColor" />
<path d="M 839.835 1283.95 C 840.175 1284.27 839.945 1283.98 840.49 1285.38 C 833.374 1294.77 820.426 1307.95 812.033 1317.85 C 805.539 1316.35 800.342 1316.59 794.224 1319.41 C 759.33 1335.52 724.451 1355.43 690.479 1373.52 L 689.743 1373.58 L 689.294 1372.68 C 697.445 1362.39 706.614 1350.87 715.669 1341.49 C 741.968 1335.89 774.324 1317.98 798.215 1305.61 C 811.972 1298.48 826.315 1291.42 839.835 1283.95 z" fill="currentColor" />
<path d="M 540.178 1640.04 C 540.791 1640.66 540.426 1640.19 540.728 1641.73 C 536.32 1647.61 519.315 1668.03 513.692 1671.24 C 490.298 1684.58 460.536 1689.95 435.594 1700.5 C 428.999 1703.29 422.15 1705.81 415.45 1708.26 L 414.673 1707.47 C 416.843 1703.06 429.455 1689.65 433.652 1684.86 C 460.521 1679.9 513.532 1652.52 540.178 1640.04 z" fill="currentColor" />
<path d="M 589.476 1579.95 C 590.248 1580.48 589.799 1580.07 590.369 1581.56 C 569.03 1609.56 553.165 1615.66 521.504 1629.85 C 500.499 1639.26 480.122 1649.45 458.317 1657.42 C 458.073 1656.78 457.829 1656.14 457.585 1655.5 C 462.171 1648.04 469.565 1640.05 475.636 1633.71 C 504.295 1628.49 561.919 1594.74 589.476 1579.95 z" fill="currentColor" />
<path d="M 1669.19 1834.24 C 1686.21 1833.27 1709.23 1819.61 1725.89 1813.91 C 1726.06 1823.29 1726.3 1831.83 1725.63 1841.23 C 1724.95 1844.17 1725.45 1844.99 1722.81 1846.26 C 1713.32 1850.84 1702.57 1856.64 1693.12 1860.96 C 1684.08 1851.77 1677.49 1844.13 1669.19 1834.24 z" fill="currentColor" />
<path d="M 676.066 1473.83 L 677.68 1474.57 C 676.336 1477.95 659.044 1498.64 655.198 1499.96 C 650.983 1501.4 641.55 1502.5 635.669 1504.9 C 606.658 1516.75 578.711 1531.38 549.535 1542.7 L 549.03 1542.66 L 548.815 1541.62 C 555.97 1534.44 560.799 1527.77 567.016 1519.77 C 599.974 1516.45 645.982 1489.55 676.066 1473.83 z" fill="currentColor" />
<path d="M 999.071 1095.13 L 999.467 1096.51 C 993.791 1103.89 986.48 1111.63 980.174 1118.62 C 954.427 1122.09 916.646 1144.16 893.571 1156.29 C 882.249 1162.15 870.748 1167.67 859.084 1172.82 L 858.58 1171.93 C 866.327 1157.16 884.344 1153.08 898.936 1145.69 L 999.071 1095.13 z" fill="currentColor" />
<path d="M 1012.08 1034.98 L 1012.94 1035.88 C 1013.93 1039.19 1014.4 1039.59 1013.4 1042.89 C 1009.71 1045.14 1004.15 1047.2 1000.05 1049.03 C 974.848 1060.33 950.811 1073.94 926.018 1086.08 L 924.992 1085.99 L 924.614 1085 C 929.43 1077.36 940.974 1065.12 947.564 1057.99 C 971.891 1056.32 989.696 1045.32 1012.08 1034.98 z" fill="currentColor" />
<path d="M 1013.18 1061.32 C 1013.72 1064.8 1014.06 1065.64 1013.12 1069.1 C 1009.35 1072.17 1002.81 1071.73 1000.04 1073.58 C 996.02 1076.37 991.84 1079.26 987.445 1081.43 C 954.559 1097.7 922.223 1113.96 890.267 1132.02 L 889.456 1130.73 C 891.352 1127.94 896.153 1120.58 898.679 1119.17 C 935.478 1098.69 976.319 1081.74 1013.18 1061.32 z" fill="currentColor" />
<path d="M 372.884 1842.12 L 373.753 1843.39 C 370.011 1849.11 362.959 1856.84 358.35 1862.3 C 349.421 1873 340.42 1883.64 331.347 1894.23 C 329.261 1892.05 332.022 1861.16 332.128 1855.51 C 346.374 1852.61 359.38 1847.33 372.884 1842.12 z" fill="currentColor" />
<path d="M 1725.92 1858.23 C 1727.32 1861 1727.42 1894.39 1727.72 1900.47 C 1723.89 1896.41 1720.08 1892.18 1716.3 1888.05 C 1710.66 1881.64 1705.2 1875.07 1699.92 1868.36 C 1709.28 1865.13 1716.85 1862.04 1725.92 1858.23 z" fill="currentColor" />
<path d="M 1011.73 977.991 L 1012.28 978.724 C 1014.03 992.852 1012.36 997.32 997.833 999.644 L 997.324 998.596 C 999.998 993.071 1007.77 983.297 1011.73 977.991 z" fill="currentColor" />
<metadata><recraft-signature>{"signed_by": "recraft", "signature_b64": "IfktsBEA8nboPckS+S3V67zAjyNvqypDMfqjQhj1LEZjX6Kil9+//XSiSr1rO7nlaUZcrMRyeiURhaPEDGnZDw==", "signing_algo": "Ed25519", "generation_timestamp": 1772065476, "identifier": "59bfad36-9169-40a3-8bc2-fb40226d35c5"}</recraft-signature></metadata></g></svg>