<svg xmlns="http://www.w3.org/2000/svg" viewBox="0 0 24 24">
<g transform="scale(0.011719,0.011719)"><path d="M 1214.8 66.5 L 1218.02 66.3943 C 1222.77 66.2416 1242.51 65.1111 1245.9 67.1279 C 1283.38 89.4252 1322.57 113.33 1356.04 141.436 C 1364.68 148.689 1367.49 154.93 1368.33 165.478 C 1370.24 189.495 1370.83 213.592 1371.78 237.634 L 1376.96 369.247 L 1390.82 769.671 C 1404.43 1121.52 1415.5 1473.47 1424.02 1825.48 C 1424.52 1849.01 1427.77 1856.8 1410.36 1874.76 C 1396.11 1889.44 1380.47 1903.01 1365.61 1917.09 C 1355.73 1926.45 1346.51 1936.84 1336.19 1945.7 C 1332.84 1948.57 1328.95 1951.75 1324.77 1953.22 C 1307.4 1959.33 1175.21 1956.95 1146.5 1957.25 L 583.805 1961.77 C 569.482 1961.73 558.765 1959.53 548.61 1947.48 C 529.402 1924.69 474.406 1893.65 471.252 1864.02 C 469.036 1843.19 468.073 1818.87 466.976 1799.27 L 460.804 1693.77 L 439.354 1297.93 L 405.447 702.995 C 395.699 534.661 384.696 366.049 379.293 197.519 C 378.837 183.273 380.241 167.773 390.572 156.934 C 399.431 147.64 476.345 87.3421 486.72 84.1344 C 498.873 80.377 517.808 82.38 530.82 81.8648 C 572.775 80.5934 614.752 80.2339 656.723 80.7864 C 731.185 81.0566 805.231 82.1586 879.657 84.4604 C 893.032 84.874 913.8 82.0105 927.576 80.8697 C 953.988 78.6647 980.418 76.6803 1006.86 74.917 C 1076.11 70.6289 1145.43 67.8226 1214.8 66.5 z" fill="currentColor" />
<path d="M 1230.47 83.4957 C 1241.8 83.4788 1268.5 106.958 1278.93 115.027 L 1341.07 162.715 C 1342.98 190.777 1343.63 220.703 1344.71 248.957 L 1351.03 415.184 L 1377.15 1183.16 L 1391.1 1617.91 L 1395.98 1774.7 C 1396.65 1796.35 1399.23 1831.38 1398.43 1851.5 C 1391.81 1860.65 1366.99 1880.09 1356.8 1888.61 C 1340.09 1902.58 1327.4 1913.74 1311.7 1929.06 C 1271.35 1930.12 1228.93 1929.71 1188.44 1929.98 L 879.269 1931.94 C 809.432 1932.94 739.588 1933.27 669.745 1932.93 L 612.778 1932.94 C 602.968 1932.99 586.66 1933.57 577.379 1932.61 C 553.715 1912.95 521.209 1881.84 497.898 1860.33 C 476.798 1297.8 446.058 735.681 405.69 174.208 C 417.426 161.671 438.56 144.742 451.842 133.571 C 464.964 122.548 477.592 110.951 489.69 98.8145 C 579.947 99.6466 672.612 98.8733 762.699 92.7163 C 853.397 86.5175 939.057 86.4792 1029.8 86.3651 C 1096.7 86.4616 1163.6 85.505 1230.47 83.4957 z" fill="currentColor" />
<path d="M 875.808 157.419 C 925.701 153.27 993.963 175.588 1019.27 221.04 C 1041.27 260.544 1043.52 326.767 1046.01 371.153 L 1051.7 478.235 L 1071.62 900.116 C 1075.97 985.325 1086.24 1070.41 1091.82 1155.3 C 1097.28 1238.2 1107.53 1323.44 1111.09 1405.98 C 1113.03 1406.63 1114.95 1407.33 1116.86 1408.07 C 1170.22 1428.97 1220.1 1483.64 1242.59 1536.04 C 1268.55 1596.58 1269.34 1664.97 1244.78 1726.1 C 1236.38 1746.93 1224.25 1769.81 1210.34 1787.34 C 1091.58 1937.03 824.082 1929.49 724.892 1761.23 C 716.072 1746.27 709.471 1729.07 702.805 1713.11 C 692.3 1711.95 643.152 1708.42 638.32 1701.53 C 642.539 1697.41 689.432 1697.28 698.616 1697.06 C 691.184 1660.1 690.291 1622.12 695.976 1584.85 C 680.237 1582.85 596.926 1577.9 590.961 1566.61 C 599.785 1559.97 683.888 1565.33 700.423 1565.21 C 711.756 1511.95 733.996 1475.35 765.932 1432.92 C 739.716 1433.15 585.58 1434.42 574.167 1415.17 C 582.396 1408.15 683.493 1415.34 701.015 1416.46 C 726.501 1418.1 752.879 1419.77 779.166 1418.12 C 787.357 1411.57 795.245 1404.92 804.23 1399.49 C 803.052 1387.17 802.393 1374.43 801.265 1361.94 C 756.123 1366.62 707.966 1359.35 664.25 1348.33 C 672.073 1346.98 678.047 1346.22 685.982 1346.32 C 723.819 1346.78 762.533 1348.8 800.109 1343.61 C 799.799 1322.39 798.403 1297.69 796.87 1276.62 C 749.616 1278.5 700.234 1278.98 652.989 1276.24 C 637.493 1275.34 579.549 1268.02 570.89 1257.23 L 571.423 1255.39 C 586.323 1247.29 701.336 1258.48 725.595 1259.61 C 746.332 1260.58 774.284 1261.06 796.472 1261.03 C 795.566 1241.76 794.833 1222.3 793.099 1203.1 C 756.865 1205.25 723.714 1203.06 688.174 1196.29 C 681.467 1195.01 668.25 1193.81 663.241 1189.94 L 663.547 1188.68 C 666.642 1187.07 669.728 1186.47 673.223 1186.39 C 713.1 1185.38 753.077 1188.62 792.934 1185.48 C 791.577 1161.13 790.079 1136.79 788.442 1112.45 C 729.372 1116.22 668.523 1116.81 609.759 1109.07 C 601.918 1107.75 559.282 1101.07 556.683 1095.52 C 566.351 1087.77 695.317 1096.33 717.648 1096.9 C 741.052 1097.46 764.466 1097.43 787.869 1096.81 C 787.114 1077.45 786.01 1058.1 784.558 1038.78 C 782.227 1039.25 779.876 1039.63 777.513 1039.9 C 743.017 1043.93 699.818 1040.85 665.939 1033.94 C 660.256 1032.78 647.867 1030.4 643.457 1026.94 L 643.819 1025.45 C 652.275 1021.07 698.557 1024.49 711.343 1024.79 C 735.633 1025.19 759.927 1024.31 784.124 1022.15 C 782.937 999.511 781.89 973.035 778.93 950.846 C 728.8 956.282 671.839 957.545 621.375 955.42 C 606.175 954.78 553.312 947.475 545.074 938.006 L 545.828 936.796 C 567.074 926.84 661.665 937.902 689.178 938.851 C 718.757 939.872 748.955 939.54 779.05 939.002 C 777.241 915.634 776.197 892.034 774.155 868.705 C 705.116 877.237 612.796 876.603 546.587 854.045 C 586.403 848.545 640.734 853.439 681.219 854.769 C 712.365 855.792 741.95 855.333 773.052 854.844 C 772.86 830.178 769.861 796.654 768.151 771.791 C 727.109 775.196 670.125 775.542 629.463 763.55 C 626.87 762.785 625.691 761.713 624.792 759.503 C 630.09 754.446 674.853 756.651 683.875 756.71 C 711.599 757.099 739.327 756.235 766.972 754.119 C 765.392 731.706 764.012 709.279 762.832 686.842 C 706.412 688.047 649.591 696.019 592.857 689.868 C 582.121 688.704 528.133 679.912 522.375 672.993 L 523.276 671.255 C 540.074 663.582 655.996 673.671 683.595 674.556 C 709.778 675.314 735.98 675.139 762.151 674.031 C 760.967 655.113 759.519 636.212 757.806 617.334 C 754.266 617.919 750.71 618.396 747.142 618.762 C 711.379 622.744 664.854 623.086 630.153 613.359 C 625.885 612.162 621.547 611.574 618.232 608.909 L 618.244 607.178 C 622.765 603.717 738.601 603.359 757.107 602.113 C 756.894 580.353 753.707 552.858 751.548 530.835 C 688.011 535.993 620.914 539.441 557.506 529.431 C 549.731 528.204 520.815 521.385 516.5 515.178 L 516.961 513.187 C 534.421 501.021 642.503 515.36 669.304 516.725 C 696.548 518.154 723.841 518.384 751.105 517.416 C 749.137 487.2 746.719 457.014 743.854 426.87 C 680.212 433.192 609.183 433.05 545.785 423.913 C 537.995 422.79 521.189 420.329 515.155 416.497 L 515.507 415.366 C 532.983 409.095 711.474 412.903 743.102 412.332 L 738.719 354.665 C 713.705 356.364 688.586 359.105 663.404 357.992 C 652.121 357.493 602.22 355.369 597.223 347.067 C 599.18 344.958 601.796 344.442 604.682 344.242 C 648.746 341.19 692.988 342.008 737.063 338.869 C 736.956 324.896 735.534 310.404 735.502 296.463 C 735.481 287.292 736.565 275.742 737.278 266.459 C 683.204 270.394 626.903 272.761 572.643 269.687 C 556.212 268.757 500.689 261.237 491.966 249.474 L 492.483 248.082 C 504.711 242.21 586.352 249.889 603.896 250.884 C 649.35 253.115 694.83 254.792 740.325 255.914 C 744.872 238.076 754.754 221.237 766.591 207.254 C 794.723 174.02 833.411 160.7 875.808 157.419 z" fill="currentColor" />
<path d="M 864.59 177.365 C 900.307 172.263 941.704 184.277 969.493 207.023 C 1010.21 240.352 1008.28 297.468 1013.61 345.479 C 1020.18 404.7 1023.93 464.493 1028.91 523.861 C 1035.75 603.463 1042.06 683.109 1047.86 762.794 C 1050.88 802.081 1055.34 845.509 1057.13 884.568 L 1072.35 1214.41 L 1077.46 1346.47 C 1078.43 1369.96 1079.13 1396.14 1081.06 1419.31 C 1164.71 1451.75 1209.16 1514.81 1224.53 1602.19 C 1239.09 1684.92 1208.53 1763.65 1141.96 1815.16 C 1100.58 1847.17 1059.85 1858.96 1009.24 1866.65 C 983.219 1870.2 956.83 1870.16 930.818 1866.51 C 863.563 1857.19 805.291 1824.65 765.575 1769.65 C 729.32 1719.44 716.665 1651.4 726.632 1590.7 C 735.352 1537.59 759.617 1483.89 796.939 1444.69 C 808.247 1432.82 821.824 1422.86 834.943 1413.31 C 835.363 1383.59 832.315 1344.39 830.759 1313.81 C 827.667 1249.95 824.011 1186.11 819.791 1122.3 L 779.527 520.621 C 776.014 471.743 772.043 422.9 767.615 374.096 C 764.851 343.254 760.97 312.768 761.543 281.757 C 762.658 221.36 807.449 184.479 864.59 177.365 z" fill="currentColor" />
<path d="M 863.936 198.926 C 874.708 196.336 883.996 196.845 894.914 197.585 C 906.596 199.033 917.516 200.279 928.667 204.36 C 1002.24 231.282 997.319 316.205 1002.01 379.62 L 1014.05 533.027 C 1031.68 769.3 1044.42 1005.91 1052.25 1242.71 C 1053.78 1280.34 1055.04 1317.98 1056.04 1355.63 C 1056.59 1375.5 1056.56 1405.55 1059.1 1424.71 C 1072.79 1431.68 1081.79 1442.65 1093.4 1452.09 C 1135.47 1486.15 1180.3 1527.17 1196.56 1580.61 C 1228.83 1686.71 1186.34 1796.9 1074.88 1829.32 C 938.687 1868.94 787.124 1836.04 743.548 1683.95 C 710.7 1569.31 757.342 1485.88 857.34 1429.1 C 849.55 1297.76 846.094 1167.24 838.567 1036.41 C 833.484 958.364 827.385 880.385 820.272 802.494 C 818.514 780.908 817.51 759.043 815.861 737.37 L 795.196 465.508 L 788.136 378.305 C 783.89 325.863 776.235 270.489 813.933 228.127 C 825.819 214.77 845.99 201.293 863.936 198.926 z" fill="currentColor" />
<path d="M 894.914 197.585 C 906.596 199.033 917.516 200.279 928.667 204.36 C 1002.24 231.282 997.319 316.205 1002.01 379.62 L 1014.05 533.027 C 1031.68 769.3 1044.42 1005.91 1052.25 1242.71 C 1053.78 1280.34 1055.04 1317.98 1056.04 1355.63 C 1056.59 1375.5 1056.56 1405.55 1059.1 1424.71 C 1072.79 1431.68 1081.79 1442.65 1093.4 1452.09 C 1135.47 1486.15 1180.3 1527.17 1196.56 1580.61 C 1228.83 1686.71 1186.34 1796.9 1074.88 1829.32 C 938.687 1868.94 787.124 1836.04 743.548 1683.95 C 710.7 1569.31 757.342 1485.88 857.34 1429.1 C 849.55 1297.76 846.094 1167.24 838.567 1036.41 C 833.484 958.364 827.385 880.385 820.272 802.494 C 818.514 780.908 817.51 759.043 815.861 737.37 L 795.196 465.508 L 788.136 378.305 C 783.89 325.863 776.235 270.489 813.933 228.127 C 825.819 214.77 845.99 201.293 863.936 198.926 L 864.761 200.621 C 848.924 204.418 835.723 213.108 824.891 225.136 C 781.261 273.584 797.407 348.583 803.092 407.796 L 816.316 542.339 C 819.409 572.894 823.62 610.159 825.168 640.426 C 847.086 636.351 984.302 627.262 996.515 636.517 C 997.719 637.431 997.483 638.617 997.69 640.004 C 997.125 641.97 996.726 643.191 995.28 644.719 C 984.677 655.924 846.513 650.182 826.145 649.705 C 830.187 713.209 836.647 776.407 840.331 840.564 C 851.438 1037.78 860.65 1235.11 867.967 1432.5 C 859.711 1440.74 847.913 1449.4 838.593 1457.1 C 813.264 1478.02 794.331 1498.25 777.725 1526.57 C 750.45 1572.88 751.16 1635 766.275 1685.21 C 806.085 1817.46 944.978 1858.28 1067.48 1822.52 C 1173.09 1791.69 1207.02 1681.1 1177.46 1583.88 C 1157.91 1519.57 1099.8 1459.38 1041.02 1428.55 C 1039.53 1367.37 1035.28 1302.57 1032.92 1240.95 C 1026.82 1040.4 1016.96 839.973 1003.34 639.788 L 991.925 438.799 C 989.794 398.071 988.563 356.604 983.763 316.121 C 976.941 258.583 946.393 211.059 887.221 199.596 C 889.628 198.342 892.149 198.13 894.914 197.585 z" fill="currentColor" />
<path d="M 863.936 198.926 C 874.708 196.336 883.996 196.845 894.914 197.585 C 892.149 198.13 889.628 198.342 887.221 199.596 C 878.043 199.08 874 199.353 864.761 200.621 L 863.936 198.926 z" fill="currentColor" />
<path d="M 923.231 1463.17 C 922.629 1447.09 920.801 1428.22 919.679 1411.97 L 912.59 1305.77 C 909.64 1257.74 909.646 1209.75 906.567 1161.56 C 900.631 1068.65 889.043 974.712 887.176 881.603 C 886.772 861.506 887.992 832.786 900.906 817.165 C 909.808 806.396 932.592 807.423 941.832 817.642 C 948.467 824.637 948.699 833.582 951.213 842.514 C 958.36 867.899 959.171 893.536 960.71 919.645 L 965.135 995.014 L 969.25 1071.46 C 970.054 1086.79 971.559 1103.18 970.916 1118.39 C 971.061 1125.08 971.067 1131.92 971.764 1138.58 C 980.985 1177.4 977.372 1238.26 979.423 1278.94 C 982.55 1341 989.109 1402.04 994.181 1463.73 C 1013.31 1466.05 1031.99 1471.16 1049.64 1478.9 C 1089.41 1496.2 1130.24 1531.86 1144.46 1573.09 C 1196.1 1722.9 1025.09 1828.81 897.878 1770.64 C 857.92 1752.71 827.009 1719.26 812.301 1678.01 C 788.594 1613.29 809.371 1549.56 856.977 1501.96 C 874.08 1484.86 900.721 1471.32 923.231 1463.17 z" fill="currentColor" />
<path d="M 969.494 1136.73 C 965.665 1131.97 964.277 1120.44 967.306 1115.29 L 968.153 1117.94 L 969.424 1118.84 L 970.916 1118.39 C 971.061 1125.08 971.067 1131.92 971.764 1138.58 L 969.494 1136.73 z" fill="currentColor" />
<path d="M 968.153 1117.94 L 969.424 1118.84 L 970.916 1118.39 C 971.061 1125.08 971.067 1131.92 971.764 1138.58 L 969.494 1136.73 L 968.153 1117.94 z" fill="currentColor" />
<path d="M 1122.45 1583.75 C 1123.46 1596.14 1123.78 1604.57 1119.6 1616.29 C 1118.29 1609.39 1118.61 1590.78 1122.45 1583.75 z" fill="currentColor" />
<path d="M 1105.1 1587.53 L 1107.36 1588.48 C 1110.72 1593.26 1109.09 1602.94 1108.68 1609.22 C 1105.89 1605.05 1105.49 1592.87 1105.1 1587.53 z" fill="currentColor" />
<path d="M 938.546 834.67 C 944.879 839.325 945.269 844.593 944.391 852.088 L 943.558 851.931 C 941.921 846.168 940.25 840.414 938.546 834.67 z" fill="currentColor" />
<path d="M 920.625 886.552 C 923.586 891.018 924.672 899.047 925.591 904.423 L 924.785 904.185 C 921.59 900.581 921.063 891.463 920.625 886.552 z" fill="currentColor" />
<path d="M 935.221 817.695 C 938.036 820.27 937.205 828.575 937.244 832.509 C 933.747 829.204 934.989 822.238 935.221 817.695 z" fill="currentColor" />
<path d="M 928.814 834.678 C 933.302 839.335 933.34 841.747 933.988 848.291 C 931.293 845.806 930.064 838.889 928.814 834.678 z" fill="currentColor" />
<path d="M 904.958 901.576 L 906.241 902.615 C 907.564 905.916 907.094 909.728 906.986 913.373 C 904.22 909.107 904.833 906.849 904.958 901.576 z" fill="currentColor" />
<path d="M 1727.27 925.9 C 1735.13 926.079 1744.96 931.874 1746.95 939.856 C 1748.21 945.575 1744.7 949.017 1740.83 952.342 C 1729.24 962.281 1718.39 973.01 1707.67 983.845 C 1663.41 1028.58 1615.67 1070.9 1577.37 1121.08 C 1571.68 1128.53 1558.07 1130.22 1550.21 1125.1 C 1540.11 1118.54 1532.56 1108.95 1523.95 1100.62 C 1514.51 1091.2 1505.17 1081.6 1495.79 1072.09 L 1477.58 1052.59 C 1484.62 1046.68 1496.46 1038.58 1504.22 1033.7 C 1525.92 1053.81 1541.62 1073.03 1561.32 1093.79 C 1604.71 1044.45 1653.41 998.979 1699.29 951.9 C 1707.33 943.654 1717.68 931.718 1727.27 925.9 z" fill="currentColor" />
<path d="M 1708.79 360.59 C 1713.31 364.109 1736.22 370.031 1730.35 379.673 C 1722.38 392.751 1707.22 405.537 1696.01 416.618 L 1635.54 476.235 L 1585.17 526.472 C 1576.4 535.282 1556.56 557.631 1546.41 561.236 C 1533.13 559.55 1497.5 520.65 1485.99 509.331 C 1478.77 502.414 1472.08 496.178 1465.51 488.583 C 1470.84 481.896 1479.9 470.689 1488.77 469.729 C 1496.82 473.097 1538.86 517.921 1547.05 526.427 C 1579.91 492.539 1614.34 459.173 1647.25 425.156 C 1668.37 403.318 1689.41 384.181 1708.79 360.59 z" fill="currentColor" />
<path d="M 1602.66 396.554 C 1612.83 396.131 1647.65 392.113 1653.68 400.519 C 1653.62 406.158 1647.87 409.465 1642.77 409.462 C 1576.11 409.42 1509.65 415.401 1442.96 413.856 C 1443.12 420.755 1443.52 427.839 1443.87 434.741 C 1446.34 483.434 1446.05 532.689 1450.46 581.242 C 1480.87 578.788 1523.44 578.946 1554.43 578.904 C 1597.03 578.765 1639.64 578.929 1682.25 579.395 C 1689.84 579.656 1706.96 579.753 1697.91 592.765 C 1694.36 594.447 1689.18 594.715 1685.13 594.751 C 1604.17 595.477 1523.1 592.869 1442.21 595.926 C 1433.4 596.648 1432.73 581.47 1432 574.9 C 1430.75 553.944 1427.96 527.941 1428.85 507.319 C 1429.8 485.215 1422.02 427.701 1428.47 408.954 C 1438.51 398.838 1490 399.874 1505.13 399.427 C 1537.63 398.304 1570.15 397.346 1602.66 396.554 z" fill="currentColor" />
<path d="M 1719.24 645.054 C 1724.02 646.019 1728.97 647.774 1732.71 650.994 C 1735.23 653.159 1736.95 656.127 1737.04 659.494 C 1737.16 663.479 1734.95 667.46 1732.41 670.396 C 1720.88 683.78 1705.78 694.968 1693.1 707.423 C 1654.38 745.443 1615.39 782.873 1577.73 821.958 C 1571.37 828.565 1563.19 838.782 1553.19 838.576 C 1540.33 838.31 1503.32 794.573 1493.66 784.408 C 1488.63 779.495 1478.42 771.712 1478.52 764.655 C 1481.12 757.849 1495.95 751.207 1502.93 747.762 C 1516.41 759.392 1542.68 791.419 1554.76 805.75 C 1586.8 774.306 1618.32 741.357 1650.32 709.94 C 1664.95 695.575 1703.24 650.715 1719.24 645.054 z" fill="currentColor" />
<path d="M 1522.37 968.468 C 1556.03 967.943 1589.7 968.012 1623.35 968.677 C 1631.42 968.866 1652.27 966.529 1660.03 971.169 C 1662.11 972.412 1662.14 974.995 1662.32 977.275 C 1660.14 979.333 1658.59 979.952 1655.48 980.038 C 1592.42 981.766 1528.34 980.112 1465.35 982.966 C 1468.31 1017.37 1468.71 1053.87 1470.02 1088.47 C 1470.78 1108.66 1470.69 1128.7 1472.7 1148.85 C 1518.42 1148.26 1564.15 1147.35 1609.86 1146.14 C 1643.23 1146.08 1677.51 1143.96 1710.65 1146.61 C 1717.4 1147.14 1720.79 1162.03 1701.67 1161.79 C 1672.74 1161.41 1643.65 1161.59 1614.71 1161.74 C 1561.55 1162.01 1508.4 1163.24 1455.29 1165.42 C 1454.74 1127.38 1453.53 1089.34 1451.65 1051.33 C 1451.26 1043.05 1446.73 978.923 1451.56 975.011 C 1462.66 966.032 1506.4 968.696 1522.37 968.468 z" fill="currentColor" />
<path d="M 1623.22 679.5 C 1632.38 679.205 1658.39 675.586 1661.2 685.819 C 1660.41 688.793 1660.63 688.778 1658.55 690.955 C 1649.03 694.726 1480.28 693.007 1453.8 693.237 C 1453.05 734.468 1457.26 777.442 1458.3 818.773 C 1458.66 832.761 1459.71 848.006 1461.15 861.903 C 1538.41 862.092 1619.25 864.803 1696.09 863.046 C 1702.07 864.568 1704.05 867.475 1701.63 873.454 C 1698.58 876.274 1693.33 876.695 1689.25 876.755 C 1608.13 877.944 1526.99 874.994 1445.9 877.68 C 1442.76 856.544 1434.45 696.139 1442.82 685.923 C 1450.62 676.407 1601.52 679.881 1623.22 679.5 z" fill="currentColor" />
<path d="M 1710.96 985.888 C 1711.77 985.814 1712.58 985.752 1713.39 985.701 C 1726.07 984.946 1729.21 989.057 1730.13 1001.36 C 1732.46 1032.6 1734.15 1064.59 1734.96 1095.87 C 1735.31 1109.02 1737.8 1139.74 1735.25 1151.49 C 1727.12 1154.48 1719.38 1152.72 1719.04 1142.95 C 1717.27 1091.67 1709.8 1036.8 1710.96 985.888 z" fill="currentColor" />
<path d="M 1704.4 703.199 C 1710.02 702.411 1719.8 702.064 1720.74 709.124 C 1727.38 759.486 1726.6 811.354 1730.48 862.095 C 1730.7 864.959 1729.85 867.161 1728.6 869.484 C 1724.37 870.098 1721.47 870.972 1717.48 869.582 C 1716.49 868.46 1715.72 868.085 1715.51 866.638 C 1710.71 834.013 1709.41 800.439 1706.97 767.569 C 1705.51 747.929 1702.95 729.177 1702.1 709.58 C 1701.94 706.075 1702.65 706.009 1704.4 703.199 z" fill="currentColor" />
<path d="M 1695.68 419.961 C 1709.73 419.307 1712.07 425.527 1713.14 438.879 C 1716.85 485.133 1719.21 531.946 1719.85 578.34 C 1719.89 581.388 1718.54 583.34 1716.8 585.647 C 1712.8 586.175 1712.66 586.084 1708.58 585.59 C 1703.31 581.941 1702.41 565.117 1702.67 559.217 C 1703.64 537.221 1688.53 434.71 1695.68 419.961 z" fill="currentColor" />
<metadata><recraft-signature>{"signed_by": "recraft", "signature_b64": "4x/HV00utoWKk4dX+F35hkjPMk1IazhHA+xTbH644WPb7cQUbSSscq33qGYtbHUqfdHA3HUi8+GqnLLrHtfmAA==", "signing_algo": "Ed25519", "generation_timestamp": 1772065419, "identifier": "1c0f0e1f-7c88-4932-b6e0-30a016cbbab2"}</recraft-signature></metadata></g></svg>