<svg xmlns="http://www.w3.org/2000/svg" viewBox="0 0 24 24">
<g transform="scale(0.011719,0.011719)"><path d="M 1023.24 141.601 C 1031.31 149.936 1104.21 303.944 1112.84 321.889 C 1179.56 458.344 1245.25 595.299 1309.91 732.74 C 1345.76 737.499 1381.76 743.809 1417.52 749.435 C 1487.48 760.292 1557.38 771.534 1627.21 783.161 C 1701.31 794.876 1775.21 807.74 1848.91 821.748 C 1880.36 827.515 1915.44 833.013 1946.4 839.744 C 1934.3 852.839 1917.1 868.636 1904.12 881.219 L 1837.27 946.529 L 1603.38 1172.69 C 1566.69 1207.82 1528.91 1241.84 1492.95 1277.73 C 1502.6 1326.13 1509.6 1380.62 1518.26 1430.15 C 1545.36 1585.16 1571.29 1740.37 1596.04 1895.77 C 1575.9 1886.72 1554.3 1875.32 1534.49 1865.22 C 1499.65 1847.49 1464.93 1829.53 1430.32 1811.34 L 1145.26 1662.13 L 1053.29 1614.26 C 1042.96 1608.97 1032.41 1602.48 1022.05 1597.79 L 611.816 1814.45 L 501.291 1871.9 C 485.926 1879.76 468.165 1889.43 452.59 1896.38 C 454.443 1875.03 461.071 1839.52 464.619 1817.38 L 488.886 1668.41 L 528.286 1436.24 C 536.881 1383.31 545.909 1330.44 555.369 1277.65 C 536.682 1260.67 518.018 1241.51 499.603 1223.88 C 458.016 1184.67 416.699 1145.16 375.654 1105.38 C 281.991 1016.82 189.056 927.501 96.8572 837.42 C 119.913 831.905 160.041 826.791 184.733 822.543 C 250.73 810.889 316.802 799.665 382.945 788.872 L 593.425 753.821 C 625.557 748.233 657.748 742.981 689.991 738.066 C 705.854 735.612 724.06 732.387 739.893 730.754 C 748.768 708.349 765.15 676.083 775.871 653.472 L 853.845 490.808 L 962.096 266.448 C 980.993 227.456 1002.4 179.436 1023.24 141.601 z" fill="currentColor" />
<path d="M 1023.48 199.477 C 1028.56 204.073 1085.08 324.687 1093.05 341.2 L 1219.13 602.469 C 1242.93 652.267 1268.75 704.997 1290.75 755.426 C 1313.43 760.403 1340.33 764.055 1363.32 767.664 L 1462.98 783.575 L 1710.74 824.771 C 1747.03 830.485 1783.23 836.785 1819.32 843.67 C 1842.36 847.897 1866.01 851.618 1888.66 857.708 C 1856.42 892.615 1815.89 929.444 1781.82 963.204 C 1677.93 1066.17 1570.14 1165.54 1464.53 1266.73 C 1467.86 1281.42 1470.47 1301.71 1472.99 1316.91 L 1487.03 1399.58 C 1499.75 1475.18 1512.08 1550.85 1524.01 1626.59 C 1534.13 1689.32 1546.01 1751.91 1556.39 1814.61 C 1558.3 1826.11 1560.49 1837.73 1561.5 1849.34 C 1535.2 1837.11 1499.98 1817.79 1473.41 1804.21 C 1366.15 1749.37 1260.3 1691.9 1153.29 1636.38 L 1066.05 1590.08 C 1052.65 1583.03 1038.49 1575.38 1024.64 1569.25 C 1021.53 1567.88 1022.01 1568.54 1018.48 1570.07 C 841.406 1664.74 663.737 1758.29 485.481 1850.7 C 492.029 1816.18 497.196 1776.42 502.771 1741.27 L 529.123 1584.4 L 568.075 1354.62 C 572.815 1326.68 579.695 1294.32 583.703 1267.11 L 246.883 945.538 C 215.833 915.721 182.045 884.792 151.792 854.551 C 353.409 822.758 555.442 785.264 757.051 754.551 C 765.687 739.343 777.597 711.644 785.409 694.891 L 826.651 608.334 L 955.572 340.421 L 995.842 255.918 C 1004.55 237.512 1013.71 217.169 1023.48 199.477 z" fill="currentColor" />
<path d="M 1023.68 244.718 C 1027.95 249.273 1040.69 280.308 1045.23 288.958 C 1067.04 330.581 1086.4 373.653 1106.76 415.999 C 1140.48 485.274 1173.58 554.848 1206.06 624.713 C 1229.22 674.501 1252.6 726.365 1276.72 775.644 C 1469.01 803.662 1660.84 834.668 1852.16 868.651 C 1828.64 890.359 1806.8 912.321 1783.72 934.273 L 1598.48 1110.98 L 1495.19 1208.11 C 1478.54 1223.82 1457.08 1243.19 1441.79 1259.53 C 1443.86 1279.81 1448.67 1304.03 1452.21 1324.5 L 1469.16 1423.35 L 1506.98 1654.13 C 1515.98 1707.78 1526.3 1760.03 1533.95 1814.11 C 1514.92 1805.03 1495.03 1794.08 1476.17 1784.2 C 1444.32 1767.72 1412.59 1751.01 1380.99 1734.07 L 1157.75 1614.61 C 1142.55 1606.37 1029.08 1543.09 1023.63 1542.24 C 1004.45 1551.37 981.553 1564.9 962.475 1575.3 L 855.677 1632.9 C 742.132 1694.26 627.921 1754.38 513.065 1813.24 C 515.951 1800.88 518.486 1775.61 520.748 1761.74 L 540.831 1642.76 L 606.167 1261.89 C 598.837 1252.29 575.898 1231.56 566.326 1222.49 L 491.182 1150.95 L 312.488 980.095 C 273.876 943.333 233.222 902.891 192.694 868.577 C 201.512 866.114 221.18 863.398 230.788 861.816 L 315.633 848.238 L 647.304 793.003 C 685.604 786.462 735.233 781.52 772.201 772.442 C 780.155 753.045 796.04 722.394 805.441 702.323 L 880.459 542.87 L 959.604 377.507 C 979.874 334.699 1001.77 286.218 1023.68 244.718 z" fill="currentColor" />
<path d="M 1024.48 476.763 C 1031.38 485.075 1058.07 550.684 1064.16 564.553 L 1139.56 734.941 C 1152.72 765.565 1166.17 796.062 1179.92 826.427 C 1186.72 841.53 1194.59 860.135 1202.18 874.573 C 1343.54 897.211 1487.8 914.258 1629.39 936.836 C 1575.45 983.19 1519.96 1039.36 1467.32 1088.13 L 1373 1175.27 C 1358.25 1188.9 1336.24 1208.12 1322.87 1222.21 C 1328.13 1247.35 1331.98 1272.17 1336.95 1297.17 C 1358.73 1406.89 1377.12 1516.95 1399.29 1626.61 C 1383.33 1617.04 1365.13 1608 1348.62 1599.04 L 1259.41 1550.33 L 1029.36 1423.53 L 1022.89 1420.23 C 1002.33 1433.27 980.773 1444.53 959.461 1456.23 L 860.934 1510.28 C 816.395 1535.12 771.623 1559.54 726.625 1583.55 C 703.051 1596.32 675.406 1612.23 651.496 1623.69 C 653.621 1605.78 658.701 1582.61 662.109 1564.6 L 680.841 1463.88 L 704.595 1335.1 C 711.277 1297.88 717.386 1260.01 725.596 1223.16 C 689.997 1188.51 652.062 1154.25 615.626 1120.33 L 514.22 1024.68 C 486.659 998.927 445.951 963.413 421.014 936.71 C 451.209 931.28 485.918 926.721 516.488 921.997 L 725.911 890.073 C 762.107 884.598 811.806 878.365 846.748 871.042 C 852.084 862.289 859.964 843.515 864.589 833.793 C 878.773 803.977 891.393 773.179 904.715 742.966 L 964.39 610.621 C 984.066 566.502 1003.81 520.273 1024.48 476.763 z" fill="currentColor" />
<path d="M 1023.3 533.698 C 1025.88 536.815 1036.96 565.603 1039.58 571.888 L 1080.91 669.894 L 1159.55 848.768 C 1167.35 866.656 1176.55 885.001 1183.74 902.784 C 1201.79 904.139 1222.92 907.495 1241.03 909.929 L 1317.11 919.827 L 1576.31 953.534 C 1571.34 958.515 1565.59 963.777 1560.22 968.364 C 1508.1 1012.88 1459.42 1061.24 1408.71 1107.19 L 1344.75 1165.51 C 1328.15 1180.53 1310.55 1195.79 1294.61 1211.41 C 1295.55 1225.67 1301.26 1250.09 1304.24 1265.05 L 1320.86 1348.84 L 1368.85 1580.53 C 1359.02 1576.57 1347.21 1569.05 1337.34 1564.15 C 1311.72 1551.43 1287.49 1536.39 1262.64 1522.6 C 1205.14 1490.69 1147.68 1457.89 1089.96 1426.52 C 1076.02 1418.94 1036.57 1396.38 1023.5 1391.95 C 955.439 1427.32 887.856 1466.27 820.495 1503.22 C 774.453 1528.48 727.853 1553.95 682.546 1580.38 C 707.288 1457.86 730.964 1335.12 753.571 1212.19 C 743.482 1204.16 729.253 1190.45 719.505 1181.53 C 692.395 1156.54 665.522 1131.3 638.889 1105.81 C 581.961 1052.38 523.879 1000.26 466.483 947.273 C 480.647 944.922 494.19 946.656 508.429 946.882 C 519.597 947.058 529.856 946.307 540.917 944.775 C 649.646 929.716 758.734 911.882 867.511 897.686 C 875.844 876.684 885.99 855.004 895.104 834.282 L 928.887 756.462 C 961.529 682.709 993.004 608.445 1023.3 533.698 z" fill="currentColor" />
<path d="M 1009.03 1112.17 C 1012.06 1118.92 993.865 1217.26 991.561 1232.26 C 985.379 1274.58 978.517 1316.79 970.977 1358.88 C 968.144 1375.14 965.903 1392.02 962.423 1408.06 C 907.759 1438.55 852.94 1468.76 797.969 1498.7 C 774.614 1511.44 745.009 1529.48 721.56 1540.12 L 720.613 1539.47 C 731.459 1520.32 745.763 1501.65 758.111 1483.41 C 829.594 1377.82 902.697 1273.28 972.187 1166.35 C 984.104 1148.02 997.368 1130.77 1009.03 1112.17 z" fill="currentColor" />
<path d="M 1531.66 972.219 L 1532.66 972.164 L 1533.2 972.937 C 1518.45 988.216 1494.83 1008.07 1478.64 1023.27 C 1434.26 1065.46 1389.16 1106.88 1343.34 1147.5 C 1319.3 1141.17 1286.74 1135.18 1261.97 1129.73 C 1210.04 1118.24 1158.17 1106.48 1106.36 1094.45 C 1093.02 1091.85 1061.71 1086.45 1049.55 1082.33 C 1066.77 1079.96 1089.87 1073.54 1107.17 1069.28 C 1135.77 1062.18 1164.44 1055.33 1193.17 1048.74 C 1305.85 1022.57 1418.68 997.064 1531.66 972.219 z" fill="currentColor" />
<path d="M 1039.17 1112.87 C 1041.86 1115.6 1054.3 1136.71 1057.65 1141.69 C 1079.88 1174.35 1101.91 1207.14 1123.73 1240.07 L 1331.37 1544.2 C 1316.18 1538.09 1290.92 1521.21 1275.19 1512.65 L 1089.48 1409.72 C 1079.13 1345.16 1068.21 1280.69 1056.73 1216.32 C 1050.82 1182.39 1043.9 1146.87 1039.17 1112.87 z" fill="currentColor" />
<path d="M 509.67 968.082 C 623.64 993.582 738.941 1022.08 852.698 1049.1 L 946.563 1071.95 C 962.867 1075.88 978.109 1080.02 994.642 1083.01 C 980.241 1085.08 957.55 1090.79 942.781 1094 L 701.366 1145.53 C 695.273 1138.86 684.095 1129.04 677.183 1122.56 L 631.247 1079.71 C 591.095 1042.09 550.567 1004.88 509.67 968.082 z" fill="currentColor" />
<path d="M 1033 598.615 C 1039.04 606.101 1061.93 662.678 1067.28 674.906 L 1130.03 817.503 C 1143 847.004 1155.21 875.923 1169.02 905.068 C 1146.24 933.197 1119.56 960.611 1096.01 988.362 C 1076.42 1011.2 1053.15 1037.05 1032.98 1059.45 L 1032.89 751.899 C 1032.87 703.955 1030.98 645.612 1033 598.615 z" fill="currentColor" />
<path d="M 997.248 1103.06 C 996.825 1110.72 736.212 1490.96 707.243 1532.18 C 707.474 1525.87 711.456 1506.79 712.803 1500.23 C 716.632 1481.9 720.349 1463.56 723.953 1445.19 L 743.695 1343.56 C 747.676 1322.46 751.444 1297.88 756.665 1277.28 C 772.918 1265.99 789.93 1252.31 806.352 1240.6 C 870.415 1195.35 934.05 1149.5 997.248 1103.06 z" fill="currentColor" />
<path d="M 1046.61 1100.75 C 1056.8 1104.97 1094.82 1136.32 1106.37 1144.89 L 1294.22 1284.17 C 1298.24 1313.43 1306.69 1352.13 1312.83 1381.47 L 1331.53 1474.64 C 1335.34 1493.32 1340.22 1514.51 1343.05 1533.19 C 1339.98 1530.62 1330.1 1515.82 1327.13 1511.81 C 1309.65 1488.2 1293.75 1463.46 1277.08 1439.39 C 1198.96 1327.4 1122.13 1214.51 1046.61 1100.75 z" fill="currentColor" />
<path d="M 1016.48 594.698 C 1017.78 601.017 1017.13 627.867 1017.09 635.591 L 1016.94 711.748 L 1016.93 1054.76 C 1003.9 1031.13 991.205 1006.84 978.5 983.007 C 953.939 938.185 930.928 890.053 906.128 846.394 C 932.62 783.895 959.781 721.681 987.608 659.764 C 997.365 638.002 1006.12 616.251 1016.48 594.698 z" fill="currentColor" />
<path d="M 1304.91 932.918 C 1313.1 932.615 1346.61 938.211 1357.27 939.281 C 1411.54 944.724 1468.17 955.289 1522.31 959.618 L 1226.73 1027.19 C 1166.37 1040.48 1106.88 1055.48 1046.69 1069.23 C 1055.39 1063.52 1065.28 1057.77 1074.69 1053.26 C 1152.54 1015.95 1227.27 970.36 1304.91 932.918 z" fill="currentColor" />
<path d="M 722.596 932.383 C 727.105 931.328 731.822 934.068 735.924 936.02 C 792.927 963.144 848.22 993.736 904.303 1022.63 L 962.675 1052.52 C 970.939 1056.76 988.413 1065.19 995.167 1070.18 C 947.394 1056.97 893.175 1044.93 844.768 1033.3 L 641.112 984.618 C 604.737 975.894 568.8 968.179 532.484 958.75 C 595.529 951.709 659.561 940.155 722.596 932.383 z" fill="currentColor" />
<path d="M 1031.97 296.61 C 1039.94 304.67 1094.1 422.203 1102.13 439.144 C 1157.92 555.093 1212.52 671.61 1265.92 788.678 C 1446.71 813.731 1626.97 842.412 1806.6 874.701 C 1794.88 879.451 1782.3 883.212 1770.22 887.077 C 1743.83 895.255 1715.94 901.807 1689.23 909.799 C 1677.42 913.334 1653.99 920.192 1642.52 922.532 C 1636.1 923.842 1607.28 918.936 1598.94 917.678 L 1532.93 907.811 L 1211.67 861.154 L 1074.17 551.259 L 1047.68 491.672 C 1043.27 481.776 1032.74 460.981 1032.51 450.923 C 1032.17 436.02 1032.88 418.312 1032.9 403.141 C 1032.99 367.628 1032.68 332.116 1031.97 296.61 z" fill="currentColor" />
<path d="M 1015.59 294.691 C 1016.19 295.286 1016.7 296.08 1016.88 296.919 C 1018.13 302.657 1017.21 453.125 1016 457.725 C 1012.38 471.395 1005.12 484.923 999.312 497.845 L 966.529 570.651 L 905.87 706.277 C 883.65 757.34 860.685 808.076 836.982 858.467 L 528.701 905.084 L 454.545 916.849 C 445.575 918.22 422.31 922.584 414.785 921.34 C 372.582 914.364 326.159 898.849 285.206 886.88 C 271.825 882.78 259.031 878.894 245.87 874.135 C 264.54 871.51 284.568 867.453 303.336 864.343 C 349.705 856.896 396.01 849.05 442.244 840.806 C 489.199 832.585 536.866 825.517 584.038 817.662 L 712.777 797.008 C 732.901 793.839 763.709 789.927 782.515 785.501 C 804.927 739.727 827.036 690.076 848.631 643.657 C 888.582 558.095 929.139 472.818 970.299 387.831 C 985.034 357.891 1000.04 323.5 1015.59 294.691 z" fill="currentColor" />
<path d="M 232.894 885.645 C 238.564 886.579 251.507 890.787 257.649 892.603 L 311.703 908.877 L 363.061 924.211 C 401.433 935.582 398.914 936.265 428.233 963.925 L 474.862 1007.95 L 709.603 1228.13 C 708.532 1238.96 704.362 1256.67 702.122 1267.93 C 698.228 1288.03 694.489 1308.17 690.907 1328.33 C 678.257 1399.53 665.103 1470.63 651.445 1541.63 C 648.046 1560.64 644.527 1579.62 640.89 1598.58 C 634.137 1633.73 633.914 1630.33 612.851 1659.3 C 598.702 1678.61 584.692 1698.01 570.82 1717.51 C 558.546 1735.56 545.996 1753.41 533.175 1771.08 L 595.009 1411.81 C 604.055 1360.33 612.133 1308.32 622.585 1257.1 C 605.202 1239.26 583.961 1219.98 565.744 1202.8 L 484.087 1125.55 L 345.606 993.395 C 307.814 957.37 270.025 922.568 232.894 885.645 z" fill="currentColor" />
<path d="M 1022.72 1437.89 C 1023.16 1437.88 1023.59 1437.78 1024.02 1437.85 C 1025.57 1438.11 1401.21 1642.94 1407.9 1648.68 C 1417.71 1657.1 1434 1683.19 1442.54 1695.12 C 1463.93 1725.19 1485.58 1755.08 1507.48 1784.78 C 1498.66 1778.86 1480.78 1770.28 1470.67 1765.02 C 1446.11 1752.41 1421.67 1739.56 1397.35 1726.49 L 1034.99 1531.22 C 1031.46 1529.25 1028.55 1526.78 1025.36 1524.3 C 1016.47 1528.75 1005.57 1535.89 996.14 1540.94 L 884.748 1601.17 C 772.876 1661.43 660.516 1720.79 547.677 1779.23 C 556.392 1768.19 566.428 1752.39 574.504 1740.61 C 587.952 1721.23 601.514 1701.92 615.188 1682.7 C 619.521 1676.59 638.064 1650.09 642.679 1646.58 C 655.804 1636.6 684.279 1622.86 699.39 1614.77 L 793.411 1563.99 C 869.408 1522.71 946.38 1477.95 1022.72 1437.89 z" fill="currentColor" />
<path d="M 1807.62 890.145 L 1808.97 890.03 L 1809.18 891.007 C 1799.57 902.487 1781.47 919.141 1770.22 929.841 L 1708.64 988.179 C 1644.45 1049.71 1579.74 1110.71 1514.53 1171.16 L 1456.29 1225.75 C 1448.88 1232.69 1430.58 1248.9 1425.17 1255.75 C 1447.02 1377.43 1467.81 1499.3 1487.53 1621.34 C 1495.41 1668.71 1502.51 1719.87 1511.92 1766.9 C 1499.76 1750.74 1487.77 1734.02 1475.81 1717.68 C 1457.81 1691.36 1432.46 1659.43 1416.25 1631.96 C 1412.21 1625.1 1406.74 1590.48 1404.9 1580.75 L 1388.42 1492.86 L 1361.94 1351.68 C 1353.99 1310.97 1344.65 1266.89 1338.23 1226 C 1348.01 1218.45 1358.88 1207.58 1368.16 1198.99 C 1386.72 1181.85 1405.17 1164.6 1423.51 1147.23 L 1575.1 1005.96 C 1583.77 997.753 1645.42 937.702 1653.35 934.882 C 1689.2 922.136 1736.89 911.611 1773.94 899.542 C 1783.63 896.387 1797.58 892.621 1807.62 890.145 z" fill="currentColor" />
<metadata><recraft-signature>{"signed_by": "recraft", "signature_b64": "PIfJZFayNHW+2/RJd/fdUHy3pKoWx+GVnzdW5tEw8HHhmZIlKSnN9LKEWpzyKW23PKPEq8Agk2R2CI8tVNBBAQ==", "signing_algo": "Ed25519", "generation_timestamp": 1772065373, "identifier": "26044bc5-16f4-4c26-bb82-e524a58905a8"}</recraft-signature></metadata></g></svg>