<svg xmlns="http://www.w3.org/2000/svg" viewBox="0 0 24 24">
<g transform="scale(0.011719,0.011719)"><path d="M 966.716 114.449 C 997.522 113.571 1028.35 113.778 1059.14 115.068 C 1069.93 115.45 1088.76 115.713 1098.85 117.932 C 1101.64 119.579 1102.48 122.403 1103.96 125.447 C 1124.65 126.143 1145.26 128.211 1165.66 131.635 C 1359.33 162.883 1533.97 285.879 1647.5 443.304 C 1696.86 511.493 1736.53 586.201 1765.37 665.291 C 1778.96 702.361 1787.87 737.104 1797.14 775.424 C 1830.85 914.784 1837.54 1052.91 1814.6 1194.6 C 1766.97 1488.76 1581.38 1770.23 1295.97 1878.69 C 1265.88 1890.36 1234.97 1899.78 1203.49 1906.88 C 1175.23 1913.32 1146.6 1916.9 1117.97 1921.18 C 1117.23 1921.29 1115.67 1922.26 1115.11 1922.8 C 1109.85 1927.89 1101.92 1926.39 1095.28 1927.31 C 1088.81 1927.87 1082.2 1928.28 1075.67 1928.84 C 1060.7 1929.3 1042.9 1930.85 1027.66 1931.56 C 832.768 1940.63 650.489 1882.76 507.291 1747.36 C 459.116 1701.81 423.254 1656.81 386.079 1601.53 C 275.965 1437.76 222.883 1256.73 215.609 1060 C 204.589 786.878 302.456 520.55 487.704 319.546 C 504.391 301.606 528.913 277.762 547.269 261.748 C 561.085 249.696 589.96 232.048 605.684 221.885 C 715.994 150.59 835.973 119.214 966.716 114.449 z" fill="currentColor" />
<path d="M 1010.47 140.581 C 1012.21 140.436 1013.75 140.313 1015.5 140.24 C 1202.98 133.887 1385.29 202.293 1522.32 330.401 C 1707.63 501.908 1799.96 745.493 1809.21 994.598 C 1817.02 1197.12 1761.06 1396.99 1649.22 1566.02 C 1537.66 1732.82 1367.64 1860.98 1166.84 1895.16 C 1138 1900.07 1111.07 1904.1 1081.75 1905.12 L 1079.77 1905.25 C 895.389 1916.9 714.473 1843.09 579.41 1719.91 C 396.7 1553.28 302.308 1315.39 287.31 1072.15 C 274.602 837.081 346.818 605.278 490.785 419.022 C 501.04 405.917 512.773 390.492 523.728 378.149 C 647.316 236.582 822.833 150.917 1010.47 140.581 z" fill="currentColor" />
<path d="M 1028.21 186.448 C 1029.87 186.375 1031.54 186.322 1033.2 186.29 C 1211.56 184.155 1383.39 253.306 1510.56 378.392 C 1704.31 566.016 1782.99 827.03 1767.76 1091.52 C 1745.61 1476.47 1463.86 1854.58 1054.26 1859.01 C 905.206 1859.6 780.816 1818.58 659.683 1730.53 C 484.876 1602.64 376.881 1398.21 339.87 1187.86 C 296.802 943.093 351.902 678.23 497.157 475.367 C 494.799 469.17 492.462 465.156 492.952 458.692 L 494.396 458.066 C 498.347 460.553 499.524 463.483 501.931 467.55 C 523.273 441.006 545.518 415.203 568.629 390.185 C 688.607 263.821 854.008 190.497 1028.21 186.448 z" fill="currentColor" />
<path d="M 1643.06 586.495 C 1651.34 594.889 1676.43 653.708 1681.93 667.227 C 1743.63 818.351 1764.96 982.926 1743.83 1144.79 C 1738.39 1187.82 1730.14 1230.45 1719.1 1272.4 C 1681.83 1408.64 1605.72 1547.51 1504.11 1646.88 C 1482.04 1668.46 1457.92 1688.37 1433.47 1707.19 C 1299.31 1810.47 1129.66 1856.32 961.743 1834.7 C 840.296 1818.82 732.64 1766.28 638.194 1689.65 C 470.779 1553.81 368.031 1328.49 347.818 1116.86 C 340.929 1043.46 342.611 969.509 352.828 896.5 C 355.006 859.967 375.24 773.816 387.875 739.528 C 398.902 753.343 410.121 775.933 418.6 792.072 C 448.352 848.826 472.851 908.238 502.061 965.27 C 512.656 986.785 525.579 1007.15 537.094 1028.1 C 567.116 1082.73 598.016 1135.76 631.26 1188.46 C 649.92 1218.05 657.987 1259.6 674.423 1290.38 C 691.694 1322.72 709.608 1354.6 726.706 1387.11 L 858.512 1639.17 C 875.557 1671.6 892.366 1704.16 908.938 1736.83 C 917.485 1753.7 926.46 1772.2 935.98 1788.63 C 937.033 1790.45 940.497 1792.58 942.351 1793.74 C 954.219 1792.02 979.027 1784.84 991.56 1781.71 C 1022.59 1773.9 1053.72 1766.45 1084.93 1759.38 C 1094.12 1774.74 1107.84 1770.8 1114.87 1755.91 C 1131.41 1722.15 1145.76 1687.1 1161.91 1653.18 C 1180.92 1613.23 1196.51 1571.44 1215.52 1531.66 C 1362.47 1218.63 1505 903.543 1643.06 586.495 z" fill="currentColor" />
<path d="M 570.136 417.989 C 618.746 447.065 668.243 478.79 716.632 508.63 C 743.227 525.03 777.745 544.808 802.904 562.085 C 820.668 599.022 844.236 641.063 863.335 678.07 L 980.913 907.712 L 1078.97 1099.11 C 1105.02 1150.84 1130.73 1202.61 1157.61 1253.99 C 1165.68 1269.41 1180.89 1272.77 1191.27 1256.68 C 1197.83 1246.5 1203.3 1234.51 1209.02 1223.73 C 1224.07 1195.56 1238.43 1167.01 1252.06 1138.12 L 1331.9 970.924 C 1364.8 900.424 1400.71 831.124 1434.01 761.186 C 1464.69 695.608 1496.12 630.383 1528.3 565.525 C 1542.61 536.068 1556.06 505.63 1571.18 476.782 C 1589.49 498.49 1609.55 529.326 1624.81 553.16 C 1613.07 576.559 1602.55 600.178 1591.24 623.739 C 1560.35 688.056 1530.17 752.714 1500.71 817.702 C 1486.52 851.849 1468.03 889.589 1452.29 923.482 L 1390.26 1060.05 L 1109.45 1676.51 C 1098 1652.59 1085.4 1628.72 1073.56 1604.9 L 934.558 1330.45 L 651.359 763.422 L 555.759 570.549 C 541.681 542.127 526.108 513.771 512.81 485.016 C 534.221 460.128 545.339 441.746 570.136 417.989 z" fill="currentColor" />
<path d="M 1011.98 206.424 C 1037.82 204.259 1078.47 206.435 1104.08 208.995 C 1232.52 221.309 1354.34 271.751 1453.88 353.839 C 1464.4 362.682 1488.81 382.624 1496.68 392.232 C 1455.78 411.674 1401.69 425.432 1359.68 444.158 C 1351.1 455.367 1337.31 481.324 1328.55 495.174 L 1283.22 567.77 C 1277.61 576.61 1267.26 589.899 1262.77 598.286 C 1248.29 625.315 1234.67 654.384 1219.98 681.099 L 1132.64 841.607 C 1113.69 876.217 1096.32 905.52 1078.52 941.317 C 1070.87 955.844 1057.4 987.557 1049.89 998.378 C 1026.82 959.508 1006.23 912.302 984.762 872.049 C 920.298 751.2 860.047 627.306 795.698 506.484 C 784.448 485.247 773.341 463.935 762.375 442.55 C 755.595 429.249 749.123 411.466 739.511 400.192 C 733.231 392.825 660.083 352.316 646.139 344.635 C 754.742 261.366 875.105 213.92 1011.98 206.424 z" fill="currentColor" />
<path d="M 431.593 777.583 C 448.05 785.055 663.464 920.974 668.994 927.276 C 678.682 938.316 692.137 971.306 699.113 985.386 C 706.132 999.552 713.91 1013.31 720.718 1027.59 C 713.478 1024.15 697.101 1013.59 689.504 1008.97 C 664.504 993.837 639.817 978.193 615.457 962.049 C 573.009 934.054 523.717 902.712 480.111 876.873 C 467.021 853.532 457.766 827.278 444.925 803.718 C 440.259 795.157 435.618 786.463 431.593 777.583 z" fill="currentColor" />
<path d="M 494.688 907.579 C 513.942 917.272 542.659 938.143 561.826 949.946 C 585.832 964.73 610.483 980.07 634.145 995.358 C 654.655 1008.72 675.373 1021.75 696.293 1034.46 C 709.255 1042.47 721.284 1050.38 734.861 1057.37 C 748.244 1079.21 758.411 1104.19 770.372 1126.88 C 775.724 1137.04 781.033 1147.27 786.115 1157.56 C 775.367 1153.21 732.8 1125.06 720.973 1117.51 L 608.121 1046.39 C 597.655 1039.76 548.616 1010.78 544.583 1004.49 C 526.827 976.811 508.758 937.663 494.688 907.579 z" fill="currentColor" />
<path d="M 564.062 1041.39 C 576.456 1046.25 624.868 1078.84 638.781 1087.54 L 746.027 1154.79 C 765.029 1166.69 784.136 1177.65 802.657 1190.33 C 813.471 1214.16 826.296 1237.24 837.986 1260.65 C 841.25 1267.19 844.456 1273.34 846.986 1280.23 C 841.166 1277.7 817.868 1262.61 811.326 1258.53 L 721.042 1201.11 L 650.393 1156.35 C 646.66 1153.99 623.188 1139.61 621.48 1137.47 C 607.846 1120.42 598.142 1098.82 586.731 1080.03 C 579.098 1067.45 571.271 1054.23 564.062 1041.39 z" fill="currentColor" />
<path d="M 1324.64 916.041 L 1326.14 916.196 C 1325.82 918.512 1298.6 976.937 1295.43 984.318 C 1284.34 987.485 1257.36 998.934 1244.64 1003.78 C 1191.54 1023.99 1139.42 1045.41 1086.18 1065.53 L 1078.39 1050.29 C 1072.61 1039.26 1066.48 1028.01 1061.37 1016.68 C 1070.63 1011.86 1088.24 1005.51 1098.45 1001.66 L 1155.54 980.184 L 1324.64 916.041 z" fill="currentColor" />
<path d="M 808.061 1505.29 C 823.255 1512.54 855.442 1533.82 870.359 1543.29 L 962.339 1600.74 C 982.831 1613.51 1006.23 1629.04 1027.35 1639.93 C 1029.92 1644.32 1032.18 1648.89 1034.49 1653.42 C 1047.25 1678.48 1060.94 1703.22 1071.65 1729.24 C 1045.04 1710.38 1017.48 1694.36 989.755 1677.37 L 912.383 1629.02 C 895.257 1618.37 869.523 1603.04 853.6 1590.32 C 850.243 1587.64 838.832 1564.31 836.108 1559.06 C 826.62 1541.21 817.271 1523.29 808.061 1505.29 z" fill="currentColor" />
<path d="M 716.467 1329.52 C 730.681 1336.48 747.215 1349.75 761.687 1357.92 C 822.587 1392.3 880.95 1436.17 942.333 1469.41 C 949.858 1485.21 957.798 1500.81 966.144 1516.19 C 970.061 1523.52 979.313 1539.76 981.499 1547.09 L 841.06 1460.02 C 816.038 1444.79 790.773 1429.82 766.112 1414 C 760.503 1410.41 758.063 1407.35 755.038 1401.31 C 743.016 1377.3 727.809 1353.73 716.467 1329.52 z" fill="currentColor" />
<path d="M 645.424 1175.53 C 651.328 1177.79 680.756 1197.48 688.338 1202.34 L 805.465 1276.01 C 820.63 1285.43 845.845 1303.32 861.021 1308.65 C 870.375 1326.23 889.555 1359.73 895.652 1377.19 C 883.106 1370.72 859.811 1354.17 846.156 1345.97 C 787.57 1310.47 729.459 1274.19 671.837 1237.13 C 668.124 1223.91 651.725 1187.99 645.424 1175.53 z" fill="currentColor" />
<path d="M 874.259 1627.32 C 888.131 1633.12 920.397 1656.36 935.058 1665.05 C 966.006 1683.4 997.598 1702.68 1027.86 1722.16 C 1038.55 1729.04 1053.17 1737.21 1062.73 1744.64 L 1038.22 1751.17 C 1008.6 1758.83 978.705 1765.54 949.201 1773.64 C 945.004 1766.68 941.55 1760 937.966 1752.71 C 917.279 1710.62 894.779 1669.5 874.259 1627.32 z" fill="currentColor" />
<path d="M 1503.45 552.241 C 1503.47 556.383 1484.3 593.339 1480.99 599.96 C 1456.31 608.051 1425.72 620.707 1401.2 630.392 L 1296.06 671.084 C 1274.83 679.38 1253.96 688.414 1232.53 696.133 C 1232.41 690.229 1252.4 654.892 1256.55 647.879 C 1276.15 642.728 1302.47 630.986 1322.24 623.708 C 1381.95 601.726 1443.41 572.409 1503.45 552.241 z" fill="currentColor" />
<path d="M 1358.69 851.14 L 1359.19 851.503 C 1358.77 855.909 1344.53 884.782 1341.87 890.4 C 1323.27 895.357 1285.9 911.189 1266.03 918.616 L 1076.31 990.968 L 1075.72 990.548 C 1074.82 986.916 1090.86 957.262 1093.74 951.835 L 1094.53 951.631 C 1107.08 948.493 1120.21 942.544 1132.6 938.245 C 1159.26 928.998 1185.09 918.819 1211.3 908.462 C 1260.24 889.13 1309.9 870.77 1358.69 851.14 z" fill="currentColor" />
<path d="M 1442.58 677.175 C 1442.23 682.511 1427.77 706.994 1424.53 715.037 C 1395.41 725.272 1367.37 737.067 1338.66 748.299 L 1224.51 792.094 C 1206.48 798.99 1187.49 808.05 1169.45 814.05 C 1169.21 809.667 1181.94 787.203 1184.94 778.11 C 1269.79 743.375 1357.06 710.985 1442.58 677.175 z" fill="currentColor" />
<path d="M 1529.25 492.955 C 1529.82 493.098 1530.24 493.599 1530.7 493.954 C 1530.08 498.599 1518.5 522.163 1515.69 528.114 C 1494.85 535.661 1475.02 544.358 1454.47 552.597 L 1374.88 583.605 C 1341.75 596.744 1306.84 611.125 1273.27 622.682 C 1271.55 621.643 1272.29 622.351 1271.52 620.052 C 1273.56 612.719 1289.26 591.506 1294.61 583.835 C 1300.66 582.061 1308.23 579.014 1314.17 576.617 C 1385.44 547.857 1457.5 520.412 1529.25 492.955 z" fill="currentColor" />
<path d="M 1413.12 737.383 C 1413.36 739.567 1399.96 766.812 1397.84 772.973 L 1220.04 840.373 C 1195.04 849.822 1164.37 862.972 1139.51 870.881 L 1138.89 870.621 C 1138.83 869.633 1154.23 841.962 1156.26 837.8 L 1313.87 776.463 C 1344.83 764.416 1383.33 750.702 1413.12 737.383 z" fill="currentColor" />
<path d="M 1384.95 797.196 L 1385.45 798.034 C 1380.34 807.385 1376.78 817.134 1372.07 826.776 C 1364.67 830.353 1354.04 833.983 1346.14 837.084 L 1281.52 861.865 C 1222.74 884.694 1166.29 907.539 1106.52 928.416 L 1105.89 927.848 C 1106.07 921.888 1120.09 899.519 1124.56 893.809 C 1144.84 891.517 1184.56 873.881 1205.17 866.109 L 1384.95 797.196 z" fill="currentColor" />
<path d="M 1468.86 622.05 C 1468.8 628.119 1457.37 648.827 1454.04 655.326 C 1385.76 679.502 1319.45 706.839 1251.62 732.054 C 1235.22 738.151 1218.86 745.134 1202.42 750.936 C 1201.47 746.488 1214.24 727.558 1217.38 722.224 C 1233.48 713.297 1275.77 698.294 1293.78 691.196 C 1352.35 668.69 1410.72 645.641 1468.86 622.05 z" fill="currentColor" />
<path d="M 431.393 626.305 C 466.564 646.535 500.846 670.595 535.974 691.058 C 543.245 695.292 549.158 698.994 557.275 701.427 C 563.504 712.222 567.731 723.336 573.131 734.469 C 578.184 744.888 583.522 755.007 588.576 765.473 L 578.698 759.609 C 541.37 737.841 504.975 712.827 468.093 690.241 C 451.228 679.913 434.002 668.898 418.258 656.95 C 422.094 645.99 426.462 636.716 431.393 626.305 z" fill="currentColor" />
<path d="M 602.045 384.811 C 606.944 387.115 618.504 394.439 623.539 397.403 L 667.462 423.231 C 697.676 441.19 732.591 460.161 761.017 479.787 C 768.079 496.106 777.566 513.056 785.392 529.462 L 775.826 523.02 C 724.928 490.145 671.111 459.563 619.864 427.076 C 607.765 419.405 595.536 412.261 583.803 403.972 C 590.047 396.977 595.354 391.373 602.045 384.811 z" fill="currentColor" />
<path d="M 410.438 675.437 C 428.977 685.566 453.717 702.693 472.097 714.523 C 501.074 732.941 530.214 751.1 559.513 768.999 C 572.279 776.836 591.972 789.819 604.921 796.03 C 608.257 803.084 624.018 830.374 622.5 835.441 L 619.565 834.096 C 571.689 804.684 524.071 774.854 476.717 744.61 C 451.841 728.712 426.034 712.97 401.667 696.466 L 410.438 675.437 z" fill="currentColor" />
<path d="M 682.481 1265.54 C 706.828 1278.65 734.014 1298.35 757.765 1312.81 C 791.284 1333.23 824.578 1354.41 858 1374.87 C 871.493 1383.13 898 1402.44 911.282 1407.09 C 917.762 1418.92 924.26 1429.03 929.695 1441.51 C 926.01 1439.94 914.692 1432.16 910.396 1429.36 C 896.31 1420.09 882.137 1410.94 867.879 1401.94 C 827.892 1377.49 788.087 1352.75 748.467 1327.71 C 732.849 1318.03 714.949 1307.66 699.595 1297.72 C 694.239 1294.25 685.572 1272.81 682.481 1265.54 z" fill="currentColor" />
<path d="M 777.866 1443.43 C 783.232 1445.74 795.388 1453.45 800.97 1456.83 C 817.863 1466.97 834.566 1477.43 851.069 1488.19 C 883.814 1509.02 916.898 1529.31 950.307 1549.06 C 965.378 1558.05 979.095 1567.38 994.744 1575.69 C 1001.81 1587.1 1008.13 1598.96 1013.66 1611.19 C 958.145 1580.74 905.733 1540.94 850.633 1509.37 C 834.397 1500.07 811.312 1482 793.935 1476.85 L 777.866 1443.43 z" fill="currentColor" />
<path d="M 395 714.564 C 401.543 716.59 426.082 733.345 432.872 737.757 C 459.581 755.246 486.381 772.595 513.272 789.801 L 604.679 846.615 C 616.134 853.815 628.852 861.62 640.102 868.974 C 644.385 871.773 652.692 889.819 655.472 895.448 C 646.981 891.684 611.523 867.323 600.884 860.968 C 537.784 823.279 476.301 780.868 412.804 743.721 C 407.328 733.748 396.559 723.809 395 714.564 z" fill="currentColor" />
<path d="M 1281.16 1008.18 C 1280.94 1013.81 1272.91 1026.77 1269.93 1031.82 C 1257.98 1038.06 1109.87 1097.06 1105.31 1096.75 L 1103.11 1093.52 C 1100.71 1089.84 1098.08 1084.73 1095.9 1080.8 C 1110.92 1074.61 1128.54 1068.38 1143.95 1062.39 C 1189.91 1044.91 1235.66 1026.84 1281.16 1008.18 z" fill="currentColor" />
<path d="M 1257.98 1057.05 L 1258.31 1057.32 C 1259.51 1061.07 1248.25 1082.39 1245.84 1087.4 C 1232.39 1091.41 1127.99 1132.7 1125.35 1132.64 L 1122.69 1129.01 C 1119.56 1124.16 1116.97 1119.39 1114.18 1114.35 C 1127.99 1109.22 1143.81 1102.06 1157.98 1096.48 C 1191.39 1083.53 1224.73 1070.38 1257.98 1057.05 z" fill="currentColor" />
<path d="M 1531.05 428.025 C 1534.78 431.064 1538.32 435.226 1541.61 438.819 C 1480.54 464.337 1410.57 488.883 1347.78 513.077 L 1337.3 516.718 C 1341.18 509.406 1344.47 503.102 1348.98 496.187 C 1407.83 471.951 1470.17 453.226 1531.05 428.025 z" fill="currentColor" />
<path d="M 631.777 357.125 C 659.076 369.983 695.454 397.168 725.771 412.689 C 731.236 423.227 737.31 434.246 741.611 445.254 L 730.454 438.633 C 692.784 417.93 654.923 392.838 616.254 371.632 C 621.176 366.823 626.712 361.853 631.777 357.125 z" fill="currentColor" />
<path d="M 1545.34 456.96 C 1549.32 456.629 1549 456.648 1551.67 458.139 L 1551.12 459.736 C 1546.64 462.829 1544.88 463.844 1542.03 468.461 C 1467.31 496.845 1391.88 527.317 1317.39 555.163 L 1313.03 556.431 L 1311.77 555.575 C 1312.33 551.56 1316.33 546.433 1318.72 542.815 C 1339.58 536.814 1366.89 524.972 1387.83 516.869 L 1479.78 482.259 C 1501.32 473.992 1523.7 464.374 1545.34 456.96 z" fill="currentColor" />
<path d="M 449.459 590.902 C 473.979 605.049 498.281 620.158 522.721 634.037 C 527.506 642.799 538.902 662.481 541.106 671.32 L 540.366 672.499 L 537.514 670.765 C 505.928 649.937 470.879 631.131 439.69 610.315 C 442.858 603.8 446.115 597.329 449.459 590.902 z" fill="currentColor" />
<path d="M 1213.09 1151.07 C 1213.34 1158.46 1201.01 1182.68 1197.14 1190.79 C 1186.14 1194.4 1170.65 1202.85 1159.8 1204.65 C 1157.1 1202.78 1157.64 1202.5 1156.02 1198.99 L 1147.13 1177.53 C 1168.45 1168.16 1191.34 1159.53 1213.09 1151.07 z" fill="currentColor" />
<path d="M 1510.22 407.15 C 1512.92 409.278 1512.93 409.074 1514.56 412.045 C 1510.85 418.949 1385.99 462.631 1369.52 468.976 C 1367.94 469.59 1368.88 469.36 1366.65 469.395 C 1366.44 466.413 1369.21 462.536 1370.83 459.687 C 1383.38 455.114 1395.96 450.586 1408.24 445.343 C 1441.55 431.131 1476.08 419.3 1510.22 407.15 z" fill="currentColor" />
<path d="M 1231.19 1111.07 L 1231.95 1112.46 C 1229.82 1119.08 1228.5 1121.89 1225.42 1128.15 C 1206.56 1133.63 1191.4 1139.6 1173.36 1147.28 C 1164.23 1151.16 1147.31 1158.45 1137.96 1160.92 C 1136.5 1157.94 1134.88 1152.96 1133.71 1149.71 C 1166.37 1135.74 1199.14 1124.7 1231.19 1111.07 z" fill="currentColor" />
<path d="M 475.613 542.953 C 481.122 549.123 505.599 596.945 509.609 605.596 L 497.512 598.058 C 484.718 590.195 469.897 581.521 457.707 573.047 L 475.613 542.953 z" fill="currentColor" />
<path d="M 1183.04 1215.3 C 1185.56 1217.51 1175.75 1233.8 1173.66 1236.16 L 1172.34 1234.77 C 1170 1229.73 1167.92 1224.67 1165.78 1219.55 C 1171.11 1218.54 1177.67 1216.69 1183.04 1215.3 z" fill="currentColor" />
<metadata><recraft-signature>{"signed_by": "recraft", "signature_b64": "Q01yIPlFSMPyr9JEPIUwKAlR0w+q/Xx8xzWkRCJTMr94DYNp/Es14xE5T4sFURMgpjkgy0rUhERN2BEcXg77BQ==", "signing_algo": "Ed25519", "generation_timestamp": 1772065383, "identifier": "a07d6464-918e-4e6d-8602-d752148074a4"}</recraft-signature></metadata></g></svg>