<svg xmlns="http://www.w3.org/2000/svg" viewBox="0 0 24 24">
<g transform="scale(0.011719,0.011719)"><path d="M 1019.28 190.04 C 1029.56 188.893 1032.45 191.971 1039.66 199.02 C 1060.12 219.041 1080.05 239.623 1100.32 259.843 L 1198.93 357.408 L 1476.41 633.925 L 1723.92 881.478 L 1809.15 967.353 C 1824.9 983.203 1840.93 999.184 1856.5 1015.25 C 1859.99 1018.85 1860.66 1021.56 1860.45 1026.33 C 1854.72 1036.19 1814.85 1074.41 1803.27 1086.03 L 1694.07 1196.29 C 1526.82 1365.65 1358.6 1534.05 1189.42 1701.48 L 1075.7 1815.16 C 1067.72 1823.12 1036.91 1855.23 1029.31 1859.59 C 1023.16 1860.78 1017.57 1860.04 1012.94 1855.54 C 998.873 1841.87 984.961 1828.02 971.162 1814.07 L 910.618 1753.35 L 711.139 1553.86 L 332.096 1174.14 C 288.384 1130.21 244.677 1086.11 200.627 1042.55 C 194.495 1036.48 187.799 1030.12 187.891 1021.49 C 189.755 1017.48 194.219 1012.74 197.349 1009.57 L 786.718 419.727 L 924.93 281.467 L 977.194 229.167 C 986.301 220.039 1008.99 195.554 1019.28 190.04 z" fill="currentColor" />
<path d="M 1091.54 469.442 C 1093.93 470.838 1114.1 491.61 1117.81 495.269 C 1146.9 523.59 1175.74 552.165 1204.33 580.992 L 1571.02 948.679 C 1558.96 972.746 1548.24 997.457 1538.89 1022.7 C 1535.55 1024.92 1532.66 1026.4 1530.44 1029.69 C 1531.14 1032.82 1530.36 1031.59 1532.68 1033.6 C 1534.48 1033.86 1540.27 1034.44 1541.05 1036.07 C 1550.85 1056.4 1560.49 1077.5 1570.15 1097.89 C 1562.5 1106.71 1547.28 1121.27 1538.68 1129.82 L 1483.13 1185.02 L 1305.5 1362.08 L 1171.56 1496.24 C 1145 1523.18 1117.53 1552.84 1090.4 1578.72 C 1073.21 1548.5 1044.78 1497.56 1030.13 1466.94 C 1029.04 1464.66 1026.07 1391.16 1025.6 1383.09 L 1013.62 1201.17 L 1005.32 1082.86 C 1004.75 1074.87 1004.38 1066.55 1003.59 1058.6 C 999.018 1012.91 1004.42 967.454 1007.62 921.54 L 1019.31 747.764 L 1025.65 643.456 C 1026.16 635.018 1027.55 595.56 1029.87 589.662 C 1044.64 552.009 1074.59 505.663 1091.54 469.442 z" fill="currentColor" />
<path d="M 1501.12 966.399 C 1507.83 968.609 1531.9 987.094 1539.38 992.721 L 1529.22 1004.41 C 1528.92 1004.51 1528.63 1004.63 1528.32 1004.7 C 1523.25 1005.87 1496.67 985.082 1491.34 981.271 C 1494.74 976.425 1497.92 971.38 1501.12 966.399 z" fill="currentColor" />
<path d="M 1048.63 640.888 C 1058.65 646.263 1076.61 660.076 1085.98 667.198 L 1074.95 681.181 C 1067.08 677.913 1047.46 662.29 1039.78 656.28 C 1042.85 649.903 1044.73 646.839 1048.63 640.888 z" fill="currentColor" />
<path d="M 1176.3 734.449 C 1188.6 741.729 1201.54 751.48 1212.83 760.29 L 1202.7 774.626 C 1194.5 770.434 1172.97 754.429 1165.7 748.298 C 1169.94 743.821 1172.79 739.484 1176.3 734.449 z" fill="currentColor" />
<path d="M 1524.57 1045.86 C 1527.73 1046.7 1534.02 1056.26 1536.48 1059.57 C 1526.01 1067.24 1511.7 1077.81 1500.59 1084.02 C 1497.78 1082.83 1492.06 1073.41 1489.77 1070.11 C 1501.32 1061.95 1512.92 1053.87 1524.57 1045.86 z" fill="currentColor" />
<path d="M 1113.45 688.41 C 1120.6 692.134 1141.67 708.443 1148.24 713.666 C 1144.99 718.879 1142.47 722.505 1138.82 727.426 C 1132.81 726.296 1109.3 708.126 1103.6 703.409 C 1106.9 698.819 1110.34 693.231 1113.45 688.41 z" fill="currentColor" />
<path d="M 1070.21 1368.9 C 1072.49 1369.97 1079.71 1378.4 1081.92 1380.82 C 1070.69 1389.9 1058.17 1398.77 1046.45 1407.19 C 1045.07 1407.95 1045.93 1407.66 1043.77 1407.61 C 1039.9 1403.19 1038.08 1398.52 1035.53 1393.21 C 1046.77 1384.62 1058.51 1376.84 1070.21 1368.9 z" fill="currentColor" />
<path d="M 1436.51 919.724 C 1447.34 926.238 1463.02 937.554 1472.38 945.829 C 1468.9 949.713 1465.18 954.294 1461.78 958.31 C 1457.51 956.357 1431.93 938.351 1426.13 934.436 C 1429.51 927.678 1431.58 925.081 1436.51 919.724 z" fill="currentColor" />
<path d="M 1240.08 781.355 C 1247.04 783.675 1269.47 800.073 1276.11 805.294 C 1272.74 811.069 1270.58 814.136 1266.57 819.489 C 1262.93 819.918 1235.5 798.354 1231.05 794.999 L 1240.08 781.355 z" fill="currentColor" />
<path d="M 1200.13 1275.69 C 1203.89 1277.5 1208.77 1284.88 1211.43 1288.48 C 1199.38 1297.04 1188.12 1305.91 1175.76 1314.21 C 1172.63 1313.5 1166.4 1304.93 1164.12 1302.09 C 1173.32 1293.89 1189.83 1282.75 1200.13 1275.69 z" fill="currentColor" />
<path d="M 1304.88 827.061 C 1316.63 834.517 1329.51 843.953 1340.7 852.226 C 1337.21 857.762 1334.56 861.257 1330.54 866.427 C 1319.46 859.632 1305.92 849.498 1295.5 841.689 C 1298.21 836.694 1301.7 831.802 1304.88 827.061 z" fill="currentColor" />
<path d="M 1369.79 874.03 C 1379.54 879.056 1396.61 891.944 1405.67 898.826 C 1402.5 903.486 1399.16 907.853 1395.76 912.342 C 1388.93 909.907 1366.43 892.934 1359.7 887.862 L 1369.79 874.03 z" fill="currentColor" />
<path d="M 1396.01 1135.88 C 1397.38 1136.82 1404.83 1147.67 1406.44 1149.9 C 1396.23 1158.19 1383.49 1167.77 1372.2 1174.08 C 1369.68 1172.07 1363.04 1164.4 1360.5 1161.59 C 1370.32 1153.56 1385.42 1142.79 1396.01 1135.88 z" fill="currentColor" />
<path d="M 1264.76 1229.84 C 1268.47 1231.01 1273.71 1239.26 1276.21 1242.74 C 1265.35 1251.22 1252.41 1260.6 1241.09 1268.43 C 1237.97 1264.46 1233.22 1259.35 1229.78 1255.45 C 1241.15 1246.52 1252.81 1237.98 1264.76 1229.84 z" fill="currentColor" />
<path d="M 1330.35 1182.75 C 1334.21 1183.98 1338.84 1192.59 1341.17 1196.3 C 1329.76 1204.81 1318.03 1213.58 1305.85 1220.92 C 1302.03 1216.26 1299.2 1213.41 1294.95 1209.19 C 1305.22 1200.01 1318.91 1190.46 1330.35 1182.75 z" fill="currentColor" />
<path d="M 1460.17 1091.08 L 1470.76 1105.17 C 1459.64 1113.47 1448.51 1121.82 1436.61 1128.97 C 1432.76 1124.96 1428.7 1120.25 1424.95 1116.09 C 1436.53 1107.52 1448.27 1099.19 1460.17 1091.08 z" fill="currentColor" />
<path d="M 1134.84 1322.87 C 1137.5 1325.56 1142.01 1332.07 1144.42 1335.36 C 1134.51 1343.74 1121.08 1354.07 1110.45 1361.3 C 1107.97 1357.59 1102.66 1351.77 1099.58 1348.2 C 1107.81 1340.93 1125.39 1328.3 1134.84 1322.87 z" fill="currentColor" />
<path d="M 954.638 470.738 C 961.841 478.184 1005.37 561.995 1012.83 576.317 L 993.77 877.995 C 990.764 924.313 986.396 972.258 984.481 1018.48 L 539.491 1018.14 C 527.515 1018.3 515.537 1018.37 503.56 1018.34 C 497.846 988.562 494.701 976.122 478.256 950.917 C 494.134 935.818 512.567 916.044 528.295 900.194 L 642.997 784.539 L 954.638 470.738 z" fill="currentColor" />
<path d="M 547.588 966.844 C 550.642 971.561 553.735 977.054 556.621 981.951 C 544.047 989.731 532.603 998.778 520.803 1007.69 L 519.286 1006.91 C 513.822 1001.05 512.863 1000.12 506.265 995.652 C 517.546 986.801 535.403 974.263 547.588 966.844 z" fill="currentColor" />
<path d="M 675.618 875.803 C 679.154 877.834 683.747 886.173 686.055 889.938 C 675.938 898.005 660.429 908.758 649.496 915.246 C 645.157 911.219 642.9 907.381 639.593 902.508 C 650.232 893.145 663.816 883.714 675.618 875.803 z" fill="currentColor" />
<path d="M 869.424 736.858 C 873.252 738.129 878.078 746.443 880.596 750.103 C 870.383 758.701 855.911 768.701 844.664 775.799 L 843.954 775.677 C 840.269 772.373 837.043 766.854 834.226 762.605 C 845.511 753.428 857.259 744.834 869.424 736.858 z" fill="currentColor" />
<path d="M 805.156 783.712 C 807.886 784.99 813.879 794.239 816.059 797.309 C 804.489 806.283 794.169 813.988 781.47 821.473 L 779.81 821.324 C 775.886 817.757 773.305 813.26 770.348 808.802 C 779.066 801.147 795.288 789.735 805.156 783.712 z" fill="currentColor" />
<path d="M 741.069 829.688 C 744.768 831.438 749.305 839.505 751.679 843.224 C 740.473 851.731 728.047 860.073 716.425 868.137 C 712.786 865.489 708.422 858.255 705.814 854.277 C 716.732 845.957 729.304 836.663 741.069 829.688 z" fill="currentColor" />
<path d="M 935.162 690.059 C 939.09 693.897 941.946 698.868 944.974 703.518 C 933.828 712.551 922.106 720.85 909.883 728.361 C 905.617 726.777 901.871 719.85 899.24 715.846 C 909.93 707.438 923.885 697.684 935.162 690.059 z" fill="currentColor" />
<path d="M 610.947 921.832 C 613.632 924.025 618.016 932.184 620.035 935.583 C 608.762 944.293 597.748 952.644 585.574 960.066 C 582.58 957.859 577.783 950.552 575.368 947.195 C 585.271 939.353 600.38 928.442 610.947 921.832 z" fill="currentColor" />
<path d="M 997.501 644.972 C 1000.62 648.708 1003.43 654.515 1005.82 658.91 C 997.469 667.132 984.269 675.606 974.323 682.288 C 969.528 676.731 968.382 675.005 964.736 668.611 C 975.299 660.087 985.895 652.031 997.501 644.972 z" fill="currentColor" />
<path d="M 602.888 1034.49 L 817.606 1034.23 C 872.598 1034.2 930.113 1033.38 984.901 1034.71 C 986.252 1068.93 990.045 1108.68 992.465 1143.21 C 999.232 1229.61 1004.81 1316.1 1009.2 1402.65 C 1010.12 1422.31 1013.86 1454.73 1011.65 1474.13 C 1011.05 1479.39 995.317 1507.1 991.798 1513.52 C 979.828 1535.67 967.575 1557.66 955.041 1579.5 C 944.609 1568.28 931.764 1556.08 920.789 1545.15 L 475.399 1094.6 C 492.748 1072.96 495.747 1062.41 501.733 1035.32 C 533.824 1034.08 570.568 1034.7 602.888 1034.49 z" fill="currentColor" />
<path d="M 520.937 1041.43 C 526.757 1044.04 551.462 1062.44 558.263 1067.38 C 555.52 1071.76 552.446 1076.23 549.568 1080.55 C 544.767 1080.95 517.095 1059.79 512.094 1055.66 L 520.937 1041.43 z" fill="currentColor" />
<path d="M 715.656 1179.35 C 722.785 1182.99 744.84 1199.96 752.61 1205.76 C 749.762 1210.06 746.003 1214.49 742.747 1218.56 C 737.639 1218.15 712.187 1197.94 707.207 1193.71 C 709.736 1188.63 712.657 1184.16 715.656 1179.35 z" fill="currentColor" />
<path d="M 587.859 1087.46 C 594.812 1090.85 617.958 1108.3 624.103 1113.26 L 614.745 1125.58 L 613.513 1125.79 C 605.718 1123.39 586.611 1108.77 580.012 1102.96 C 582.634 1096.35 584.233 1093.62 587.859 1087.46 z" fill="currentColor" />
<path d="M 845.788 1271.91 C 851.346 1274.25 875.59 1291.9 880.983 1296.34 L 871.03 1309.91 C 865.558 1307.87 842.39 1290.65 836.397 1286.25 C 839.418 1281.29 842.532 1276.71 845.788 1271.91 z" fill="currentColor" />
<path d="M 651.265 1133.48 C 657.548 1135.88 681.219 1153.72 686.913 1158.88 L 677.853 1170.69 C 673.13 1171.96 648.333 1151.98 642.735 1147.71 C 645.876 1141.62 647.209 1139.08 651.265 1133.48 z" fill="currentColor" />
<path d="M 909.55 1318.43 C 917.852 1321.57 936.844 1336.39 944.514 1342.21 L 935.265 1355.6 C 929.731 1354.02 907.203 1337.72 900.08 1333.12 L 909.55 1318.43 z" fill="currentColor" />
<path d="M 973.276 1363.5 C 983.885 1371.36 993.214 1377.32 1004.39 1384.39 C 1002.37 1391.22 1002.62 1398.17 997.527 1401.97 C 990.443 1398.31 969.491 1383.41 963.288 1378.14 L 973.276 1363.5 z" fill="currentColor" />
<path d="M 781.369 1226.49 C 788.793 1230.53 808.501 1246 815.49 1251.66 C 812.267 1256.85 810.214 1259.71 806.523 1264.48 C 794.86 1257.25 783.242 1248.78 772.116 1240.75 C 775.484 1234.7 777.211 1232.03 781.369 1226.49 z" fill="currentColor" />
<path d="M 344.392 1032.91 C 359.475 1032.73 374.931 1032.93 390.045 1032.96 C 402.876 1046.63 418.746 1061.24 432.246 1074.66 L 510.191 1152.95 L 781.598 1427.74 C 860.273 1507.26 940.649 1586.88 1014.54 1670.75 L 1014.71 1708.56 C 1010.6 1706.41 992.438 1691.61 987.933 1688.04 C 962.542 1668.18 937.63 1647.71 913.219 1626.65 C 795.622 1525.02 683.055 1417.71 575.921 1305.11 C 495.77 1221.69 408.863 1128.66 344.392 1032.91 z" fill="currentColor" />
<path d="M 1014.64 339.867 C 1016.98 342.759 1016.14 367.089 1016.11 372.44 C 1006.07 381.121 982.405 415.398 970.9 427.885 C 947.023 453.8 922.089 479.072 897.187 503.971 L 565.064 838.6 C 507.59 896.748 448.406 958.201 390.156 1015.23 L 346.358 1015.15 L 345.555 1013.83 C 355.829 994.996 378.257 965.841 391.572 949.107 C 418.624 915.114 446.805 882.036 476.069 849.929 C 571.245 744.958 670.765 644.011 774.369 547.35 C 851.203 474.504 931.382 405.268 1014.64 339.867 z" fill="currentColor" />
<path d="M 1659.04 1033.04 C 1672.98 1033.85 1690.48 1033.46 1704.84 1033.69 C 1601.67 1171.13 1485.31 1292.31 1363.35 1412.99 C 1309.3 1466.48 1251.5 1523.6 1195.07 1574.69 C 1151.26 1614.45 1106 1652.57 1059.36 1688.97 C 1050.45 1696.02 1041.24 1702.99 1032.22 1709.93 L 1032.01 1670.65 C 1041.34 1659.02 1053.55 1646.63 1063.37 1635.08 C 1100.98 1590.88 1142.09 1549.89 1183.29 1508.99 C 1225.8 1466.1 1268.66 1423.55 1311.86 1381.35 L 1659.04 1033.04 z" fill="currentColor" />
<path d="M 1032.71 340.332 C 1044.19 347.997 1056.17 359.045 1067.2 367.681 C 1092.67 387.604 1116.68 408.323 1141.24 429.279 C 1252.31 523.057 1358.38 622.6 1459.01 727.498 C 1533.7 804.712 1606.97 885.176 1671.87 970.947 C 1682.69 985.24 1695.31 1001.57 1704.45 1016.79 C 1689.64 1016.98 1674.83 1016.86 1660.02 1016.42 C 1590.48 943.977 1519.95 872.489 1448.45 801.98 L 1106.57 459.755 C 1079.16 431.877 1058.94 399.814 1032.24 372.708 C 1032.28 361.999 1032.55 351.059 1032.71 340.332 z" fill="currentColor" />
<path d="M 249.683 1033.02 L 324.237 1033 C 339.75 1056.01 354.779 1078.9 371.575 1101.01 C 398.81 1136.86 428.051 1170.08 458.037 1203.57 C 505.179 1256.02 553.528 1307.38 603.045 1357.6 C 672.813 1430.53 745.444 1500.66 820.767 1567.84 C 884.856 1626.1 944.918 1678.77 1015.02 1730.66 C 1015.22 1753.62 1015.29 1776.59 1015.23 1799.55 C 1008.28 1794.52 992.595 1778.23 986.185 1771.72 C 973.88 1759.13 961.389 1746.72 948.717 1734.5 C 879.816 1667.28 811.578 1597.86 743.454 1529.79 L 437.499 1224.26 L 329.708 1115.35 C 304.712 1090.28 272.198 1059.41 249.683 1033.02 z" fill="currentColor" />
<path d="M 1727.12 1033.36 C 1750.2 1033.32 1773.28 1033.45 1796.36 1033.73 C 1790.57 1041.58 1777.38 1054.14 1770.32 1061.71 C 1751.15 1082.28 1730.94 1101.84 1710.97 1121.59 L 1579.97 1253.43 L 1067.8 1765.56 C 1056.52 1777.1 1044.82 1788.22 1032.72 1798.9 C 1032.81 1776.51 1032.73 1754.12 1032.49 1731.73 C 1074.12 1698.29 1116.35 1667.52 1156.46 1631.89 C 1314.54 1491.45 1466.03 1341.6 1606.48 1183.5 C 1649.15 1135.48 1688.06 1084.28 1727.12 1033.36 z" fill="currentColor" />
<path d="M 1032.73 248.619 C 1043.6 257.223 1055.51 269.743 1065.38 279.727 L 1108.94 323.675 L 1278.58 492.898 L 1662.08 877.613 C 1689.63 905.619 1717.43 933.377 1745.48 960.881 C 1762.85 977.996 1784.37 998.526 1800.57 1016.51 C 1777.29 1017.35 1749.77 1016.65 1726.32 1016.36 C 1718.69 1004.57 1707.86 990.526 1699.55 978.705 C 1645.33 901.526 1581.02 831.262 1516.27 762.751 C 1409.18 648.191 1295.84 539.629 1176.78 437.56 C 1131.05 398.137 1081.34 354.253 1032.88 318.466 C 1032.66 295.184 1032.61 271.901 1032.73 248.619 z" fill="currentColor" />
<path d="M 1015.78 246.91 C 1016.77 248.995 1016.15 310.27 1016.2 317.41 C 1004.19 328.521 974.97 350.051 961.143 360.954 C 934.015 382.388 907.481 404.562 881.569 427.45 C 767.354 526.992 657.844 631.808 553.397 741.556 C 479.87 818.642 404.992 898.043 343.238 985.302 C 336.478 994.854 329.197 1005.32 323.563 1015.56 C 300.606 1016.16 275.262 1015.63 252.004 1015.81 L 251 1014.62 C 253.166 1011.43 286.231 978.214 290.98 973.4 C 334.282 929.499 378.075 886.067 421.5 842.224 L 837.615 425.614 L 955.15 308.369 C 976.629 286.878 995.314 269.675 1015.78 246.91 z" fill="currentColor" />
<path d="M 1022.16 1508.37 L 1024.15 1509.94 C 1027.64 1523.47 1029.16 1640.02 1025.49 1650.81 C 1024.31 1650.28 1021.81 1649.48 1021.76 1648.67 C 1020.49 1627.17 1018.75 1521.67 1022.16 1508.37 z" fill="currentColor" />
<path d="M 1020.53 386.796 C 1024.01 387.025 1024.12 387.064 1027.47 388.098 C 1030.98 392.771 1025.7 491.762 1024.69 505.855 L 1023.78 508.525 L 1022.87 507.785 C 1019.62 496.463 1020.58 404.056 1020.53 386.796 z" fill="currentColor" />
<metadata><recraft-signature>{"signed_by": "recraft", "signature_b64": "BoBmGJ9mvDqAEzNZVicKgUkDyzslBEBpLNWGOgZqqnUEVv6wrXDbdis0LwpwqSyr2GQ5UPG8SeDsTjnfZurDCA==", "signing_algo": "Ed25519", "generation_timestamp": 1772065345, "identifier": "4bf942c2-6356-4642-a12d-3e26ea79dd7c"}</recraft-signature></metadata></g></svg>